<?xml version="1.0" encoding="utf-8"?>
<svg viewBox="471.763 867.567 58.984 50.946" width="58.984" height="50.946" xmlns="http://www.w3.org/2000/svg" xmlns:bx="https://boxy-svg.com">
  <path fill="#8BFFE8" d="M517.021,908.886l-0.104-0.626l-0.176-0.599l-0.371-0.504l-0.24-0.611l-0.329-1.116l0.013-0.722 l-0.076-0.627l0.739-0.79l-0.104-0.612l-0.235-0.603l0.138-0.645l0.181-0.629l0.344-0.519l0.61-0.201l0.43-0.375l0.612-0.1 l0.396-0.434l0.796-0.321l1.104-0.001l0.296-0.499l0.06-0.706l0.432-0.401l0.743-0.431l0.434-0.344l0.363-0.438l0.007-0.648 l0.3-1.185l0.11-0.649l0.128-0.628l0.35-0.471l0.566,0.033l0.274-0.526l0.373-0.453l0.586-0.777l-0.056-1.225l-0.312-0.696 l0.109-0.788l0.279-0.536l0.46-0.977l0.394-0.463l0.271-0.566l0.395-0.44l0.443-0.361l0.395-0.5l0.335-0.899l0.178-0.787 l0.767-0.332l0.367-0.423l-0.359-1.178l0.787-0.733l-0.168-0.627l0.691-0.271l-0.247-0.584l-0.562-0.098l-0.673-0.431l-0.04-0.668 l0.768-0.849l-0.232-1.077l-0.494,0.342l-0.428,0.341l-0.629,0.056l-0.535,0.196l-0.473-0.302l-0.205-0.625l-0.724,0.09 l-0.606-0.059l-0.572,0.106l-0.332-0.535l-0.727-0.01l-0.512,0.062l-0.631,0.093l-0.51,0.146l-0.549,0.254l-0.455,0.688 l-0.513,0.587l-0.667-0.076l-0.583,0.19l-0.848,0.496l-0.451,0.301l-0.611,0.148l-0.088-0.675l-0.049-0.641L517,875.939 l-0.4-0.426l-0.543-0.291l-0.387-0.673l0.309-0.531l0.139-0.613l0.107-1.043l-0.89,0.513l-0.552-0.008l-0.608-0.06l-0.169,0.647 l-0.354,0.533l-0.559,0.204l-0.504,0.473l-0.599,0.676l-0.444,0.459l-0.948,0.51l-0.417,0.598l-0.709-0.448l-0.842-0.129 l-0.516-0.098l-0.629-0.27l-0.044-0.801l-0.683-0.137l-0.547,0.229l-0.945,0.055l0.115-0.628l-0.537-0.114l-0.542-0.276 l-0.532-0.315l-0.481-0.261l-0.521,0.173l-0.518,0.104l-0.572-0.041l-0.505,0.347l-0.179,0.57l-0.408,0.505l-0.63,0.38 l-0.414,0.344l-0.909,0.136l-0.667,0.488l-0.572,0.069l-0.452-0.3l-0.177-0.675l-0.396-0.429l-0.527-0.216l-0.587,0.175 l-0.491-0.274l-0.949-0.482l-0.519-0.106l-0.604,0.016l-0.113,0.601l-0.873-0.286l-0.262-0.576l-0.528-0.149l-0.155-0.689 l0.246-0.555l-0.459-0.355l-0.881-0.019l-0.105-0.62l-0.014-1.027l-0.535-0.083l-0.482-0.231l-0.562-0.178l-0.527-0.228 l-0.804-0.634l-0.408-0.453l-0.356-0.471l0.236-0.978l-0.666,0.264l-0.67,0.495l-0.164,1.186l-0.475,0.229l-0.506,0.272 l-0.424,0.589l-0.565,0.289l-1.066,0.131l-1.014,0.44l-0.761,0.53l-0.553,0.377l-0.73,0.308l-0.58-0.039l-0.543-0.004l-0.839-0.39 l-0.917,0.028l-0.455,0.423l-0.352,0.974l-0.376,0.791l-0.386,1.417l-0.162,0.621l-0.212,0.599l-0.575,0.697l-0.324,0.602 l-0.188,0.694l-0.342,0.755l-0.502,0.914l0.18,1.467l0.094,1.959l-0.073,0.67l-0.093,1.527l0.314,1.091l0.242,0.727l0.662,1.165 l0.523,0.632l0.546,0.697l0.234,0.297l0.058-0.051c0.068,0.128,0.135,0.253,0.2,0.383l1.179,1.438l0.25-0.087l0.069-0.503 l-0.982-1.609l0.235-0.21c-0.226-0.316-0.447-0.601-0.674-0.885c0.664,0.814,1.312,1.641,1.994,2.449l0.145-0.303l0.389,0.159 l-0.248-0.52l0.209,0.002l0.797,1.155l0.909,0.152l0.342-0.644l-1.216,0.125l-0.062-0.257l0.905-0.32l0.197-0.757l1.562-0.481 c0.303-0.786-0.057-1.806-0.165-2.624l1.033,2.227l0.542-0.064l0.481-1.635l0.481,0.075l0.402-0.756 c0.141,0.229,0.251,0.479,0.329,0.744l-1.303,1.55l0.417,0.84l0.22-0.133l0.271-1.002l0.486-0.294l0.084,0.459l-0.59,0.754 l0.721,0.539l-1.353,0.509c-0.2,0.68-0.265,1.359-0.821,1.831l0.593,0.343l-1.314,2.521c0.058,1.172,0.112,2.344,0.169,3.515 c0.98,1.319,1.533,2.604,2.4,3.974c-0.033,1.451,0.222,3.088-0.647,4.323l0.371,0.899c1.303,0.919,2.427,1.603,3.914,2.189 l0.116,0.538l1.193,0.117l0.191,0.285l0.727-0.269l0.482,0.281l0.081-0.172l-0.272-0.302l-0.792-0.037l-0.158-0.241l0.972-0.177 c0.111-0.447,0.064-0.894-0.135-1.317c-1.092-0.857-2.078-1.61-2.975-2.676c0.371-2.053,0.658-3.505,0.185-5.549l0.829-0.281 l0.145-0.308l-0.651-0.601l0.105-0.199l1.137,0.047l0.358-1.751l0.47-0.025l-0.199,1.358l0.177,0.368l-0.439,0.448l0.444,2.357 l0.555,0.033l0.251,0.338l0.767-0.379l0.005,1.121l0.624,0.821l0.306-0.067l0.469,0.388l0.104,0.644l1.185,0.248l1.063-0.501 l0.918,0.441c0.366-0.318,0.74-0.624,1.117-0.927l0.951,0.275l0.251-0.296l1.097,0.183l0.663-0.369l0.259,0.415l-0.473,0.846 l0.58,0.032l0.816-1.252l-0.088-1.354l0.74,0.041l0.16-0.619l0.476-0.138l-0.14-0.533l0.529,0.065l0.189,0.451l0.432-0.318 l0.605,0.241l0.023,0.415l0.305,0.118l1.053-0.573l1.275,0.158l0.643,0.519l-0.18,0.708l0.327,0.302l0.513-0.513l0.241,0.258 l0.843,0.029l-0.159,0.411l-0.784,0.016c-0.123,0.563-0.131,1.137,0.071,1.672l1.515,0.81l0.09,0.305l-0.711-0.253l-1.588,0.505 l0.104,1.507l0.415,0.604l-0.105,0.404l-0.371-0.218l-0.246,0.527h-0.84l0.865-0.844l-0.396-1.914l-0.707-0.017l-0.57,0.486 l0.008,1.128l-0.769,0.776l-0.462,0.056l-0.816,0.861l-0.766,0.171c-0.891,1.21-2.645,1.69-4.047,1.807l-0.229,0.291l0.41-0.077 l0.332,0.558l-0.39,0.444l-1.235,0.411l0.146-0.726l-0.963,0.04l-0.115-0.3l1.365-0.194l-2.086-0.346 c-1.469,1.437-1.096,3.912-2.395,5.457c1.174-0.1,1.891-0.332,2.985-0.799c0.912-0.391,1.718-0.131,2.655-0.359 c2.313-0.568,4.461-2.134,6.547-3.262c3.353-1.81,7.585-3.546,11.305-4.3l-0.014-0.312L517.021,908.886z"/>
  <text x="490.373" y="886.509" style="white-space: pre; fill: rgb(51, 51, 51); font-family:　sans-sarif; font-weight:bold; font-size: 28px;" transform="matrix(0.431795, 0, 0, 0.431795, 273.85672, 499.03183)" bx:origin="0.438 0.336"><tspan x="490.37298583984375" dy="1em">​</tspan>愛知県</text>
</svg>