<?xml version="1.0" encoding="utf-8"?>
<svg viewBox="589.002 533.732 63.936 101.556" width="63.936" height="101.556" xmlns="http://www.w3.org/2000/svg">
  <path fill="#FFE65E" d="M601.957,571.36l-0.045-1.016l-0.398-0.238l-0.095-0.777c0.959-0.508,2-2.71,2.342-3.746 c0.601,0.326,1.269,0.542,1.954,0.545l1.208,1.084c0.06,1.768,0.121,3.529,0.177,5.296c-0.529,0.98-0.86,1.746-1.807,2.372 c-0.795-0.394-1.576-0.685-2.473-0.507l-0.392-0.848l-0.97-0.011l-0.217-1.334L601.957,571.36z M604.853,624.583l1.605-0.039 l1.068,0.043l1.13,0.053l1.949,0.029l0.562,0.104l0.102-0.64l0.719-0.592l2.449-0.898l0.111,1.21l0.332,0.755l0.427,0.789 l0.778,0.052l0.541,0.005l0.566,0.168l0.462,0.43l0.851,0.421l0.598,0.048l0.351,0.533l0.597-0.146l0.55-0.008l0.469-0.412 l0.487-0.23l0.521,0.083l0.084,0.688l0.041,0.677l0.619,0.145l0.516,0.12l0.608,0.06l0.558-0.276l0.521-0.147l0.592-0.01 l0.541-0.009l0.523,0.122l0.418,0.511l0.573,0.137l0.426-0.322l0.118-0.725l0.502-0.316l0.512,0.293l0.539,0.188l0.614-0.111 l0.19,0.659l0.387,0.53l0.545,0.553l0.527,0.058l0.527,0.032l0.559-0.187l0.571,0.003l0.569-0.047l0.354,0.547l0.488,0.328 l0.293,0.557l0.205,0.595l-0.086,0.67l0.555,0.887l0.233,0.573l0.571,0.299l0.543-0.141l0.471,0.456l0.828,0.679l0.547-0.385 l0.534,0.083l0.575-0.181l0.76,0.994l0.744,0.36l0.459-0.323l0.552-0.152l0.437-0.42l0.611-0.102l0.338-0.497l0.935,0.286 l0.518-0.022l0.587-0.208l0.402-0.382l0.43-0.317l0.289-0.623l0.227-0.566l0.5-0.341l0.959-0.474l0.361-0.495l0.135-0.632 l0.465-0.474l0.893-0.536l0.883-0.108l-0.029-0.655l-0.32-0.538l-0.32-0.522l0.114-1.023l0.472-0.428l0.338-0.836l0.276-0.562 l-0.101-0.673l0.318-0.517l0.336-0.556l-0.527-0.204l0.037-0.7l-0.5-0.172l-0.55-0.138l-0.513,0.198l-0.503-0.126l-0.543-0.372 l0.118-0.589l0.229-0.639l-0.17-0.628l0.262-0.557l-0.77-0.455l0.469-0.998l0.246-0.547l0.254-0.604l0.529-0.165l0.436-0.431 l0.504-0.32l-0.568-0.481l-0.578,0.046l-0.615-0.195l-0.554-0.175l-0.024-0.683l0.083-0.598l0.425-0.356l0.361-0.474l-0.288-0.527 l-0.496-0.345l-0.974-0.538l-0.497-0.244l-0.548-0.228l-0.596-0.157l-0.482-0.394l-0.07-0.649l-0.496-0.482l-0.548-0.102 l-0.133-0.596l-0.108-0.682l0.373-0.975l-0.466-0.471l-0.513-0.195l0.037-0.613l-0.58-0.312l-0.183-0.589l-0.204-0.646 l-1.043-0.09l0.059-0.639l-0.104-0.93l0.512-0.209l0.615-0.225l0.112-0.641l-0.191-0.682l-0.278-0.602l0.294-0.537l0.807-0.785 l0.395-0.366l0.265-0.596l-0.347-0.53l0.194-0.559l0.237-0.546l0.138-0.594l0.451-0.384l0.049-0.728l-0.305-0.685l-0.519-0.373 l0.091-0.602l0.599-0.123l0.452-0.285l0.29-0.5l0.509-0.735l0.426-0.356l0.09-0.646l0.7-0.028l0.302-0.478l-0.019-0.654 l0.062-0.682l0.273-0.669l0.347-0.516l-0.102-0.64l-0.093-0.672l-0.21-0.598l-0.25-0.631l-0.347-0.521l-0.354-0.545l-0.521,0.126 l-0.313-0.537l-0.358-0.461l-0.153-0.652l0.499-0.15l0.455-0.311l0.354-1.02l0.282-0.514l0.335-0.505l0.374-0.411l0.319-0.58 l0.034-0.727l-0.485-0.293l-0.592-0.245l-0.532-0.255l-0.545,0.161l-0.47-0.282l-0.462-0.297l-0.12-0.623l0.037-0.617 l-0.172-0.652l-0.227-0.619l0.424-0.459l0.35-0.444l0.79-0.051l0.406-0.379l0.518,0.229l0.438,0.363l0.443,0.386l0.543-0.261 l0.857-0.352l-0.03-0.682l-0.458-0.64l-0.25-0.63l-0.521-0.684l-0.178-0.586l-0.321-0.537l0.139-0.887l-0.529-0.325l-0.181-0.79 l-0.01-0.824l0.05-0.621l-0.177-0.758l0.285-0.51l-0.271-0.557l0.062-0.676l-0.046-0.654l-0.288-0.577l-0.272-0.553l0.013-0.651 l0.734-0.666l0.479-0.594l0.035-0.631l0.016-0.623l-0.471-0.604l-0.091-0.734l0.237-0.543l0.201-0.613l-0.607-0.192l-0.564-0.825 l0.736-0.52l0.369-0.438l0.071-0.805l0.387-0.51l0.208-0.613l0.404-0.406l0.523-0.197l0.572-0.105l0.277-0.6l0.051-0.615 l0.541-0.273l-0.487-0.787l0.198-0.684l-0.009-0.743l-0.528-0.179l0.085-0.661l0.435-0.481l-0.048-0.643l0.159-0.717l0.205-0.549 l0.176-0.648l0.708-0.156l0.283-0.6l-0.2-0.6l0.009-0.611l-0.424-0.428l-0.167-1.029l-0.215-0.614l-0.269-0.979l-0.539-0.008 l-0.53,0.262l-0.582,0.008l-0.481,0.205l-0.562,0.276l-0.597-0.134l-0.514,0.062l-0.584,0.193l-1.039,0.358l-0.572-4.748 l0.312-0.854l-1.029,0.367l-0.537,0.019l-0.479,0.292l-0.517,0.516l-0.473,0.339l-0.254,0.531l0.026,0.683l-0.019,0.687 l-0.055,0.717l-0.527,0.092l-0.452-0.406l-0.868,0.297l-0.419,0.482l-0.327,0.527l-0.865,0.06l-0.069,0.622l-0.856,0.236 l-0.549,0.068l-0.541,0.057l-0.271,0.568l-0.541,0.458l-0.534,0.396l-0.511,0.296l-0.523,0.077l-0.49-0.333l-0.786-0.756 l-0.592-0.001l-0.491-0.344l-0.578-0.223l-0.387,0.439l-0.49,0.279l-0.52,0.049l-0.328,0.48l0.379,0.503l-0.471,0.589 l-0.519-0.048l-0.64-0.937l-0.121-0.646l-0.559,0.117l-0.568,0.097l-0.556-0.364l-0.585-0.173l-0.303-0.539l-0.535-0.152 l-0.588-0.098l-0.493,0.205l-0.439,0.314l-0.25-0.572l-0.253-0.556l0.13-0.587l-0.557-0.193l-0.782,0.48l-0.617-0.012l-0.432-0.41 l-0.449,0.359l-0.49,0.295l-0.557-0.03l-0.311,0.478l-0.396,0.917l-0.028,0.617l-0.282,0.497l-0.63,0.091l-0.492,0.193 l-0.559-0.284l-0.571-0.15l-0.555,0.1l-0.494,0.294l-0.597,0.112l-0.534,0.127l-0.699,0.415l-0.488,0.279l-0.559-0.151 l-0.54-0.004l-0.536,0.026l-0.541-0.263l-0.506,0.309l-0.559,0.045l-0.654,0.119l-0.782,0.096l-0.522,0.161l-0.742,0.042 l-0.438-0.477l-0.26-0.614l-0.486-0.32l-0.499-0.222l-0.515-0.046l-0.521,0.151l-0.399,0.416l-0.543,0.104l-0.416,0.394 l-0.279,0.767l0.076,0.688l-0.219,0.688l-0.529-0.3l-0.561-0.362l-0.879,0.486l-0.553,0.008l-0.498-0.28l-0.527,0.285 l-0.322,0.138l-0.428-0.007l-0.065-0.014l-0.044,0.1l0.649,1.02l1.729,0.652l0.451,0.887l1.021,0.215l1.017,1.002 c0.32,2.319-0.367,4.384-0.283,6.662c0.094,2.498,0.135,4.619-0.334,7.123c-0.455,2.403-1.676,4.574-2.602,6.837 c-0.977,2.369-2.623,4.013-4.969,5.087c-1.52-0.59-2.924-0.933-4.528-1.252l-0.286-0.619l-0.94,0.01l-0.001,1.283l0.739,1.115 l0.315-0.194l0.496,0.62l-0.206,0.234l-0.608-0.029l-0.205,0.261l1.203,1.897l0.908,0.355c0.322,0.998,0.525,2.037,1.238,2.837 c1.335-0.812,1.797-0.929,3.299-0.458l0.569-0.699l1.181-0.196l0.348-0.356l-0.824,0.102c0.365-0.409,0.733-0.826,1.102-1.236 c2.076-0.491,3.241-0.488,5.127,0.576l0.086-1.009c-0.929-1.06-1.807-2.229-2.898-3.126c-0.154-1.256-0.199-1.896,0.199-3.09 l-0.605-0.87c0.413-1.188,1.23-3.234,2.316-3.978l0.096-0.691l0.576-0.647c0.883,0.315,1.549,0.56,2.498,0.505l1.571,1.064 l0.019,1.203l0.545,0.824l-0.516,0.904c0.271,1.736,0.188,2.986-0.428,4.635l0.699,0.57c0.182,1.217-0.007,2.223-0.479,3.359 c-0.541-0.25-1.064-0.542-1.553-0.885l-0.417-0.84l-1.094-0.18c-0.446,3.215,3.329,6.293,4.32,9.189 c1.073,3.119,1.862,6.35,1.858,9.686c-0.001,3.414,0.035,6.838-0.421,10.229c-0.271,1.996-0.559,3.676-1.2,5.57 c-0.732,2.152-0.862,2.522-3.041,3.281l-0.501,1.029c0.212,1.511-0.057,2.316-0.53,3.785l0.131,0.43l0.498,0.229l0.27,0.491 c-0.102,0.898-0.035,1.977-0.865,2.539c0.199,0.752,0.135,1.508-0.406,2.066l0.188-0.02L604.853,624.583z"/>
</svg>
