<?xml version="1.0" encoding="utf-8"?>
<svg viewBox="264.665 124.176 46.006 39.366" width="46.006" height="39.366" xmlns="http://www.w3.org/2000/svg">
  <path fill="#FFE65E" d="M598.604,544.517l0.322-0.141l0.527-0.285l0.498,0.282l0.551-0.005l0.881-0.488l0.562,0.361l0.527,0.301 l0.22-0.688l-0.076-0.688l0.279-0.77l0.416-0.396l0.543-0.104l0.399-0.414l0.521-0.151l0.516,0.048l0.498,0.22l0.486,0.32 l0.26,0.616l0.438,0.475l0.742-0.044l0.523-0.159l0.782-0.096l0.651-0.118l0.561-0.046l0.507-0.307l0.54,0.263l0.537-0.028 l0.54,0.003l0.558,0.152l0.486-0.28l0.701-0.414l0.535-0.127l0.595-0.11l0.495-0.295l0.551-0.103l0.575,0.153l0.559,0.286 l0.491-0.195l0.63-0.091l0.282-0.498l0.031-0.614l0.396-0.918l0.31-0.477l0.557,0.031l0.49-0.297l0.449-0.359l0.433,0.412 l0.617,0.008l0.783-0.479l0.556,0.191l-0.131,0.59l0.252,0.555l0.252,0.57l0.439-0.312l0.492-0.205l0.587,0.098l0.538,0.152 l0.301,0.537l0.585,0.178l0.556,0.357l0.568-0.092l0.557-0.117l0.123,0.644l0.639,0.938l0.521,0.046l0.469-0.587l-0.378-0.503 l0.327-0.479l0.52-0.052l0.49-0.281l0.387-0.436l0.577,0.221l0.492,0.346l0.592,0.004l0.786,0.753l0.492,0.333l0.521-0.076 l0.512-0.299l0.533-0.394l0.541-0.462l0.273-0.566l0.539-0.055l0.55-0.068l0.856-0.24l0.07-0.622l0.863-0.056l0.327-0.529 l0.419-0.48l0.867-0.301l0.453,0.41l0.527-0.093l0.055-0.718l0.02-0.684l-0.027-0.679l0.255-0.535l0.473-0.338l0.517-0.517 l0.478-0.292l0.538-0.018l1.029-0.37l-0.312,0.857l0.574,4.746l1.037-0.356l0.585-0.192l0.511-0.063l0.6,0.135l0.562-0.276 l0.48-0.206l0.582-0.009l0.531-0.261l0.537,0.007l0.27,0.981l0.216,0.611l0.167,1.032l0.422,0.425l-0.007,0.613l0.198,0.598 l-0.281,0.602l-0.708,0.156l-0.177,0.646l-0.206,0.551l-0.159,0.717l0.05,0.646l-0.435,0.48l-0.086,0.659l0.529,0.18l0.008,0.742 l-0.197,0.685l0.486,0.784l0.49,0.418l0.383,0.65l0.51,0.391l0.511-0.051l0.917,0.132l0.5-0.137l0.505-0.204l0.431-0.445 l0.553-0.383l0.508-0.077l0.543-0.619l0.312-0.637l0.595-0.136l0.584-0.071l0.418-0.573l-0.517-1.126l0.459-0.286l0.871-0.721 l0.428-0.416l0.507-0.104l0.56-0.406l0.711-0.311l0.581,0.062l0.504-0.072l0.458-0.35l0.49-0.196l0.277-0.548l0.392-0.366 l0.642-0.738l0.515-0.224l0.318-0.554l0.575,0.235l0.507-0.252l0.286-0.553l0.217-0.593l0.896-0.544l0.473,0.369l0.518,0.191 l0.176,0.678l0.412,0.464l0.486,0.622l0.479-0.313l0.478-0.411l0.497-0.148l0.463-1.221l0.416-0.342l0.389,0.439l0.444-0.398 l0.527-0.316l0.405-0.434l0.594-0.085l0.604-0.134l0.529-0.199l0.562,0.09l0.473,0.246l0.758,0.321l0.414,0.388l0.579,0.2 l0.636,0.178l0.49-0.365l0.802-0.671l0.407-0.466l0.401-0.404l0.008-0.685l-0.159-0.63l0.191-0.685l0.427-0.421l0.518-0.186 l0.714-0.503l0.69-0.146l0.44-0.334l0.621-0.31l0.463-0.401l0.496-0.851c-0.061-0.085-0.129-0.157-0.189-0.246 c-2.234-0.84-3.245-3.127-5.508-3.908l-0.549-1.083l-0.895,0.189l-0.488,0.742l-0.869,0.393 c-6.297-3.688-7.838-14.334-9.774-20.723l-0.226-0.131l0.164-0.571l-0.488-1.851c0.664-1.866-0.619-5.221-0.71-7.321 c-0.037-0.862,0.382-2.48,0.185-3.226c-0.258-0.982-0.881-2.341-0.859-3.372c0.063-2.781,0.244-5.406,0.589-8.165 c0.247-1.949-0.07-4.68,1.269-6.266l-0.151-0.61l-0.386-0.346l0.544-0.276c-0.21-0.254-0.332-0.56-0.343-0.874l0.422-0.186 l-0.176-0.789c-1.546,0.613-2.039,2.689-3.367,3.576c-1.402,0.937-2.845,2.259-4.599,2.381c-1.466,0.101-3.323-0.335-4.628-1.033 c-1.141-0.613-3.009-1.722-3.633-2.879l-0.674-0.154c-0.479-0.519-1.139-0.998-1.332-1.696c-0.785-0.203-1.861-0.242-2.414-0.882 c-1.689,0.271-2.861,0.228-4.561-0.016l-2.344-2.019l-0.725-0.12l-0.615-0.763l-0.352,0.147l-0.438,1.521 c0.894,1.62,0.504,2.537-0.587,3.976l0.01,0.521l-0.527,0.378l0.046,0.598l-0.933,1.134l-0.348-0.036 c-0.194,1.521,0.352,4.816-1.068,5.817l-0.032,0.58l0.253,0.359l-0.214,0.815c0.312,0.834-0.188,1.88-0.382,2.709 c-0.158,0.674,0.336,1.335,0.166,1.96c-0.498,1.841-0.373,3.241-0.228,5.154l1.022,0.845l1.576-0.168l0.28-0.715 c0.612-0.456,1.269-0.826,1.618-1.534c0.539-0.289,1.174-0.392,1.771-0.298l1.398-0.957l1.41-0.043 c0.381-0.623,0.672-1.225,1.263-1.673c1.525-0.079,2.686,0.494,4.188,0.402c0.662-1.029,1.539-2.241,2.919-2.245l1.675-2.144 l0.096-1.138l-0.241-0.051l-0.091,0.747l-0.771,0.749l1.033-2.457l0.555-0.383l0.498-0.01l-0.271,0.348l0.959,0.146 c2.384,2.031,3.754,3.626,4.942,6.543c-0.313,1.715-1.103,2.924-1.255,4.665c-0.157,1.747,0.348,3.352,0.059,5.122 c-0.576,3.52-1.713,6.364-4.469,8.72l-1.227-0.162c-0.781-0.723-1.57-1.433-2.359-2.148c-1.5,0.376-2.756-1.075-4.389-0.745 l-0.123-0.14l0.432-0.342l0.024-0.868c-0.484-0.935-1.614-0.976-2.027-2.002c-1.349,0.003-1.858-0.148-3.058-0.78l-0.691,0.113 l-0.643-0.315l-0.117,0.327l0.512,0.33l0.129,0.612l-0.503,0.798l0.417,0.208l-0.412,0.495l-0.07,0.903l-0.83,0.495l1.498,0.444 c-0.012,0.667-0.141,1.303,0.256,1.879l-0.158,0.414l-0.471,0.213l0.224,0.762l-0.426,0.365l-0.202,0.68l-0.383,0.098l-1.69,2.224 c-0.911,0.303-1.848,0.74-2.803,0.843l-0.172-0.32l-0.425,0.184c-3.437-2.312-4.051-6.026-5.08-9.838 c-0.76-2.83-3.16-6.922-1.662-9.869c-0.543-2.23-3.48-3.011-5.433-3.052l-0.325,0.536l-0.776,0.07 c-0.235,1.147-1.463,2.63-2.72,2.611c-0.457-0.39-1.037-0.553-1.645-0.583c-0.516-0.996-1.668-1.069-2.066-2.131l-3.35-1.263 c0.381,0.879,0.059,1.639-0.166,2.506c0.479,1.585,0.822,3.092-0.001,4.664l-0.282,0.061l-0.542,0.932l-0.573-0.427l-0.178,0.257 l-1.219-0.111l-0.412,0.286l-0.038,0.765l2.123,0.21c0.531,0.446,1.057,0.896,1.579,1.351l0.881,3.326 c-0.633,1.209-0.26,3.237-0.258,4.546c0.007,1.438-0.242,2.876-0.396,4.306c-0.301,2.715-0.83,5.419-2.981,7.209l-0.517-0.172 c-1.699,0.249-2.568,2.3-4.046,3.089l-1.026-0.056c-0.811-0.632-1.334-0.889-2.32-1.183c-1.033,0.541-2.012,1.719-3.051,2.052 c-0.323,1.051-0.48,2.332-1.317,3.121l0.018,0.574l-0.663,1.025l-0.364,0.017l-0.534,1.639l-1.193,0.094l-0.559,0.986 l-0.561,0.147l-0.872,0.997l0.2,0.998l-0.182,0.231l0.68,0.622l2.635-0.296l0.82,1.131l-0.146,0.278l0.117,0.328l0.403-0.128 c1.23,2.064,0.796,5.148,0.991,7.447l-0.099,0.209l0.065,0.011L598.604,544.517z" transform="matrix(0.489363, 0, 0, 0.489363, -25.370417, -105.979934)"/>
</svg>
