<?xml version="1.0" encoding="utf-8"?>
<svg viewBox="264.665 124.176 46.006 39.366" width="46.006" height="39.366" xmlns="http://www.w3.org/2000/svg" xmlns:bx="https://boxy-svg.com">
  <path fill="#FFE65E" d="M 267.55 160.487 L 267.707 160.418 L 267.965 160.278 L 268.209 160.416 L 268.479 160.414 L 268.91 160.175 L 269.185 160.351 L 269.443 160.499 L 269.55 160.162 L 269.513 159.825 L 269.65 159.449 L 269.853 159.255 L 270.119 159.204 L 270.314 159.001 L 270.569 158.927 L 270.822 158.951 L 271.065 159.059 L 271.303 159.215 L 271.43 159.517 L 271.645 159.749 L 272.008 159.728 L 272.264 159.65 L 272.647 159.603 L 272.965 159.545 L 273.24 159.523 L 273.488 159.372 L 273.752 159.501 L 274.015 159.487 L 274.279 159.489 L 274.552 159.563 L 274.79 159.426 L 275.133 159.224 L 275.395 159.161 L 275.686 159.108 L 275.928 158.963 L 276.198 158.913 L 276.479 158.988 L 276.753 159.128 L 276.993 159.032 L 277.301 158.988 L 277.439 158.744 L 277.455 158.443 L 277.648 157.994 L 277.8 157.761 L 278.073 157.776 L 278.312 157.631 L 278.532 157.455 L 278.744 157.657 L 279.046 157.66 L 279.429 157.426 L 279.701 157.52 L 279.637 157.808 L 279.76 158.08 L 279.884 158.359 L 280.099 158.206 L 280.339 158.106 L 280.627 158.154 L 280.89 158.228 L 281.037 158.491 L 281.323 158.578 L 281.596 158.753 L 281.874 158.708 L 282.146 158.65 L 282.206 158.966 L 282.519 159.425 L 282.774 159.447 L 283.003 159.16 L 282.818 158.914 L 282.978 158.679 L 283.233 158.654 L 283.473 158.516 L 283.662 158.303 L 283.944 158.411 L 284.185 158.58 L 284.475 158.582 L 284.86 158.951 L 285.1 159.114 L 285.355 159.077 L 285.606 158.93 L 285.867 158.738 L 286.131 158.511 L 286.265 158.234 L 286.529 158.208 L 286.798 158.174 L 287.217 158.057 L 287.251 157.752 L 287.673 157.725 L 287.833 157.466 L 288.038 157.231 L 288.463 157.084 L 288.684 157.285 L 288.942 157.239 L 288.969 156.888 L 288.979 156.553 L 288.966 156.221 L 289.091 155.959 L 289.322 155.794 L 289.575 155.541 L 289.809 155.398 L 290.072 155.389 L 290.576 155.208 L 290.423 155.627 L 290.704 157.95 L 291.212 157.775 L 291.498 157.682 L 291.748 157.651 L 292.041 157.717 L 292.317 157.582 L 292.551 157.481 L 292.836 157.476 L 293.096 157.349 L 293.359 157.352 L 293.491 157.832 L 293.597 158.131 L 293.678 158.636 L 293.885 158.844 L 293.881 159.144 L 293.978 159.437 L 293.841 159.731 L 293.494 159.808 L 293.408 160.124 L 293.307 160.394 L 293.229 160.744 L 293.254 161.061 L 293.041 161.295 L 292.999 161.618 L 293.258 161.706 L 293.261 162.069 L 293.165 162.404 L 293.403 162.788 L 293.643 162.993 L 293.83 163.311 L 294.08 163.502 L 294.33 163.477 L 294.778 163.542 L 295.023 163.475 L 295.27 163.375 L 295.481 163.157 L 295.752 162.97 L 296 162.932 L 296.266 162.629 L 296.419 162.317 L 296.71 162.251 L 296.996 162.216 L 297.2 161.936 L 296.947 161.385 L 297.172 161.245 L 297.598 160.892 L 297.808 160.688 L 298.056 160.637 L 298.33 160.439 L 298.678 160.286 L 298.962 160.317 L 299.209 160.282 L 299.433 160.11 L 299.673 160.014 L 299.808 159.746 L 300 159.567 L 300.314 159.206 L 300.566 159.096 L 300.722 158.825 L 301.003 158.94 L 301.251 158.817 L 301.391 158.546 L 301.497 158.256 L 301.936 157.99 L 302.167 158.17 L 302.421 158.264 L 302.507 158.596 L 302.709 158.823 L 302.946 159.127 L 303.181 158.974 L 303.415 158.773 L 303.658 158.7 L 303.885 158.103 L 304.088 157.935 L 304.278 158.15 L 304.496 157.956 L 304.754 157.801 L 304.952 157.589 L 305.243 157.547 L 305.538 157.481 L 305.797 157.384 L 306.072 157.428 L 306.303 157.548 L 306.674 157.705 L 306.877 157.895 L 307.16 157.993 L 307.472 158.08 L 307.711 157.902 L 308.104 157.573 L 308.303 157.345 L 308.499 157.148 L 308.503 156.812 L 308.425 156.504 L 308.519 156.169 L 308.728 155.963 L 308.981 155.872 L 309.331 155.626 L 309.668 155.554 L 309.884 155.391 L 310.188 155.239 L 310.414 155.043 L 310.657 154.626 C 310.627 154.585 310.594 154.55 310.564 154.506 C 309.471 154.095 308.976 152.976 307.869 152.594 L 307.6 152.064 L 307.162 152.156 L 306.924 152.519 L 306.498 152.712 C 303.417 150.907 302.663 145.697 301.715 142.57 L 301.605 142.506 L 301.685 142.227 L 301.446 141.321 C 301.771 140.408 301.143 138.766 301.099 137.739 C 301.081 137.317 301.286 136.525 301.189 136.16 C 301.063 135.679 300.758 135.014 300.769 134.51 C 300.8 133.149 300.888 131.864 301.057 130.514 C 301.178 129.56 301.023 128.224 301.678 127.448 L 301.604 127.149 L 301.415 126.98 L 301.681 126.845 C 301.579 126.72 301.519 126.571 301.514 126.417 L 301.72 126.326 L 301.634 125.94 C 300.877 126.24 300.636 127.256 299.986 127.69 C 299.3 128.148 298.594 128.795 297.736 128.855 C 297.018 128.905 296.11 128.691 295.471 128.35 C 294.913 128.05 293.998 127.507 293.693 126.941 L 293.363 126.865 C 293.129 126.611 292.806 126.377 292.711 126.035 C 292.327 125.936 291.801 125.917 291.53 125.604 C 290.704 125.736 290.13 125.715 289.298 125.596 L 288.151 124.608 L 287.796 124.549 L 287.495 124.176 L 287.323 124.248 L 287.109 124.992 C 287.546 125.785 287.355 126.234 286.821 126.938 L 286.826 127.193 L 286.568 127.378 L 286.591 127.67 L 286.134 128.225 L 285.964 128.208 C 285.869 128.952 286.136 130.564 285.441 131.054 L 285.426 131.338 L 285.55 131.514 L 285.445 131.913 C 285.598 132.321 285.353 132.833 285.258 133.238 C 285.181 133.568 285.422 133.892 285.339 134.197 C 285.095 135.098 285.157 135.784 285.228 136.72 L 285.728 137.133 L 286.499 137.051 L 286.636 136.701 C 286.935 136.478 287.257 136.297 287.428 135.95 C 287.692 135.809 288.002 135.759 288.294 135.805 L 288.979 135.336 L 289.669 135.315 C 289.855 135.01 289.997 134.716 290.287 134.496 C 291.033 134.458 291.601 134.738 292.336 134.693 C 292.66 134.19 293.089 133.597 293.765 133.595 L 294.584 132.545 L 294.631 131.988 L 294.513 131.964 L 294.469 132.329 L 294.091 132.696 L 294.597 131.493 L 294.869 131.306 L 295.112 131.301 L 294.98 131.471 L 295.449 131.543 C 296.616 132.537 297.286 133.317 297.867 134.745 C 297.714 135.584 297.328 136.175 297.253 137.027 C 297.176 137.882 297.424 138.668 297.282 139.534 C 297 141.257 296.444 142.648 295.095 143.801 L 294.495 143.722 C 294.112 143.368 293.726 143.021 293.34 142.671 C 292.606 142.855 291.992 142.145 291.192 142.306 L 291.132 142.238 L 291.344 142.07 L 291.355 141.646 C 291.119 141.188 290.566 141.168 290.363 140.666 C 289.703 140.667 289.454 140.593 288.867 140.284 L 288.529 140.339 L 288.214 140.185 L 288.157 140.345 L 288.407 140.507 L 288.471 140.806 L 288.224 141.197 L 288.429 141.299 L 288.227 141.541 L 288.193 141.983 L 287.786 142.225 L 288.52 142.442 C 288.514 142.769 288.451 143.08 288.645 143.362 L 288.567 143.564 L 288.337 143.669 L 288.447 144.042 L 288.238 144.22 L 288.139 144.553 L 287.952 144.601 L 287.125 145.689 C 286.679 145.837 286.221 146.051 285.753 146.102 L 285.669 145.945 L 285.461 146.035 C 283.779 144.904 283.479 143.086 282.975 141.221 C 282.603 139.836 281.429 137.833 282.162 136.391 C 281.896 135.3 280.459 134.918 279.503 134.898 L 279.344 135.16 L 278.964 135.194 C 278.849 135.756 278.248 136.481 277.633 136.472 C 277.41 136.281 277.126 136.201 276.828 136.187 C 276.576 135.699 276.012 135.664 275.817 135.144 L 274.178 134.526 C 274.364 134.956 274.207 135.328 274.097 135.752 C 274.331 136.528 274.499 137.265 274.096 138.035 L 273.958 138.064 L 273.693 138.521 L 273.412 138.312 L 273.325 138.437 L 272.729 138.383 L 272.527 138.523 L 272.509 138.897 L 273.547 139 C 273.807 139.218 274.065 139.439 274.32 139.661 L 274.751 141.289 C 274.442 141.88 274.624 142.873 274.625 143.513 C 274.628 144.217 274.507 144.921 274.431 145.621 C 274.284 146.949 274.025 148.273 272.972 149.148 L 272.719 149.064 C 271.888 149.186 271.463 150.19 270.74 150.576 L 270.237 150.549 C 269.841 150.239 269.585 150.114 269.102 149.97 C 268.597 150.234 268.118 150.811 267.609 150.974 C 267.451 151.488 267.374 152.115 266.965 152.501 L 266.973 152.782 L 266.649 153.284 L 266.471 153.292 L 266.209 154.094 L 265.626 154.14 L 265.352 154.623 L 265.078 154.694 L 264.651 155.182 L 264.749 155.671 L 264.66 155.784 L 264.992 156.088 L 266.282 155.943 L 266.683 156.497 L 266.612 156.633 L 266.669 156.793 L 266.866 156.731 C 267.468 157.741 267.256 159.25 267.351 160.375 L 267.303 160.477 L 267.335 160.483 L 267.55 160.487 Z"/>
  <text x="275.71" y="153.516" style="white-space: pre; fill: rgb(51, 51, 51); font-family: sans-sarif; font-weight: bold; font-size: 7.6px;">青森県</text>
</svg>