<?xml version="1.0" encoding="utf-8"?>
<svg viewBox="622.637 808.826 58.047 72.37" width="58.047" height="72.37" xmlns="http://www.w3.org/2000/svg" xmlns:bx="https://boxy-svg.com">
  <path fill="#79FF76" d="M676.247,823.443l-1.112-0.57l-1.229-0.657l-0.508-0.418l-0.428-0.52l-0.295-0.61l-0.291-0.622 l-0.613-0.698l-0.629-0.364l-0.572-0.25l-0.517-0.105l-0.593-0.049l-0.854,0.104l-0.679-0.091l-0.623-0.139l-0.527-0.231 l-0.576-0.381l-0.493-0.431l-0.457-0.409l-0.623-0.389l-0.546-0.235l-0.512-0.1l-0.717,0.051l-0.606,0.097l-0.493,0.333 l-0.633-0.117l-0.546-0.263l-0.751-0.181l-0.507-0.339l-0.522-0.072l-0.602,0.212l-0.758,0.456l-0.588,0.381l-0.54-0.003 l-0.56-0.035l-0.562,0.205l-0.52,0.319l-0.883,0.415l-0.363,0.455l-0.201,0.58l-0.409,0.488l-0.411,0.455l-0.568,0.347 l-0.969-0.05l-0.625-0.239l-0.542-0.019l-0.546,0.347l-0.859,0.842l-0.598,0.154l-0.514-0.084l-0.594-0.195l-0.534,0.131 l-0.456,0.347l-0.445,0.372l-0.5,0.221l-0.525,0.312l-0.573,0.095l-0.497-0.38l-0.427-0.386l-0.808-0.855l-0.547-0.117 l-0.531-0.264l-0.592-0.089l-0.66,0.107l-0.551-0.006l-0.531-0.229l-0.605-0.099l-0.472-0.258l-0.558-0.31l-0.701-0.319 l-0.857,0.192l-1.248-0.569l-0.537-0.218l-0.494-0.364l-0.625-0.281l-0.482-0.342l-0.104-0.726l-0.15-0.662l-0.545-0.056 l-0.77-0.116l-0.607-0.203l-0.496-0.392l-0.605-1.003l-0.582-0.737l-0.796-0.748l-0.519-0.201l-0.578-0.395l-1.25-1.069 l-0.441-0.606l-0.3-0.844l-0.369-0.542l-0.669-0.383l-0.409,0.455l0.245,0.958l0.38,0.773l0.345,0.473l0.562,0.517l0.722,0.568 l0.267,0.603l0.123,1.242l0.056,0.757l0.409,0.47l0.873,1.449l0.335,0.743l0.359,0.498l0.505,0.313l1.176,1.214l0.366,0.519 l0.448,0.492l0.334,0.572l0.243,0.648l0.272,0.636l-0.197,0.792l-0.205,0.664l0.317,1.294l-0.077,0.666l-0.814,0.78l0.992,0.671 l-0.137,0.714l0.521,1.391l0.523,0.445l0.755,0.742l0.521,0.767l0.302,0.609l0.124,0.035l0.029-0.005l0.553,0.23l0.231-0.438 c0.519,0.002,1.05-0.085,1.533-0.29l0.658,0.233l0.56-0.567c2.104-0.368,3.878,1.427,5.607,2.377 c0.168,0.259,0.262,0.547,0.287,0.855l-0.566,0.726l-0.016,0.494c0.246,0.145,0.537,0.224,0.811,0.215l-0.01-0.522l1.283,0.63 l0.647,1.859l-0.935,0.062l-0.676,0.476l0.65,0.182l-1.348,0.346l-0.096,0.277l1.162,0.513l-0.053,0.188l-1.25-0.132l-0.094,0.296 l0.525,0.464l0.079,0.408l-0.194,0.126l-1.119-0.78l-0.158-0.004l0.205,0.575l-0.26,0.032l-0.117-0.301l-0.301,0.091l-0.201,0.316 l0.232,0.387l-0.422-0.028l-0.593,0.938l0.288,0.199l-0.156,0.438l-0.21-0.233l-0.406,0.547l0.358,0.583l-0.536-0.118 l-0.372,0.598l0.328,0.98l-0.654-0.418l-0.334,0.458l0.229,0.158l-0.557,0.565l-0.559-0.69c-0.324,0.088-0.596,0.287-0.795,0.569 l0.596,0.999L637,847.65l-0.295,0.169l-0.539-0.353l-0.064-0.309l0.419,0.003l-0.244-0.495l-0.384,0.283l-0.057,0.82l-1.392,0.197 l-1.093,1.339l0.328,0.3l0.423-0.183l-0.413,0.679l0.227,0.783l0.727,0.591l-0.856,0.5l-0.024,0.422l-0.365,0.021l0.346,0.874 c-0.857-0.217-1.71-0.439-2.565-0.629l-0.251,0.318l0.763,0.874l-0.366,0.411l0.195,0.529l-0.236,0.602l-0.688,0.403l-0.422-0.03 l0.094,0.306c-0.645,0.311-1.354,0.423-2.053,0.59c1.445,0.228,2.777,0.183,3.873,1.229c0.076,1.412,1.227,2.08,1.465,3.41 l-0.169,0.541c-0.843,0.552-1.891,0.985-2.271,1.985c0.119,1.449,0.641,2.121,1.428,3.331l-0.384,1.357 c0.334,0.487,0.682,0.974,0.995,1.476l-0.787,1.062c0.041,0.496,0.241,0.94,0.581,1.32l-0.093,0.534l-0.604-0.215l-0.161,0.39 c0.711,0.263,1.422,0.52,2.12,0.809l0.534,0.96c0.049,0.392-0.048,0.75-0.287,1.058l-1.369-0.042l-0.238,0.189l0.269,0.282 c-1.114,0.933-2.267,0.563-3.538,1.032l-0.045,0.266l0.318,0.673l0.521,0.196c0.955,0.119,1.873,0.156,2.748,0.606 c0.404,0.427,0.598,1.017,0.562,1.606l0.846,0.476c2.095-0.257,4.092-0.447,5.398-2.265c0.543-0.765,0.538-1.603,0.377-2.461 c-0.161-0.834,0.334-2.022,0.498-2.856c1.582-1.572,2.652-2.834,4.715-3.646l0.046-0.475l0.923-0.589 c0.139-1.029,0.17-1.749,0.859-2.565l0.916-0.218l0.324,0.276l0.368-0.416l1.248-0.046l0.187-0.416l0.782,0.822 c0.538-0.327,1.148-0.569,1.777-0.457l0.469-1.077l0.933-0.508l0.556,0.247l0.56-0.331l0.309-0.876l0.624,0.158l0.104,0.643 l0.6-0.254c0.273-1.055,0.582-1.682,1.119-2.601l1.159-0.169c1.001-1.094,0.985-2.905,1.252-4.292l-0.521-1.062 c0.085-0.945,0.15-1.767,0.51-2.655l-0.281-0.805l0.201-0.705c-1.016-1.931-1.568-4.813-0.816-6.88 c0.858-2.352,1.787-4.671,2.895-6.919c1.199-2.437,2.715-3.926,4.371-5.981c1.577-1.957,3.461-2.931,5.223-4.624l0.94-0.016 l0.437,0.341c1.918-0.027,3.607-2.618,5.596-1.575l0.443,0.648l0.951,0.041c-0.082-0.473-0.035-0.943,0.103-1.396l-3.806-1.431 L676.247,823.443z"/>
  <text style="fill: rgb(51, 51, 51); font-family: sans-sarif; font-weight: bold; font-size: 13.7px; white-space: pre;" x="646.922" y="837.874" dx="1.906 -17.701 -19.595" dy="-3.839 13.901 13.726">千葉県</text>
</svg>