<?xml version="1.0" encoding="utf-8"?>
<svg viewBox="249.514 960.668 80.273 89.295" width="80.273" height="89.295" xmlns="http://www.w3.org/2000/svg" xmlns:bx="https://boxy-svg.com">
  <path fill="#D16EFF" d="M284.944,1045.688l0.558-0.125l0.454-0.281l-0.123-0.686l0.136-0.604l-0.06-0.678l-0.216-0.599 l-0.118-0.899l-0.409-0.412l-0.077-0.629l0.014-0.638l-0.36-0.699l-0.441-0.354l-0.446-0.357l0.287-0.515l0.119-0.638 l-0.012-0.716l-0.178-0.595l-0.324-0.74l-0.559-0.066l-0.463-0.459l-0.384-0.466l-0.505-0.238l-0.016-0.682l-0.506-0.982 l-0.45-0.535l0.26-0.806l0.498-0.253l0.367,0.653l0.496,0.206l0.457,0.326l0.374,0.467l0.52,0.229l0.521,0.353l0.357,0.508 l0.482-0.229l0.148-0.619l0.445-0.374l0.333-0.554l0.355-0.49l0.252-0.542l0.19-0.618l0.023-0.653l0.376-0.431l0.57,0.01 l0.535-0.213l0.113-0.603l-0.18-0.613l0.114-0.639l0.048-1.177l0.335-0.924l0.295-0.512l0.488-0.246l0.471-0.228l0.54-0.176 l0.455-0.399l0.545-0.126l0.473-0.299l0.425-0.392l0.359-0.437l0.555-0.211l0.587-0.401l0.154-0.586l-0.015-0.941l-0.291-0.537 l-0.383-0.465l-0.429-0.39l-0.628-0.135l-0.561-0.096l-0.327-0.55l-0.282-0.666l-0.212-0.581l-0.51,0.061l-0.451-0.454l-0.03-0.82 l-0.499-0.304l-0.034-0.633l-0.141-0.627l-0.531-0.181l-0.461-0.532l0.451-0.372l0.29-0.499l0.503-0.232l0.505-0.2l0.798,0.023 l0.634,0.204l0.591-0.181l0.546-0.03l0.838,0.121l0.61-0.041l0.523-0.216l0.562-0.148l0.577,0.261l0.551-0.165l0.528-0.266 l0.54-0.173l0.508-0.209l0.854-0.448l-0.066-0.691l0.44-0.742l0.368-0.57l0.141-0.626l0.25-0.532l0.84-0.812l-0.14-0.63 l-0.124-0.691l-0.821-0.646l0.148-0.703l0.185-0.56l0.485-0.392l0.604-0.617l-0.44-0.374l-0.236-0.573l-0.004-0.628l0.253-1.103 l0.488-0.246l0.539-0.174l0.514-0.039l0.465-0.803l-0.044-0.633l0.032-0.797l0.386-0.418l0.501-0.307l-0.151-0.675l0.378-0.623 l0.528-0.536l-0.158-0.632l0.064-0.709l0.469-0.337l0.388-0.489l0.146-0.63l0.225-0.618l0.085-0.614l0.5-0.096l0.536,0.358 l0.446,0.411l0.507-0.296l0.783-0.367l0.421-0.336l0.175-0.629l-0.017-0.666l0.174-0.639l0.45-0.511l0.534,0.024l0.857,0.357 l0.641,0.305l0.543,0.005l0.377-0.485l0.523-0.237l0.314-0.479l0.54-0.104l1.027,0.231l0.523-0.039l0.491-0.71l0.695-0.293 l0.518,0.145l0.54,0.094l0.885-0.276l0.775-0.072l0.881,0.271l0.518-0.005l0.473-0.482l-0.06-0.644l0.516-0.122l0.362-0.469 l0.208-0.615l0.218-0.556l0.408-0.51l0.516-0.175l0.484,0.38l0.93,0.341l0.429-0.523l0.685-0.482l0.52,0.229l0.747,0.031 l0.413-0.45l0.524-0.151l0.523,0.007l0.401-0.46l0.401-0.405l-0.18-0.628l0.549-1.022l-0.333-0.875l0.31-0.637l-0.277-0.531 l-0.017-0.633l-0.492-0.448l-0.375-0.729l0.037-0.611l0.504-1.217l-0.655-0.101l-0.427-0.425l-0.583-0.146l-0.553,0.091 l-0.565,0.071l-0.833-0.398l-0.535,0.204l-0.438-0.33l-0.155-0.093l-0.328-0.167c-0.857,1.176-1.407,2.426-2.248,3.604 c-1.057,1.485-2.579,1.354-4.231,1.279l-0.444-0.44c-0.944-0.184-1.904-0.186-2.858-0.228l-1.746,0.919l-1.074-0.624l-0.003,0.813 l-0.276-0.096l-0.373-0.691l-0.38-0.111l-0.206,0.445l-1.284,0.654l-0.071,0.271l-0.563-0.111l-0.341,0.641l-0.406,0.075 l-0.163-0.66l-0.353,0.333l0.249,1.173c-0.889,0.658-1.977,1.03-2.911,1.667l-0.711-0.016l-0.3,0.529l-0.842,0.185l-0.028,0.421 l-0.992-0.401l-0.255,0.475l0.141,0.3l-0.413-0.367l-0.011-0.525l-0.475,0.404l-1.004-0.927l-0.457,0.136l-0.448-0.886 l-0.529-0.07c-0.528-1.611-1.544-3.777-2.665-5.03c-1.266-1.414-2.321-2.212-3.18-3.942l-0.37,0.619l-0.443-0.626l-0.574-0.191 l-0.692-0.937c-0.057,0.494-0.25,0.991-0.593,1.357l-0.34,0.012l-0.439-0.392l-0.262,0.426l-0.718-0.071l0.232,0.812l0.719-0.328 l0.875,0.288l0.277,0.961l-0.363,0.252l-0.092,1.379l-0.655-0.21l-1.257,0.861l-0.652,0.026l-0.43,0.733 c-1.465,0.509-2.039,2.396-3.57,2.93l-0.216,0.391l-0.509,0.119l0.539,0.533c-0.01,1.771-0.11,3.234-0.491,4.961l-0.835,0.678 l-0.082,0.399l-0.308-0.38l-0.764-0.243l-0.414,1.752l0.561,0.506l0.161,0.896l-0.419,0.421l-0.261,2.547l0.233,0.21l-0.18,0.466 c0.2,0.729,0.394,1.454,0.61,2.18c-1.485,3.306-2.823,5.895-6.14,7.556c-3.032,1.52-5.178,3.816-6.269,7.036l-0.396,0.156 l-0.999,1.46l-0.504-0.043c-1.402,1.211-2.748,2.232-4.319,3.229l-0.066,0.319l-0.326-0.093l-0.131,0.438l-0.928,0.321 l0.298,0.095c0.084,0.37,0.056,0.743-0.074,1.109l-0.328,0.097l-0.573-0.406l0.084-0.397l-0.955,0.563l0.165,0.684l-0.674,0.059 l-0.803-0.558l-0.191,0.366l0.08,0.435l-0.609-0.268l-0.642,0.315l0.306,1.012l-0.711-0.253l-0.168-0.295 c-0.267,0.132-0.508,0.303-0.723,0.508l1.176,0.615l0.02,0.389l-0.484,0.296l-0.335-0.375l-0.456-0.08l-0.154,0.884l-0.609-0.918 c-0.721,0.387-1.28,1.292-1.978,1.814l-0.145,0.537l-1.713,1.393l-0.711,1.684c0.647-0.165,1.02-0.589,1.523-1.027l-0.145-0.559 l0.655-0.418l0.07-0.276l0.375,0.089l0.12-0.326c0.622-0.324,1.19-0.667,1.895-0.783l0.07,0.357l-0.318,0.378l0.213,0.238 l-0.645,0.079l0.188,0.686c0.761-0.218,1.447-0.303,1.951-0.977l0.375,0.088l0.008-1.207c0.986-1.129,2.118-1.55,3.092-2.58 l0.723-0.061c0.622-0.731,0.995-1.235,1.974-1.446c0.106-0.687,0.343-1.371,0.844-1.859l1.1,1.067l0.266-1.236l1.251-0.261 l-0.374-0.71l0.168-0.1c0.609,0.475,1.292,0.852,1.562,1.614c0.18-0.324,0.357-0.651,0.534-0.984l0.526,0.018l0.06,0.277 l-0.615,0.104l0.037,0.516l1.757-0.395c-0.455,0.762-1.019,1.163-1.868,1.408l0.498,0.225l0.976-0.356l-0.259,0.659l0.106,0.433 l-0.439-0.364l-0.711,1.055l0.227-0.105l0.328,0.327l-0.179,0.467l0.342,0.221l-0.742,1.008l0.311,0.172l0.465,1.019l1.31-1.264 l0.123,0.14l-0.306,0.28l-0.019,0.918l0.27-0.139l0.142,0.299l-0.41,0.492l0.179,0.164l-0.12,0.119l-0.79-0.039l-0.134,0.411 l-0.22-0.104c-0.29,0.261-0.543,0.553-0.757,0.878l0.192,0.711l1.263,0.054l0.285,0.411l0.979,0.272l0.223-0.105l0.371-1.044 l0.371,0.477l0.59,0.112l0.873-0.344l-0.021-0.393l1.005,0.062l0.105-0.407l0.303,0.545l0.296,0.066l0.363-0.463l0.683,0.23 l0.107,0.458l-0.955,0.115c-0.912,0.929-1.663,1.794-1.336,3.205l0.173,0.107l0.439-0.894l-0.3-0.091l0.121-0.303l0.996,0.216 l0.246,0.525l0.439-0.056l0.047-0.271l0.903,0.099l0.277-0.295l0.135,0.455l-0.895,0.687l1.199,0.798l0.443-0.213l0.2,0.343 l-0.143,0.334l0.157,0.215l-0.651-0.417l-0.128,0.255l0.37,0.446l-1.541,0.247l-0.515,0.718l-0.213-0.239l0.036,0.52l0.336,0.168 l-0.795,0.36l0.821,0.079l0.576,1.06l-0.5,0.193l-0.009-0.732l-0.538-0.116l0.188,0.895l-0.229,0.055l-0.162,0.385l-0.477-0.251 l0.249-0.949l-0.945,0.405c-0.318-0.187-0.557-0.462-0.705-0.811l0.019-0.708l0.26-0.239l-0.223-0.106L271.96,1031l-1.363-0.646 l-0.226,0.288l-1.154,0.409l-0.202,0.493l0.4,0.266l0.313,0.852l0.343,0.012l-0.113-0.271l0.55-0.437l-0.039-0.516l-0.717-0.07 l0.866-0.424c0.516,0.285,0.917,0.753,1.104,1.306l0.211-0.416c0.206,0.428,0.558,0.753,1.008,0.951l-0.258,0.266l-0.405-0.341 l-0.866,0.419l0.149,0.374l-0.364,0.226l0.019,0.367l0.974,0.482l-0.14,0.355c0.211,0.146,0.448,0.262,0.696,0.334l0.128-0.461 l0.583-0.175l0.479,0.279l0.009-0.337l1.106,0.253l-0.069,0.294l0.361,0.374l-0.659,0.189l-0.132-0.223l-0.802,0.308l-0.304-0.354 l-1.107,0.377l1.05,0.235l0.612,0.736l-0.049,0.453l0.411,0.134l-0.35,0.353l-0.348-0.06l-0.097,0.485l0.398,0.053l-0.354,0.519 l0.412-0.05l0.268,0.253l0.042-0.737l0.552,0.875l-0.149,0.489l-0.203-0.367l-1.346,0.556l-0.364-0.424l-0.35,0.799l-0.574-0.637 l-0.49,0.088l-0.09-0.331l-0.286,0.036l-0.616,0.967l0.42,0.631l-0.302,0.322l0.021,0.811l-0.814,0.414l0.648,0.155l0.258,0.387 l0.393-0.834l0.445-0.211c-0.283-0.522-0.273-1.067-0.335-1.661l0.488-0.088l0.681,0.649l0.192-0.367l0.274,0.101l0.615,0.738 l0.226-0.289l-0.197-0.528l0.633-0.181l0.373,0.478l0.4-0.368l0.229,2.074l0.417,0.207l0.2-0.519 c0.868,0.603,0.623,1.749,1.369,2.422l1.604,0.249l0.316,0.461l-0.312,0.222c-0.636-0.114-1.273-0.014-1.899,0.098 c-0.331-0.384-0.632-0.797-0.91-1.226c-0.337,0.399-0.685,0.781-1.129,1.062l0.279,0.353l1.21,0.247l-0.169,0.99 c-0.732,0.347-1.551-0.009-2.298-0.165l-0.394,0.835c0.547-0.049,1.097-0.049,1.647-0.022c0.223,0.605,0.342,1.231,0.517,1.851 l0.708,0.437l0.599-0.674l0.714,0.07l0.488-0.507l0.087-0.379l-0.507-0.069c-0.319,0.128-0.615,0.305-0.88,0.526 c-0.3-0.19-0.542-0.44-0.721-0.753l0.057-0.395l0.871,0.05l0.336-0.248l0.177-0.469c-0.233-0.047-0.454-0.133-0.661-0.261 l0.889-0.661l1.026,1.104c0.281,0.062,0.555,0.154,0.822,0.269l0.623-0.467l-0.23-0.182l-0.553-0.012l-0.133-0.43 c0.236-0.039,0.462-0.111,0.683-0.215l0.025-0.211l0.727,0.382l0.867-0.42l-0.393,0.86l0.692,0.517l-0.175,0.286l0.368,0.216 c0.814-0.433,1.631-1.023,2.554-1.176l0.337,0.101l0.012-0.138L284.944,1045.688z M274.235,983.417l0.512,0.752c0.292,0.184,0.606,0.253,0.943,0.196l0.028-0.398l0.507-0.348 c0.413,0.087,0.811,0.046,1.191-0.12l-0.027-0.439l-0.276-0.308l-0.458,0.317l-0.171-0.32l0.052-0.214 c0.326-0.198,0.589-0.458,0.798-0.78c-0.059-0.333-0.119-0.668-0.177-0.998c0.104-0.295,0.229-0.581,0.364-0.861l-0.354-0.345 c-0.338,0.414-0.508,0.961-0.607,1.489l-0.471,0.397l-0.52,0.038c-0.317,0.268-0.567,0.602-0.744,0.984L274.235,983.417z M290.859,966.049l0.033,0.681l0.417,0.631l0.652-0.028c0.575-0.399,1.095-0.854,1.716-1.178l0.552,0.01 c0.468-0.417,1.064-0.663,1.696-0.679c0.514-0.642,0.425-2.042,0.102-2.79c-0.409-0.252-0.726-0.599-0.987-1.008 c-0.021-0.179-0.055-0.357-0.093-0.538c-0.448-0.34-0.992-0.542-1.55-0.466c-0.391,0.283-0.786,0.569-1.179,0.853l0.052,0.857 c-0.201,0.182-0.431,0.316-0.682,0.401c0.058,0.172,0.139,0.34,0.242,0.49l0.447-0.211l0.273,0.098 c0.271,0.299,0.475,0.644,0.596,1.026l-0.198,0.731C292.296,965.441,291.426,965.44,290.859,966.049z M294.885,969.409c-0.135,0.396-0.244,0.801-0.319,1.215c-0.076,0.36-0.06,0.717,0.05,1.064l0.44,0.366 l0.877-0.107c1.046-0.689,1.679-2.079,2.677-2.948c0.022-0.495-0.03-0.996-0.155-1.474l-0.626,0.445l-0.688-0.912 c-0.379-0.214-0.78-0.295-1.209-0.245c-0.427,0.213-0.799,0.503-1.099,0.869c0.64,0.277,0.878,0.907,1.228,1.474 C295.701,969.385,295.307,969.465,294.885,969.409z"/>
  <text style="fill: rgb(255, 255, 255); font-family: sans-sarif; font-weight: bold; font-size: 14.2px; white-space: pre;" x="284.721" y="996.708" dx="-0.965 -18.738 -17.864" dy="-1.884 14.885 16.022">愛媛県</text>
</svg>