<?xml version="1.0" encoding="utf-8"?>
<svg viewBox="147.703 993.835 57.819 62.584" width="57.819" height="62.584" xmlns="http://www.w3.org/2000/svg" xmlns:bx="https://boxy-svg.com">
  <path fill="#009900" d="M205.352,1016.936l-0.482-0.361l-0.362-0.849l0.491-1.151l-0.093-0.402l-0.312,0.301l0.168-0.991 c-0.605-0.19-1.298-0.053-1.941-0.024l-1.839,0.17l-0.159,0.418l-1.35-0.99l-0.419-0.001l-0.178-1.026 c-0.707-0.425-1.028-1.275-1.447-1.973l-0.823-0.287c-0.383-0.456-0.572-1.054-0.489-1.644l-0.447-0.231l-0.154-0.399 c0.204-1.044,0.2-1.68,0.031-2.727l-0.634-0.055c-0.224-0.551-0.385-1.154-0.269-1.749l-0.276-0.333l-1.032,0.151l0.032,0.467 l-0.409,0.292c-0.425-0.549-0.859-1.087-1.299-1.626l0.033-0.371l0.223-0.105l0.795,0.295l0.345-0.827l-0.567-1.636 c0.266-0.603,0.297-1.292,0.341-1.899l0.88,0.125l-0.357-0.344l0.062-0.351l0.504-0.373l-0.835-0.187l0.475-0.399l0.08-0.64 l0.486-0.295l-0.181-0.398l0.181-0.676l-1.878,0.493l-0.181-0.188l-1.062,0.078l0.08,0.881c-1.09,0.94-1.382,2.146-1.905,3.458 l-1.233,0.41l-0.107-0.244l-0.423,0.208l-0.147-0.349l-0.43,0.128l-0.397-0.262l0.293-0.587l0.433-0.107l0.25,0.336l0.403-0.126 l0.43,0.288l0.116-0.328l-2.149-2.355c-0.438,0.638-0.778,1.35-1.521,1.681c0.055,1.102-0.912,2.157-1.087,3.304l-0.445-0.63 l-1.839,0.804l-0.457-0.104c1.153-0.438,2.626-0.983,3.249-2.127l-0.029-0.652l0.268-0.372l-0.245-0.491l-0.388-0.192l0.686-0.397 l0.284-1.317l-0.365-0.19c-1.176,0.435-2.081,1.15-3.098,1.873l-0.178,0.468l0.302,0.332l0.814-0.205l-0.012,0.55l-0.235,0.211 l-0.564,0.094c-1.377-0.742-2.11-1.149-3.658-1.198l-0.638,0.364l-0.067,0.717l-0.707,0.428l-0.156,1.094 c-0.817,1.321-3.131,2.226-4.612,1.689l-0.223-0.547c-0.633,0.12-1.261,0.253-1.89,0.391l-0.074,0.246l0.272,0.304l-0.396,1.256 l-1.307,0.684l-0.741-0.301c0.118,0.355,0.229,0.706,0.338,1.06l-0.368,1.486l-0.838,0.418l-0.514-0.122 c0.318,0.537,0.421,1.183,0.244,1.776l1.007,0.086l0.434,0.551c-0.269,1.213-0.26,2.274-1.092,3.276l-0.854,0.288 c-0.496,1.958-2.696,3.994-4.79,4.099l0.699,0.57c0.486-0.041,0.914,0.099,1.282,0.418l0.235-0.238l-0.096-0.777l0.422-0.601 l1.405-0.513l0.366-0.649l0.55-0.194l0.442,0.179l-0.066,0.321l0.528,1.09l-0.677,0.473l-0.058,1.896l-0.237-0.028l0.054,0.649 l-0.495,0.454l0.047,0.382l-0.267-0.04l-0.647,0.496l-0.149-0.14l0.202-0.286l-0.282-0.174l-1.18,0.851l-2.174-0.204l0.139,0.271 l-0.153,0.462c-0.653,0.45-1.3,0.27-2.046,0.2l-0.131-0.222l0.383-0.938l-0.319-0.46c-0.609,0.262-1.141,0.13-1.799,0.065 l-0.514-0.982l0.276-0.951c-0.411-0.615-1.05-0.717-1.714-0.943l-0.034,0.345l0.333,0.587c-0.314,0.702-0.978,1.05-1.575,1.476 l-0.608-0.027l-0.392,0.438l-0.042,0.271l0.388,0.634l-0.39,0.861l-1.021,0.645l-1.027-0.469l-0.184,0.618l-0.771,0.57 l0.408,0.339l0.239,0.652l1.227-0.672l0.581,0.243l-0.128,0.46l-0.623,0.257l-0.024,0.659l0.867-0.628l0.511,0.33l0.886-0.896 l0.761,0.22l-0.516,0.274c-0.707,1.578-2.624,1.763-3.356,3.188l-2.202,0.849c-0.153,0.65-0.357,1.293-0.359,1.951l0.676,0.014 l0.491-0.244l0.69,0.111l0.607-0.115l0.562-0.082l0.376-0.427l0.842-0.065l1.035,0.033l0.434-0.357l0.516,0.116l0.466,0.384 l0.887-0.155l0.363-0.534l0.439-0.348l0.631,0.022l0.563,0.113l0.568,0.049l0.531,0.155l0.466-0.386l0.668-0.289l0.527,0.229 l0.546,0.265l0.412,0.389l0.613-0.049l0.528,0.151l0.571,0.313l0.543,0.419l0.511,0.188l0.48,0.327l0.526-0.111l0.882,0.346 l0.615-0.041l0.584,0.597l0.379,0.521l0.869,0.528l0.511-0.908l0.296-0.502l0.558-0.205l0.439-0.817l0.457-0.339l0.492-0.244 l0.816-0.478l0.524-0.151l0.616,0.187l0.508,0.228l0.36,1.115l0.155,1.183l0.202,2.147l-0.068,0.744l0.011,0.66l-1.323,0.064 l-0.497,1.188l-0.39,0.546l-0.165,0.673l-0.637,0.185l-0.317,0.833l-0.614,0.834l-0.616,0.602l-0.885,0.559l-0.735,0.806 l-0.495,0.447l-0.487,1.014l-0.215,0.746l-0.486,1.125l0.015,0.624l-0.036,1.347l-0.105,1.528l0.477,0.187l0.378,0.08 l-0.058,0.536l0.084,0.687l0.383,0.114l0.511,0.141l0.545-0.227l-0.088,0.622l0.344,0.451l0.362-0.046l0.198-0.394l0.536,0.015 l-0.204,0.682l-0.093,0.585l0.347,0.488l0.519-0.103l0.432,0.52l0.382,0.768l-0.001,0.655l-0.485,0.389l-0.047,0.618l-0.299,0.569 l0.634,0.168l-0.381,0.578l0.7,0.646l-0.004,0.016l0.44-0.43l1.42-0.312l0.671-0.119l1.333-0.355l0.249-0.643l-0.369-0.506 l-0.231-0.622l-0.468-0.958l0.365-0.449l0.485-0.4l0.486-0.183l0.34-0.46l0.36-0.577l0.562-0.164l0.447-0.669l-0.169-0.654 l0.435-0.355l0.397-0.49l0.562,0.074l0.621-0.077l0.542,0.257l0.484-0.208l0.639-0.128l0.532,0.005l0.528,0.063l0.122-0.68 l0.013-0.646l0.3-0.564l-0.158-0.592l0.183-0.673l0.448-0.752l0.459,0.327l0.082,0.66l0.524-0.028l0.511-0.233l0.52,0.135 l0.513-0.226l0.396,0.485l0.5,0.266l0.512,0.397l0.505,0.222l0.654,0.233l0.567-0.104l0.518,0.154l0.55,0.19l0.564,0.186 l0.536,0.297l0.718-0.087l0.477-0.247l0.336-0.519l0.187-0.62l0.072-0.683l0.206-0.699l0.03-0.681l-0.168-0.622l0.472-0.44 l-0.228-0.643l-0.537-0.192l-0.517-0.145l-0.503-0.283l-0.606-0.366l-0.21-0.621l0.084-0.982l-0.537,0.048l-0.451-0.423 l0.179-1.039l0.518-0.024l0.729-0.826l-0.347-0.574l0.329-0.508l0.187-0.622l-0.229-0.559l-0.328-0.557l-0.126-0.698l-0.361-0.546 l-0.815-0.327l0.356-0.505l0.598-0.527l0.031-0.909l0.631-0.323l0.592-0.172l-0.07-0.652l0.048-0.614l0.093-0.663l-0.108-1.107 l0.238-0.632l0.055-0.715l0.526-0.116l0.38-0.4l0.418-0.743l0.057-0.79l0.462-0.302l0.585-0.499l0.407-0.503l0.379-0.402 l0.492-0.332l0.815-0.267l0.595-0.036l0.469-0.232l0.436-0.354l0.654,0.088l0.56,0.228l0.534-0.043l0.838,0.117l0.621-0.112 l0.554,0.03l0.543-0.138l0.99-0.062l0.857-0.079l0.512-0.251l0.816-0.265l-0.39-0.522l-0.09-0.649l0.405-0.427l0.355-0.435 l0.076-0.607L205.352,1016.936z"/>
  <text style="fill: rgb(255, 255, 255); font-family: sans-sarif; font-weight: bold; font-size: 12.9px; white-space: pre;" x="172.215" y="1015.73" dx="1.554 -12.016 -12.932" dy="-0.775 13.302 12.87">福岡県</text>
</svg>