<?xml version="1.0" encoding="utf-8"?>
<svg viewBox="407.196 819.059 67.677 61.431" width="67.677" height="61.431" xmlns="http://www.w3.org/2000/svg" xmlns:bx="https://boxy-svg.com">
  <path fill="#8BFFE8" d="M407.881,868.612l0.012,0.016l0.026,0.046l0.005,0.035l0.035,0.017l0.012,0.013l0.001,0.012l0.012,0.012 l-0.009,0.012l0.001,0.014l0.002,0.01l-0.156,0.561l-0.282,0.572l-0.183,0.56l-0.161,0.701l0.456,0.377l0.481,0.294l0.53,0.23 l0.037,0.775l-0.316,0.604l-0.328,0.665l0.178,0.591l0.471,0.357l0.554,0.411l0.559,0.589l0.475,0.385l0.579,0.492l0.518-0.065 l0.59,0.479l-0.059,0.642l0.352,0.457l-0.12,0.654l0.437,0.409l0.697-0.05l0.559-0.041l0.528,0.005l0.524-0.04l0.56,0.339 l0.52-0.247l0.583,0.147l0.54-0.187l0.791,0.268l0.588,0.005l0.529,0.138l0.547,0.079l0.487,0.367l0.588,0.042l0.537,0.126 l0.533-0.213l0.357-0.494l0.559,0.068l0.504-0.051l0.417-0.407l1.084,0.005l0.247-0.617l0.239-0.576l0.43-0.814l0.533,0.021 l0.388-0.403l-0.066-0.665l0.058-0.616l0.583-0.257l0.588,0.099l0.518-0.04l0.53,0.621l0.494,0.286l0.516-0.214l0.451-0.328 l0.404-0.356l-0.052-0.82l0.356-0.45l0.481-0.289l-0.008-0.625l0.012-0.659l0.015-0.687l0.063-0.805l0.073-0.656l0.327-0.456 l0.145-0.699l0.123-0.616l0.292-0.551l0.403,0.526l0.427,0.413l0.941,0.472l0.468,0.297l0.618-0.263l0.525-0.138l0.295-1.099 l0.31-0.55l0.293-0.701l0.536-0.2l0.497-0.194l0.513,0.106l0.531,0.204l0.238-0.545l0.475-0.313l0.505,0.209l0.455-1.096 l0.077-0.645l0.029-1.069l0.795,0.137l0.539-0.042l0.539,0.167l1.07,0.197l-0.061-0.632l-0.052-0.629l0.239-0.663l-0.332-0.582 l-0.299-0.59l-0.438-0.487l-0.172-0.66l-0.346-0.545l-0.191-0.644l-0.436-0.358l-0.471-0.311l0.215-0.547l0.316-0.587l0.062-0.657 l0.561-0.033l0.509-0.38l0.606-0.141l0.563,0.202l0.298,0.514l0.525,0.12l0.787,0.242l0.586-0.071l0.488,0.369l0.713,0.122 l0.983,0.292l0.631-0.407l0.206-0.694l-0.15-0.643l0.378-0.402l0.353-0.449l0.268-0.633l0.16-0.642l0.205-0.575l-0.134-0.658 l-0.319-1.146l0.172-0.646l0.467-0.242l0.582-0.339l0.663-0.584l0.446-0.325l0.491-0.181l0.589,0.308l0.627,0.205l0.527,0.011 l0.907,0.35l0.629-0.027l0.496-0.219l0.542-0.006l0.531,0.106l0.535-0.226l0.666,0.528l0.265,0.666l0.598-0.562l-0.106-0.624 l0.301-0.599l0.418-0.334l0.492,0.272l0.568-0.049l0.582,0.001l0.525,0.06l0.466-0.313l0.205-0.565l0.45-0.375l0.518,0.032 l0.859,0.242l0.296-0.501l0.491-0.17l0.252-0.595l0.461,0.429l0.139,0.598l0.633,0.156l0.354-0.449l0.592,0.063l0.502-0.209 l0.562-0.057l0.468-0.353l0.271-0.596l0.576-0.07l0.865-0.212l0.461-0.263l0.582,0.142l0.434,0.452l0.561-0.412l0.219-0.624 l-0.021-0.729l0.001-0.651l0.369-0.461l0.547-0.114l0.555-0.779l-0.137-0.607l-0.289-0.528l-0.262-0.6l-0.086-0.702l-0.372-0.544 l-0.446-0.375l-0.908-0.375l-0.469-0.358l0.223-0.626l-0.046-0.646l-0.516-0.121l-0.591,0.011l-0.515-0.131l-0.495-0.212 l0.064-0.655l-0.109-0.693l-0.785-0.638l-0.607-0.135l0.094-0.992l0.029-0.643l0.011-0.655l-0.062-0.682l0.128-0.587l0.687-0.793 l0.484-0.279l-0.297-0.562l-0.396-0.611l-0.726,0.613h-0.515l-0.573,0.062l-0.522,0.196l-0.447,0.41l-0.504,0.145l-0.475,0.217 l-0.966,0.156l-0.382-1.017l-0.432-0.459l-0.592-0.203l-0.522-0.251l-0.646-0.303l-0.334-0.496l-0.344-0.545l-0.639-0.089 l-0.512-0.258l-0.475-0.359l-0.541-0.106l-0.621-0.471l-0.538,0.139l-0.386,0.413l-0.564-0.139l-0.453,0.311l-0.807-0.069 l-0.395-0.503l-0.464,0.326l-0.421,0.516l-0.357,0.623l-0.658-0.044l-0.572,0.071l-0.5-0.304l-0.413-0.526l-0.603-0.229 l-0.398-0.633l-0.524,0.132l-1.225,0.129l-0.542,0.333l-0.758-0.321l-0.417-0.487l-0.237-0.655l-0.501-0.879l0.062-0.647 l-0.361-0.862l-0.543-0.163l-0.305-0.604l-0.578-0.624l-0.523-0.138l-0.561-0.157l-0.585-0.011l-0.459-0.336l-0.362-0.447 l-0.903-0.962l-0.005-0.002l-0.014-0.014l0.014,0.014l0.005,0.002l-0.053-0.051c-0.266,0.288-0.527,0.579-0.788,0.909 c-0.66,1.053-1.967,1.655-2.96,2.328l-0.915-0.175l-1.144,0.509l0.434,0.339l-0.188,0.389c0.153,0.381,0.415,0.661,0.782,0.82 c-0.771,2.146-1.586,3.77-2.812,5.69l-0.869,0.396c0.192,0.936-0.51,1.626-1.025,2.324l0.174,0.322l-0.078,0.874l-0.188,0.179 c-0.28,1.928-0.487,3.682-2.508,4.527l-0.216,1.019c0.638,1.135,1.579,1.675,2.3,2.732l0.286,2.769 c2.493,2.869,5.638,3.894,6.382,8.017l-0.631,0.63l0.438,0.155l0.151,0.793l-0.656,1.283l0.399,0.923l-0.356,0.515l0.155,0.819 l-1.312,0.815l-0.247-0.075l-0.458-0.965l-0.743-0.484l0.397-0.625l0.382,0.111l0.219-0.344c-0.844-0.847-0.694-2.063-1.54-2.949 l0.593,0.343l0.002-0.208c-0.188-0.525-0.58-0.957-1.089-1.176c-0.646,0.641-1.352,1.205-1.711,2.069l-0.422-0.054l-0.695,0.767 c0.226,0.421,0.279,0.872,0.166,1.343l0.454,0.076l0.165-0.178l-0.228-0.338l0.19-0.155l0.516,0.777l0.045,1.015l-0.383,0.516 l-0.02,0.896l1.109,0.936l-0.221,0.763l-0.644,0.523l-0.593-0.582l-0.316-0.012l0.005,0.471l-0.934,1.135l-0.4,0.129l-0.483-0.31 l-0.205-0.574c-0.217,0.008-0.409,0.083-0.573,0.226l0.01,0.521l-0.646-0.155l-0.832,0.494l-0.481-0.726l-0.487-0.148 l-0.232-0.599l-1.531-0.284l0.07,0.775l0.551-0.195l-0.014,0.522l0.724,0.12l-0.399,0.598l0.133,0.431l0.204,0.185l0.353-0.304 l0.193,0.477l0.367-0.204l0.158,0.66l0.245,0.05l-0.005,0.394l-0.318,0.196l-0.525,1.06l-0.434,0.107l-0.172-0.346l-0.699-0.36 l-0.536,0.536c0.665,0.558,1.367,1.036,1.77,1.826l-1.067,0.053l0.247,0.312l-0.77,0.121l-0.145,0.304l-0.58-0.451l0.046-0.477 l-0.25,0.11l-0.16-0.449l-0.952-0.279l0.469,0.597l-0.765-0.036l-0.419-1.048c-0.652-0.276-1.259-0.085-1.933,0.028l-1.083,1.413 c0.456,0.329,1.004,0.421,1.568,0.386c-0.117,0.403-0.08,0.797,0.115,1.162l0.613-0.125l0.455-0.998l0.305,0.146l0.657-0.424 l0.125,0.17l-0.023,0.239l-0.326-0.091l-0.125,0.251l0.12,0.535l-0.684,1.708l-0.81,0.229l-0.093,0.537l-0.928-0.517l-0.277,0.299 c-0.863,0.085-1.418,0.427-2.146,0.863c-0.527-0.058-1.06-0.113-1.593-0.169l-0.569,0.256l-1.38-0.358l0.521-0.245 c0.538,0.206,1.118,0.188,1.684,0.055l0.725-1.137l-0.258-0.598l-0.305,0.063l-0.105-0.223l0.385-0.047l0.775-0.723l0.822,0.293 l-0.224-0.552l-0.242-0.047l-0.104-0.618c-0.869,0.042-1.461,0.698-1.988,1.32l-0.092,0.531c-0.91,0.26-1.561,1.312-2.193,1.974 l-0.672,0.083l-0.41-0.367l-0.403,0.573l-0.671,0.082c-0.474-0.192-0.821-0.517-1.038-0.975l0.308-1.318l-0.171-1.397 l-0.424,0.186l-0.476-0.255l-0.089,0.56l0.616,0.529l-0.141,0.775l-0.457,0.136l-0.227-0.364l-0.42,0.418l-0.062-0.728 l-0.52,0.249l0.239-1.237l0.171-0.17l-0.547-0.163L407.881,868.612z"/>
  <text x="432.085" y="844.182" style="white-space: pre; fill: rgb(51, 51, 51); font-family: sans-sarif; font-weight: bold; font-size: 12.8px;">福井県</text>
</svg>