<?xml version="1.0" encoding="utf-8"?>
<svg viewBox="583.043 691.143 93.665 71.288" width="93.665" height="71.288" xmlns="http://www.w3.org/2000/svg" xmlns:bx="https://boxy-svg.com">
  <path fill="#FFE65E" d="M666.321,692.675l-0.514-0.24l-0.559,0.334l-0.502,0.148l-0.717,0.422l0.281,0.539l-0.142,0.592 l0.321,0.534l-0.2,0.601l0.011,0.736l0.142,1.053l0.253,0.604l0.069,0.639l-0.288,0.576l-0.617,0.074l-0.555,0.021l-0.518-0.086 l-0.516,0.115l-0.605-0.059l-0.561-0.152l-0.726,0.428l0.897,0.403l0.434,0.408l-0.34,0.45l-0.59-0.318l-0.831-0.117l-0.714-0.062 l-0.498,0.176l-0.555,0.039l-0.445-0.456l-0.451-0.362l-0.885-0.21l-0.427-0.448l-0.157-0.641l-0.363-0.639l0.307-0.478 l0.159-0.645l-0.257-0.678l-0.311-0.514l0.233-0.538l-0.382-0.47l-0.521-0.08l-0.675-0.411l-0.65,0.19l-1.059,0.117l-0.494-0.747 l-0.99,0.408l-0.562-0.033l-0.982-0.565l-0.408,0.651l-0.564,0.129l-0.527,0.341l-0.506-0.045l-0.566,0.035l-0.518,0.232 l-0.471,0.34l-0.645-0.01l-0.521-0.424l-0.351-0.496l-0.104-0.623l-0.288-0.99l-0.661-0.264l-0.504-0.33l-0.543,0.261 l-0.566-0.201l-0.607-0.228l-0.266-0.568l-0.549,0.02l-0.477,0.521l0.041,0.656l-0.888,0.023l-0.61,0.002l-0.259,0.521 l-0.515-0.125l-0.638-0.215l-0.538,0.043l-0.52-0.268l-0.479-0.309l-0.59-0.111l-0.507-0.196l-0.338,0.589l0.167,0.655l0.304,0.7 l0.124,0.629l-0.148,0.668l-0.371,1.039l0.217,0.619l0.082,0.66l0.136,0.645l0.141,0.641l-0.126,0.643l0.109,0.619l0.165,1.073 l0.509,0.337l0.488,0.245l0.529,0.231l-0.141,0.604l-0.387,0.451l-0.148,0.607L635,703.722l-0.262,0.539l-0.316,0.528l-0.605,0.72 l-0.658,0.556l-0.516,0.014l-1.069-0.247l-0.669-0.051l-0.61,0.035l-0.549,0.035l-0.512,0.268l-0.316,0.542l-0.404,0.442 l-0.521,0.356l-0.619-0.08l-0.512-0.076l-0.675-0.8l-0.524-0.142l-0.549-0.021l-0.329-0.568l-0.532-0.131l-0.373-0.457 l-0.356,0.584l-0.473,0.207l-0.505,0.321l-0.497,0.061l-0.546,0.249l-0.665,0.082l-0.464-0.461l-0.406-0.514l-0.238-0.621 l-0.496-0.398l0.025-0.615l-0.445-0.557l-0.506-0.156l-0.467-0.483l-0.42,0.456l-0.325,0.514l-0.543,0.042l-0.501,0.249 l-0.549,0.091l-0.629-0.073l-0.535-0.473l-0.518-0.215l-0.488,0.441l-0.395,0.375l-0.499,0.149l-0.475,0.304l-0.383,0.451 l-0.408-0.479l-0.492-0.33l-0.404-0.502l-0.521-0.158l-0.521,0.199l-0.531,0.385l-0.938,0.115l-0.419,0.723l-0.466,0.561 l-0.363,0.457l-0.356,0.438l-0.489,0.635l-0.396,0.391l-0.365,0.557l-0.232,0.629l-0.462,0.3l0.085,0.688l-0.285,0.598 l-0.375,0.549l-0.395,0.442l-0.305,0.549l-0.173,0.612l0.405,0.546l-0.85,0.561l-0.191,0.571l-1.174,1.062l-0.417,0.353 l-0.464,0.232l-0.51,0.256l0.225,0.6l-0.297,0.622l0.199,0.587l0.404,1.066l0.51,0.232l0.129,0.61l0.343,0.493l0.099,0.723 l-0.02,0.639l-0.062,0.667l0.385,0.478l0.417,0.426l0.492,0.355l-0.082,0.634l-0.428,0.408l-0.739,0.299l-0.556-0.187 l-0.527-0.145l-0.561,0.006l-0.542,0.006l-0.534,0.234l-0.592-0.047l-0.538,0.211l-0.351,0.482l-0.627-0.252l-0.46-0.41 l-0.55,0.041l-0.65,0.205l-0.527,0.248l-0.467,0.278l0.012,0.733l-0.205,0.609l-0.005,0.623l0.11,0.647l-0.381,0.417l-0.562-0.13 l-0.589,0.036l-0.668-0.299l-0.484,0.195l-0.322,0.469l-0.524,0.225l-0.693-0.103l-0.456,0.329l-0.518-0.008l-0.455,0.284 l-0.459,0.302l-0.598,0.048l-0.535,0.226l-0.519-0.229l-0.688,0.56l-0.566-0.125l-0.436,0.346l-0.197,0.623l-0.155,0.646 l-0.39,0.819l0.448,0.374l0.421,0.654l0.516-0.113l0.526,0.268l0.247,0.552l0.148,0.718l-0.068,0.62l0.084,0.677l-0.416,0.421 l-0.074,0.887l0.125,0.669l-0.145,0.666l-0.068,0.68l-0.23,0.557l-0.34,0.443l-0.379,0.436l-0.349,0.498l-0.312,0.512 l-0.312,0.649l-0.158,0.669l0.385,0.467l0.511,0.465l0.421,0.523l0.449,0.334l1.197,0.085l0.6,0.099l0.451,0.496l0.426,0.484 l0.227,0.719l0.389,0.452l-0.238,0.765l-0.049,0.628l0.03,0.632l-0.265,0.557v0.699l0.272,0.663l0.497,0.808l0.554,1.19 l0.171,0.638l-0.002,0.662l-0.219,0.701l-0.1,0.623l0.142,0.633l0.427,0.738l0.104,0.665l-0.005,0.609l0.036,0.653l-0.184,0.576 l-0.314,0.528l0.123,0.913l0.92-0.176l0.355-0.493l0.516,0.363l0.973-0.183l0.452,0.348l0.642,0.023l0.543,0.006l0.6-0.109 l0.507,0.208l0.827,0.235l0.59-0.166l0.501,0.33l0.883-0.721l0.401-0.379l0.551,0.119l0.469-0.39l0.156-0.593l0.301-0.578 l0.512-0.248l0.279-0.56l0.247-0.772l0.521-0.151l0.559-0.096l0.518,0.223l0.466-0.255l0.38-0.426l0.436-0.299l0.55-0.031 l0.364-0.459l0.414-0.344l0.495-0.334l0.444-0.334l0.417-0.656l0.481-0.211l0.555-0.164l0.564-0.049l0.384-0.473l0.079-0.686 l0.959-0.338l0.489-0.301l0.517-0.09l0.25-0.559l0.3-0.555l0.542-0.293l0.549,0.033l0.396-0.393l0.47-0.328l0.516-0.09 l0.487-0.219l0.755-0.162l0.485-0.383l0.368-0.521l0.464-0.264l0.525-0.054l0.579,0.124l0.791-0.484l-0.068-0.652l-0.267-0.616 l0.16-0.571l0.389-0.462l0.461-0.29l0.435-0.381l0.515-0.113l0.32-0.518l0.637-0.062l0.471-0.258l0.484-0.267l0.554,0.253 l0.524-0.127l0.537-0.19l0.486-0.165l0.525-0.143l0.559-0.006l0.829,0.307l0.5,0.117l0.549-0.041l1.241-0.076l0.51,0.133 l0.584,0.036l0.487,0.358l0.508,0.253l0.524-0.124l0.595,0.087l0.554-0.008l0.543,0.048l0.498,0.299l0.579,0.344l0.545,0.255 l0.543,0.03l0.479,0.396l0.283,0.574l0.549,0.277l0.514,0.43l0.562,0.039l0.545,0.381l0.154,0.62l0.244,0.631l0.064,0.606 l0.412,0.389l0.559,0.152l0.467-0.268l0.514-0.063l0.623-0.216l-0.033,1.025l-0.17,0.714l0.361,0.483l0.145,1.184l0.089,0.721 l-0.237,0.531l0.424,0.474l0.521,0.246l1.421-0.095l0.55,0.236l0.471,0.302l0.722,0.62l0.364,0.496l0.155,0.641l0.531,0.242 l0.542,0.127l0.586,0.013l0.524-0.028l0.321,0.57l0.216,1.121l0.307,0.572l0.366,0.509l0.566,0.175l0.527,0.01l0.527-0.116 l0.443,0.397l0.472,0.3l0.522-0.079l0.398,0.492l0.408,0.414l0.473,0.367l0.637-0.053l0.299-0.55l0.355-0.428l0.289-0.558 l0.504-0.32l0.537-0.91l0.412-0.576l0.295-0.561l0.451-0.334l0.578-0.196l0.736-0.454l0.499-0.186l0.45-0.4l-0.175-0.633 l-0.448-0.461l-0.162-0.605l-0.406-0.438l-0.402-0.945l0.256-1.022l0.502-0.23l0.399,0.513l0.103,0.6l0.533,0.347l0.395,0.454 l0.352,0.457l0.87,0.113l0.579-0.023l0.553-0.178l0.508,0.2l0.562,0.125l0.575,0.112l0.557,0.093l0.455,0.307l0.426,0.366 l0.951-0.057l0.534-0.138l1.042,0.336h0.674l0.582,0.149l0.08,0.025c-0.072-0.135-0.152-0.27-0.223-0.412 c0.018-1.041,0.148-1.617,0.548-2.582l-0.243-0.05l-0.064-0.31l1.062-0.309l-0.336,0.46c0.844-0.323,1.469-0.561,2.104-1.229 l0.184-0.625l0.666-0.345l0.334,0.145l0.483-0.531l1.215,0.296c1.266-2.284,3.536-3.389,1.956-6.266 c0.027-1.41-0.406-3.615,0.732-4.701c-0.02-0.894-0.191-1.876,0.188-2.721c-0.998-2.403-0.536-5.209-0.357-7.762 c0.18-2.59,0.02-5.027-0.168-7.568c-0.219-3.029-0.479-5.778-1.276-8.713c-0.724-2.66-0.54-5.709-1.891-8.164l-0.412,0.052 l0.127-0.253l-0.21-0.238l0.271-0.111c0.077-1.684-0.215-4.062-1.771-5.047l-0.442-2.986l-0.339,0.041 c0.464,0.756,0.364,1.613,0.408,2.468l-0.225,0.08l-0.603-0.425l0.067-0.924l0.227-0.292l-0.182-0.422l-1.021-0.188l1.104-0.398 l-0.946-0.434c-0.641-1.066-1.295-2.107-1.733-3.268l-0.514,0.004L666.321,692.675z"/>
  <text x="610.512" y="732.545" style="white-space: pre; fill: rgb(51, 51, 51); font-family: sans-sarif; font-weight: bold; font-size: 16.6px;">福島県</text>
</svg>