<?xml version="1.0" encoding="utf-8"?>
<svg viewBox="448.095 802.137 70.979 84.596" width="70.979" height="84.596" xmlns="http://www.w3.org/2000/svg" xmlns:bx="https://boxy-svg.com">
  <polygon fill="#8BFFE8" points="516.031,871.016 516.693,870.493 517.442,869.622 517.983,869.112 517.77,868.526 517.701,867.91 &#10;&#9;&#9;&#9;517.473,867.186 517.361,866.545 516.922,865.964 517.739,865.619 518.427,865.522 519.074,864.954 518.617,864.464 &#10;&#9;&#9;&#9;518.094,863.988 517.884,863.327 517.449,862.926 516.943,862.721 516.949,862.107 517.369,861.652 517.915,861.021 &#10;&#9;&#9;&#9;518.391,860.746 518.205,860.069 517.908,859.456 518.108,858.441 517.519,857.795 517.016,857.345 516.479,857.26 &#10;&#9;&#9;&#9;515.815,857.492 515.285,857.729 514.809,858.151 514.352,858.43 513.83,858.396 513.776,857.766 512.865,857.096 &#10;&#9;&#9;&#9;513.178,856.165 512.615,855.57 512.854,854.966 512.684,854.312 512.276,853.912 511.562,853.293 511.44,852.575 &#10;&#9;&#9;&#9;511.727,852.059 511.849,851.421 512.316,851.181 512.504,850.532 512.258,849.929 511.68,849.301 511.199,848.933 &#10;&#9;&#9;&#9;510.621,848.659 510.031,848.414 509.868,847.762 509.342,847.42 509.217,846.689 508.785,846.147 508.33,845.675 &#10;&#9;&#9;&#9;507.796,844.625 507.419,844.173 506.877,844.4 506.354,844.218 506.031,843.732 505.447,843.632 504.717,843.539 504.128,843.62 &#10;&#9;&#9;&#9;504.066,842.959 503.85,842.349 503.299,842.257 502.739,842.36 502.172,842.665 501.668,842.392 501.154,842.656 &#10;&#9;&#9;&#9;500.694,842.223 500.315,841.783 500.281,841.064 500.403,840.387 500.801,839.876 501.368,839.866 501.856,839.562 &#10;&#9;&#9;&#9;502.015,838.88 502.008,838.157 502.063,837.272 502.428,836.774 502.977,836.497 503.541,836.248 504.117,835.905 &#10;&#9;&#9;&#9;504.688,835.702 505.278,835.548 505.748,836.036 506.232,836.27 506.761,836.19 507.285,835.955 507.603,834.983 &#10;&#9;&#9;&#9;507.782,834.332 508.121,833.777 508.318,833.127 508.811,832.895 509.414,832.74 509.559,832.032 509.743,831.449 &#10;&#9;&#9;&#9;510.08,830.942 510.096,830.317 510.55,829.805 511.035,829.516 511.498,829.179 511.992,828.662 512.412,828.082 &#10;&#9;&#9;&#9;512.588,827.162 512.453,826.543 512.526,825.921 512.79,825.387 513.11,824.883 512.953,824.021 512.357,824.085 &#10;&#9;&#9;&#9;511.873,823.873 511.012,823.64 510.585,823.273 509.69,822.525 509.755,821.847 509.824,821.177 509.458,820.498 509.97,820.08 &#10;&#9;&#9;&#9;510.168,819.48 510.713,819.136 511.181,818.466 511.062,817.761 511.135,817.148 510.578,817.047 510.121,816.559 &#10;&#9;&#9;&#9;509.983,815.913 510.364,815.302 510.615,814.671 510.801,814.035 511.294,813.314 511.932,812.298 512.194,811.712 &#10;&#9;&#9;&#9;512.592,811.259 513.024,810.927 513.033,810.299 513.012,809.608 513.008,808.947 512.747,808.38 512.611,807.65 &#10;&#9;&#9;&#9;512.073,807.692 511.658,807.29 511.272,806.724 510.782,806.345 510.263,806.3 509.744,806.352 509.311,805.981 509.26,805.112 &#10;&#9;&#9;&#9;508.631,804.995 508.141,805.324 507.54,805.384 506.833,805.229 506.356,804.75 505.755,804.542 505.237,803.787 &#10;&#9;&#9;&#9;504.398,803.448 503.912,803.652 503.28,803.643 502.677,804.501 502.071,804.334 501.381,804.222 500.791,804.125 &#10;&#9;&#9;&#9;500.223,804.02 499.669,803.989 499.271,803.562 499.086,802.973 498.709,802.137 498.234,802.443 497.569,802.77 &#10;&#9;&#9;&#9;497.209,803.255 497.026,803.826 496.459,804.006 495.905,804.246 495.477,804.566 494.907,804.525 494.662,803.955 &#10;&#9;&#9;&#9;494.934,803.386 495.013,802.739 494.553,802.356 494.067,802.731 493.502,802.618 493.016,802.408 492.459,802.849 &#10;&#9;&#9;&#9;491.916,803.244 491.49,802.843 491.123,803.538 490.315,804.152 489.444,804.585 488.998,804.114 488.684,803.59 &#10;&#9;&#9;&#9;487.815,803.906 487.28,803.813 486.864,804.154 486.348,804.477 486.022,805.006 485.748,805.618 485.479,806.174 &#10;&#9;&#9;&#9;484.781,806.883 484.535,807.535 484.111,807.908 484.301,808.535 483.354,808.699 482.987,809.122 482.531,809.507 &#10;&#9;&#9;&#9;482.557,810.549 482.264,811.131 482.489,811.688 482.233,812.455 481.903,812.936 481.383,813.013 481.119,813.522 &#10;&#9;&#9;&#9;480.816,814.101 480.576,814.763 480.059,814.984 479.388,815.496 479.051,815.939 478.139,815.855 478.205,815.227 &#10;&#9;&#9;&#9;478.479,814.542 478.58,813.945 478.348,813.361 477.949,812.786 477.469,812.138 476.578,811.646 476.047,811.528 &#10;&#9;&#9;&#9;475.534,811.349 474.947,811.124 474.484,811.673 474.139,812.153 473.663,811.918 473.313,810.752 472.877,811.562 &#10;&#9;&#9;&#9;472.496,812.086 471.941,812.092 471.51,812.389 471.768,813.004 471.632,813.988 471.441,814.659 471.093,815.133 &#10;&#9;&#9;&#9;470.557,815.235 469.611,815.524 469.983,816.051 470.428,816.905 470.92,817.209 471.481,817.396 472.03,817.535 &#10;&#9;&#9;&#9;472.536,817.719 472.75,818.685 472.475,819.292 472.158,819.933 471.951,820.481 471.657,821.071 471.288,821.71 &#10;&#9;&#9;&#9;470.855,822.487 470.834,823.178 469.846,823.752 469.354,823.947 469.638,824.508 469.889,825.126 470.156,825.715 &#10;&#9;&#9;&#9;469.893,826.229 469.793,826.823 469.633,827.441 469.233,827.96 469.209,828.612 469.608,829.224 469.903,829.784 &#10;&#9;&#9;&#9;469.418,830.068 468.732,830.858 468.604,831.445 468.665,832.129 468.656,832.786 468.627,833.429 468.531,834.417 &#10;&#9;&#9;&#9;469.141,834.552 469.921,835.189 470.031,835.887 469.965,836.538 470.461,836.75 470.977,836.881 471.567,836.868 &#10;&#9;&#9;&#9;472.082,836.989 472.127,837.633 471.906,838.261 472.374,838.619 473.283,838.998 473.731,839.373 474.103,839.91 &#10;&#9;&#9;&#9;474.19,840.611 474.449,841.211 474.74,841.739 474.876,842.347 474.321,843.126 473.778,843.24 473.406,843.701 473.406,844.351 &#10;&#9;&#9;&#9;473.424,845.084 473.207,845.708 472.643,846.12 472.212,845.666 471.631,845.522 471.17,845.784 470.307,846.005 &#10;&#9;&#9;&#9;469.733,846.075 469.462,846.671 468.993,847.018 468.432,847.074 467.93,847.289 467.338,847.222 466.987,847.668 &#10;&#9;&#9;&#9;466.35,847.517 466.211,846.925 465.752,846.49 465.499,847.085 465.005,847.256 464.712,847.754 463.851,847.514 &#10;&#9;&#9;&#9;463.332,847.479 462.883,847.858 462.676,848.422 462.211,848.737 461.681,848.674 461.104,848.673 460.532,848.722 &#10;&#9;&#9;&#9;460.041,848.449 459.622,848.783 459.323,849.382 459.434,850.008 458.834,850.567 458.566,849.903 457.901,849.373 &#10;&#9;&#9;&#9;457.366,849.597 456.837,849.49 456.294,849.493 455.797,849.716 455.165,849.746 454.258,849.391 453.731,849.384 &#10;&#9;&#9;&#9;453.104,849.179 452.514,848.873 452.022,849.056 451.577,849.383 450.914,849.965 450.329,850.304 449.864,850.542 &#10;&#9;&#9;&#9;449.691,851.188 450.012,852.337 450.145,852.993 449.939,853.568 449.78,854.208 449.51,854.843 449.16,855.29 448.782,855.69 &#10;&#9;&#9;&#9;448.932,856.335 448.727,857.031 448.095,857.437 448.392,858.344 448.451,859.009 448.842,859.479 449.117,860.037 &#10;&#9;&#9;&#9;449.832,860.012 450.283,859.724 450.831,860.003 450.63,860.638 450.901,861.182 451.02,861.79 451.126,862.486 451,863.456 &#10;&#9;&#9;&#9;451.016,864.089 451.698,864.017 452.207,864.151 452.403,864.759 453.125,864.561 453.188,863.946 453.76,863.225 &#10;&#9;&#9;&#9;454.113,863.793 454.385,864.444 454.884,864.788 455.408,864.818 455.586,865.499 455.425,866.227 455.066,867.141 &#10;&#9;&#9;&#9;455.395,867.636 455.796,868.158 456.309,868.528 456.889,868.566 457.047,869.249 457.217,869.882 457.033,870.529 &#10;&#9;&#9;&#9;456.965,871.139 457.291,871.832 457.664,872.437 458.172,872.689 458.598,873.09 458.381,873.801 457.828,874.212 &#10;&#9;&#9;&#9;457.307,874.389 457.346,875.066 457.785,875.44 457.633,876.521 457.563,877.156 457.642,877.806 457.425,878.472 &#10;&#9;&#9;&#9;456.965,879.208 457.078,880.312 457.076,880.974 457.202,881.577 456.444,882.21 456.811,882.728 457.289,883.132 &#10;&#9;&#9;&#9;457.922,883.44 458.499,883.744 458.904,883.321 459.438,883.387 459.936,883.503 460.285,883.01 460.635,882.55 461.186,882.437 &#10;&#9;&#9;&#9;461.678,882.313 462.509,882.017 463.182,881.84 463.319,880.975 463.902,880.634 464.432,881.057 464.748,881.717 &#10;&#9;&#9;&#9;465.211,882.124 465.215,882.784 465.737,882.864 465.94,883.522 466.503,883.696 467.008,884.021 467.387,884.474 &#10;&#9;&#9;&#9;467.877,884.881 468.531,885.52 469.049,886.407 469.535,886.733 470.199,886.634 470.704,886.332 470.629,885.481 &#10;&#9;&#9;&#9;471.192,885.832 471.855,886.382 471.948,884.854 472.022,884.185 471.921,882.228 471.741,880.761 472.251,879.844 &#10;&#9;&#9;&#9;472.59,879.087 472.778,878.394 473.102,877.791 473.679,877.095 473.889,876.496 474.051,875.876 474.438,874.46 &#10;&#9;&#9;&#9;474.807,873.668 475.162,872.692 475.614,872.272 476.532,872.244 477.375,872.635 477.918,872.634 478.492,872.674 &#10;&#9;&#9;&#9;479.221,872.367 479.776,871.988 480.534,871.458 481.553,871.016 482.621,870.885 483.188,870.595 483.614,870.008 &#10;&#9;&#9;&#9;484.121,869.736 484.594,869.509 484.758,868.324 485.43,867.83 486.095,867.562 485.854,868.545 486.215,869.01 486.616,869.467 &#10;&#9;&#9;&#9;487.427,870.101 487.953,870.327 488.516,870.505 488.999,870.738 489.533,870.821 489.547,871.847 489.655,872.471 &#10;&#9;&#9;&#9;490.532,872.482 490.994,872.842 490.748,873.397 490.899,874.088 491.432,874.231 491.694,874.812 492.569,875.095 &#10;&#9;&#9;&#9;492.681,874.493 493.289,874.479 493.802,874.588 494.755,875.067 495.246,875.341 495.831,875.174 496.362,875.391 &#10;&#9;&#9;&#9;496.758,875.816 496.936,876.488 497.389,876.791 497.961,876.722 498.627,876.231 499.537,876.096 499.948,875.752 &#10;&#9;&#9;&#9;500.579,875.374 500.986,874.867 501.168,874.298 501.67,873.95 502.24,873.995 502.761,873.895 503.281,873.722 503.76,873.979 &#10;&#9;&#9;&#9;504.292,874.292 504.836,874.568 505.372,874.683 505.258,875.311 506.202,875.258 506.75,875.029 507.432,875.168 &#10;&#9;&#9;&#9;507.479,875.967 508.106,876.238 508.621,876.328 509.465,876.457 510.174,876.911 510.588,876.309 511.537,875.8 &#10;&#9;&#9;&#9;511.984,875.342 512.578,874.668 513.083,874.19 513.64,873.989 513.996,873.457 514.164,872.811 514.768,872.869 &#10;&#9;&#9;&#9;515.322,872.875 516.213,872.363 515.942,871.619 &#9;&#9;"/>
  <text style="fill: rgb(51, 51, 51); font-family: sans-sarif; font-weight: bold; font-size: 15.6px; white-space: pre;" x="480.118" y="833.468" dx="0.199 -15.678 -15.616" dy="-4.311 17.012 16.384">岐阜県</text>
</svg>