<?xml version="1.0" encoding="utf-8"?>
<svg viewBox="549.69 754.987 66.048 67.558" width="66.048" height="67.558" xmlns="http://www.w3.org/2000/svg">
  <polygon fill="#79FF76" points="587.719,760.289 587.266,760.555 586.7,760.429 585.853,760.188 585.54,759.608 585.552,758.993 &#10;&#9;&#9;&#9;585.348,758.343 584.81,757.932 584.199,757.714 583.776,757.294 583.323,756.868 582.867,756.544 582.573,756.003 &#10;&#9;&#9;&#9;581.914,755.526 581.463,755.088 580.924,754.987 580.731,756.04 580.746,756.733 580.883,757.39 580.524,757.894 580.084,758.22 &#10;&#9;&#9;&#9;579.667,758.565 579.237,758.899 578.983,759.44 578.543,759.753 578.002,759.931 577.471,759.825 576.962,760.1 576.457,760.427 &#10;&#9;&#9;&#9;575.934,760.427 575.406,760.492 574.864,760.67 574.937,761.335 575.026,761.995 575.061,762.628 575.227,763.279 &#10;&#9;&#9;&#9;575.549,763.841 575.946,764.778 576.144,765.372 575.975,766.026 575.435,765.971 574.922,765.803 574.356,765.921 &#10;&#9;&#9;&#9;573.78,766.024 573.5,766.611 573.265,767.204 573.424,767.806 573.309,768.467 573.734,768.931 574.088,769.485 573.258,770.114 &#10;&#9;&#9;&#9;572.279,770.368 571.737,770.496 571.286,771.015 570.45,771.508 569.92,771.368 569.307,771.382 568.771,771.645 &#10;&#9;&#9;&#9;569.114,772.243 569.363,772.819 569.379,773.487 569.352,774.093 569.11,774.648 568.522,774.646 568.069,774.995 &#10;&#9;&#9;&#9;567.766,775.478 567.505,776 566.926,775.933 566.366,775.89 565.834,775.688 564.888,775.276 564.281,775.276 564.19,775.936 &#10;&#9;&#9;&#9;563.887,776.487 563.539,776.956 562.854,776.63 562.288,777.257 561.823,777.581 561.306,777.733 560.833,777.937 &#10;&#9;&#9;&#9;560.323,778.195 559.33,778.564 559.107,779.167 558.568,779.364 558.12,779.029 557.748,779.563 557.219,779.754 &#10;&#9;&#9;&#9;556.661,779.746 556.076,779.845 555.524,780.022 555.178,780.481 554.623,780.636 554.384,781.186 554.367,781.825 &#10;&#9;&#9;&#9;554.809,782.227 555.179,782.782 554.93,783.352 554.064,783.651 553.559,784.006 553.063,784.139 552.496,784.035 &#10;&#9;&#9;&#9;552.109,784.521 551.67,784.948 551.719,785.583 551.512,786.19 550.999,786.34 550.91,787.021 550.401,787.294 550.403,787.902 &#10;&#9;&#9;&#9;550.223,788.723 550.668,789.068 550.744,789.76 550.471,790.268 550.031,790.724 549.908,791.782 549.804,792.431 &#10;&#9;&#9;&#9;549.834,793.123 549.69,794.082 549.918,794.715 550.119,795.348 550.055,796.031 550.158,796.681 550.25,797.291 &#10;&#9;&#9;&#9;550.809,797.379 551.348,797.562 551.891,797.691 552.744,797.913 553.292,798.336 553.688,798.754 554.22,798.716 &#10;&#9;&#9;&#9;554.83,798.786 555.271,797.948 556.288,798.2 557.063,798.436 557.615,798.307 557.92,797.758 558.619,797.165 559.166,797.136 &#10;&#9;&#9;&#9;559.662,796.896 560.408,796.702 560.971,796.708 561.598,797.035 562.129,796.874 562.629,797.056 563.225,798.044 &#10;&#9;&#9;&#9;563.362,798.691 563.393,799.324 563.707,799.837 563.668,800.449 563.563,801.126 563.804,802.29 563.679,803.008 &#10;&#9;&#9;&#9;564.01,803.553 563.612,804.37 563.091,804.645 562.565,804.914 562.063,805.247 561.533,805.568 561.845,806.39 561.909,807.091 &#10;&#9;&#9;&#9;562.338,807.644 562.475,808.281 563.102,809.29 563.708,809.255 563.407,810.195 563.866,811.287 563.43,811.951 &#10;&#9;&#9;&#9;562.869,812.632 562.336,812.443 561.581,811.959 561.232,812.431 561.953,813.11 562.275,813.638 562.594,814.209 &#10;&#9;&#9;&#9;563.164,814.271 563.723,814.339 564.281,814.184 564.567,814.712 565.213,815.782 564.941,816.343 564.456,816.757 &#10;&#9;&#9;&#9;564.92,817.59 565.283,818.15 565.361,818.785 565.211,819.963 566,821.068 566.572,821.13 567.073,821.34 567.622,821.355 &#10;&#9;&#9;&#9;568.071,822.342 568.707,822.545 569.602,822.203 570.115,821.98 570.607,821.196 570.948,820.718 571.055,820.081 &#10;&#9;&#9;&#9;571.219,819.451 571.728,819.201 572.271,819.158 572.778,819.347 573.303,819.416 573.801,819.17 574.389,818.999 &#10;&#9;&#9;&#9;574.926,818.541 575.135,818.004 575.522,817.562 575.655,816.886 576.135,816.704 576.434,816.191 577.067,815.771 &#10;&#9;&#9;&#9;577.682,815.454 578.222,815.117 578.721,815.043 579.752,815.099 580.24,814.681 580.641,814.215 580.953,813.679 &#10;&#9;&#9;&#9;581.186,812.586 582.817,812.397 583.465,811.915 584.1,811.742 584.567,812.061 585.104,811.922 585.256,810.423 &#10;&#9;&#9;&#9;585.946,809.898 585.504,808.962 585.678,808.37 585.724,807.564 586.092,807.094 586.518,806.146 586.728,805.544 &#10;&#9;&#9;&#9;587.108,804.705 587.42,803.459 587.896,802.92 588.281,802.246 589.375,802.149 590.09,802.159 591.242,802.594 591.761,802.734 &#10;&#9;&#9;&#9;592.731,802.923 594.729,803.768 596.221,803.218 596.844,803.339 597.687,803.648 598.808,803.609 599.239,803.226 &#10;&#9;&#9;&#9;599.818,802.959 600.381,802.768 600.965,802.817 601.897,803.426 602.446,803.725 603.448,804.153 604.453,804.897 &#10;&#9;&#9;&#9;604.991,805.284 605.526,805.525 606.042,805.606 606.721,805.501 607.409,805.293 608.389,805.11 609.01,805.085 &#10;&#9;&#9;&#9;609.592,804.939 610.147,804.628 610.676,804.317 611.473,804.047 611.921,803.652 612.432,803.59 612.972,803.841 &#10;&#9;&#9;&#9;613.405,804.252 613.91,804.628 614.551,804.175 615.123,804.041 615.352,803.437 615.738,802.472 615.586,801.846 &#10;&#9;&#9;&#9;615.136,801.456 614.634,801.236 614.198,800.671 614.33,799.929 613.865,799.572 613.283,799.446 612.606,799.925 &#10;&#9;&#9;&#9;611.897,799.996 610.46,800.258 609.988,799.851 609.049,799.514 608.51,799.422 608.011,799.691 607.439,799.787 606.51,800.241 &#10;&#9;&#9;&#9;606.014,800.45 605.526,800.139 605.145,799.66 604.601,799.669 603.891,799.219 603.418,798.923 602.845,798.369 &#10;&#9;&#9;&#9;602.999,797.628 602.775,796.918 602.115,796.749 601.344,796.436 600.639,795.838 599.818,795.291 599.68,794.658 &#10;&#9;&#9;&#9;599.561,794.001 599.815,793.444 599.985,792.85 600.339,792.081 600.621,791.559 600.938,791.008 601.225,790.361 &#10;&#9;&#9;&#9;601.442,789.797 601.922,789.579 602.375,789.152 602.593,788.6 601.928,787.878 601.495,786.806 601.924,786.104 602.11,785.491 &#10;&#9;&#9;&#9;602.274,784.911 602.048,784.325 602.177,783.676 603,783.499 603.326,782.996 603.707,782.263 604.087,781.802 603.628,781.184 &#10;&#9;&#9;&#9;603.417,780.576 602.987,780.224 602.484,780.421 601.882,780.384 601.435,780.694 600.818,780.659 600.283,780.456 &#10;&#9;&#9;&#9;599.854,780.776 599.321,780.698 598.783,780.388 598.221,780.456 597.66,780.399 597.125,780.306 596.8,779.784 595.835,779.402 &#10;&#9;&#9;&#9;595.858,778.776 595.663,778.151 595.936,777.161 596.035,776.544 595.883,775.936 596.181,775.409 596.571,774.921 &#10;&#9;&#9;&#9;596.84,774.362 597.141,773.552 597.051,772.903 596.813,772.241 596.313,771.98 596.08,771.423 596.056,770.726 596.473,770.396 &#10;&#9;&#9;&#9;597.135,769.507 597.082,768.868 597.551,768.601 597.705,767.982 598.124,767.524 598.249,766.899 597.68,766.796 &#10;&#9;&#9;&#9;597.112,766.721 596.515,766.564 596.041,766.179 595.483,766.14 595.552,765.53 595.711,764.522 596.143,763.53 596.487,762.995 &#10;&#9;&#9;&#9;596.51,762.134 596.013,761.808 595.422,761.97 594.594,761.733 594.084,761.528 593.488,761.64 592.944,761.632 592.301,761.612 &#10;&#9;&#9;&#9;591.85,761.265 590.877,761.443 590.364,761.082 590.006,761.577 589.082,761.749 588.961,760.835 588.258,760.069 &#9;&#9;"/>
</svg>