<?xml version="1.0" encoding="utf-8"?>
<svg viewBox="241.604 911.963 71.97 66.008" width="71.97" height="66.008" xmlns="http://www.w3.org/2000/svg">
  <path fill="#FF9141" d="M313.574,945.707l-0.544-0.095l0.062-0.614l0.007-0.666l-0.142-0.997l-0.293-0.557l-0.409-0.513 l-0.513-0.348l-0.5-1.076l-0.87-0.114l-0.428-0.392l-0.266-0.589l-0.656-0.804l0.36-0.687l-0.29-0.551l0.262-0.537l0.178-0.609 l0.102-0.677l-0.533-0.278l-0.496-0.205l-0.194-0.66l-0.439-0.391l-0.294-0.791l-0.128-0.645l-0.484-0.345l0.328-0.984 l-0.437-0.896l0.09-0.602l0.202-0.96l0.083-0.629l0.031-0.758l-0.341-0.487l-0.514-0.266l-0.966-0.469l-0.627-0.854l-0.536-0.705 l-0.54-0.517l-0.458-0.397l-0.326-0.515l-0.433-0.372l-0.075-0.618l0.02-0.65l0.219-0.613l-0.204-0.597l0.318-0.48l-0.395-0.562 l-0.363-0.541l0.272-0.514l0.078-0.606l0.332-0.536l0.234-0.587l-0.111-0.969l-0.487-0.329l-0.473-0.276l-0.37-0.444l-0.355-0.482 l-0.529-0.331l-0.502-0.343l-0.255-0.58l-0.479-0.314l-0.755-0.82l-0.804,0.181l-0.118,0.589l-0.84-0.248l-0.584,0.155 l-0.533,0.212l-0.521,0.161l-0.548,0.105l-0.468-0.322l-0.904,0.626l-0.103-0.665l-1.007-0.305l-0.541-0.079l-0.53,0.269 l-0.539,0.092l-0.513,0.137l-0.545,0.039l-0.519,0.191l-0.275,0.573l-0.617,0.222l-0.501-0.255l-0.875-0.711l-0.529-0.183 l-0.86-0.552l-0.521,0.968l-0.755,0.56l-0.558,0.289l-0.505-0.219l-0.552-0.096l-0.522-0.019l-0.75-0.312l-0.366-0.479 l-0.476-0.294l-1.003,0.303l-0.555,0.634l-0.364,0.535l-0.296,0.514l-0.412,0.526l-0.318,0.555l0.182,0.832l-0.481,0.292 l-0.294,0.524l-0.265,0.584l-0.417,0.407l-0.427,0.518l-0.216,0.653l-0.44,0.409l-0.31,1.04l-0.598,0.262l0.075,0.943 l-0.614,0.231l-0.484,0.297l-0.311,0.553l-0.528-0.303l-0.502,0.131l-0.571,0.116l-0.399,0.702l-0.165,0.586l-0.465,0.36 l-0.438,0.322l-0.397,0.854l0.149,0.607l0.984,0.466l0.452-0.312l0.825,0.546l0.55,0.084l0.309,0.768l0.278,0.54l-0.286,0.9 l-0.516-0.042l-0.527-0.146l-0.412,0.405l-0.55,0.855l-0.627-0.399l-0.793,0.096l-0.572-0.077l-0.49,0.231l-0.601,0.574 l-0.283,0.527l-0.444,0.382l-0.423,0.359l-0.311,0.477l-0.558-0.037l-0.413,0.366l-0.437,0.514l-0.555-0.176l-0.569-0.135 l-0.414,0.44l-0.507-0.135l-0.544,0.156l-0.594-0.005l-0.559-0.135l-0.509,0.17l-0.307-0.603l-0.45-0.354l-0.517,0.2l-0.493,0.281 l0.265,0.618l-0.473,0.292l-0.366,0.429l-0.341,0.534l-0.577,0.118l-0.32-0.707l-0.581-0.319l-0.538,0.116l-0.566,0.292 l-0.412,0.368l-0.646,0.079l-0.493-0.294l-0.497,0.17l-0.242,0.552l-0.173,0.648l-0.523-0.095l-0.516-0.279l-0.148-0.707 l-0.528-0.182l-0.914-0.273l-0.621,0.419l0.291,0.608l-0.028,0.691l-0.332,0.454l-0.278,0.611l-0.097,0.635l-0.417,0.585 l-0.564-0.15l-0.23,0.606l-0.45,0.371l-0.518,0.002l-0.389,0.419l-0.498,0.424l-0.414,0.386l-0.35,0.545l-0.257,0.79l0.475,0.308 l0.617-0.156l0.433,0.545l-0.302,0.522l-0.257,0.816l-0.301,0.53l-0.605,0.968l0.276,0.613l-0.345,0.505l-0.179,0.869l0.364,0.48 l0.192,0.819l-0.248,0.619l-0.06,0.702l-0.352,0.447l-0.399,0.438l-0.363,0.501l-0.286,0.538l-0.471,0.203l-0.532,0.147 l-0.476,0.279l-0.23,0.571l-0.02,0.635l-0.322,0.529l0.857,0.344l0.237,0.599l0.362,0.516l0.359,0.533l0.618,1.115l0.019,0.627 l0.107,0.719l-0.303,0.762l0.301,0.548l-0.09,0.6l0.386,0.478l-0.16,0.61l-0.007,0.62l0.005,0.673l0.616-0.125l0.467,0.327 l0.487,0.215l0.162,0.591l0.714,0.296l0.454-0.264l0.339,0.545l-0.159,0.729l0.145,0.911l0.466,0.336l0.368,0.579l-0.093,0.72 l0.321,0.531l0.403,0.412l0.29,1.025l0.485,0.372l0.428-0.35l0.906,0.244l0.492-0.227l0.65-0.009l0.431,0.358l0.563-0.325 l0.239-0.258l0.036-0.041l-0.052-0.07l-0.622-0.164c0.007-0.688,0.341-1.114,0.682-1.705l0.489-0.268 c0.293-0.66,0.733-1.262,1.405-1.563l0.11-0.614c0.792-0.708,1.497-1.305,2.058-2.218l-0.07-0.356 c0.692-0.455,1.301-1.033,2.059-1.381l0.151,0.611l0.687-0.399l0.191-0.573l0.887-0.242l0.135-0.173l0.223,0.1l-0.026,0.215 l0.593,0.135l0.476-0.606l0.084,0.042l-0.137,0.384l0.504,0.283l0.125-0.489l0.241,0.045l0.042,0.132l0.328-0.121l-0.015,0.107 l-0.413,0.26l-0.122,0.487l0.26-0.005l0.05-0.242c0.356,0.052,0.684,0.201,0.968,0.428l0.193-0.779l0.717-0.351l0.049,0.175 c0.73-0.062,1.489-0.293,1.873-0.962c0.141,0.038,0.261,0.11,0.366,0.217c-0.257,0.188-0.524,0.368-0.797,0.542l0.233,0.39 l-0.175,0.078l-0.221-0.315l-0.497,0.22l-0.332,0.51l0.207,0.394l0.304-0.296l0.166,0.082c-0.211,0.468-0.552,0.859-0.924,1.215 l1.484,1.838c-0.156,0.502-0.204,1.047-0.046,1.55l0.478-0.163l0.313,0.198l-0.075,0.458l0.262,0.202l0.596-0.258l0.838,0.423 l-0.372,0.802l-0.635,0.161l0.452,0.492l0.104,1.269l1.301-0.29c0.496-0.656,1.059-1.234,1.241-2.063l0.366-0.207l0.308,0.357 l0.404-0.104l-0.065,0.323l0.329,0.536l0.292-0.169l0.175,0.35l0.377-0.128l0.111,0.276l1.079-0.398l-0.123-0.561l0.466-0.267 l0.325,0.301l0.246-0.132l0.26,0.412l0.4-1.645c0.917-0.614,2.296-0.688,3.368-0.938l-0.008-0.287l0.488-0.505l-0.368-0.426 l-0.579,0.175l0.219-0.576l-0.242-0.681l1.491,0.186l0.412-1.751l-0.153-0.399l0.449-0.399l0.217,0.265l0.688-0.584l0.54,0.142 l0.916,1.277c0.248-0.469,0.709-0.774,1.225-0.908l-0.131-0.222l0.251-0.508l0.343,0.016l0.109-0.381l1.305-0.892l0.141,0.087 l-0.097,0.275l0.856-0.079l0.432-0.732l0.833-0.262l1.257,0.421l0.713-0.378l0.518,0.382c0.838-0.273,1.542-0.546,2.219-1.135 l1.066-0.051l0.417-2.15l-0.762-0.427l-0.097-0.384l0.684,0.021l0.091-0.322c0.606,0.062,1.188,0.322,1.767,0.516 c1.568-0.903,3.513-2.57,5.381-2.492l-0.077-0.83l0.4-0.361l-0.01-0.522l0.454,0.283l0.021-0.659l0.239,0.001l0.101,0.403 l0.241-0.394l1.3,0.784l0.067,0.749l-0.235,0.444l-0.886,0.479l-0.062,0.353l0.336,0.373c0.235-0.204,0.424-0.442,0.565-0.726 l0.242,0.464l0.565,0.353l0.673-0.292l0.388,0.399l0.595,0.163l0.145-0.33l1.021,0.215l0.167,0.503l0.914-0.245l0.767-0.804 l-0.103-0.615l0.397,0.031c0.178-0.276,0.297-0.585,0.358-0.906l-0.222-0.105l-0.153-0.609l0.114-0.146l0.616,0.341l0.292-0.61 l-1.648-1.683l2.658,1.794l0.31-0.455c-0.374-0.695-1.017-1.078-1.632-1.558l1.423-0.147l0.057-1.449l0.305-0.089l0.01,0.024 l-0.081-0.579L313.574,945.707z M300.809,953.856l-0.072,0.688c0.334,0.488,0.668,0.981,0.993,1.477c0.715-0.466,0.814-1.27,1.228-1.959 l0.696-0.292l-0.014-0.969l-0.445,0.004C302.731,953.254,301.468,953.8,300.809,953.856z M300.74,956.274c-0.375-0.104-0.754-0.151-1.145-0.151c-0.156,0.459-0.424,0.864-0.769,1.195 c0.257,0.787,0.649,1.51,1.227,2.105l0.605,0.029l0.238,0.861l0.768-0.145c0.203-0.281,0.347-0.588,0.438-0.92l-0.301-0.095 l0.008-0.37l0.383-0.072l0.079-0.639l-0.537-1.163l-0.382,0.07l-0.395-0.211L300.74,956.274z M295.689,961.005l0.002,0.447c0.277,0.543,0.772,0.946,1.38,1.003c0.35-0.45,0.704-0.898,1.067-1.333 c0.429-0.026,0.816-0.169,1.152-0.429c-0.002-0.479-0.007-0.957-0.018-1.438l-0.283-0.385l-0.464-0.15 c-0.572,0.553-1.198,0.938-2,1.005C296.226,960.135,295.943,960.563,295.689,961.005z M300.147,964.671l-0.866-0.021l-0.184-0.213l0.224-0.528l-0.125-0.375l-0.436-0.154 c-0.618,0.154-0.918,0.604-1.396,1.007c-0.233-0.184-0.464-0.359-0.694-0.541c-0.25,0.549-0.094,1.145,0.299,1.586l-0.681,0.637 l0.005,0.26c0.467,0.022,0.93,0.088,1.386,0.196l0.485-0.32l0.016-0.292l0.196-0.099c0.272,0.186,0.492,0.423,0.664,0.703 l0.499,0.225l0.524-0.407c-0.09-0.236-0.257-0.443-0.465-0.597l0.624-0.466L300.147,964.671L300.147,964.671z M283.88,965.966l0.237,0.837c0.417,0.292,0.897,0.49,1.389,0.639c1.184-0.624,1.736-0.634,2.356-1.921 c0.484-1.002,0.79-2.116,1.021-3.208l-0.325-0.092l-0.768,0.355c-0.475,0.571-0.653,1.247-1.143,1.793l-0.453-0.288l-0.242-0.466 l-0.365,0.437l0.217,0.708l-0.77-0.09C284.634,965.09,284.247,965.518,283.88,965.966z M283.109,968.419l-0.302,0.532l-0.692,0.111l-0.447,0.843c0.098,0.281,0.152,0.575,0.158,0.872 c0.542-0.17,1.082-0.046,1.6-0.197c0.614-0.184,0.873-0.808,1.528-1l-0.223-0.548c-0.392-0.191-0.753-0.426-1.083-0.706 L283.109,968.419z M279.75,969.668c-0.406-0.258-0.737-0.595-0.986-1.006c-0.562,0.199-1.176,0.158-1.693-0.132 c-0.333,0.173-0.662,0.358-0.978,0.565c-0.048,0.361,0.001,0.701,0.152,1.024c0.396-0.113,0.813-0.126,1.204-0.013l0.234,0.416 l0.702-0.059l0,0.446l1.073-0.657L279.75,969.668z M267.805,970.298c-0.374,0.423-0.819,0.796-1.308,1.077c-0.364,1.101-0.063,2.154-0.228,3.273 c-1.201,0.494-1.877,0.865-2.61,1.999l0.469,1.045c0.544-0.424,1.166-0.721,1.831-0.881l0.228-0.499l0.304-0.067l0.101,0.384 l1.361-0.429l0.379,0.319l-0.001,1.257l0.545,0.195c-0.173-1.111,0.489-1.993,0.699-3.047l0.976,0.247l-0.204-1.442 c-0.714,0.458-1.439,0.868-2.018,1.5l0.311-1.111l0.388-0.227l0.005-1.05l-1.076,0.421l-0.146-0.562 c0.162-0.578,0.363-1.145,0.603-1.694L267.805,970.298z M260.55,967.73l-0.009,0.577l0.301,0.332c0.026,0.597,0.145,1.253,0.454,1.774l0.995,0.426 c0.119,0.383,0.278,0.755,0.475,1.098l0.369,0.005l0.151-0.463c0.39,0.094,0.729,0.277,1.012,0.557 c-0.278,0.925-0.746,1.441-1.388,2.134l0.228,0.79l0.381-0.309c0.371,0.012,0.737-0.083,1.067-0.269l0.151-0.485l0.855,0.13 c0.106-0.859-0.363-1.318-0.384-2.063c-0.027-0.867,0.771-1.406,0.989-2.177c0.39-1.38,0.046-3.223-0.071-4.629l-0.517-0.357 l-0.002,0.604l-0.781-0.164c-0.382,0.154-0.765,0.303-1.149,0.453l0.228,0.787c-0.261,0.249-0.415,0.558-0.464,0.919l0.248,0.31 l0.462-0.083c0.199-0.195,0.403-0.387,0.611-0.573c0.055,0.491,0.277,0.945,0.607,1.315l-0.082,0.847l-0.542,0.486l-0.518-0.592 l-0.785,0.229l-0.292-0.463l0.465-0.685c-0.392-0.569-1.036-0.657-1.612-0.983C261.494,967.28,260.996,967.472,260.55,967.73z M257.624,967.589l0.692-0.347c0.343-0.677,0.782-1.268,0.611-2.065l-0.839-0.21l-0.06,0.374 c-0.933,0.662-2.051,1.303-2.453,2.422l-0.534,0.776c-0.052,0.496,0.08,0.954,0.377,1.368 C256.416,969.483,257.406,968.7,257.624,967.589z"/>
</svg>