<?xml version="1.0" encoding="utf-8"?>
<svg viewBox="247.51 2.65 154.916 130.672" width="154.916" height="130.672" xmlns="http://www.w3.org/2000/svg" xmlns:bx="https://boxy-svg.com">
  <path fill="#FF8585" d="M864.463,339.31l0.264,0.65l0.051,0.411l-0.195,0.338l-0.484,0.112c-0.269-0.278-0.439-0.609-0.514-0.984 l0.344-0.409L864.463,339.31z M828.994,360.43c-0.094,0.216-0.143,0.44-0.155,0.674c0.282,0.038,0.563,0.02,0.834-0.048 l0.222-0.342l-0.014-0.547l-0.451-0.05L828.994,360.43z M642.77,292.37l0.436,0.34l0.312-0.012l0.396-0.624l-0.113-0.93 l-0.476-0.44l-1.086,0.106c-0.291,0.426-0.734,0.734-1.228,0.886l0.53,0.904L642.77,292.37z M628.253,252.337 c-1.415-0.757-2.843-1.456-4.296-2.144l-0.463-3.769l2.301-3.242c1.12,0.153,2.238,0.303,3.356,0.458 c0.817,0.107,1.944,1.296,2.627,1.768l2.012,2.714l-1.404,2.241C631.022,251.061,629.662,251.722,628.253,252.337z M637.859,291.638l0.714,0.018l0.578,0.897l-0.127,0.67l-0.793,0.569c-0.561,0.062-1.123,0.042-1.68-0.03l0.027-1.053 C637.041,292.405,637.477,292.042,637.859,291.638z M614.843,238.644c-0.751-1.806-0.868-3.572-1.106-5.519l2.32-0.284 l0.203-0.914l2.168,1.226c-0.164,1.905-0.246,3.531-0.014,5.425c0.203,1.655-0.633,3.434-1.061,5.029 C616.43,241.959,615.569,240.382,614.843,238.644z M873.662,328.792l0.16,0.452l-0.175,0.284l-0.753,0.277l0.029,0.231 c-0.562,0.661-1.245,1.179-1.912,1.73l-0.211-0.002l-0.062-0.281l-0.78,0.671l-0.459-0.309c-0.733,0.167-1.354,0.746-1.979,1.158 l0.139,0.273l-0.164,0.151c-1.213-0.588-2.408,0.12-3.42,0.735l0.266,0.464l-0.703,0.453l-0.094,0.745l-0.267,0.165l-0.665-0.312 l-0.578,0.413l0.131,0.847c-0.515,0.787-0.033,1.582-0.498,2.368l0.188,0.447l0.278,0.123c-0.244,0.44-0.673,0.71-1.148,0.899 l-0.168,0.336l0.307,0.329l-0.059,0.61l-0.867-0.026l-0.436,0.5l0.98,0.298l-0.312,0.876l-0.827,0.311l-0.033-0.494l0.24-0.396 c-1.855-2.095-7.703,0.286-9.645,1.447l-1.217-0.087c-1.562,0.917-3.404,2.907-5.305,2.668l-0.471-0.414 c-1.184,0.011-1.95,0.915-2.812,1.603c-0.184,0.807-0.249,1.751,0.273,2.431l0.765,0.271l1.634-0.358l0.514,0.54l-0.913,0.061 l-0.239,0.186l0.28,0.149l-1.226,0.229L841,351.377l-1.073,0.21l-0.561,0.775l0.31,0.381l-0.247,0.79 c-0.821,0.535-1.649,1.354-2.7,1.249l-0.449-0.468l-0.002-0.445l-0.4-0.057l0.07-0.296l-1.381-0.146l-0.126,0.276l0.919,0.437 l-0.202,0.289l0.382,0.109l-0.104,0.458l0.461-0.317l0.602,0.424l-0.053,0.424l0.408,0.345l-0.228,0.708l-2.708,1.407 l-2.215-0.123l-0.197,0.339c-0.654-0.21-1.373-0.185-1.969,0.19l-0.96-0.799l-0.422-0.027l0.087-0.377l-0.486-0.333l-0.732,0.222 l0.159-0.625l-0.33-0.534l0.78-0.908l0.521,0.198l0.267,0.466l2.05,0.481l0.764-0.592l0.649,0.156l0.075-0.663l0.454-0.371 l0.027-0.396l-0.267-0.02l-0.256-0.388c-1.377-0.621-2.307-0.665-3.832-0.708l0.1-0.458l-0.443-0.626l-0.214,0.39l0.22,0.497 c-0.215,0.396-0.267,0.849-0.154,1.303l0.506,0.279l-0.26,0.216c-1.427-0.244-2.229-0.246-3.637,0.053 c-1.031,1.256-2.484,2.783-2.812,4.405c0.489,1.439,2.215,1.884,3.465,2.405l-0.078,0.428c-5.209,0.375-10.389-0.626-15.24,1.557 c-1.428-0.261-3.549-0.206-4.704-1.203l-1.468-0.003l0.012-0.343l0.416,0.002l0.062-0.349c-1.712-2.359-7.236-0.355-9.372,0.686 c-3.09,1.504-6.314,3.337-8.983,5.509c-2.805,2.28-5.208,4.587-7.66,7.237c-1.606,1.735-3.215,3.473-4.815,5.207 c-0.888,0.956-1.791,2.224-2.814,3.044l-0.237-0.232l-0.715,0.348l0.74,0.066c-2.952,3.758-5.915,7.517-8.179,11.753 c-2.531,4.744-4.34,9.459-6.201,14.507c0.742,1.853-0.745,4.273,1.451,5.637c0.556,1.429-0.115,3.479-0.223,5.007l0.314,0.616 l-0.43,2.487l0.433,0.968c-1.796,2.63-3.649,5.054-2.435,8.341l-0.137,0.148c-1.293-1.041-2.527-1.861-3.963-2.699 c-1.357-0.794-1.718-2.5-3.138-3.208c-2.88-1.432-6.439-1.75-8.745-4.092l-1.473-0.263l-0.551,0.431l-0.553-0.455 c-1.63-0.115-3.156-0.306-4.771-0.042c-0.859-0.436-1.711-0.874-2.568-1.313c-0.729-0.373-1.492-0.208-2.121-0.53 c-0.805-0.416-1.693-0.411-2.589-0.518c-1.006-0.123-1.651-0.697-2.503-1.254c-1.592-1.052-3.149-0.84-4.83-1.427 c-2.102-0.731-3.558-1.008-5.409-2.295c-1.179-0.817-3.005-0.745-4.396-1.396c-1.836-0.854-3.484-1.644-5.145-2.788 c-1.478-1.023-3.049-2.625-4.643-3.39c-1.854-0.897-3.91-0.811-5.931-0.696c-0.673-0.61-1.632-0.461-2.471-0.508 c-0.784-1.044-2.195-1.001-3.098-1.824c-1.154-1.054-2.026-1.488-3.487-2.081l0.082-0.194l0.577,0.218l0.43-0.735l-0.875,0.345 c-4.118-2.641-9.88-2.797-14.601-2.217l-0.443-0.208l-0.271-0.701l-0.287,1.058c-4.592,1.224-9.973,3.888-13.295,7.369l0.041-0.32 c-0.268,0.094-0.476,0.262-0.621,0.497l0.286-0.009c-1.903,1.813-3.912,4.543-6.219,5.791c-1.304,0.704-2.43,1.152-3.331,2.311 c-1.114,1.425-2.229,2.848-3.341,4.272l0.032,0.494l-0.832,0.469l-0.094,0.3l0.178,0.187c-0.652,0.311-1.08,0.902-1.353,1.554 l0.136,0.456l-0.533,0.588l-1.373-0.302l-0.449,0.161l-0.271-0.491l-1.004-0.087l-0.852-0.942l0.015-0.315l0.585-0.125 l0.413-0.468l0.675,0.153l-0.076,0.218l0.33,0.144l0.227,0.759l0.219,0.079l0.414-0.471l0.022-0.892l1.202-0.438l-0.305-0.145 l-0.92,0.192l-0.435-0.342l-0.388,0.233l-3.453-0.991c-0.687-1.99-1.385-5.094-3.979-5.326l-0.192-0.474l-0.196,0.313 l-2.129-1.338l-0.824,0.102l-0.066-0.961l0.431,0.104l-0.25-0.336l-0.614-0.108l-0.178-1l-2.675-1.741l-0.685-0.021l-0.359-0.611 c-2.416,0.117-3.879,0.771-6.096,1.771c-1.035-0.326-2.355-1.053-3.437-0.86l-0.237,0.37c-2.061,0.084-2.881,0.417-4.084,2.219 c-1.145,1.709-2.098,3.33-3.012,5.167c-1.627,3.297-2.674,7.117-2.551,10.812c0.061,1.753,0.367,3.638,2.373,4.044 c1.86,0.375,3.842,0.194,5.279,1.514c0.616,0.569,1.572,0.641,2.097,1.176c0.751,0.77,1.548,1.126,2.519,1.613 c0.891,0.455,1.307,1.037,2.339,1.402c0.825,0.294,1.964,0.135,2.837,0.171c1.621-0.908,2.489-1.35,4.326-1.475l1.277-0.89 c0.923,0.517,1.645,0.803,2.672,1.061c0.289,0.811,0.744,1.373,1.272,2.042l1.326,0.127l0.097,1.219l0.446,0.234l0.255,0.595 c1.219,0.676,2.437,1.35,3.653,2.022c1.177,0.652,1.735,1.68,2.849,2.288l0.348,0.902l0.485,0.333l0.161-0.203l0.773,1.189 c0.906,0.329,1.816,0.654,2.723,0.981c0.686,0.244,1.6-0.048,2.355,0.02c0.998,0.096,1.738,0.269,2.689,0.589 c0.887,0.299,1.321,1.04,2.346,0.993l0.21,0.235l-0.295,0.586l0.13,0.402c0.66,0.375,1.233,0.822,2.032,0.773l0.382,0.974 c-0.504,0.424-1.078,0.765-1.293,1.417l-1.302,0.291l-0.514-0.331l-0.883,0.476c-0.3,0.651-0.469,1.305-1.071,1.728l-0.165,0.779 l-0.988,0.701l-0.138,0.592l-0.808,0.045l-0.184,0.417l-0.864,0.001l-0.512,0.534l-2.043,0.435 c-0.99-0.318-1.426-1.193-2.445-1.473c-1.086-0.298-2.092-0.519-3.205-0.686c-1.973-0.289-5.996-1.65-7.04,0.99l0.335,0.379 c-0.391,0.289-0.891,0.416-1.379,0.51c-0.308-0.418-0.486-0.923-0.44-1.438l0.538-0.958l0.467,0.179l0.019,0.364l0.186,0.03 l0.337-0.459l-0.021-1.021l-0.387-0.372l-0.281,0.036l-0.181-0.607c-1.093-0.525-2.378-0.607-3.505-0.169l-0.973,1.034 c0.439,1.229-0.444,2.636-0.459,3.934c-1.479,0.873-2.439,1.75-3.643,2.988l-3.324,0.878c-1.6,2.345-0.824,5.399-0.42,8.095 l0.455,0.52c-0.25,1.107-0.469,1.465-1.234,2.302l-2.22,0.48c-1.026,1.278-3.528,2.106-4.955,2.939l-0.149,0.937 c-0.818,0.672-1.572,2.535-1.547,3.619l-0.91,0.899c-0.979-0.071-1.782-0.964-2.667-1.351c-1.106-0.487-2.221,0.191-3.213,0.606 c-0.843-0.061-1.493-0.673-2.185-1.123l-1.226-1.027c-0.048-0.835-0.629-1.189-0.927-1.892c-0.474-1.1-0.855-2.041-1.587-2.981 c-0.663-0.861-0.675-2.054-0.876-3.112c-0.183-0.943,0.316-1.661,0.148-2.617l0.277-0.297c0.157-2.127,0.493-3.342,1.537-5.208 c1.052-1.874,1.242-3.089,0.986-5.187l0.586-0.334l1.346,0.071l0.486-0.715c-0.001-1.063,0.047-2.012-0.291-3.029l0.49-0.478 c0.146-0.637,0.234-1.315-0.002-1.939l0.234-0.658c-0.123-1.015-0.688-1.933-1.109-2.847l0.105-0.433 c-0.168-1.033-0.947-1.555-1.663-2.231l0.015-0.316l-0.662-0.914l-0.719-0.305l0.141-0.332c-1.094-0.649-1.401-1.974-2.365-2.739 c-1.058-0.843-2.311-0.961-3.271-1.781c-1.027,0.127-2.119,0.413-3.146,0.177c-1.148-1.454-2.326-2.735-3.033-4.447 c-1.162-0.607-2.699-0.464-3.972-0.561l-1.661-1.998l0.444-0.867l-1.062-1.833l0.261-2.756c5.001-3.203,1.457-11.603,0.18-15.844 c0.731-1.3,1.357-2.499,1.877-3.898c2.445-1.811,4.97-2.426,7.991-2.551l1.33-0.924c0.667-2.043,2.422-2.526,3.984-3.791 c0.318-1.659,1.035-2.971,1.782-4.489c1.243,0.541,2.883,0.922,3.108,2.501l0.959,0.771l0.095-0.3 c0.696-0.226,1.539-0.314,2.012-0.901c0.095-1.022-0.133-2.072-0.247-3.086c1.754-2.093,2.689-3.86,3.803-6.361l0.373-0.178 c1.209-2.037,3.568-3.136,5.501-4.472c0.231-0.798,0.505-1.454,0.242-2.285l-0.541-0.142c-1.163-1.165-1.813-2.183-3.271-3.004 c-0.369-1.555-1.971-2.943-3.315-3.67c-2.115-1.145-3.156-2.015-4.734-3.831c-0.161-0.666,0.057-1.263,0.211-1.911l-0.217-0.471 l0.369-0.177l0.111-0.589l-0.472-0.441l0.691-0.555c0.015-0.651-0.066-1.271,0.295-1.844l-0.897-0.911 c1.226-0.008,2.027-0.027,3.163-0.467l1.029,0.266c0.854-0.747,1.438-1.156,1.737-2.284l-0.27-0.489l0.108-0.197 c0.703-0.086,1.382-0.307,2.04-0.016l0.352,0.508l0.595,0.162l0.498-0.217l0.187,0.658c1.114,0.824,3.266,1.722,4.104,2.719 l1.343-0.165l0.223,0.548l0.549-0.015l0.214,0.235l-0.288,0.43l0.098,0.59l4.869,0.817l0.29,0.435l1.126,0.412l0.766-0.147 l0.133,1.084c0.289,0.426,0.758,0.682,1.252,0.815c0.97-0.261,2.157-0.382,3-0.944l-0.268-0.255l0.248-0.135l-0.386-0.138 l0.152-0.253l0.55-0.016l0.18,0.398l0.322,0.064c0.695-0.29,1.283-0.594,2.058-0.515l0.143-0.776 c1.418-0.763,2.979-1.296,4.575-1.558l0.625,0.814l-0.336,0.905l-0.439,0.263l0.436,0.784c0.975,0.816,2.159,0.438,3.297,0.724 c1.627,0.412,3.256,0.823,4.881,1.232c3.897-2.43,6.615-4.637,9.118-8.533l0.483-0.111l0.189-0.782 c0.958-0.782,1.341-2.161,1.855-3.242l-0.271-0.936l0.306-0.903c-0.7-1.658-0.09-3.056-1.184-4.662 c-0.598-0.882-1.151-1.83-1.811-2.671c-0.425-0.541-1.054-1.557-1.675-1.892c-0.013-1.678,0.388-3.012,0.846-4.636l-0.308-1.01 c-1.159-0.908-1.668-1.671-2.036-3.106c-0.384-1.503-1.397-2.504-1.626-4.091c0.832-1.598,1.322-3.907,2.393-5.271 c1.311-1.676,3.523-1.738,5.203-2.631l0.58-1.041l0.662-0.371l0.953,0.276l0.399-0.572l0.425,0.054 c0.564-0.623,1.302-1.239,1.756-1.943c0.512-0.792,0.547-1.805,1.27-2.462l0.043-1.577l0.57,0.166l-0.251-0.335 c-0.022-0.867,0.22-1.689,0.398-2.527c0.241-1.094-0.013-1.734-0.013-2.81c0.002-1.98-0.818-3.77-1.063-5.715 c-0.122-0.969-0.059-1.996-0.087-2.975c-0.025-0.85-0.518-1.667-0.584-2.521c-0.133-1.737-0.912-3.438-0.846-5.162l1.002-0.569 c0.365-1.314,1.552-3.39,1.491-4.714c2.715-3.111,1.417-6.652,1.767-10.354c2.07-1.903,0.17-7.159-0.388-9.449 c-0.86-3.51-2.159-6.812-3.413-10.204l-0.246-0.073c-1.943-5.196-5.732-9.864-8.82-14.442c-1.319-1.96-3.09-4.396-1.688-6.776 c0.836-1.424,1.156-2.324,1.459-3.952c0.241-1.284,1.359-2.296,1.293-3.661c-0.699-0.944-1.069-1.667-1.468-2.78l0.441-2.385 l0.298-0.142l1.865,1.998l-0.027,0.841c0.717,0.441,1.508,0.258,2.303,0.215c0.429-0.264,0.74-0.641,0.889-1.104 c2.158,1.237,6.011-1.535,6.352-3.74c-0.471-1.222-0.105-2.581,0.806-3.478c0.662-0.092,1.312-0.33,1.756-0.845l1.521,0.86 c0.843,1.992,1.527,2.357,3.487,3.214l0.187,0.894l0.391,0.188c0.067,1.33,1.586,1.709,2.58,2.218 c1.512,0.771,3.024,1.543,4.536,2.312c2.242,1.145,4.128,3.793,6.052,5.431c2.438,2.077,5.02,4.004,7.52,6.003 c1.82,1.45,3.602,3.24,5.938,3.507l-0.072,0.716l0.504,0.461l0.416,0.001l0.18,0.372l0.451,0.285 c0.151,1.886,2.098,2.767,3.469,3.713l-0.19,0.598l0.622,0.816l-0.432,0.312l0.135,0.456c1.208,1.058,2.601,1.799,3.569,3.067 c0.989,1.312,3.186,2.388,3.653,3.904c1.023,0.415,1.385,1.508,2.242,2.128c1.385,1.006,2.775,2.009,4.162,3.014 c1.908,1.378,3.984,2.342,5.83,3.836l0.373,0.031l0.39,0.4l-0.044,0.502l0.578,0.218l0.146,0.349l0.702,0.15 c1.474,1.744,2.905,2.829,4.97,3.79l0.462-0.504l0.282,0.175l0.135,0.875c2.424,1.783,5.811,2.727,8.629,3.709l0.896,1.147 c1.898,0.744,5.565,1.334,6.773,3.098l-0.156,0.438l0.196,0.526c2.716,1.929,6.774,3.326,10.021,4.064 c2.428,0.554,4.857,1.107,7.283,1.66c1.572,0.357,4.134,0.419,5.453,1.463l0.387-0.258c1.334,0.798,3.396,0.818,4.912,1 c1.99,0.237,3.967,0.532,5.969,0.597c1.678,0.049,4.096-0.429,5.643,0.043c1.789,0.549,3.756,0.882,5.62,0.594l1.048-0.863 l0.513,0.147c0.399,1.045,0.537,1.625,0.497,2.741l0.463,0.598l-0.137,0.566c0.285,0.755,0.953,0.818,1.477,1.367 c0.514,0.542,0.836,1.479,1.203,2.129c4.674,1.849,9.523,1.804,14.482,1.912c2.206,0.05,4.49-0.427,6.684-0.659 c1.157-0.124,2.447-0.812,3.551-1.183c0.91-0.308,1.389-1.138,2.322-1.528c0.108-1.442,1.757-2.245,2.777-3.008 c1.117-0.836,0.905-2.103,1.637-3.062l0.498,0.02c0.429-0.412,0.846-0.834,1.262-1.256l0.07-0.507l0.753-0.276l-0.222-0.313 l0.822-0.127l0.536-1.403c1.786-1.112,2.871-3.342,4.786-4.123l0.133-0.41c1.986-1.537,3.844-2.544,4.582-5.028 c0.375-1.262,1.169-2.004,2.027-3.01c0.688-0.808,0.719-1.854,1.748-2.391c0.247-0.735,0.373-1.445,0.934-2.001l0.733,0.198 l-0.106,0.826l0.723,0.566l-0.164,0.808c0.266,0.699,0.805,1.191,1.289,1.753l-0.063,1.185l-0.6,0.886l0.13,1.059 c-0.393,0.558-0.721,1.196-0.711,1.894c-1.096,0.928-2.028,2.944-2.938,4.122c-0.893,1.152-0.843,2.776-0.508,4.081 c-0.462,1.565-1.339,2.22-2.228,3.419c-1.136,1.543-1.988,2.976-2.852,4.69c-0.68,1.349-1.34,2.99-1.076,4.475 c0.293,1.683-0.075,3.178-1.096,4.523c0.264,3.678,3.141,6.195,5.323,9.012c3.383,1.197,8.529,0.438,11.1,3.142l0.153,0.609 l-0.353,0.777c-0.884,0.42-1.802,0.91-2.786,0.552l0.633-0.183l-1.012-0.345l0.111-0.172l0.874,0.103l0.026-0.45l1.438,0.191 l-0.543-0.38l0.848-0.129l0.146-0.489l-0.179-0.189l-1.036,0.312l-0.012-0.312l-0.51,0.089l0.125-0.277l0.633-0.183l-0.816-0.66 l-1.522,0.606l0.3-0.561l-0.12-0.116l-0.645,0.734l-0.248-0.1l-0.149-1.004c-1.367,0.058-2.572-0.535-3.913-0.28l0.489,0.57 l-0.187,0.598l0.862,0.629l0.584,0.058l-0.179,0.676l0.532,0.511c0.039,0.771,0.49,1.234,0.924,1.849 c0.511,0.729,0.43,1.123,0.711,1.927c0.551,1.558,0.997,3.199,1.756,4.672c1.792,3.486,3.912,4.914,7.154,7.049l-0.356,0.252 l-0.032-0.257c-0.883-0.396-1.753-0.873-2.682-1.139l-0.031,0.372l-1.121-0.387c-0.346-0.64-0.855-1.194-1.566-1.431 c-0.82,0.042-1.727-0.049-2.48,0.278l-0.143,0.541l1.174,0.17l-0.105,0.222l-1.373,0.114l1.012,0.769 c1.868-0.293,2.748-0.225,4.568,0.304l0.016,0.573l-1.703-0.235l0.232,0.207l0.128,0.823l-0.308,0.064l0.088,0.252l0.625-0.025 l-0.069,0.296l0.208,0.212l1.131-0.611c2.49,0.813,5.164,1.354,7.498-0.161l0.459,0.545l0.939,0.175 c0.346,0.511,0.526,1.097,0.419,1.702l0.549-0.223l0.294-0.796l-1.07-1.467l-0.463,0.294l-0.386-0.163l0.707-1.919l0.487-0.27 l-0.139-0.271l0.329-0.539l0.267,0.047l0.781-0.489l-0.187-0.214c0.681-0.355,1.419-0.586,1.747-1.341l-0.143-0.297 c1.452-1.026,2.188-1.777,3.19-3.246c1.409,0.062,2.535,0.105,3.901-0.219l0.16-0.412c0.365,0.092,0.748,0.095,1.1-0.003 l0.027-0.424l0.542-0.066l-0.243,0.373c0.852,0.358,1.814,0.064,2.693-0.043l0.369,0.244L873.662,328.792z M584.432,489.007 c-0.406-0.149-0.717-0.434-0.918-0.831l0.929-0.324l0.519,0.146l0.324,0.535l-0.008,0.369 C584.998,488.938,584.715,488.972,584.432,489.007z M559.385,448.046l-0.443-3.612l-1.318-3.899l3.476-2.628l4.955-0.608 l0.27,2.193l-2.714,1.799c0.279,2.429,0.328,4.226-0.045,6.635l-3.217,1.128l-0.961-1.007L559.385,448.046z M559.345,481.635 c0.653-0.192,1.331-0.212,2.011-0.274l0.59,0.766l-0.254,0.502c-0.451,0.219-0.894,0.466-1.322,0.737 C559.75,482.994,559.309,482.387,559.345,481.635z" transform="matrix(0.489363, 0, 0, 0.489363, -25.370417, -105.979934)"/>
  <text x="308.524" y="68.799" style="white-space: pre; fill: rgb(51, 51, 51); font-family: sans-sarif; font-weight: bold; font-size: 13px;">北海道</text>
</svg>