<?xml version="1.0" encoding="utf-8"?>
<svg viewBox="350.834 865.92 63.174 90.66" width="63.174" height="90.66" xmlns="http://www.w3.org/2000/svg">
  <path fill="#7272FF" d="M392.422,930.45l0.188,0.892c-0.22,0.7-0.719,1.264-1.31,1.682c-0.002,2.316-1.193,4.039-2.503,5.883 c-0.735,1.035-1.617,1.849-1.553,3.165c0.06,1.242,0.394,2.313,0.368,3.559l0.648,0.602l0.459,0.105 c0.007,0.502,0.163,0.967,0.458,1.383l1.356,0.829l0.33,1.191l0.404,0.293l-0.071,0.271c-1.186,1.027-2.642,1.59-3.971,2.453 c-1.42,0.915-2.352,2.082-3.714,3.02c-1.225,0.033-1.792,0.249-2.89,0.802l-0.348-1.135l-1.568-0.62 c0.034-0.557,0.298-1.069,0.744-1.401l-0.096-0.777l-0.528,0.38l0.019,0.363l-0.275,0.322l-0.417-0.394 c-0.619-0.021-1.198,0.202-1.714,0.553l0.688-1.027l-0.338-0.613l-0.635-0.056l0.047-1.106l-0.447-0.231 c0.758-0.641,1.01-1.646,1.394-2.527c0.368,0.292,0.794,0.408,1.271,0.339c1.328-1.073,1.516-3.127,2.214-4.592 c0.844-1.762,0.893-3.418,2.055-5.044l1.197-0.28c0.621-2.014,1.252-3.573,3.195-4.481l0.372-0.621l0.588-0.308 c0.991-1.896,1.469-2.736,3.211-3.931L392.422,930.45z M369.862,929.277l-0.106-1.087l-0.958,0.12 c-0.191,0.447-0.206,0.903-0.041,1.369l0.567,0.139L369.862,929.277z M367.676,929.416c0.28-0.389,0.403-0.826,0.365-1.301 l-0.759-0.194l-0.417-0.421l-0.885,0.686l0.922,0.907L367.676,929.416z M366.603,930.702l0.196-0.524l-0.007-0.496l-0.62-0.133 l0.022,0.6L366.603,930.702z M364.699,933.108l0.007,0.495l0.43,0.292l0.33-0.092l-0.35-0.716L364.699,933.108z M365.865,930.871 l-0.404-2.019l-0.263,0.005l-0.726,0.69l-0.36-0.375l-0.129,0.017c-0.257,0.57-0.299,1.226-0.092,1.814l0.683-0.004l0.407-0.312 l0.2,0.132l0.011,0.523L365.865,930.871z M413.617,919.172l-0.418-1.601l-0.639-0.518l-0.048-0.608l-0.218-0.589l-0.532-0.433 l-0.85-0.767l0.012-0.645l-0.022-1.189l-0.086-0.61l0.41-0.339l0.023-0.639l0.203-1.238l0.037-0.692l-0.636-0.046l-0.54-0.44 l0.367-0.516l0.443-0.322l0.622-0.077l0.543,0.028l0.211-0.696l-0.925-0.193l-0.542-0.129l-0.512,0.115l-0.544,0.164l-0.474-0.539 l-0.645,0.126l-0.535-0.104l-0.293-0.538l-0.525,0.188l-0.559,0.027l-0.392-0.444l-0.451-0.332l0.081-0.621l0.419-0.383 l-0.344-0.504l-0.105-0.622l-0.008-0.654l-0.061-0.653l-0.743-0.005l-0.355-0.463l0.183-0.617l0.484-0.273l0.489-0.232 l0.633,0.211l-0.048-0.844l0.314-0.564l0.459-0.325l0.452-0.315l-0.065-1.096l-0.656-0.382l0.185-0.576l-0.394-0.417l-0.229-0.637 l-0.716-0.118l-0.546,0.059l-0.535-0.155l-0.533-0.178l-0.324-0.561l-0.543,0.25l-0.651,0.193l-0.953,0.284l-0.453-0.507 l0.308-0.541l-0.181-0.793l-0.585-0.091l-0.531,0.007l-0.599,0.014l-0.975,0.133l-0.466,0.849l-0.521,0.19l-0.516,0.073 l-0.427-0.4l-0.562-0.098l0.031-0.646l-0.065-0.611l0.502-0.223l-0.279-0.543l-0.783-0.624l-0.509-0.023l-0.526-0.14l-0.376-0.478 l0.354-0.434l-0.232-1.075l-0.429-0.458l-0.556,0.02l-0.533-0.011l-0.997,0.111l-0.538,0.136l-0.477,0.226l-0.342,0.447 l-0.338,0.569l-0.668,0.168l-0.426-0.757l-0.493-0.294l-0.515,0.146l-0.542-0.196l-0.519-0.152l-0.464-0.285l-0.187-0.613 l-0.62-0.303l-0.524-0.047l-0.969-0.114l-0.574-0.099l-0.556-0.248l-0.841-0.208l-0.578-0.351l0.107-0.653l-0.039-0.643 l-0.431-0.598l0.092-0.663l-0.163-0.646l0.256-0.609l-0.187-0.599l0.062-0.673l0.506-0.77l0.557-0.104l0.553,0.066l0.51,0.463 l0.585,0.038l0.381,0.491l0.528,0.083l0.432-0.312l0.659-0.285l0.262-0.515l0.29-0.509l0.557,0.017l0.223-0.726l-0.213-0.586 l0.05-0.667l-0.1-0.658l-0.328-0.522l-0.254-0.656l-0.096-0.697l-0.108-0.879l0.007-1.253l-0.282-0.562l-0.202-0.626l-0.519-0.069 l-0.526,0.224l-0.6,0.183l-0.772,0.459l-0.565,0.402l-0.451,0.323l-0.306,0.491l-0.57-0.001l-0.548,0.14l-0.801-0.356 l-0.385-0.975l-0.335-0.5l-0.541-0.257l-0.409-0.413l-0.521-0.121l-0.362-0.452l-0.631-0.51l-0.379-1.167l0.062-0.606l0.109-1.137 l-0.317-0.573l-0.157-1.607l-0.002-0.236l-1.014,0.272l-0.296,1.006l-0.296,0.138l-0.395-0.237l0.272-0.322l-0.03-0.467 l-0.58,0.177c-0.444-0.193-0.911-0.336-1.37-0.489l-0.109-0.251l-0.87,0.4l0.16,0.215l-0.816,0.18l-0.404-0.737l-0.298,0.77 l-0.579-0.217l0.038,0.308l-0.48,0.115l-0.588-0.297l-0.636,0.159l0.089,0.723l-0.752,0.038l-0.073-0.592l-0.369-0.007 l-0.024,0.446l-0.327,0.123l-0.367-0.429l-0.302,0.927l-0.299-0.277l0.21-0.444l-0.333-0.141l-0.712,0.821l-0.021,0.263 l-0.508-0.094l-0.476,0.609l-1.062-0.735l-0.506,0.141l-0.401-0.293l-1.252,0.68l-1.142-0.986l-1.167,0.746l-0.501-0.02 l-1.442,1.461c-0.473,0.087-0.855,0.329-1.145,0.719l-0.811-0.009l-0.163,0.6c-0.75,0.339-1.423,0.788-2.28,0.643l-0.009,0.344 l-0.536,0.119l-0.049,0.124l1.368,0.69l0.495,0.356l0.408,1.071l0.111,0.684l0.703,0.048l0.27,0.655l0.098,0.625l-0.174,0.728 l-0.191,0.61l0.345,0.494l0.452,0.351l0.188,0.808l0.286,0.578l0.083,0.674l0.326,0.995l0.175,0.678l0.902,0.283l0.579,0.147 l0.514,0.193l0.069,0.896l0.266,0.604l-0.129,0.616l-0.104,0.65l0.269,0.528l0.514,0.268l0.58,0.065l0.642,0.581l0.172,0.747 l-0.258,1.132l0.228,0.581l0.455,0.385l-0.031,0.663l0.132,0.635l0.266,0.592l-0.4,0.388l-0.457,0.376l-0.477,0.352l-0.236,0.592 l-0.458,0.312l-0.415,0.373l-0.488,0.461l-0.462,0.28l-0.472,0.301l-0.496-0.27l-1.086-0.206l-0.158,0.62l-0.383,0.471 l-0.387,0.407l0.049,0.656l0.197,0.607l0.605,0.289l0.567,0.197l0.456,0.375l-0.153,0.588l0.324,0.728l-0.128,0.701l-0.607-0.195 l-0.615,0.074l-0.542,0.154l-0.542,0.723l-0.007,1.031l-0.252,0.605l0.088,0.636l-0.113,0.591l-0.454,0.387l-0.979,0.424 l0.12,0.622l-0.171,1.173l0.183,0.59l-0.486,0.289l-0.539,0.065l-0.416,0.353l-0.386,0.455l-0.369,0.495l-0.161,0.583l0.354,0.597 l0.496,0.255l-0.043,0.668l-0.351,0.461l0.306,0.578l-0.01,0.663l-0.398,0.49l-0.405,0.431l0.144,0.615l0.542-0.006l0.5,0.368 l0.408,0.388l0.408,0.586l0.07,0.737l-0.461,0.261l-0.436,0.412l-0.342,0.495l0.232,0.56l-0.259,0.537l-0.208,0.541l0.421,0.526 l0.189,0.627l0.661,0.47l0.549-0.166l0.3,0.526l0.771,0.347l0.366,0.502l0.43,0.44l0.144,0.588l0.475,0.643l0.36,0.501 l-0.17,0.123l0.922,1.347l0.788-0.622l-0.26-0.202l0.119-0.306l0.351,0.064l-0.343-0.43l0.272-0.138l0.894,1.094l0.542,0.169 l0.054-0.213l0.574,0.005l0.221,0.707l1.13-1.474l-0.243-0.468l0.223-0.523l0.228,0.156l0.136-0.412l0.518-0.033l-0.083,0.609 l0.174,0.14l0.486-0.537c-0.305-0.427-0.494-0.936-0.47-1.461l0.379-0.33l0.536,0.301l-0.206,0.679l0.506,0.907l0.976-1.012 l0.229-0.054l0.224,0.548l0.186,0.006l0.993-1.064l0.432,0.29l0.632-0.183l0.685,0.466l0.157-0.202l0.252,0.1l-0.063,0.583 l0.632-0.18l-0.207-0.837l0.12-0.119l0.517,0.173l0.373-0.177l-0.016-0.346l0.644,0.341l0.558-0.379l-0.122-0.33l0.191-0.153 l0.577,0.007l-0.272,0.322l0.125,0.166l0.35-0.123l0.112-0.589l0.508-0.35l-0.125,0.488l0.501,0.018l-0.23,0.267l0.212,0.444 l0.352-0.124l0.396-0.806l-0.001,0.628l0.442,0.184l0.716-0.981c1.065,0.419,1.714,0.605,2.854,0.62l0.313,0.406l-0.262,0.426 l0.282,0.146l0.538-0.513l-0.046,0.481c0.33,0.2,0.728,0.32,1.118,0.358l-0.157,0.228l0.208,0.395l1.086-0.525l0.146,1.812 l1.022,0.217l0.145-0.305l0.312-0.013l0.156-0.672c1.409,0.715,2.655,1.203,3.675,2.429l0.81-0.019 c1.713,0.981,2.737,1.751,4.709,1.225l1.665,0.736c1.122-0.315,2.698-0.423,3.438-1.438l1.237-0.153 c0.789-0.734,1.386-0.813,2.42-0.977l-0.331-0.563l0.313-0.225l-0.41-0.338l0.323-0.143l-0.063-0.516l0.71,0.016l0.911-0.714 l0.125-0.459l-0.657,0.417l-0.095-0.326l2.584-0.524l0.466-0.452l0.857-0.05l-0.226-0.551l0.707-0.426 c0.446,0.169,0.897,0.179,1.339,0.017l0.23-0.474l1.057,0.08l-0.095,0.299l0.757,0.618l0.149,0.579l0.348,0.037l0.244-0.343 l0.057,0.463l1.266-0.576l-0.083,0.592l0.717-0.981l0.598-0.021l-0.602,0.439l-0.037,0.349l0.226,0.132 c0.72,0.002,1.178-0.456,1.756-0.846l0.198,0.11c-0.015-0.168-0.064-0.31-0.087-0.476c0.062,0.245,0.112,0.477,0.197,0.747 c-0.897,0.466-1.742,0.891-2.539,1.518l0.331,0.324l0.605-0.177l-0.354,0.306l0.589-0.098c0.358-0.292,1.067-0.818,1.792-1.266 l0.034-0.576L413.617,919.172z"/>
</svg>