<?xml version="1.0" encoding="utf-8"?>
<svg viewBox="617.683 752.594 63.121 72.662" width="63.121" height="72.662" xmlns="http://www.w3.org/2000/svg" xmlns:bx="https://boxy-svg.com">
  <path fill="#79FF76" d="M667.458,756.224l-0.675-0.002l-1.041-0.334l-0.535,0.141l-0.95,0.055l-0.426-0.367l-0.457-0.312 l-0.556-0.09l-0.572-0.111l-0.562-0.131l-0.51-0.193l-0.554,0.178l-0.577,0.021l-0.87-0.111l-0.351-0.461l-0.396-0.451 l-0.533-0.347l-0.104-0.603l-0.396-0.512l-0.504,0.232l-0.254,1.025l0.401,0.941l0.407,0.439l0.16,0.604l0.448,0.46l0.175,0.634 l-0.449,0.399l-0.499,0.186l-0.735,0.455l-0.58,0.197l-0.451,0.331l-0.293,0.562l-0.414,0.578l-0.537,0.909l-0.503,0.318 l-0.288,0.563l-0.357,0.422l-0.297,0.551l-0.639,0.055l-0.473-0.37l-0.408-0.412l-0.398-0.493l-0.521,0.074l-0.473-0.296 l-0.443-0.399l-0.528,0.115l-0.526-0.01l-0.566-0.174l-0.365-0.504l-0.307-0.576l-0.217-1.126l-0.322-0.565l-0.523,0.025 l-0.584-0.01l-0.543-0.131l-0.529-0.236l-0.156-0.646l-0.367-0.493l-0.72-0.621l-0.472-0.297l-0.549-0.238l-1.422,0.088 l-0.351,1.001l0.129,0.8l0.229,0.599l0.164,0.64l0.1,0.613l0.104,0.649l-0.003,0.661l0.257,0.568l0.338,0.495l0.275,0.662 l0.147,0.642l-0.024,0.637l0.078,0.631l-0.246,0.604l-0.107,0.778l0.114,0.648l0.258,0.55l0.475,0.429l0.519,0.318l0.475,0.413 l0.186,0.588l-0.146,0.815l-0.557,0.176l-0.461,0.389l-0.742,0.059l-0.613,0.207l-0.32,0.519l-0.281,0.526l0.149,0.591 l0.538,0.216l0.152,0.643l0.5,0.851l-0.155,0.635l0.524,0.899l0.346,0.84l-0.039,0.617l0.033,1.047l0.174,0.612l0.258,1.007 l0.006,0.609l0.176,0.605l-0.023,0.98l-0.201,0.738l-0.501,0.461l-0.089,0.61l-0.371,0.448l-0.262,0.523l-0.186,0.574 l-0.158,0.584l0.14,0.669l-0.053,0.666l0.103,0.78l-0.389,0.865l-0.31,0.555l-0.82,0.052l-0.532,0.124l-0.454-0.371l-0.392-0.514 l-0.592,0.036l-0.548,0.163l-0.458,0.339l0.035,0.633l-0.488,0.316l-0.457-0.374l-0.552-0.055l-0.819,0.052l0.135,0.657 l-0.097,0.659l-0.63,0.409l-1.018,0.072l-0.714,0.174l-0.821,0.581l-1.445-0.155l-0.243,0.547l0.029,0.62l-0.382,0.389 l-0.557,0.215l-0.469,0.329l-0.555,0.178l-0.454,0.384l-0.046,2.232l-1.02-0.524l-0.666-0.112l-1.32,0.297l-0.322,0.53 l-0.263,0.533l0.133,0.635l0.11,0.73l-0.266,0.57l-0.043,0.703l-0.248,0.721l-1.643,1.026l-0.613,0.35l-0.736,0.394l-0.494,0.529 l-0.504,0.378l-0.63,0.099l-0.653-0.14l-0.557,0.437l-0.305,0.759l-0.064,0.743l0.201,0.78l0.277,0.721l0.379,0.568l0.405,0.479 l0.321,0.654l0.463,0.395l0.355,0.813l0.629,1.015l1.037,0.118l0.9-1.007l0.41-0.455l0.669,0.384l0.37,0.543l0.299,0.843 l0.441,0.606l1.254,1.07l0.574,0.395l0.52,0.202l0.795,0.747l0.584,0.735l0.604,1.007l0.495,0.389l0.608,0.204l0.769,0.114 l0.549,0.057l0.146,0.665l0.104,0.724l0.482,0.343l0.625,0.279l0.494,0.365l0.542,0.216l1.244,0.57l0.856-0.192l0.705,0.317 l0.555,0.312l0.473,0.258l0.605,0.099l0.532,0.23l0.55,0.005l0.664-0.104l0.588,0.085l0.531,0.263l0.547,0.118l0.809,0.854 l0.426,0.386l0.496,0.38l0.574-0.095l0.524-0.312l0.501-0.223l0.444-0.369l0.456-0.35l0.535-0.128l0.594,0.193l0.514,0.086 l0.596-0.157l0.863-0.84l0.547-0.349l0.539,0.021l0.625,0.238l0.968,0.051l0.569-0.347l0.412-0.456l0.41-0.49l0.199-0.576 l0.364-0.456l0.882-0.415l0.518-0.319l0.564-0.205l0.56,0.033l0.539,0.002l0.589-0.376l0.756-0.461l0.604-0.211l0.523,0.074 l0.506,0.338l0.752,0.18l0.544,0.262l0.633,0.117l0.495-0.33l0.606-0.098l0.72-0.053l0.507,0.1l0.548,0.237l0.621,0.387 l0.457,0.412l0.494,0.431l0.576,0.38l0.526,0.232l0.624,0.141l0.68,0.089l0.855-0.104l0.59,0.047l0.518,0.107l0.572,0.247 l0.627,0.364l0.615,0.696l0.293,0.625l0.293,0.609l0.427,0.52l0.512,0.423l1.227,0.653l1.11,0.572l0.635,0.376l3.805,1.431 c0.039-0.12,0.045-0.244,0.102-0.357c-0.236-0.491-0.518-0.968-0.923-1.327l-0.291-0.016l-0.068,0.296 c-0.11-0.043-0.222-0.082-0.334-0.123c-3.155-2.938-5.56-6.267-7.864-9.897l-0.74,0.144l-0.619,0.731l0.602,1.261 c-0.648-0.335-1.062-0.951-1.324-1.619l-0.614-0.08l-0.062-0.281l1.242,0.084l0.66-0.604c-0.053-0.583-0.246-1.16-0.545-1.661 l-0.441-0.181c-0.795-3.59-3.13-6.825-4.787-10.138c-1.646-3.291-2.166-6.741-3.167-10.239c0.326-0.569,0.829-1.011,1.349-1.396 c-0.036-1.195,0.617-2.217,1.405-3.054l-0.219-1.78l-0.499-0.045c-0.49-1.283-0.592-2.657-0.758-4.014 c-0.191-1.551,0.942-2.635,0.83-4.119c-0.178-2.464,0.764-6.028,1.96-8.174c-0.071-3.186-0.007-7.886,2.118-10.479l0.949-0.17 c0.002-0.621-0.244-1.104-0.524-1.615l-0.083-0.024L667.458,756.224z"/>
  <text style="fill: rgb(51, 51, 51); font-family: sans-sarif; font-weight: bold; font-size: 16.2px; white-space: pre;" x="645.145" y="780.728" dx="0 -17.372 -16.959" dy="0 15.577 15.225">茨城県</text>
</svg>