<?xml version="1.0" encoding="utf-8"?>
<svg viewBox="441.523 737.237 48.062 93.177" width="48.062" height="93.177" xmlns="http://www.w3.org/2000/svg">
  <path fill="#8BFFE8" d="M469.754,762.763l0.041,0.543l0.659,0.473l0.329-0.512l1.043-0.26l-0.061-0.701l0.37-0.176 c0.757,0.043,1.292,0.519,1.73,1.097l0.669-0.109c-0.014-0.552,0.016-1.11,0.082-1.66l0.814-0.415l0.734,0.646 c-0.004,0.634,0.051,1.265,0.103,1.898l-0.292,0.399c-0.568,0.002-1.093,0.282-1.488,0.685c-0.924-0.07-1.805,0.387-2.235,1.218 l-0.827,0.074c-0.87-0.315-1.895-1.573-2.408-2.324l-0.073-0.802L469.754,762.763z M442.496,820.076l0.365,0.443l0.455,0.336 l0.585,0.017l0.562,0.15l0.523,0.139l0.579,0.628l0.304,0.6l0.545,0.169l0.361,0.856l-0.064,0.647l0.502,0.877l0.237,0.658 l0.418,0.49l0.757,0.32l0.543-0.334l1.224-0.127l0.524-0.138l0.399,0.636l0.604,0.228l0.409,0.528l0.502,0.308l0.572-0.071 l0.656,0.038l0.358-0.621l0.421-0.516l0.464-0.324l0.394,0.503l0.807,0.066l0.453-0.308l0.564,0.135l0.387-0.413l0.537-0.141 l0.626,0.474l0.537,0.107l0.475,0.359l0.511,0.256l0.641,0.095l0.342,0.543l0.335,0.496l0.646,0.301l0.525,0.253l0.587,0.198 l0.434,0.466l0.385,1.011l0.966-0.153l0.47-0.218l0.504-0.146l0.447-0.41l0.527-0.198l0.568-0.06l0.52,0.002l0.721-0.615 l0.023-0.652l0.4-0.519l0.159-0.616l0.099-0.596l0.264-0.513l-0.264-0.591l-0.25-0.618l-0.283-0.561l0.488-0.195l0.988-0.574 l0.021-0.69l0.435-0.777l0.369-0.639l0.293-0.59l0.207-0.547l0.317-0.641l0.276-0.607l-0.215-0.966l-0.508-0.184l-0.547-0.139 l-0.561-0.186l-0.496-0.308l-0.443-0.851l-0.37-0.532l-0.262-0.86l-0.153-0.64l-0.23-0.67l0.201-0.722l0.485-0.438l-0.229-1.011 l-0.266-1.069l-0.172-0.59l-0.403-0.428l-0.46-0.35l-0.207-1.12l0.347-0.544l0.372-0.414l-0.375-0.527l0.248-0.986l0.055-0.668 l-0.189-0.711l-0.186-1.164l0.25-0.617l0.198-0.67l0.167-0.62l0.127-0.678l-0.344-0.493l-0.514-0.43l-0.485-0.38l-0.036-0.644 l-0.383-0.442l-0.275-0.996l-0.133-0.666l0.257-0.572l0.438-0.437l0.146-0.652l0.188-0.582l0.563-1.061l-0.259-0.7l-0.466-0.363 l-0.012-0.742l-0.545-0.276l-0.49-0.27l-0.131-0.621l0.727-0.453l0.561-0.122l0.086-0.627l0.635-0.288l0.498-0.87l-0.055-0.975 l-0.02-0.829l-0.129-1.108l-0.057-0.68l0.241-0.668l-0.114-0.609l0.184-0.571v-0.757l0.433-0.663l0.362-0.495l-0.027-0.758 l-0.34-0.74l0.27-0.892l0.426-0.601l0.442-0.311l0.491-0.307l0.334-0.47l0.191-0.612l0.447-0.287l0.589-0.368l0.616,0.172 l0.532,0.181l0.534-0.327l0.107-0.902l0.566-0.108l0.699,0.223l0.53-0.168l0.538-0.14l0.504-0.096l0.212,0.077l0.246-0.346 l-0.084-0.46l-0.395-0.448l0.211-0.815l-0.458-0.754c0.224-0.952-0.198-1.697-0.146-2.647c0.066-1.188-0.096-2.018-0.388-3.182 l0.296-0.586l-1.293,0.344l-0.766,0.799c-0.039,0.819,0.101,1.702-0.414,2.383l-1.646,0.483l-0.845-0.261l0.37-0.621l-1.489-0.371 l0.298-0.583c-0.57-0.236-1.126-0.143-1.746-0.129l-0.345,1.016l-0.948,0.402l-0.724-0.121l-0.242-0.285l0.191-0.782l-0.344-1.083 l0.424-0.394l0.852,0.105l0.169-1.621l-0.39-0.396l-0.502,0.402l-0.186-0.238c0.076-1.255,0.745-2.149,1.361-3.207l-0.209-0.602 l0.736-0.194l0.197,0.319l0.109-0.199l-1.035-1.156l0.17-0.309l0.182,0.395l0.598-0.256l-0.336-0.586l0.971,0.428l0.24-0.605 l0.646-0.286l0.178,0.16l-0.518,0.46l-0.114,0.586l0.141-0.148l0.35,0.692l0.618,0.345l0.712-0.17l1.456,1.184 c0.519-0.152,0.99-0.475,1.302-0.918l-0.301-0.514l1.281-0.446c0.69-0.584,0.671-1.472,0.818-2.301l0.742-0.772l0.11-1.245 c0.796-0.813,1.692-1.374,2.638-1.997l0.287,0.201l0.254-0.268l3.273-0.011l0.111-0.801l0.281,0.153l1.414-1.93l-0.33-0.354 l-0.483,0.108l0.437-1.125l-0.928,0.113c-0.258-0.471-0.508-0.947-0.752-1.428l0.336-0.906l-0.209-0.418l0.467-1.523l1.146-0.9 c1.33-0.116,3.271,0.139,4.07-1.182l-0.251-0.336l-0.001-0.444l-0.991-0.822l0.118-0.748l0.256-0.241l-0.017-0.572l-0.294-0.068 l-0.167-0.504l-0.81-0.398l-0.127-0.379c-1.197,0.248-2.074,0.29-3.303,0.196c-0.902,0.562-1.721,1.328-2.6,1.865 c-0.908,0.558-1.861,0.343-2.75,0.763c-1.178,0.555-2.06,0.959-2.996,1.85c-0.615,0.584-0.742,1.377-1.543,1.816l-0.65,0.055 l-0.688,1.213c-2.336-0.246-3.771,3.283-6.109,2.95l-0.624-0.605l-0.399,0.366l-1.04-0.137c-0.983,0.594-2.328,1.087-2.937,2.116 l-0.622,0.052l-0.062,0.348l-1.496,0.628l-0.251,0.502l0.162,0.479l-0.316,0.404l-0.406-0.316l0.072,0.592l-0.688,0.82l0.18,1.234 l0.197,0.131l-0.073,0.665l0.613,0.317l-0.228,0.288l-0.16,1.227l-1.117,1.368l0.234,1.045l-0.236,0.003l-0.039,0.529 l-0.619,0.521l0.135,0.873c-0.457,0.872-0.212,2.142-0.217,3.119l0.789,0.659l0.783-1.062l0.699,0.125l0.482,0.517l0.432,2.251 c-0.488,0.832-0.199,1.85,0.197,2.674l0.613,0.292l-0.041,0.318c0.5,0.468,0.713,1.126,0.771,1.792l1.272,0.758l-0.05,0.688 l0.23,0.365c-0.024,0.607-0.052,1.213-0.093,1.818l-0.418,0.209l0.354,0.322l-0.496,0.849l0.061,0.282l0.98,0.508 c0.758,2.945-0.747,6.461-1.626,9.207c-0.911,2.872-1.949,6.311-3.795,8.743l-0.351-0.088l-0.451,0.812l0.637,0.711l0.502,0.041 l-0.467,0.243l-0.539-0.353c-1.6,2.86-3.139,5.668-5.054,8.321l-0.037,0.553l-0.251-0.097c-1.316,2.46-2.852,4.597-4.5,6.859 c-0.594,0.817-1.41,1.864-2.375,2.18c-1.484,0.485-1.621,1.386-2.178,2.784c-0.478,0.416-0.885,0.822-1.282,1.255l0.056,0.051 L442.496,820.076z"/>
</svg>