<?xml version="1.0" encoding="utf-8"?>
<svg viewBox="642.611 532.541 70.139 106.116" width="70.139" height="106.116" xmlns="http://www.w3.org/2000/svg">
  <path fill="#FFE65E" d="M711.899,583.977l-0.188-0.682l-1.146,0.06l-0.274-0.307l0.106-0.852l-0.262-0.416l0.32-0.586 l-0.658-0.471c0.015-0.769,0.158-1.594-0.181-2.308c-1.497,0.933-2.329,3.21-3.222,4.665l-0.217-0.263l0.024-0.448l0.589-0.754 l-0.099-1.453l0.74-0.59l0.075-0.454l-0.557-0.272l0.729-1.95l-0.104-0.22l-1.012,0.095l0.627-1.517l-0.323-0.696l-0.592-0.136 l0.72-0.324l0.537-0.959l0.474-0.188l-0.815-0.451l0.146-0.726l0.468-0.239l-0.637-0.291l-0.103-0.404l-0.4-0.057l0.065-0.557 l-0.243-0.285l0.195-1.387l-0.689-0.49l0.082-0.429l-0.387-0.582c0.294-0.718-0.096-1.487-0.469-2.116 c-1.189-0.312-1.428-1.549-1.807-2.553l-0.274-0.097l0.444-0.87l0.508,0.098l0.074-0.693c-0.348-0.445-0.44-1.021-0.354-1.578 c-0.303-0.504-0.609-1.01-0.916-1.512l-0.059,0.188c-0.453-0.271-0.999-0.293-1.511-0.154c-0.728-0.674-1.546-1.273-1.97-2.191 c-1.271-0.406-1.661-0.713-2.568-1.703l0.04-0.527l-0.439-0.809l0.38-1.383l0.522-0.434l0.833-0.049l0.504-0.586 c-1.32-1.482-2.1-2.111-4.067-2.434c-0.192-0.654,0.022-1.247,0.155-1.903l1.35-0.325c-0.771-2.7-3.349-4.561-4.265-7.2 c-0.798-0.387-2.295-2.218-2.82-2.929c-0.558-0.76-0.544-1.13-1.335-1.761c-0.371-0.293-0.666-0.624-0.938-0.991l-0.5,0.851 l-0.464,0.399l-0.621,0.312l-0.44,0.334l-0.691,0.146l-0.712,0.503l-0.517,0.188l-0.426,0.417l-0.193,0.687l0.158,0.628 l-0.007,0.686l-0.401,0.402l-0.406,0.467l-0.812,0.67l-0.489,0.365l-0.637-0.177l-0.578-0.2l-0.415-0.391l-0.758-0.318 l-0.472-0.244l-0.562-0.092l-0.527,0.198l-0.607,0.135l-0.592,0.085l-0.405,0.433l-0.524,0.317l-0.447,0.396l-0.391-0.439 l-0.416,0.342l-0.461,1.223l-0.498,0.148l-0.475,0.411l-0.479,0.315l-0.484-0.626l-0.414-0.462l-0.177-0.676l-0.514-0.193 l-0.472-0.37l-0.9,0.547l-0.216,0.591l-0.287,0.549l-0.508,0.256l-0.574-0.235l-0.318,0.552l-0.516,0.225l-0.641,0.736 l-0.392,0.367l-0.274,0.547l-0.492,0.197l-0.459,0.351l-0.5,0.07l-0.583-0.062l-0.712,0.311l-0.559,0.407l-0.506,0.102 l-0.43,0.418l-0.871,0.719l-0.459,0.289l0.518,1.124l-0.418,0.574l-0.585,0.072l-0.595,0.136l-0.313,0.637l-0.541,0.617 l-0.51,0.078l-0.55,0.382l-0.432,0.445l-0.501,0.205l-0.503,0.137l-0.914-0.132l-0.514,0.052l-0.505-0.392l-0.388-0.65 l-0.488-0.415l-0.539,0.273l-0.055,0.614l-0.277,0.597l-0.571,0.109l-0.524,0.197l-0.405,0.404l-0.206,0.613l-0.389,0.512 l-0.07,0.803l-0.368,0.438l-0.737,0.521l0.565,0.826l0.606,0.19l-0.201,0.613l-0.237,0.541l0.091,0.738l0.471,0.602l-0.016,0.625 l-0.035,0.629l-0.479,0.594l-0.734,0.668l-0.014,0.651l0.273,0.551l0.287,0.577l0.046,0.654l-0.06,0.676l0.27,0.555l-0.285,0.514 l0.179,0.758l-0.052,0.621l0.014,0.824l0.178,0.789l0.528,0.328l-0.136,0.882l0.318,0.536l0.178,0.59l0.521,0.684l0.25,0.63 l0.458,0.64l0.03,0.68l-0.857,0.351l-0.543,0.262l-0.443-0.386l-0.438-0.361l-0.518-0.232l-0.408,0.379l-0.79,0.052l-0.348,0.446 l-0.425,0.459l0.227,0.619l0.172,0.652l-0.037,0.615l0.121,0.623l0.463,0.299l0.471,0.282l0.541-0.163l0.533,0.253l0.591,0.247 l0.487,0.295l-0.034,0.725l-0.32,0.58l-0.372,0.411l-0.338,0.507l-0.281,0.512l-0.354,1.02l-0.455,0.312l-0.498,0.15l0.151,0.65 l0.362,0.461l0.31,0.537l0.522-0.126l0.354,0.547l0.348,0.519l0.251,0.631l0.208,0.6l0.092,0.672l0.104,0.638l-0.349,0.518 l-0.272,0.667l-0.062,0.682l0.02,0.656l-0.302,0.478l-0.701,0.028l-0.089,0.644l-0.424,0.354l-0.511,0.738l-0.29,0.5l-0.454,0.285 l-0.598,0.123l-0.09,0.602l0.521,0.373l0.303,0.684l-0.051,0.73l-0.451,0.384l-0.137,0.593l-0.238,0.545l-0.19,0.561l0.344,0.527 l-0.265,0.599l-0.396,0.366l-0.808,0.781l-0.293,0.539l0.278,0.602l0.191,0.684l-0.11,0.638l-0.619,0.224l-0.511,0.211 l0.104,0.928l-0.059,0.642l1.043,0.091l0.205,0.645l0.182,0.589l0.58,0.31l-0.037,0.615l0.512,0.193l0.467,0.475l-0.375,0.973 l0.111,0.684l0.131,0.594l0.549,0.102l0.496,0.482l0.069,0.651l0.483,0.39l0.6,0.161l0.544,0.224l0.502,0.246l0.97,0.54 l0.497,0.345l0.289,0.525l-0.364,0.473l-0.424,0.359l-0.078,0.596l0.021,0.683l0.553,0.175l0.615,0.195l0.577-0.044l0.569,0.48 l-0.504,0.319l-0.436,0.432l-0.529,0.164l-0.254,0.604l-0.248,0.547l-0.465,1l0.768,0.452l-0.262,0.56l0.168,0.626l-0.228,0.639 l-0.117,0.591l0.542,0.37l0.504,0.125l0.512-0.2l0.549,0.142l0.506,0.173l-0.043,0.697l0.529,0.207l-0.337,0.554l-0.317,0.517 l0.102,0.673l-0.277,0.562l-0.338,0.836l-0.471,0.427l-0.116,1.026l0.32,0.52l0.325,0.539l0.025,0.656l0.791-0.291l0.543-0.119 l0.533-0.223l0.542-0.019l0.559,0.198l0.458,0.445l0.492,0.21l0.695,0.259l0.537,0.277l0.659,0.432l0.566-0.07l0.516-0.139 l0.462,0.32l0.575,0.129l0.681,0.211l0.526,0.18l0.521,0.081l0.508,0.368l0.364,0.504l0.38,0.433l0.41,0.49l0.588-0.358 l0.512,0.023l0.44-0.312l0.536-0.028l0.507,0.256l0.493-0.111l0.484-0.278l0.516-0.101l0.545,0.095l0.506-0.272l0.478-0.228 l0.451,0.337l0.882-0.137l0.592,0.063l0.742,0.484l0.049,0.65l-0.248,0.519l-0.4,0.504l-0.709,0.49l0.38,0.604l0.612,0.732 l0.523,0.447l0.02,0.711l0.434,0.443l0.541,0.084l0.766,0.135l0.418-0.37l0.609,0.341l0.506,0.304l0.389,0.495l0.321,0.56 l0.874-0.106l0.542-0.227l0.747-0.389l-0.058-0.629l0.299-1.11l0.516-0.456l0.55-0.242l0.559,0.152l0.248-0.564l0.119-0.627 l0.063-0.645l0.561,0.164l0.563,0.299l0.549,0.189l0.462-0.289l0.544,0.145l0.562,0.076l0.459,0.593l0.558-0.214l0.37,0.455 l0.567,0.124l0.46,0.312l0.953-0.204l-0.198-1.754l0.601-0.009l0.487-0.399l-0.258-0.58l-0.23-0.786l0.254-0.695l0.063-0.618 l-0.464-0.578l0.066-0.605l0.52-0.436l0.174-0.643l0.42-0.421l0.414-0.417l0.012-0.748l-0.297-0.636l0.044-0.679l0.002-0.647 l-0.127-0.683l-0.429-0.865l0.051-0.632l0.414-0.71l0.59-0.28l0.495,0.235l0.532,0.228l0.48-0.229l0.505-0.107l0.597-0.018 l0.562,0.018l2.78,0.729c-0.329-0.609-0.378-1.279-0.794-1.9l0.354,0.11l0.984-0.515l0.344,0.247l-0.2,0.285l0.095,0.147 l0.785-0.646l1.031,0.502l-0.027,0.215l-0.561-0.09l-0.432,0.342l0.07,0.777l1.022,0.659l0.163,0.479l0.37,0.241l-0.225,0.315 l0.853,0.316l0.393-0.652l0.736-0.195l-0.699-0.984l-0.562,0.305l-0.412-0.371l0.385-0.254l0.082-0.43l0.42,0.028l-0.315-0.853 c0.474,0.308,1.036,0.479,1.6,0.402l0.062-0.346l-1.632-2.184c0.428-0.874,0.058-1.646-0.178-2.518l0.63,0.238l0.385,1.626 l-0.397,0.837l0.425,0.236l0.497-0.193l0.63,0.236l0.48-0.792l0.721,0.097l0.242-0.58l0.432-0.318l0.158,0.848l2.533-0.26 l0.203-0.497l-0.178-0.372l-1.617-0.558l-0.19-0.268l2.577-0.577l0.205-0.652c-0.869-0.105-1.725-0.334-2.57-0.05l-0.126-0.588 l-0.31,0.038l-0.298-0.279l0.308-0.298l-0.49-0.804l0.65-0.239c0.564,0.406,1.262,0.464,1.926,0.313l-0.017,0.293l0.829,0.133 l0.257,0.414l2.058-1.377l-0.999-0.664l-1.582,0.113l-0.223-0.336l0.177-0.258l-2.008-0.987l0.348-0.356l2.225-0.246 c0.619-0.539,1.193-1.031,1.675-1.699l-0.041-0.57l-1.847,0.33l-0.408-0.315l-0.826-0.11l0.304-0.322l-0.291-0.229l1.228,0.191 l0.16-0.176l-0.316-0.433l0.924,0.044l0.869-0.814l-0.125-0.168l0.587-0.332l0.622,0.369l0.328-0.33l-0.34-0.85l-0.367-0.191 l1.418-0.83l-1.858,0.645l-0.447-0.23l-0.312,0.641l-0.315-0.616l-1.198,0.25l0.042-0.292l0.385-0.047l0.031-0.212l-0.753-0.799 l0.829-0.262l1.188,0.301l0.057-0.398l-0.257-0.388l0.017-0.527l-0.537,0.117l-0.576-0.215l0.199-0.29 c-0.346-0.176-0.725-0.286-1.115-0.332l0.79-0.411l0.518,0.172l0.477-0.368l0.726-0.062l0.395-0.419l1.184-0.17l0.238-0.214 l-0.049-0.831l0.975-1.219l-0.945,0.4l-0.241,0.373l-1.062,0.104l-0.548,0.643l-0.462-0.127l-0.977,0.59l-0.63-0.027l-0.099-0.588 l0.645-0.525l-0.309-0.565c0.459-0.163,0.908-0.14,1.349,0.07l1.142-0.507l0.277-1.368l-0.98,0.538l-0.545-0.587 c0.528-0.817,1.498-1.866,1.615-2.846l0.318,0.04l0.23,0.391l-0.125,0.46l0.32,0.042l0.992-0.436l0.008-0.787l0.902,0.542 l0.299-0.036l0.334-0.459l-0.123-1.454l0.322-0.144l0.473-1.264l-0.54-0.77l-1.042,0.259l-1.26,1.701l-0.703,0.241l-0.494,0.664 l-0.569-0.375l-0.384,0.047l-0.004-0.654l-0.371-0.243l-0.061-0.491c1.061-0.424,1.858-0.875,3.01-0.683l-0.236-0.835 c0.664-0.734,0.758-1.367,0.92-2.312l1.02,0.16l0.213-0.182l-0.298-0.276l0.61-0.366l0.15-1.118l-0.271-0.491L711.899,583.977z"/>
</svg>
