<?xml version="1.0" encoding="utf-8"?>
<svg viewBox="320.259 936.365 45.597 37.694" width="45.597" height="37.694" xmlns="http://www.w3.org/2000/svg" xmlns:bx="https://boxy-svg.com">
  <path fill="#D16EFF" d="M324.548,973.022l0.438,0.331l0.535-0.203l0.833,0.396l0.564-0.07l0.553-0.09l0.584,0.146l0.427,0.423 l0.655,0.104l0.479-0.337l0.635-0.054l0.404-0.364l-0.041-0.729l0.25-0.629l0.56-0.439l0.45-0.4l0.388-0.405l0.538-0.782 l0.374-0.475l0.569,0.17l0.481,0.338l0.506-0.206l0.479-0.315l0.087-1.042l0.444-0.298l0.549-0.01l0.405-0.427l0.478-0.267 l0.555,0.213l0.47-0.261l0.516-0.306l0.431,0.365l0.61-0.37l0.395-0.561l0.502-0.16l0.354,0.483l0.371,0.506l0.451,0.459 l0.887,0.4l0.453,0.375l0.545-0.153l0.68-0.011l0.231-0.604l0.55-0.158l0.521-0.1l0.115-0.655l0.446-0.349l0.367-1.022 l0.502,0.189l0.781-0.371l0.557-0.141l0.506,0.209l0.525-0.229l0.8-0.204l0.395-0.44l0.33-0.54l-0.288-1.066l0.343-0.478 l0.281-0.52l0.648-0.309l0.457-0.424l0.885,0.061l0.919-0.246l0.486-0.258l0.497-0.195l0.757-0.065l0.794-0.294l0.544,0.044 l0.582,0.185l0.509-0.172l0.356,0.533l0.618-0.323l0.535-0.146l0.604-0.055l0.528,0.071l0.174-0.586l0.458-0.267l0.63,0.316 l0.432,0.353l0.977,0.417l0.467-0.288l0.483,0.352l0.5-0.143l0.514-0.557l-0.255-0.593l0.356-0.743l-0.019-1.048l0.026-0.137 l0.04-0.263c-0.741-0.061-1.461-0.413-2.037-0.864l0.387-0.468l-1.039-0.136l0.231-0.476l-1.016-0.814l-0.384,0.074l-0.012,0.34 l-0.36,0.257c-1.183,0.257-2.273-0.652-3.264-1.172l-0.699,0.266l-1.224-0.789l-0.195,0.334l-0.441-0.181l-0.51-0.957l0.774-0.962 l-0.058-0.673c-0.359-0.287-0.571-0.657-0.631-1.102l-0.586-0.058l-0.544,0.903l-0.328-0.119l-1.165-1.586l-0.234,0.423 l0.416,0.604l-0.103,0.249l-0.605,0.18l-0.605-0.241l0.188,1.313c-0.373,0.047-0.741,0.093-1.109,0.137l-0.474-0.646l0.024-2.781 l-1.361-0.858l-0.908,0.296l-0.075,0.456l0.32,0.482l-0.306,0.484l0.279,0.776l-0.144,0.334l-0.976-1.349l-0.388-0.161 c0.002,0.757,0.047,1.442-0.259,2.153l0.583,0.688l-1.517-0.627c-1.221,0.223-2.29,0.24-3.537,0.227l-1.003-0.924l-0.646,0.497 l-0.615-0.945l-0.704,0.452l-0.717-0.931c-0.127,0.386-0.246,0.774-0.354,1.168l-0.544-0.378l-0.256,0.267l-0.415-0.394 l-0.281,0.27c-0.075,0.545,0.038,1.12,0.277,1.614l-0.877,1.16l0.083,0.458l-0.363-0.19l-0.82,0.78l-0.271-0.255l-0.484,0.091 c-0.244,0.406-0.583,0.708-1.014,0.909l0.094,0.354c-2.43,1.818-4.237,3.991-6.46,6.061l-0.382-0.558l0.286-0.871l-1.05,0.838 l-0.915-0.2l-0.526,0.196l-0.624-0.817l-0.951-0.066l-0.363-0.4l-1.219-0.111l-0.591,0.517l0.919,0.229l0.224,0.338l-0.27,0.35 l1.931,0.575l0.217,0.497l1.223,0.558c0.164,0.469,0.455,0.838,0.867,1.099c0.03,1.332,0.077,2.661,0.125,3.996l0.511,0.537 l-0.415,3.664l-0.879,0.946l-0.441,0.027c-0.073,0.091-0.131,0.19-0.197,0.284l0.327,0.167L324.548,973.022z M349.347,941.897l-0.104-0.223c-0.68,0.17-0.901,0.818-1.028,1.462l0.172,0.319l0.183,0.005l0.257,0.385 l0.26-0.238c0.129-0.017,0.256-0.032,0.389-0.049c0.182-0.497,0.5-0.991,1.004-1.197l-0.197-0.11l0.129-0.225l0.155,0.189 c0.454-0.033,0.889,0.059,1.265,0.29c0.171-0.156,0.372-0.271,0.588-0.333l0.138,0.063l0.129,0.191l0.016,0.547l0.336-0.041 l0.002,0.238l0.417,0.001l0.032,0.263c-0.08,0.17-0.152,0.345-0.224,0.523l0.064,0.303l-0.238,0.19l-0.259,0.03l-0.043,0.268 c0.203-0.024,0.41-0.048,0.617-0.074l0.035,0.488l-0.291-0.015l-0.015,0.291l-0.224,0.104c0.232,0.2,0.408,0.442,0.535,0.722 c0.297-0.272,0.56-0.574,0.779-0.911l-0.193-0.052l-0.019-0.388l0.134-0.179c0.009-0.207,0.046-0.416,0.109-0.613 c0.125-0.077,0.243-0.163,0.36-0.253l-0.088-0.513c0.078-0.155,0.129-0.315,0.148-0.488c0.348-0.19,0.688-0.386,1.027-0.601 l0.135-0.407c0.509-0.1,1.017,0.034,1.385,0.402l0.055,0.233l-0.204,0.259l-0.453-0.074l-0.192,0.153 c-0.344,0.081-0.649,0.148-0.992,0.229l-0.013,0.339l0.224,0.11l-0.016,0.286l-0.2,0.081l0.278,0.335 c0.08-0.108,0.185-0.171,0.316-0.199c0.235-0.256,0.397-0.566,0.464-0.896c0.2,0.095,0.403,0.14,0.621,0.135l0.145-0.096 l0.189,0.031l0.21,0.209l-0.14,0.149l0.025,0.204l0.284-0.035c0.284,0.283,0.589,0.542,0.907,0.779l-0.113-0.717l-0.303-0.332 c0.26-0.194,0.459-0.449,0.59-0.751c-0.04-0.351-0.041-0.702,0.001-1.051l-0.289-0.225l-0.262,0.005l-0.004-0.473l0.087-0.143 l0.254-0.058l0.018-0.501l-0.258,0.03c-0.016-0.085-0.019-0.17-0.005-0.259l0.225-0.084l0.179-0.259 c-0.112-0.408-0.14-0.852-0.079-1.273c-0.295-0.188-0.591-0.378-0.882-0.573l-0.11-0.246c0.156-0.199,0.314-0.395,0.478-0.584 l-0.391-0.212l0.2-0.08l0.009-0.342c-0.86,0.051-1.669,0.424-2.316,0.966l-0.025,0.212l-0.069,0.088 c-0.538,0.111-1.057,0.16-1.59,0.274c-0.042-0.148-0.112-0.277-0.205-0.392l-0.244-0.052l-0.092,0.326l-0.421-0.005l0.07,0.334 c-0.431,0.319-0.808,0.699-1.119,1.137l-0.301-0.097c-0.326,0.212-0.587,0.452-0.823,0.758c-0.193,0.048-0.388,0.045-0.576-0.01 c-0.155,0.053-0.293,0.128-0.417,0.232l-0.576-0.215l-0.109-0.25l-0.143-0.089c-0.079,0.192-0.177,0.371-0.303,0.534 c0.053,0.312,0.009,0.617-0.124,0.909l0.269,0.047c0.061,0.176,0.159,0.333,0.292,0.459l0.31-0.04 c0.172,0.088,0.326,0.204,0.46,0.336l0.028,0.233C349.809,942.062,349.57,941.997,349.347,941.897z"/>
  <text style="fill: rgb(255, 255, 255); font-family: sans-sarif; font-weight: bold; font-size: 9.6px; white-space: pre;" x="328.666" y="966.074" dx="0 -0.63 -0.963" dy="0 -2.634 -3.647">香川県</text>
</svg>