<?xml version="1.0" encoding="utf-8"?>
<svg viewBox="142.865 1099.048 78.448 124.951" width="78.448" height="124.951" xmlns="http://www.w3.org/2000/svg" xmlns:bx="https://boxy-svg.com">
  <path fill="#009900" d="M219.701,1143.807l0.23-0.578l0.29-0.709l0.522-0.318l0.48-0.315l0.09-0.605l-0.102-0.753l-0.2-0.632 l-0.451-0.771l0.413-0.459l0.14-0.615l-0.121-0.625l-0.359-0.609l-0.53-0.401l-0.184-0.583l-0.001-0.763l-0.505-0.139 l-0.792-0.472l-0.49,0.258l-0.536,0.285l-0.528,0.272l-0.886-0.22l-0.502-0.354l-0.55-0.34l-0.411-0.428l-0.573-0.346 l-0.389,0.431l-0.327,0.646l-0.382,0.618l-0.362-0.584l-0.34-0.623l-0.499-0.337l-0.536-0.852l-0.113-0.685l-0.025-0.633 l-0.487-0.4l-0.188-0.862l-0.1-0.893l-0.018-0.631l-0.524-0.121l-0.507,0.2l-0.562-0.151l-0.501-0.176l0.1-0.604l0.416-0.498 l-0.242-0.57l-0.552-0.08l-0.522,0.13l-0.69-0.068l-0.534-0.003l-0.528,0.022l-0.408-0.499l-0.472-0.347l-0.625,0.053 l-1.076-0.127l-0.331-0.532l-0.174-0.593l-0.221-1.146l0.496-0.254l0.046-0.641l0.065-0.612l0.114-1.487l-0.332-0.619 l-0.343-0.484l-0.371-0.68l-0.61-0.311l-0.858-0.527l-0.594-0.091l-0.578,0.038l-1.046-0.067l-0.688-0.451l-0.228-0.687 l-0.354-0.566l-0.464-0.384l-0.171-0.638l-0.201-0.652l-0.114-0.679l-0.503-0.267l-0.47-0.436l-0.726-0.326l-0.676-0.783 l-0.698-0.124l-0.539,0.093l-0.503-0.369l-0.073-0.659l0.054-0.642l0.47-0.488l0.468-1l-0.82-0.011l-0.517-0.074l-0.516-0.295 l-0.456-0.332l-0.547-0.291l-0.57-0.311l-0.542-0.325l-0.281-0.887l-0.595-0.013l-0.916-0.132l-0.43-0.859l-0.287-0.653 l-0.527-0.229l-0.554,0.154l0.07,0.967l-0.238,0.663l-0.441,0.369l-0.521,0.062l-0.522,0.19l-0.507,0.234l-0.127,0.67 l-0.531,0.222l-0.554,0.145l-0.524-0.246l-0.524,0.374l-0.553-0.045l-0.482,0.349l0.072,0.67l-0.537,0.201l-0.428,0.44l-0.56-0.1 l-0.533,0.149l-0.551-0.088l-0.576-0.025l-0.523-0.026l-0.317-0.515l-0.419-0.426l-0.275-0.59l-0.81-0.601l-0.454-0.053 l-0.021,0.019l0.065,0.432l1.821,1.397l1.254,1.262c-0.983-0.985-1.972-1.812-3.076-2.659c-0.323,0.671-0.551,1.451-1.125,1.946 l-0.148-0.353c-0.443,0.828-1.165,1.029-1.979,1.373l-0.55,0.852l0.149-0.908l-0.923-1.119l-0.12,0.093l0.315,0.641l-0.194,0.132 l-0.478-0.467c-0.484-0.114-0.969-0.23-1.455-0.341c-1.705,0.806-2.277,1.256-2.682,3.131l0.315,0.646l0.445,0.202l-0.061-0.491 l0.303-0.087l0.573,0.399c0.423,0.603,0.472,1.345,0.358,2.055l-0.353,0.332l-0.046,0.894l-0.676,0.687l0.213,0.89l-0.268,0.377 l0.648-0.052l0.748,0.535c0.644,1.462,0.763,3.281,1.539,4.632c-0.131,0.845-0.081,1.775-0.7,2.417l-0.04,0.74l0.302,0.327 l0.683,0.02l0.641,0.735l0.895,0.027l-0.768,0.354l-1.907-0.604c-0.427,1.197-0.65,2.045-0.694,3.305 c0.469,0.847,0.952,1.683,1.435,2.522l1.022-0.415l1.352,1.199c0.43,0.003,0.834,0.136,1.174,0.378l0.258,0.834l1.173,0.59 l1.088,1.83l0.937,0.171c1.316,1.561,1.493,4.595,1.459,6.527c-0.018,1.173-0.143,2.252-0.398,3.404 c-0.219,0.992-0.917,2.115-0.692,3.118l0.203,0.138l-0.556-0.037c-0.468,1.187-1.555,1.387-2.137,2.437l-0.558,0.146 c-0.163,0.441-0.173,0.905-0.042,1.365l-0.765-0.271c-0.547-0.674-1.179-1.238-1.234-2.152l-0.216,0.393l0.204,0.361l-0.131,0.228 l-0.461-0.567l-0.339,0.012l-0.132-0.43l-0.582-0.477l-1.127,1.29l-0.964-0.196l-0.705,0.685l0.17,0.294l0.263-0.42l0.79,0.032 c1.25,0.921,1.87,2.003,3.32,2.735l0.229,0.36l0.423,0.027l0.6,0.641l-0.348,0.799l-1.246,0.521l1.144,0.568l0.51-0.117 l0.131-0.435l0.494,0.621l0.318,0.037l0.13,0.221l-1.194,1.145l0.226,0.342l0.671-0.291l0.517,0.354l-0.378,0.566l0.45,0.257 l-0.524,0.409l0.351,0.503l0.545-0.036l0.395-0.415l0.471,0.204l0.67-0.292l1.008,0.319l0.305-1.136l0.558,0.272l0.455-0.132 l0.802,0.555c0.502-0.184,1.061-0.17,1.551,0.047l0.695-0.322c1.538,0.191,3.334,0.089,4.827-0.382 c1.06,0.641,2.744,1.436,3.111,2.732l-0.298,0.558c0.051,0.52,0.326,0.981,0.667,1.386l0.823,0.085l1.308-0.871l1.564,0.806 l0.312-0.458l-0.382-0.321l0.405-0.547l1.856-0.673c0.187-0.441,0.215-0.911,0.073-1.344l-0.131,0.222l-0.272-0.096l0.138-0.359 l0.996-0.438l-0.364-1.263l0.564-1.591l-0.518-0.381l-1.758-0.02l-0.542-0.797l-0.759-0.192c-0.523-0.706-1.246-1.102-1.973-1.565 c-0.448-1.109-1.184-2.302-1.062-3.541l0.393-0.62c-0.072-0.399-0.222-0.764-0.449-1.1l-0.251-0.127l-0.509,0.327 c-2.475-1.483-2.698-7.555-0.054-8.979l-0.286-0.62l0.188-0.394l-0.261-0.412l0.345-0.173l-0.234-0.835 c0.479-0.778,0.864-1.734,1.694-2.2c0.035-0.789,0.24-1.422,0.688-2.074c-0.187-0.326-0.366-0.654-0.538-0.98l0.167-1.411 c0.901-1.084,2.07-2.755,3.782-2.328c1.754,0.438,3.508,0.886,5.264,1.323l0.211,0.656l0.492,0.149l0.757,1.688 c-0.896,1.616-1.107,3.003-1.424,4.838l-1.295,1.39c-0.63,0.051-1.264,0.106-1.895,0.154l0.34-0.229l-0.006-0.259l-0.383-0.137 l0.093-0.324l-0.528-0.668l0.067-1.138c-0.426-0.269-0.737-0.648-0.894-1.117l-0.491,0.06l-0.266-0.229l-3.065,0.847 c-0.184,0.811-0.775,1.393-1.267,2.038l-0.066,0.536c0.836,0.68,1.659,1.6,2.721,1.918l1.447-0.598l0.945,0.434l0.278-0.504 l0.53,0.065c0.119,0.273,0.242,0.55,0.365,0.819l-0.503,1.03l0.608,3.039c3.056,2.182,4.268,4.408,6.154,7.657 c-0.22,2.249,0.481,4.37-0.768,6.325l0.011,0.941l0.249,0.338l-0.418-0.001l-0.28-0.36c-0.152,0.223-0.236,0.474-0.25,0.742 l0.631,1.102c-0.235,1.235-0.29,3.472-1.335,4.397c-1.054,0.941-2.512,1.838-3.077,3.188l0.817,0.242l0.405,1.599 c-0.313,0.82-0.746,1.646-0.867,2.515l0.248,0.317l0.745-0.747l0.383,0.109l0.275-0.295l-0.084-0.909l0.871-0.578l0.654,0.001 l-0.209-0.45l0.222-0.547l1.296-0.946l0.708-0.012l0.075-0.453l1.159-0.588l0.368-0.65l0.418,0.007l0.431-0.548 c1.785-0.553,3.194-1.155,4.828-2.062l0.358-0.725c1.011-0.643,1.886-1.101,2.569-2.1l-0.352-0.533l0.118-0.306l0.533-0.14 l0.079-0.874l0.616-0.731c0.11-0.793,0.09-1.539,0.708-2.132l2.028-0.323l1.505-2.049l0.506-0.137 c0.374-0.479,0.821-0.917,1.021-1.489l-0.272-0.31l-1.068,0.71l-1.422-0.089l-0.033-0.678l1.333-1.316l-0.114-1.349 c-1.145-0.263-2.468-0.81-3.638-0.837c-0.988-0.026-1.877,0.48-2.862,0.166l1.668-0.491c-0.155-2.942,1.528-6.173,4.34-7.316 l1.131,0.463l0.522-0.226l0.651,0.43l0.038-0.604L219.701,1143.807z M220.157,1185.996l-0.862-2.094l-1.01,0.936l-0.38-0.111c-0.475,1.046-1.063,2.005-1.028,3.168 c0.042,1.235-0.688,2.092-0.535,3.307l-0.616,0.105l-1.263,3.165c0.298,1.309,0.595,2.611,0.896,3.917 c0.29,1.264-0.029,2.134-0.333,3.416c-0.533,2.244-1.837,3.872-2.816,5.885l-0.77,0.12c0.173,1.088,1.038,2.108,1.053,3.146 c0.018,1.459-0.054,2.348,0.642,3.616l0.57,0.163l2.081-1.827l1.938-0.21l-0.021-1.024l0.753-0.903l-0.63-0.867 c0.209-0.562,0.227-1.196-0.005-1.754l-0.757-0.611l0.032-0.584l0.329,0.12l-0.328-1.19c0.568-0.71,0.416-1.436,0.376-2.272 c0.492-0.492,0.573-1.124,0.749-1.771l1.113-0.766c0.364-0.604,0.336-1.249,0.39-1.931l0.636-0.813 c0.149-1.512,0.234-2.35-0.278-3.763c0.461-1.243,1.093-2.401,0.814-3.762c-0.353-1.723-0.586-2.717-0.167-4.412L220.157,1185.996z M202.796,1213.563c-1.162-0.469-2.885-0.733-3.931-1.32c-0.732-0.409-1.517-1.023-2.314-1.295 c-0.684-0.234-1.283-0.078-1.876-0.556l-0.675,0.058l-0.578-0.642l-0.285,0.64l-0.791-0.246c-0.333,0.403-0.435,0.912-0.427,1.439 l-0.662,0.581l-1.15,2.157l-0.818-0.033l-1.177,0.643c0.111,1.701,0.309,3.6,1.852,4.62l0.804,2.312l0.357-0.306 c1.149,3.419,4.983,2.483,7.683,1.342c2.367-0.999,4.012-4.734,4.259-7.132l-0.272-0.517l0.173-1.355L202.796,1213.563z M176.087,1209.636c0.042,0.799,0.152,1.676,0.7,2.3l1.161,0.063l0.132,1.293 c1.587-0.124,2.45-0.225,3.825-1.071l-0.481-1.144C179.393,1211.199,177.973,1210.249,176.087,1209.636z M163.265,1190.127l-0.587-0.742c-0.638,0.077-1.283,0.221-1.847,0.538c0.277,0.714,0.429,1.54,1.059,2.021 l1.11-0.348L163.265,1190.127z M179.456,1190.362l-0.676,1.103l1.311,0.44c0.675-0.306,1.317-0.726,1.777-1.316l-0.48-1.146 C180.593,1189.494,180.086,1189.929,179.456,1190.362z M153.828,1129.228c-1.423-0.704-2.983-2.189-4.595-1.372l-0.391,1.095l0.618,1.39 c0.721-0.201,1.446-0.268,2.171-0.027c0.333,0.515,0.678,1.021,1.024,1.527c0.773-0.37,1.515-0.748,2.344-0.973 c0.078-0.755-0.013-1.484-0.091-2.24l-0.905-0.331L153.828,1129.228z M147.614,1133.659c-0.065,0.723-0.19,1.448-0.446,2.125c-0.645,0.584-1.399,0.796-2.199,1.08 c-0.387,0.848-0.752,1.615-1.308,2.363l0.374,1.552l-1.17,1.139c0.252,0.568,0.487,1.125,0.808,1.659l0.768,0.064l0.049-0.661 l0.536,0.091l0.563,0.771l0.517-0.062c0.156-1.082,0.194-1.938,0.099-3.028l0.549-0.85l-0.122-1.43l1.315-1.024 c0.33-0.98,0.542-1.927,0.739-2.945l-0.321-0.904L147.614,1133.659z M162.078,1111.481c0.536,0.65,1.484,0.755,2.038,1.473l0.627-0.236c0.133-0.921,0.387-1.761-0.064-2.636 l0.32,0.248c0.161-0.709,0.866-1.18,1.364-1.685l-0.381-0.768l-0.703,0.268l-0.291-0.673c-0.003-0.54,0.212-1.066,0.608-1.438 l-0.673-0.361l-0.574-1.269l0.236-0.211l-0.375-0.084l0.015,0.569l-0.245-0.285l-0.409,0.943l-0.298-0.512l-0.147,0.071 l-0.056,0.399l-0.315,0.197l0.176,0.368l-0.165,0.152l-0.587-0.503l-1.334,0.008l-0.075,0.662l0.637,0.287 c-0.441,0.15-0.822,0.451-1.101,0.846l-0.059,0.373l0.908,0.991C161.373,1109.69,161.42,1110.684,162.078,1111.481z M165.791,1100.359c-0.102,0.901-0.175,1.599,0.094,2.476l0.669-0.735l0.687,0.255l0.256-1.133l0.794-0.566 l0.025-0.867l-0.59-0.741l-0.883,0.267l-0.407,0.521l0.078,0.408l-0.536-0.093L165.791,1100.359z"/>
  <text x="142.7" y="1182.708" style="white-space: pre; fill: rgb(51, 51, 51); font-family: sans-sarif; font-weight: bold; font-size: 13.9px;">鹿児島県</text>
</svg>