<?xml version="1.0" encoding="utf-8"?>
<svg viewBox="584.135 838.497 43.198 33.275" width="43.198" height="33.275" xmlns="http://www.w3.org/2000/svg">
  <path fill="#79FF76" d="M624.834,843.129l-0.008,0.014l-0.03,0.003l-0.021-0.011l-0.021,0.003l-0.021,0.003l-0.009,0.002 l-0.024,0.04l-0.02,0.001l-0.012,0.014l-0.165,0.02l-0.015-0.01l-0.018,0.013l-0.156,0.02l-0.121,0.025l-0.463,0.278l-0.6,0.277 l-0.125-0.974l-0.781-0.21l-0.527-0.213l-0.386-0.491l-0.253-0.653l-0.401-0.43l-0.735-0.152l-0.884-0.552l-0.712-0.401 l-1.033-0.189l-0.816-0.087l-0.598-0.06l-0.666-0.64l-0.555-0.053l-0.709-0.001l-0.591-0.218l-0.424,1.027l-0.515,0.323 l-0.436,0.337l-0.294,0.846l-0.471-0.326l-0.396-0.48L610.279,840l-0.505,0.659l0.936,0.562l0.545,0.408l0.755,0.348l-0.251,0.789 l0.23,0.874l-0.258,1.026l0.24,0.565l0.18,0.58l-0.189,0.669l0.195,0.66l-0.781,0.156l-0.275-0.575l-0.54-0.362l-0.108-0.645 l-0.454-0.436l-0.448-0.312l-0.566-0.321l-0.402-0.463l-0.472-0.326l-0.269-0.542l-0.521-0.364l-0.942-0.346l-0.816-0.33 l-0.55-0.039l-0.594-0.138l-0.555-0.043l-0.573,0.021l-0.782,0.084l-0.515-0.106l-0.502-0.209l-0.505,0.101l-0.5,0.17 l-0.568,0.413l-0.604,0.002l-0.514-0.26l-0.38-0.477l-0.44-0.337l-0.367-0.633l-0.12-0.608l-0.556-0.259l-0.572,0.06l-0.454,0.469 l-0.658-0.248l-0.323-0.522l-0.36-0.467l-1.015-0.041l-0.585-0.112l-0.345,0.778l0.117,0.869l0.178,0.856l0.211,0.584l0.462,0.324 l-0.063,1.28l-0.357,0.534l0.413,0.724l0.131,0.655l-0.306,0.562l-0.457,0.47l0.115,0.844l-0.292,0.503l-0.415,0.406l-0.383,0.56 l-0.465,0.265l-0.555,0.166l-0.805,0.038l-0.283,0.498l-0.36,0.776l-0.346,0.511l-0.429,0.33l-0.488,0.329l-0.587,0.099 l-0.499,0.244l-0.461,0.362l-0.508,0.209l-0.52,0.284l-0.375,0.426l-0.459,0.383l-0.247,0.559l-0.156,0.607l0.257,0.592 l-0.486,0.599l-0.073,0.631l0.591,0.001l0.545,0.035l0.55-0.203l0.521-0.114l0.582-0.255l0.527,0.007l0.59-0.046l0.458,0.577 l-0.012,0.628l0.389,0.429l0.167,0.662l0.201,0.634l0.104,0.685l0.508,0.707l-0.163,0.62l-0.094,0.614l-0.095,0.619l-0.047,0.666 l-0.551,0.387l-0.477,0.795l-0.263,0.593l0.035,0.643l0.187,1.079l0.489,0.82l0.314,0.547l0.071,0.671l0.512,0.338l0.722,0.607 l0.735,0.215l0.323,1.087l0.218,0.598l0.55-0.118l0.545,0.115l0.562,0.053l0.548-0.028l0.545,0.152l0.537-0.015l0.614-0.096 l0.006-0.016l0.396-0.805l0.712-0.168l0.984,0.35l0.692-0.161l-0.732-0.407c-0.42-1.4-0.611-3.244-0.127-4.648 c4.238-3.863,10.107-6.832,15.983-6.363l-0.105,0.853l0.487-0.109l0.157-0.625l1.871,0.297l0.613-0.759l0.642,0.315l0.277,0.567 l0.581,0.244l-0.061,1.002c0.933,0.622,1.829,1.12,2.164,2.252l0.5-0.17l0.643,0.341l0.031,0.257l-0.255,0.062l-0.707-0.228 l0.049,0.413l-0.391,0.858l0.459-0.11l0.132,0.248l0.989,0.168l-0.799,0.306l0.355,0.326l0.137,0.662l0.469,0.205l-0.748,0.093 l0.145,0.323l-0.344,0.2l0.473,0.44l-0.818,0.176l0.715,0.045l-0.335,0.461l0.858,0.179l0.203-0.702l0.574,0.189l1.805-0.458 l-0.19-1.104l-0.665-0.074l-0.514-1.194c0.501-1.497,1.68-1.79,3.019-2.31l0.079-0.214l-0.512-0.307l0.567-0.28l-0.079-0.854 l0.867-0.629l0.016-0.501l-0.809-0.396l-1.268,0.341l-1.379-0.565l-0.534-0.954l0.247-0.11l-0.582-0.504l-0.311,0.038l0.018,0.574 l-0.338,0.434l-0.619-0.553l-0.398-0.057l-0.141-0.296l0.482-0.555l-0.002-0.445l0.545-0.462l-0.059-0.255l-1.025-0.028 l-0.305-0.777l0.446-0.42l0.364,0.636l0.449-0.37l-0.516-1.43l0.173-0.076l-0.118-0.349l-0.48-0.282l0.195-0.549l-0.789,0.413 l-0.076-0.412l-0.461-0.127l0.166-0.567l0.436,0.129l0.387-0.23l-0.643-0.128l-0.053-0.206l1.344-0.375l0.29,0.436l0.347,0.061 l0.743-1.609l-0.149-0.401l-0.479-0.046l-0.098-0.354l-0.444,0.238l-1.08-0.077l0.071-0.271l-0.223-0.521l0.408-0.495 c0.672-0.07,1.337,0.121,1.916,0.445l0.188-0.415l-0.229-0.577l0.275-0.086l0.194,0.734l0.271-0.136l-0.139-0.506l0.207-0.024 l0.482,0.304c0.199-0.199,0.383-0.415,0.547-0.641c-0.099-0.207-0.144-0.431-0.135-0.664l0.447-0.213l0.191,0.079l-0.297,0.118 v0.655l0.507-0.143l0.019-0.92l0.279-0.084l0.08,0.646l0.477-0.35l-0.066-0.334l-0.208-0.183c0.069-0.111,0.168-0.197,0.284-0.243 l0.301,0.513l0.402-0.13l0.082-0.402l-0.234,0.026l-0.178-0.161l0.086-0.165l-0.258-0.179l-0.02-0.365l0.529,0.041l0.561-0.54 c0.07-0.153,0.104-0.313,0.099-0.483c-0.112-0.039-0.226-0.035-0.337,0.016l-0.166-0.057c-0.077-0.141-0.092-0.288-0.055-0.442 c-0.141-0.011-0.278,0.004-0.41,0.052c0.01,0.117-0.002,0.232-0.038,0.344l-0.21-0.001c0.023-0.253,0.006-0.503-0.037-0.754 c-0.096-0.049-0.174-0.123-0.258-0.188l-0.962,0.188L624.834,843.129z"/>
</svg>