<?xml version="1.0" encoding="utf-8"?>
<svg viewBox="280.875 982.251 82.267 74.645" width="82.267" height="74.645" xmlns="http://www.w3.org/2000/svg" xmlns:bx="https://boxy-svg.com">
  <path fill="#D16EFF" d="M358.915,998.051l-0.725,0.406l-0.178-0.603l-0.548-0.889l-0.447-0.42l-0.431-0.425l-0.783-0.504 l-0.181-0.612l-0.219-0.573l0.529-0.295l0.355-0.448l0.165-0.795l-0.394-0.901l0.215-0.562l-0.655-0.535l-0.525,0.2l-0.551-0.029 l-0.501-0.297l-0.518-0.092l-0.619,0.113l-0.513,0.132l-0.562,0.156l-0.542,0.238l-0.77,0.056l-0.004-1.149l-0.139-0.632 l0.061-0.638l-0.386-0.479l-0.35-0.877l0.016-0.622l-0.078-0.719l-0.265-0.567l-0.493-0.35l-0.305-0.588l-0.481-0.413l0.099-0.614 l-0.263-0.557l-0.456,0.292l-0.524,0.229l-0.777,0.145l-0.44-0.454l-0.358-0.654l-0.464,0.312l-0.509,0.16l-0.442,0.31 l-0.078,0.66l-0.004,0.708l-0.295,0.529l-0.555,0.141l-0.549,0.172l-0.409,0.411l-0.564-0.028l-0.371-0.521l-0.535,0.054 l-0.667-0.1l-0.29-0.539l-0.43-0.514l-0.429-0.484l-0.805-0.576l-0.558,0.02l-0.478,0.535l-0.645,0.118l-0.857,0.104l-0.497-0.267 l-0.572,0.2l-1.003,0.31l-0.407-0.491l-0.543-0.259l-0.597,0.186l-0.551-0.071l-0.514,0.042l-0.491-0.274l-0.521-0.061 l-0.479-0.323l-0.471-0.333l-0.185-0.6l-0.522-0.005l-0.524,0.149l-0.413,0.45l-0.747-0.03l-0.522-0.229l-0.682,0.484l-0.43,0.52 l-0.93-0.341l-0.484-0.379l-0.516,0.174l-0.408,0.515l-0.219,0.551l-0.208,0.615l-0.362,0.472l-0.517,0.121l0.062,0.642 l-0.473,0.482l-0.519,0.005l-0.879-0.27l-0.776,0.07l-0.884,0.276l-0.542-0.094l-0.516-0.141l-0.696,0.289l-0.491,0.712 l-0.523,0.038l-1.026-0.232l-0.54,0.106l-0.316,0.479l-0.523,0.233l-0.377,0.489l-0.544-0.008l-0.641-0.302l-0.857-0.359 l-0.533-0.023l-0.451,0.512l-0.173,0.637l0.017,0.668l-0.174,0.633l-0.421,0.332l-0.784,0.363l-0.505,0.298l-0.45-0.411 l-0.533-0.358l-0.5,0.098l-0.084,0.619l-0.225,0.614l-0.145,0.627l-0.388,0.489l-0.469,0.339l-0.065,0.709l0.158,0.63l-0.527,0.54 l-0.379,0.621l0.152,0.676l-0.501,0.308l-0.387,0.418l-0.033,0.795l0.045,0.634l-0.464,0.804l-0.515,0.036l-0.539,0.173 l-0.491,0.246l-0.25,1.106l0.004,0.628l0.236,0.567l0.44,0.382l-0.605,0.611l-0.484,0.392l-0.185,0.565l-0.148,0.698l0.821,0.646 l0.124,0.696l0.138,0.627l-0.837,0.813l-0.251,0.528l-0.141,0.625l-0.364,0.587l-0.441,0.738l0.066,0.692l-0.854,0.444 l-0.508,0.212l-0.54,0.172l-0.529,0.265l-0.549,0.164l-1.658,0.108l-0.611,0.041l-1.979,0.087l-0.636-0.201l-0.795-0.021 l-0.506,0.193l-0.503,0.236l-0.289,0.499l-0.451,0.373l0.462,0.533l0.53,0.181l0.141,0.629l0.035,0.633l0.498,0.304l0.03,0.812 l0.451,0.46l0.507-0.062l0.212,0.587l0.283,0.662l0.326,0.552l0.561,0.094l0.628,0.133l0.429,0.39l0.382,0.463l0.291,0.539 l0.014,0.943l-0.154,0.582l-0.586,0.404l-0.554,0.213l-0.361,0.436l-0.426,0.391l-0.47,0.298l-0.545,0.127l-0.456,0.398 l-0.539,0.174l-0.472,0.229l-0.488,0.245l-0.295,0.511l-0.334,0.923l-0.051,1.18l-0.113,0.635l0.18,0.613l-0.113,0.604 l-0.535,0.21l-0.569-0.011l-0.376,0.435l-0.025,0.654l-0.19,0.619l-0.253,0.543l-0.355,0.489l-0.333,0.551l-0.444,0.375 l-0.15,0.617l-0.48,0.234l-0.356-0.51l-0.521-0.354l-0.52-0.23l-0.374-0.465l-0.457-0.326l-0.495-0.206l-0.366-0.652l-0.501,0.253 l-0.243,0.818l0.447,0.531l0.504,0.986l0.016,0.676l0.504,0.238l0.385,0.468l0.464,0.459l0.558,0.066l0.324,0.74l0.178,0.593 l0.011,0.714l-0.119,0.64l-0.286,0.511l0.447,0.363l0.44,0.352l0.359,0.699l-0.014,0.636l0.077,0.629l0.408,0.412l0.119,0.904 l0.217,0.598l0.059,0.678l-0.136,0.604l0.122,0.684l-0.454,0.281l-0.558,0.129l-0.021,0.99l-0.009,0.139l0.587,0.177l0.31-0.247 l0.618,0.107l0.208-0.418l0.218,0.263l-0.266,0.606l0.505,0.072l0.195-0.341l-0.161-0.449l0.695-0.321l-0.291,0.403l0.396,0.659 l-0.06,0.585l0.395-0.182l0.113,0.27l-0.767,0.152l0.959,0.982l-0.426,0.155l-0.138-0.272l-0.25,0.321l-0.283-0.594l-0.351,0.121 c-0.337,0.937-1.172,1.556-1.848,2.242l1.057,0.499l-0.819,0.368l0.188,0.235l-0.195,0.549l-0.206-0.394l-0.127,0.671l-0.247,0.11 l-0.073,0.688l0.843,0.031l0.01,0.311l-0.434-0.131l-0.526,0.409l-0.444-0.211l-0.135,0.411l0.895,0.439l-0.438,0.289l0.389,0.607 l-0.516,0.483l0.054,0.229l0.972-0.406l0.104-0.223l-0.187-0.238c0.313-0.375,0.715-0.611,1.194-0.723l0.536,0.089l0.614-0.333 l-0.502-0.254l0.087-0.145c0.514-0.211,1.055-0.35,1.595-0.247c0.469,1.014,1.48,1.307,2.105,2.229l0.237,0.019l0.332-0.507 l1.395,0.693l0.985-0.517l0.037-0.342l0.402-0.131c0.393-0.378,0.689-0.865,0.772-1.405l0.251,0.131l0.547-0.669l0.684,0.229 l-0.197,1.176l0.172,0.135l0.741-0.374l-0.347-0.48l0.219-0.342l-0.189-0.477c0.684-0.094,1.374-0.315,2.033-0.088l0.091,0.329 l0.855-0.499l0.482,0.284l-0.3,0.349l0.399,0.451l0.789-0.599l-0.385,0.912l0.989,0.801l-0.168,0.541l0.188,0.474l1.233-0.203 l0.59,0.553l0.78-0.275l0.1-0.25c-0.282-0.787-0.629-1.513-0.553-2.371l-0.807-1.235l-1.92-0.498l-0.873-0.916l-0.009-0.494 l0.326-0.326l-0.227-0.156l-0.179-1.029l-0.354-0.317l0.04-0.531l0.4,0.268l0.176-0.261l1.194-0.31l0.446,0.215l0.023-0.658 l0.429-0.551c-0.066-1.199-0.109-1.725-0.777-2.705l0.181-0.231l-1.312-0.231l-0.319-0.487l0.037-0.552 c0.314,0.443,0.754,0.806,1.291,0.916l0.282-0.481l-0.549-0.406l0.33-1.583l-0.459-0.76c0.399-1.063,0.764-1.866,1.412-2.793 l1.37-0.59l0.104,0.2l0.473-0.192l1.138,0.727l0.375-0.152c-0.164-1.151-0.128-1.641,0.222-2.752 c0.317-1.006,0.988-1.268,1.481-2.145c0.804-1.425,0.408-3.784,2.312-4.451l0.626,1.052l0.597-0.257l-0.222-0.731l0.192-0.364 l-0.789-0.873l0.517-0.692l0.973-0.384l-0.405-0.314l0.191-0.81l0.755-0.672l-0.365-0.427l0.128-0.224l-0.446-0.418l0.794-0.806 l-0.399-0.686l0.014-0.733l-0.769,0.357l-0.101-0.171l0.107-0.831l-0.312-0.43l0.584-0.149l-0.061-0.279l0.302-0.302l-1.434-0.794 l1.662-1.202l-0.244-0.28c0.099-0.436,0.04-0.855-0.178-1.233l0.77-0.749l0.074-0.482l0.536-0.536l-0.175-0.766l0.505,0.697 l-0.39,0.647l0.391,0.426l0.222-0.34l0.506,0.281l0.089-0.33l0.257-0.03l0.028,0.858l-0.354,0.103l0.247,0.727l0.62-0.704 l-0.161-1.317l0.604-0.626l-0.034-0.28l1.33-0.244l0.468,0.389l0.081-0.609l0.968-0.224l0.229,0.363l0.343-0.831l0.376,0.062 l0.025-0.212l0.868-0.187l0.38-0.521l0.47-0.03l0.084-0.795l-0.869-0.26l-0.543,0.696l-0.822-0.505l-0.568,0.698l-0.058,0.606 l-0.328-0.325l-0.175,0.284l-0.295-0.039l0.01,0.492l-0.693-0.515l-0.178,0.887l-0.765-0.457l0.626-0.681l1.341-0.164l0.59-0.518 l-0.436-0.576l0.605,0.033l0.588-0.333l0.138,0.477l0.279,0.149l0.61-0.807l0.871,0.077c0.297-0.495,0.765-0.881,1.314-1.054 l-0.511-0.1l-0.324-0.716l0.935,0.567c1.25-0.756,3.065-1.475,4.059-2.569l-0.273-0.306c1.579-2.208,6.109-2.487,8.578-3.098 l0.491,0.174l0.316,0.876c1.19,0.307,2.624-0.051,3.831-0.153l0.669,0.519c1.523-0.343,3.865-0.258,5.109,0.867 c0.068,0.672,0.381,1.291,0.75,1.846c0.741,0.389,1.487,0.758,2.236,1.139l0.485-0.088c0.515,0.206,1.029,0.415,1.546,0.624 c0.596,0.632,0.539,1.507,0.65,2.329c1.499,0.16,2.331,1.835,3.607,2.488l0.681,1.704l1.234-0.183l2.661,2.896 c0.421-1.27,0.081-3.075,0.181-4.442c0.119-1.554,0.24-2.908,0.647-4.404c-0.753-1.438,0.84-3.168,0.819-4.637 c-0.024-1.323,1.348-2.995,1.959-4.089l-0.373-0.267l0.09-0.328l-2.902-1.295l-0.472-0.117L358.915,998.051z"/>
  <text x="314.166" y="1030.616" style="white-space: pre; fill: rgb(51, 51, 51); font-family: sans-sarif; font-weight: bold; font-size: 15.3px;">高知県</text>
</svg>