<?xml version="1.0" encoding="utf-8"?>
<svg viewBox="152.842 1040.277 65.204 69.655" width="65.204" height="69.655" xmlns="http://www.w3.org/2000/svg" xmlns:bx="https://boxy-svg.com">
  <path fill="#009900" d="M174.538,1107.663l0.812,0.604l0.273,0.588l0.42,0.428l0.317,0.513l0.523,0.021l0.575,0.027l0.553,0.088 l0.532-0.147l0.56,0.1l0.43-0.438l0.535-0.204l-0.071-0.666l0.481-0.353l0.552,0.045l0.525-0.372l0.524,0.244l0.554-0.146 l0.529-0.22l0.129-0.668l0.508-0.238l0.521-0.185l0.521-0.064l0.44-0.373l0.238-0.663l-0.067-0.961l0.551-0.16l0.528,0.226 l0.287,0.656l0.43,0.863l0.915,0.13l0.596,0.015l0.283,0.891l0.538,0.319l0.571,0.314l0.547,0.287l0.455,0.336l0.517,0.295 l0.52,0.071l0.816,0.009l0.464-0.325l0.522,0.129l0.918,0.052l0.584-0.073l0.563,0.027l0.527-0.038l0.561-0.08l0.561,0.176 l0.323-0.521l0.473-0.302l0.612,0.084l0.525,0.197l0.321-0.533l0.534-0.889l0.517-0.186l0.476-0.43l0.505-0.159l0.725,0.351 l0.588,0.406l0.472-0.224l0.508,0.131l0.439-0.336l0.542-0.127l-0.017-0.647l0.22-0.563l0.463-0.376l0.367-1.054l0.398-0.694 l0.598,0.052l0.912-0.112l0.398,0.412l0.548,0.239l0.522,0.011l0.61-0.172l0.611,0.159l0.559-0.122l0.445-0.432l-0.339-0.512 l-0.146-0.626l0.031-0.664l-0.271-0.541l-0.615-0.244l-0.515-0.412l-0.392-0.592l-0.229-0.618l-0.417-0.401l-0.873-0.042 l-0.369-0.86l0.448-0.417l-0.136-1.187l1.003,0.107l0.436-0.355l0.333-0.528l0.273-0.589l0.271-0.631l0.141-0.596l0.268-0.568 l-0.566-0.703l-0.504-0.454l-0.53-0.089l-0.587-0.281l0.057-0.622l-0.094-0.623l-0.385-0.541l-0.037-0.665l-0.391-0.488 l-0.632,0.076l-0.531-0.178l-0.55-0.646l-0.367-0.506l-0.389-0.502l-0.255-0.587l-0.2-1.127l-0.143-0.606l-0.416-0.561 l-0.018-0.815l-0.069-0.71l0.487-0.372l0.175-0.583l-0.245-0.568l-0.139-0.635l0.469-0.346l0.513-0.223l-0.148-0.642l0.109-0.664 l0.549-0.688l0.69,0.135l0.526,0.058l0.691,0.122l0.715-0.568l0.36-0.451l0.246-0.768l-0.31-0.603l0.071-0.751l0.047-1.02 l0.151-0.625l0.353-0.51l0.396-1.004l0.529-0.187l0.416,0.386l0.574-0.396l-0.093-0.602l0.042-0.632l0.174-0.591l0.112-0.666 l0.469-0.658l0.457-0.275l0.525-0.14l0.339-0.467l0.506-0.45l0.028-0.669l0.29-0.547l-0.254-0.59l-0.286-0.554l0.436-0.468 l0.006-0.677l0.342-0.462l0.043-0.647l0.305-0.524l0.509-0.063l0.479-0.378l0.538,0.091l0.697-0.06l0.962-0.396l-0.405-0.635 l-0.498-0.406l-0.539-0.142l-0.562-0.186l-0.476-0.397l-0.577-0.221l-0.131-0.637l-0.839-0.25l-0.243-0.665l-0.076-0.615 l-0.184-0.998l-0.336-0.48l-0.113-0.929l-0.113-0.915l0.472-0.22l0.254-0.599l-0.931-0.435l-0.103-0.749l-0.46-0.354l-0.563-0.364 l-0.212-0.644l-0.302-0.562l-0.236-0.672l-0.154-0.666l-0.732-0.556l-0.615-0.769l-0.56,0.094l-0.545-0.531l-0.153-1.07 l-0.475-0.894l-0.249-1.008l-0.455-0.387l-0.395-0.477l-0.532-0.318l-0.431-0.383l-0.708-0.194l-0.497-0.745l-0.52-0.215 l-0.958,0.069l-0.574-0.068l-0.613-0.204l-0.506,0.122l-0.544,0.066l-0.293,0.501l-0.572,0.433l-1.155,0.144l-0.431,0.716 l0.072,1.091l-0.168,0.877l0.753,0.582l0.252,0.63l0.525,0.451l0.388,0.486l0.622,0.73l-0.406,0.479l-0.093,0.611l0.311,0.55 l-0.007,0.622l-0.258,0.606l-0.232,0.62l-0.562,0.573l-0.99,0.106l-0.448-0.5l-0.262-0.555l-0.527-0.472l-0.533-0.02l-0.544,0.065 l-0.561,0.006l-0.396-0.488l-0.57-0.062l-0.42-0.574l-0.426-0.716l-0.772-0.242l-0.556-0.13l-0.971,0.188l-0.067-0.745 l-0.716,0.086l-0.536-0.293l-0.563-0.186l-0.55-0.191l-0.519-0.156l-0.567,0.105l-0.653-0.233l-0.505-0.221l-0.514-0.399 l-0.499-0.265l-0.396-0.486l-0.515,0.228l-0.519-0.135l-0.51,0.234l-0.527,0.026l-0.081-0.66l-0.46-0.325l-0.447,0.752 l-0.184,0.672l0.157,0.59l-0.299,0.565l-0.011,0.646l-0.124,0.679l-0.527-0.062l-0.532-0.009l-0.638,0.134l-0.485,0.205 l-0.543-0.253l-0.62,0.074l-0.562-0.072l-0.397,0.487l-0.435,0.357l0.17,0.656l-0.448,0.663l-0.562,0.166l-0.359,0.578 l-0.34,0.458l-0.486,0.184l-0.486,0.404l-0.365,0.445l0.47,0.962l0.229,0.618l0.368,0.506l-0.249,0.644l-1.332,0.355l-0.671,0.117 l-1.421,0.312l-0.438,0.434l-0.086,0.337c0.355,1.049,1.108,2.416,0.982,3.521c1.514,0.768,3.022,1.544,4.53,2.325l0.52-0.247 l0.427-0.996l-0.426,2.069l2.122,0.658l0.558-0.379l-0.204,1.094l1.492,1.073l-0.062,0.556l0.321,0.067 c0.163,0.471,0.466,0.823,0.915,1.039l-0.407,0.521l0.671,0.127l0.137,0.271l-0.893-0.021l-0.165,0.806l0.584,1.344l-0.167,0.573 l0.212,0.236l-0.063,0.318c0.488,0.147,0.977,0.297,1.467,0.447l0.326,0.722l-0.451-0.469l-1.354-0.145l-1.884,1.092 c-1.246,2.199-3.177,3.441-5.145,5.011l-0.101,0.273c0.174,0.145,0.348,0.291,0.526,0.43l0.139,0.507 c1.601-0.353,2.55-0.619,3.901-1.526l0.924,0.067l0.26-0.239c1.732-0.213,2.828-0.757,4.393-1.561l0.423,0.468 c0.066,0.751-0.245,1.467-0.495,2.161l0.77,0.718l0.034,0.284l-1.465-1.053l-0.643,0.733l-0.462-0.125l-0.094,0.092l0.721,0.536 l-0.085,0.144l-0.799-0.316l-0.356,0.513l0.523,0.225l-1.028,0.362l-0.782,1.744l-0.745,0.122l-0.156,1.274 c0.816,0.213,1.752,0.313,2.456,0.799l-0.304,0.091l0.052,0.202l0.62,0.131l-0.342,0.197c-0.925-0.138-1.47,0.108-2.301,0.469 l0.228,0.788l0.196,0.081l1.317-0.35l-0.347,1.852l0.483,0.728c-1.115,1.296-3.585,3.406-3.658,5.213l0.808-0.042l-0.075,0.454 c-0.416,0.136-0.76,0.393-0.982,0.75l-0.004,1.021l-0.342-0.217l-0.097,0.295l-0.163-0.056l-0.02,0.498l0.219,0.08l0.362,1.028 l0.812,0.187l-0.561,0.566l-0.482-0.309l-0.191,0.155l0.251,0.778l-0.468-0.623l-0.34-0.01l-0.174,1.148l-0.44,0.47l-0.352-0.086 l-0.054,0.212l0.245,0.282l-0.219,0.788l0.568,0.143l0.3,0.3l-0.137,0.177l-0.916-0.016l-0.462,0.313l-0.547,0.016l-0.301,0.957 l-0.458,0.314l-0.176,0.497l0.396,0.24l-0.532,1.427l-0.544,0.043l0.432,0.337l-0.303,0.506l0.09,0.596l0.021-0.015 L174.538,1107.663z M172.191,1085.062l-0.459,0.949l-0.17-0.743l-0.398-0.262l-1.221,0.939l-0.262-0.446 c-0.83,0.303-1.246,1.12-1.772,1.796l-0.019,0.47c-1.122,0.873-2.233,2.031-3.596,2.514l-0.239,0.604 c0.321,0.58,0.643,1.165,0.974,1.742l0.417,0.188l-0.022-0.393l0.184,0.005l0.147,0.35l0.395,0.002 c0.153,0.594,0.012,1.219-0.338,1.721l0.938-0.247l0.496-1.712l1.088,0.968l0.233-0.236c0.663,0.26,1.362,0.087,1.994-0.193 l0.662-0.788l-0.061-0.489l0.304-0.095l0.083,0.672l0.25-0.083c-0.164,0.287-0.257,0.595-0.278,0.926l0.443,1.047l0.528-0.797 l0.746,0.301l0.498-0.849l0.463,0.363l0.225-0.084l-0.319-0.484l0.392-1.07l-0.327-0.744l0.526,0.248l0.375-0.569l-0.952-0.09 c1.411-1.846,1.828-3.891,2.173-6.188l-0.423,0.601l-0.333,0.068l-0.217-0.467l-0.471,0.398l0.082,0.249 c-0.382-0.006-0.769-0.014-1.155-0.014c-0.371,0.479-0.625,1.021-0.639,1.625l-0.305-0.355l-0.099-0.586l-0.53-0.277l0.184-0.417 L172.191,1085.062z M160.179,1103.933l-0.54-0.328l0.154-0.255l0.636-0.159l1.097-2.148l0.752,0.143l0.688-0.584l0.046-0.266 l-0.36-0.375l-0.838,0.207l-0.102-0.17l0.147-0.514l0.56-0.124l-0.249-0.336l0.313-0.222l0.061-0.585l0.438-0.053l-0.007,0.599 l0.578,0.642l0.667-0.315l0.938-1.561l-0.24-0.652l0.588-1.199l-0.38-0.951l0.262-0.216l-0.704-0.618l-0.397,0.597l-0.248-0.099 l0.142-0.541l-0.3-0.305c0.309-0.196,0.526-0.474,0.635-0.811l-0.189-0.268l0.289-0.215l-0.951-1.562l0.002-0.842l0.357-0.486 l-0.772-0.953c0.038-0.61-0.054-1.244-0.495-1.694l0.367-1.281l-0.435,0.111l-0.345-0.691c-1.333-0.632-2.396,0.674-3.689,0.453 c-0.532,0.982-1.692,1.585-2.552,2.251l-1.04,0.075l-0.399-0.473l0.16-0.203l0.137,0.271l0.143-0.329l-0.258-0.417l-0.46-0.099 l-0.929,0.739l1.201,0.613l0.815,1.524c-0.453,1.73-2.244,4.288-1.611,6.066l-0.69,0.999l0.429,0.077l-0.492,0.269l-0.267,0.588 c0.127,1.039,0.025,2.245,0.869,3.009l0.272-0.322l0.359,0.14l-0.033,0.578l0.358,0.379l0.29-0.433l0.727-0.268l0.765,0.272 l0.705-0.453l1.173,0.589l-0.09,0.976l-0.736,0.405l-0.383-0.79l0.164-0.781l-0.861,0.448l0.654,1.071l-0.262,0.217l-0.767-1.136 l-0.785,0.018c-0.075,0.51-0.367,0.97-0.787,1.274l-0.289,0.01l-0.769,2.264l0.355,0.326l0.705-0.661l0.277,0.331l-0.123,0.276 l1.043-0.022l0.292,0.672l-0.143,0.959l-0.304-0.117l0.024-0.658l-0.198,0.309l-0.029,1.476l0.471,0.205l0.409-0.732l0.353,0.531 l0.487-0.297l-0.046-1.223l0.283,0.591l0.25-0.317l0.182,0.633l0.498-0.638l0.519-0.037l0.819-0.783l-0.545-0.168l0.356-0.516 l-0.007-0.706l0.1,0.402l0.41,0.343l0.41-0.076L160.179,1103.933z"/>
  <text transform="matrix(0.999975, -0.007097, 0.007097, 0.999975, 9.736567, 153.698898)" style="fill: rgb(255, 255, 255); font-family: sans-sarif; font-weight: bold; font-size: 16px; white-space: pre;" x="170.244" y="915.639" dx="0 -15.918 -16.244" dy="0 15.51 15.735">熊本県</text>
</svg>