<?xml version="1.0" encoding="utf-8"?>
<svg viewBox="376.624 856.65 66.664 61.787" width="66.664" height="61.787" xmlns="http://www.w3.org/2000/svg" xmlns:bx="https://boxy-svg.com">
  <path fill="#7272FF" d="M376.771,867.944l0.319,0.577l-0.109,1.135l-0.062,0.608l0.378,1.165l0.63,0.51l0.364,0.454l0.521,0.12 l0.411,0.412l0.538,0.255l0.336,0.506l0.385,0.972l0.8,0.354l0.549-0.14l0.569,0.003l0.308-0.489l0.451-0.327l0.566-0.399 l0.775-0.462l0.597-0.183l0.526-0.22l0.519,0.071l0.202,0.622l0.282,0.562l-0.007,1.253l0.108,0.878l0.096,0.696l0.253,0.656 l0.329,0.523l0.1,0.657l-0.05,0.668l0.213,0.585l-0.223,0.727l-0.561-0.018l-0.293,0.511l-0.263,0.509l-0.659,0.289l-0.431,0.314 l-0.529-0.085l-0.381-0.491l-0.585-0.038l-0.51-0.465l-0.553-0.064l-0.557,0.102l-0.506,0.773l-0.063,0.671l0.188,0.601 l-0.257,0.605l0.163,0.649l-0.092,0.661l0.431,0.596l0.039,0.645l-0.108,0.649l0.578,0.357l0.841,0.203l0.556,0.248l0.575,0.101 l0.969,0.114l0.523,0.047l0.621,0.305l0.188,0.611l0.463,0.287l0.519,0.155l0.541,0.189l0.515-0.145l0.494,0.292l0.425,0.759 l0.668-0.168l0.338-0.568l0.346-0.444l0.473-0.231l0.538-0.138l1-0.109l0.53,0.011l0.556-0.02l0.429,0.46l0.232,1.073 l-0.354,0.434l0.377,0.481l0.526,0.14l0.509,0.023l0.782,0.622l0.28,0.541l-0.503,0.221l0.066,0.617l-0.032,0.644l0.563,0.1 l0.427,0.398l0.516-0.077l0.521-0.19l0.466-0.844l0.973-0.136l0.6-0.014l0.531-0.007l0.585,0.091l0.181,0.791l-0.308,0.543 l0.451,0.505l0.953-0.284l0.652-0.193l0.543-0.247l0.324,0.56l0.532,0.174l0.536,0.155l0.546-0.053l0.715,0.112l0.23,0.644 l0.394,0.414l-0.185,0.578l0.656,0.38l0.065,1.098l-0.452,0.31l-0.46,0.329l-0.314,0.566l0.048,0.846l0.665,0.812l0.053,0.996 l0.518,0.206l0.516,0.088l0.48-0.269l0.473,0.446l0.569-0.242l0.53-0.167l0.539,0.208l0.584,0.097l0.472,0.258l0.575-0.045 l0.494,0.268l-0.284,0.526l0.267,0.565l0.046,0.976l0.501,0.859l0.613-0.345l0.468,0.27l0.429,0.463l0.745,0.274l0.363,0.615 l0.526-0.163l0.518-0.123l0.563,0.003l0.348-0.626l-0.171-0.666l-0.93-0.263l0.158-0.611l0.228-0.591l0.063-0.629l0.479-0.206 l0.484,0.308l0.468-0.222l0.504-0.062l0.304,0.933l-0.124,0.628l0.591,0.644l0.505-0.097l0.545,0.223l0.48,0.579l0.229,0.608 l0.563,0.274l0.646,0.3l0.33,0.511l0.303,1.047l0.392,0.43l0.095,0.617l0.52,0.067l0.476,0.294l0.353,0.5l0.458,0.58l0.784,0.688 l0.429,0.501l0.061,0.637l-0.283,0.552l-0.326,0.479l0.246,0.946l0.315,0.561l0.531,0.329l0.437,0.473l0.198,0.635l0.603,0.057 l0.558,0.043l0.786-0.109l0.55,0.095l0.452,0.314l1.076,0.017l0.555,0.175l0.516,0.13l0.935-0.458l0.931,0.012l0.199-1.275 l0.348-0.488l0.285-0.497l0.18-0.61l0.535-0.249l-0.082,0.952l0.502,0.171l0.512-0.095l0.335-0.527l0.476,0.31l0.725-0.146 l0.482,0.347l0.23,0.558l0.148,0.594l0.613,0.049l0.482-0.272l1.027,0.304l0.266-0.57l0.272-0.497l0.103-0.956l-0.807-0.813 l-0.161-0.632l0.124-0.592l-0.494-0.292l-0.203-0.602l-0.458-0.299l-0.037-0.676l0.59-0.76l-0.458-0.338l-0.521,0.065 l-0.424-0.423l-0.373-0.63l-0.492,0.264l-0.482,0.237l-0.395-0.494l-0.497-0.366l-0.769,0.23l-0.251-0.552l-0.097-1.031 l-0.259-0.605l-0.55,0.081l-0.455,0.279l-0.439,0.371l-0.332,0.451l-0.531-0.044l-0.389-0.514l-0.548-0.112l-0.491-0.287 l-0.129-0.828l0.145-0.619l0.039-0.762l0.197-0.599l-0.445-1.071l-0.49-0.257l-0.405-0.414l-0.091-0.645l-0.407-0.418 l-0.898-0.748l-0.211-0.696l0.086-0.66l-0.41-0.446l-0.479-0.455l-0.119-0.617l0.424-0.347l0.39-0.402l-0.2-0.576l0.136-0.625 l-0.166-0.825l0.232-0.593l0.049-0.639l0.169-0.595l0.046-0.646l-0.235-0.579l0.17-0.631l-0.271-0.531l-0.352-0.532l-0.252-0.608 l-0.008-0.623l-0.319-0.534l-0.309-0.597l-0.219-0.585l0.362-0.483l-0.087-0.618l0.16-1.155l0.092-0.644l0.008-0.871l-0.535,0.369 l-0.523-0.204l-0.383-0.543l-0.244-0.653l-0.436-0.462l-0.386-0.501l-0.875-0.604l-0.44-0.446l-0.445-0.326l-0.397-0.76 l-1.085-0.003l-0.417,0.407l-0.503,0.051l-0.56-0.068l-0.355,0.492l-0.533,0.213l-0.538-0.128l-0.588-0.04l-0.488-0.361 l-0.547-0.083l-0.528-0.14l-0.589-0.005l-0.791-0.268l-0.54,0.19l-0.581-0.147l-0.52,0.243l-0.561-0.339l-0.525,0.044 l-0.526-0.011l-0.561,0.043l-0.696,0.05l-0.438-0.411l0.12-0.648l-0.348-0.459l0.057-0.642l-0.592-0.479l-0.512,0.063 l-0.579-0.492l-0.473-0.385l-0.559-0.589l-0.555-0.409l-0.47-0.359l-0.177-0.589l0.327-0.665l0.315-0.604l-0.037-0.775 l-0.53-0.229l-0.481-0.294l-0.455-0.379l0.159-0.703l0.185-0.558l0.28-0.574l0.157-0.559l-0.001-0.01l-0.002-0.014l0.01-0.012 l-0.013-0.014l-0.001-0.01l-0.011-0.011l-0.034-0.022l-0.004-0.033l-0.027-0.046l-0.012-0.012l-0.021-0.009l-0.003-0.025 l0.009-0.014l0.037-0.031l0.018-0.049l-0.018,0.049l-0.037,0.031l-0.009,0.014l0.003,0.025l0.548,0.157l0.153-0.15l-1.966-0.861 l0.221-1.181l0.263-0.006l-0.142-0.716l-1.64,1.561l0.218,0.92l-0.781-0.168l-0.932,0.951l-0.771-0.086l-1.214,1.195l-0.577-0.217 c-0.151,0.52-0.119,1.086,0.164,1.55l0.627,0.213l-0.344,0.198l0.188,0.239l-0.182,0.231l0.329,0.327l1.591-0.248l0.181-0.677 l0.341-0.227l0.23,1.021l0.408,0.134l-0.346,1.222l-0.226-0.131l-0.709,0.193l0.289-0.429l-0.175-0.348l-0.918,0.194l-0.528-0.252 l-0.022,0.449l-0.347,0.386h0.21l0.051,0.415l-1.595,1.712l0.877-3.515l-0.853-1.179l-0.285,0.874 c-0.721-0.125-1.441-0.154-2.125-0.443l-0.219-0.498l-1.435-0.163l-0.22-0.315l-0.014-0.967l0.452-0.16l0.042,0.334l-0.213,0.213 l0.253,0.124l0.263-0.398l0.914-0.453l-1.412-0.611l-0.023-0.835l0.241-0.19l-0.326-0.507l-0.425,0.81l-0.655,0.213l-0.101,0.879 l-0.924,0.794l0.225,0.992l-0.507,0.354l-0.415-0.605c0.131-2.021,1.159-3.439,2.312-5.053c-0.098-0.889,0.382-1.702,0.688-2.519 c0.448-0.216,0.9-0.423,1.368-0.588l-0.16,0.385l0.55,0.222c-0.138-0.725-0.104-1.488,0.287-2.133l-1.22-0.556l-0.323-1.561 l-0.484,0.113l-0.043-0.573l-1.19-0.323l-0.033-0.703l-0.436,0.082c-0.424-0.354-0.844-0.715-1.259-1.076l-0.166,0.57 l-0.545,0.461l-0.68-0.205l-1.098,0.867l-0.425-0.054l-0.118,0.331l-0.81,0.229l-0.382-0.317l-0.816,0.807 c-0.745,0.162-1.4,0.18-1.922,0.786l0.25,0.544c-0.611,0.708-1.153,1.509-1.987,1.971l-0.395-0.028l-0.481,0.768 c-0.659-0.229-1.346-0.208-1.981,0.087l-0.904,1.392l0.035,0.493l-1.185,0.801l-0.82,0.57c-0.668-0.168-1.388-0.154-2.028,0.12 l0.104-0.432l-0.411-0.371l-0.254,0.067l0.002,0.236L376.771,867.944z"/>
  <text transform="matrix(0.999999, 0.001732, -0.001732, 0.999999, 96.885666, 229.621902)" style="fill: rgb(255, 255, 255); font-family: sans-sarif; font-weight: bold; font-size: 12.7px; white-space: pre;" x="293.132" y="654.185" dx="-1.106 -0.266 -2.491" dy="-1.032 7.679 8.49">京都府</text>
</svg>