<?xml version="1.0" encoding="utf-8"?>
<svg viewBox="439.967 880.636 50.291 96.655" width="50.291" height="96.655" xmlns="http://www.w3.org/2000/svg">
  <path fill="#7272FF" d="M473.597,889.994l-0.524-0.632l-0.661-1.17l-0.241-0.72l-0.315-1.091l-0.665-0.554l-0.561-0.345 l0.074,0.845l-0.504,0.308l-0.664,0.098l-0.486-0.324l-0.519-0.89l-0.653-0.637l-0.49-0.407l-0.378-0.45l-0.507-0.323 l-0.564-0.172l-0.203-0.662l-0.52-0.082l-0.006-0.658l-0.461-0.407l-0.316-0.662l-0.531-0.423l-0.582,0.339l-0.139,0.865 l-0.672,0.179l-0.83,0.297l-0.495,0.117l-0.55,0.117l-0.35,0.46l-0.35,0.495l-0.499-0.12l-0.532-0.071l-0.406,0.427l0.139,0.692 l-0.084,0.686l0.414,0.747l0.553,0.028l0.434,0.437l0.953,0.518l0.104,0.635l-0.488,0.23l-0.014,0.667l-0.301,0.511l0.508,0.258 l-0.186,0.597l0.172,0.688l-0.051,0.655l-0.035,0.983l0.299,0.527l-0.273,0.524l-0.453,0.374l-0.271,0.585l0.012,0.689 l0.367,0.509l-0.147,0.619l0.208,0.896l-0.115,0.797l-0.18,0.938l-0.281,0.56l-0.266,0.623l-0.573,0.484l-0.374,0.439 l-0.141,0.637l0.053,0.652l-0.157,1.123l-0.406,0.378l-0.78,0.406l-0.488,0.273l-0.482,0.208l-0.311,0.581l-0.404,0.427 l-0.508,0.269l-0.922,0.065l-0.316,0.482l-0.486,0.314l-0.564,0.204l-0.512-0.021l-0.981-0.207l-0.63-0.109l-0.566-0.15 l-0.548-0.3l-0.405-0.473l-0.525,0.024l-0.576,0.22l-0.518,0.187l-0.504-0.272l-0.503,0.214l-0.646-0.316l-0.311-0.557 l-0.582,0.85l-0.503,0.298l0.264,0.616l0.524,0.206l0.582-0.021l0.496-0.247l0.284,0.606l-0.743,0.512l-0.116,0.646l-0.364,0.401 l-0.56,0.281l0.272,0.637l0.057,0.653l-0.38,0.439l-0.475,0.238l-0.433,0.332l-0.51,0.111l-0.547,0.13l-0.439,0.385l-0.51,0.188 l0.201,0.604l0.496,0.289l-0.124,0.593l0.16,0.63l0.808,0.813l1.032,0.781l0.342,0.521l-0.168,0.583l0.669,0.692l0.289,0.672 l0.386,0.498l-0.358,1.053l-0.441,0.383l0.318,0.892l-0.004,0.627l-0.286,0.558l-0.429,0.822l-0.158,0.654l0.062,0.666 l0.408,0.471l0.387,0.483l0.561,0.039l0.521,0.218l0.491,0.205l0.511,0.102l0.754,0.409l0.986-0.557l0.58-0.149l0.463-0.255 l0.365,0.592l0.485,0.553l0.161,0.62l0.484,0.658l0.445-0.396l0.516-0.187l0.646-0.287l0.429,0.471l0.063,0.638l0.146,0.764 l0.402,0.478l-0.457,0.485l-0.142,0.703l-0.124,0.637l0.021,0.709l-0.976,0.069l-0.557,0.298l-0.656-0.083l-0.49,0.277 l-0.526,0.245l-0.505-0.084l-0.525,0.124l-0.756,0.574l-0.52,0.087l-0.18,0.963l-0.175,0.585l-0.407,0.403l-0.236,0.656 l0.405,0.474l0.512,0.359l0.367,0.623l0.403,0.878l0.293,0.661l0.462,0.729l0.542,0.159l0.572,0.495l-0.332,0.447l-0.757,0.422 l-0.518,0.261l0.201,0.6l0.441,0.444l0.495,0.331l0.412,0.432l0.148,0.609l0.457,0.326l-0.303,0.935l-0.35,0.934l0.325,0.568 l-0.488,0.305l-0.317,0.482l-0.307,0.503l0.316,0.524l0.523,0.028l-0.076,0.63l0.401,0.448l0.03,0.682l-0.154,0.62l-0.035,0.646 l0.217,0.612l-0.056,0.706l0.239,0.647l0.002,0.618l-0.537,0.763l0.143,0.704l0.044,0.813l0.147,0.614l0.359,0.561l0.084,0.683 l-0.709-0.021l-0.532-0.124l-0.586-0.116l-0.983,0.06l-0.533-0.342l-0.361,0.572l-0.545-0.162l-0.096,0.611l-0.348,0.507 l-0.15,0.591l-0.593,0.492l-0.591,0.94l-0.471,0.276l-0.491,0.348l-0.554,0.139l-0.543,0.053l-0.516,0.113l-0.403,0.438 l-0.35,0.771l-0.321,0.496l-0.289,0.53l0.266,0.613l0.217,0.581l-0.738,0.216l-0.756,0.286l-0.156,0.694l-0.197,0.582l-0.15,1.438 l0.146,0.878l0.441,1.008l0.033,0.899l-0.03,0.742l0.41,0.437l1.169,0.459l0.694,0.695l0.698,1.258l0.58,0.042l0.771,0.579 l0.666,1.003l0.755,0.427l0.957-0.666l0.567,0.032l0.072,0.018l0.9,0.428c0.117-0.215,0.244-0.433,0.391-0.675l-0.494,0.246 l-0.004-0.026c-0.508-0.134-1.021-0.252-1.535-0.361c0.352,0.073,0.7,0.153,1.053,0.237l0.374,0.086l-0.245-0.151 c0.343-0.206,0.701-0.404,1.077-0.552c0.25-3.382,1.327-6.948,3.202-9.772l0.251-0.085l0.212-0.628l0.645,0.763l0.294-0.376 l-0.038-0.309l0.705-0.246l-0.602-0.399l0.594-0.935l-0.539-0.353l0.135-0.175l1.131,0.23l0.169,0.731l1.325-0.501l-0.199-0.996 l-0.545,0.037l0.29-0.403l0.554-0.196l0.357,0.137l-0.006,0.392l0.217,0.055l0.354-0.961l0.34-0.015l0.041-0.294l-0.424-0.888 l-0.229,0.052l-0.004-0.471l-0.713,0.609l-1.451-0.318l-0.996,0.644l-0.855-0.55l0.663,0.289l0.14-0.567l2.246,0.141l0.678-0.87 l-0.311-0.825l0.197-0.103c0.521,0.507,1.117,0.881,1.85,0.979l-0.627,0.233l0.134,0.456l1.089,0.131l0.527-0.406l-0.018-0.787 l-0.579-0.24l0.543-0.907l-0.21-0.208l-0.668,0.109l-0.031-0.261l1.22-0.73l-1.896-0.915l-0.289-0.883l0.341-0.41l-2.043-0.009 l-0.477-0.677l1.643-0.936l-0.414-0.369l0.023-1.103l0.41-0.052l-0.271,0.562l0.155-0.021l1.481-1.389l0.01,0.523l-0.953,1.192 l0.725,0.564l-0.051-0.621l0.539-0.512l-0.268,0.608l0.341,0.638l0.335-0.068l0.094-0.508l0.503-0.161l0.296,0.483l0.742-1.848 l-1.557-0.094l0.221-0.764l-0.35,0.149l-0.262-0.414l0.301-0.746l-0.321-0.274c0.507-0.317,0.845-0.833,0.926-1.422l0.897-0.583 l0.68-0.004l-0.008-1.365l0.464-0.265l-0.187-0.242l0.385-0.072l-0.059,0.189l0.387,0.136l-0.386,0.283l-0.011,0.345l0.479-0.137 l0.354,0.532c0.355-0.502,0.712-0.999,1.074-1.499l-0.035-0.488l0.525,0.014l-0.219,0.369l0.53,0.273l1.249-0.728l0.019-0.269 c0.409-0.07,0.819-0.153,1.227-0.254l0.181-0.204l-0.353-0.347l0.083-0.587l-0.244-0.312l0.449-0.16l0.05,0.617l1.095,0.578 l0.004,0.262c0.451-0.131,0.812-0.396,1.082-0.789l0.367,0.011l-0.5-0.432l-0.52,0.244l-0.203-0.367l0.831-0.262l-0.368-0.666 l1.055,0.92l0.099-0.271l-0.495-0.388l-0.426-1.364l-0.264-0.2l0.647-0.054l-0.075,0.245l0.559,0.271v-0.443l0.479,0.28l0.1-0.482 l0.256-0.059l-0.014,1.177l0.688,0.494l-0.079-0.646l0.285-0.035l-0.009-0.494l-0.543-0.799l0.062-0.137l0.505,0.486l0.14-0.147 l-0.223-0.346l0.658-0.39l0.104,0.641l0.257-0.058l0.603,1.079h0.629l0.987-1.122l0.639-0.128l0.074-0.689l1.188-0.356 l-0.375-0.296c0.23-0.562,0.557-1.107,1.078-1.442l-0.635-0.057l-0.089,0.355l-0.513-0.146l-0.85,0.368l0.616-0.966l0.315,0.431 l0.156-0.645l0.526,0.011l-0.155-0.845l-0.687-0.019l0.464-0.265l0.66,0.257l0.345-0.382l-0.196,0.544l0.354,0.746l0.517-1.765 l0.648,0.784l0.066-0.53l0.303,0.327l0.51-0.088l-1.003,0.989l0.144,0.32l-0.35-0.058l-0.379,0.309l-0.266,1.89l0.193,0.292 l0.141-0.362l1.068-0.468l-0.012-0.524l0.533-0.145c0.63,0.307,1.339,0.455,2.019,0.228l-0.454-0.076l-0.055-0.231l0.349-0.148 l-0.033-0.703l0.852,0.523l-0.27,0.348l0.081,0.229l0.301-0.093l-0.018,0.291l0.996-0.021l0.577-0.619l0.507-0.115l-1.361-0.412 l0.295-0.607l0.372,0.475l0.633-0.181l-0.331,0.303l0.115,0.088l1.426-0.542l0.388,0.346l-1.085,0.368l0.402,0.264l0.298-0.111 l0.774,0.534l0.469-0.218l-0.143,0.332l-2.365-0.286l-0.398,0.391l1.236-0.151l0.148,0.112l-0.497,0.219l0.614,0.737l0.398-0.571 l0.166,0.243l0.486-0.27l0.111,0.248l-1.013,0.937l-0.282-0.144l-0.13,0.221l-0.066-0.541l-0.399-0.056l-0.232,0.447l-0.228-0.365 l-0.813-0.212l-0.012,0.343l-0.408-0.344l-1.134,0.084l-0.638,0.574l0.637,0.499c1.324-0.248,2.475,0.432,3.811,0.109l0.539,0.325 l0.24-1.026l0.947-0.17l0.045-0.713l1.335-0.431c-0.163-0.521-0.526-0.966-1.035-1.179l0.257-0.244l-0.003-0.653 c-0.564-0.405-0.915-1.062-0.817-1.758l1.228-1.329l-0.06-0.256l-0.854,0.29l-0.89,1.285l-0.326-0.511l0.234-0.236l-0.332-0.378 l-0.422,0.42l-0.314-0.616l-0.291,0.164l-0.102,0.463l-0.754,0.249l-0.205-0.157l0.211-0.422l0.402,0.086l0.45-0.605l0.688,0.281 c0.368-0.126,0.667-0.357,0.887-0.685l-0.216-0.655l0.39,0.162l-0.047-0.383l0.32-0.146l0.051,0.41l0.474-0.19l0.153,0.399 l0.624,0.188l-0.251-1.201l0.424-1.02l0.445-0.236l-0.39-0.371l-0.19-1.549l-0.577-0.453l-0.763,0.2l-0.592,0.936l0.308,0.171 l-0.603,0.648l0.381-1.383l-0.582-0.479l-0.362,0.044l0.118-0.119l-0.23-0.182l0.268-0.164l0.043-0.713l-1.014-0.139l-0.135,0.591 l-0.251,0.085l0.065-0.949l0.562-0.124l0.197-0.312l-1.459,0.074l-0.248-0.729l-0.357-0.138l-0.146,0.306l0.29,0.674l-0.39,0.232 l-0.783-1.269c-1.117,0.041-1.889,0.18-2.855-0.439l-0.143,0.335l0.346,0.453l-0.801-0.087l-0.184,0.183l-0.832-0.345l0.849,0.082 l0.568-0.7l-0.812-0.423l-1.242,0.97l0.6-1.519l-0.51,0.743l-0.47,0.029l-0.036-0.514l0.229-0.294L476.114,922 c-0.516-0.638-1.018-1.285-1.521-1.934c-1.179-0.174-2.362-0.344-3.548-0.508l-0.303-0.332l-0.309,0.877l-0.291,0.195 l-0.052-0.857l-1.72,0.077c0.478-0.292,0.83-0.768,0.992-1.297l-0.34-0.432l0.461,0.127l-0.406-1.839l0.277-0.505l0.333-0.068 l0.128-0.461l-0.695-0.097l-0.738,0.38l-0.67-0.335c-0.549-0.862-0.227-3.013-0.102-4.022c0.15-1.205,0.898-2.744,1.701-3.641 c1.913-2.148,2.062-4.993,3.313-7.348c-0.292-0.735-0.016-1.52,0.114-2.27l-0.96,0.934l-0.716-0.491l-0.126-0.613l-0.319-0.247 l-0.079-0.646l0.374-0.36l0.808-0.046l0.509,0.281l-0.381-0.531c0.32-0.148,0.633-0.308,0.936-0.48l0.006-0.815 c0.387-0.328,0.773-0.66,1.163-0.979l0.209-0.629l0.526,0.433l0.225-0.08l-0.82-2.209l0.271-0.245l-0.232-0.301L473.597,889.994z"/>
</svg>