<?xml version="1.0" encoding="utf-8"?>
<svg viewBox="191.997 1057.671 53.968 92.531" width="53.968" height="92.531" xmlns="http://www.w3.org/2000/svg" xmlns:bx="https://boxy-svg.com">
  <path fill="#009900" d="M244.993,1062.923l0.045-0.767l-0.136-0.645l-0.265-0.64l0.195-0.832l0.13-0.6l0.202-0.664l-0.142-0.757 l-0.505,0.302l-0.557-0.08l-0.534-0.24l-0.588-0.075l-0.415,0.365l-0.532-0.005l-0.58-0.548l-0.568-0.066l-0.85,0.054 l-0.588,0.276l-0.587,0.296l0.046,0.628l-0.166,0.639l-0.021,0.728l-0.439,0.484l-0.079,0.633l-0.554,0.532l-0.598,0.135 l-0.644,0.237l-0.465,0.237l-0.509-0.104l-0.715-0.049l-0.605,0.046l-0.582-0.083l-0.569,0.104l-0.568,0.108l-0.517,0.025 l-0.311,0.559l-0.349,0.486l-0.539,0.258l-0.729-0.029l-0.535-0.034l-0.497-0.233l-0.657-0.185l-0.577-0.716l0.133-0.677 l0.179-0.62l-0.566-0.277l-1.014-0.693l-0.461-0.46l-0.372-0.531l-0.789,0.565l-0.642,0.089l-0.479,0.19l-0.208,0.602 l-0.709,0.397l-0.611,0.105l-0.501,0.161l-0.526,0.181l-0.521,0.166l-0.998,0.096l-0.237-0.615l-0.658-0.858l-0.532,0.123 l-0.963,0.399l-0.696,0.058l-0.537-0.089l-0.479,0.375l-0.51,0.062l-0.301,0.527l-0.044,0.649l-0.343,0.458l-0.007,0.681 l-0.435,0.464l0.286,0.557l0.253,0.586l-0.291,0.549l-0.027,0.67l-0.505,0.45l-0.34,0.466l-0.525,0.138l-0.457,0.276l-0.469,0.662 l-0.114,0.661l-0.171,0.597l-0.042,0.627l0.092,0.603l-0.577,0.401l-0.411-0.393l-0.529,0.191l-0.399,1l-0.356,0.513l-0.148,0.623 l-0.047,1.02l-0.071,0.752l0.307,0.604l-0.244,0.765l-0.36,0.452l-0.715,0.568l-0.69-0.123l-0.527-0.06l-0.688-0.134l-0.55,0.691 l-0.109,0.661l0.147,0.643l-0.514,0.226l-0.467,0.339l0.14,0.64l0.244,0.568l-0.175,0.583l-0.484,0.372l0.066,0.707l0.019,0.815 l0.416,0.562l0.141,0.605l0.203,1.128l0.253,0.588l0.388,0.498l0.367,0.509l0.551,0.644l0.531,0.182l0.632-0.077l0.39,0.486 l0.041,0.667l0.384,0.541l0.094,0.622l-0.057,0.622l0.587,0.281l0.53,0.094l0.503,0.451l0.567,0.704l-0.268,0.565l-0.142,0.598 l-0.271,0.632l-0.274,0.587l-0.332,0.532l-0.437,0.352l-1-0.106l0.135,1.186l-0.448,0.418l0.367,0.86l0.871,0.04l0.42,0.402 l0.229,0.617l0.393,0.592l0.512,0.412l0.617,0.245l0.271,0.541l-0.031,0.666l0.146,0.626l0.339,0.51l-0.446,0.434l-0.557,0.119 l-0.614-0.156l-0.608,0.17l-0.521-0.01l-0.549-0.24l-0.398-0.415l-0.915,0.112l-0.595-0.046l-0.397,0.693l-0.367,1.052 l-0.465,0.378l-0.219,0.562l0.018,0.646l-0.542,0.128l-0.44,0.332l-0.507-0.129l-0.472,0.224l-0.589-0.403l-0.727-0.352 l-0.503,0.156l-0.477,0.431l-0.516,0.187l-0.534,0.893l-0.325,0.53l-0.523-0.194l-0.611-0.083l-0.473,0.299l-0.322,0.523 l-0.561-0.176l-0.56,0.078l-0.528,0.038l-0.563-0.025l-0.587,0.071l-0.915-0.053l-0.524-0.128l-0.462,0.327l-0.467,0.999 l-0.47,0.487l-0.054,0.644l0.073,0.659l0.502,0.37l0.538-0.094l0.7,0.125l0.678,0.782l0.726,0.327l0.468,0.434l0.501,0.266 l0.116,0.682l0.202,0.651l0.172,0.64l0.463,0.38l0.354,0.566l0.226,0.689l0.688,0.453l1.047,0.067l0.578-0.038l0.591,0.085 l0.862,0.531l0.609,0.312l0.37,0.675l0.344,0.486l0.332,0.621l-0.115,1.483l-0.064,0.614l-0.046,0.642l-0.496,0.254l0.22,1.143 l0.175,0.594l0.332,0.536l1.076,0.124l0.624-0.055l0.473,0.346l0.407,0.503l0.529-0.024l0.532,0.005l0.69,0.063l0.524-0.124 l0.552,0.079l0.241,0.568l-0.416,0.497l-0.1,0.609l0.501,0.172l0.561,0.15l0.508-0.195l0.523,0.114l0.02,0.637l0.1,0.888 l0.187,0.867l0.486,0.398l0.027,0.635l0.114,0.687l0.534,0.851l0.499,0.333l0.34,0.622l0.361,0.586l0.384-0.617l0.326-0.648 l0.388-0.426l0.574,0.344l0.411,0.427l0.551,0.34l0.5,0.353l0.887,0.217l0.528-0.267l0.535-0.286l0.489-0.256l0.793,0.467 l0.506,0.143l0.002,0.761l0.184,0.583l0.53,0.404l0.359,0.607l0.12,0.622l-0.139,0.617l-0.415,0.459l0.454,0.774l0.199,0.627 l0.101,0.76l-0.09,0.602l-0.48,0.311l-0.523,0.32l-0.289,0.712l-0.229,0.579l0.069,1.041l-0.038,0.607l0.12,0.08l0.485,0.328 c0.589-0.364,1.242-0.239,1.908-0.235l0.357-0.303l0.142,0.505l-0.42,0.208l0.933,0.777l0.406-0.101l0.542,0.352l-0.219,0.761 c0.072,0.568,0.354,1.098,0.782,1.476l1.606,0.062l0.467-0.476l0.927-0.14l0.991,1.478l0.925-0.35l0.07-0.507l-0.655-0.202 l-0.286-0.624c0.323-0.423,0.552-0.932,0.61-1.463l1.013-0.911l0.139-0.567l-0.418-1.049l-0.286-0.203l-0.126-0.821l1.292-1.205 l-0.182-0.634c-0.443-0.321-0.731-0.786-0.919-1.302l0.356-0.305l0.312,0.408l0.076-0.453l-0.355-0.328l0.262-0.844l-0.4-0.474 l0.012-0.343l0.705-0.246l0.171-1.384l0.343,0.456l0.415-0.259l-0.288-0.856l0.345-1.015l1.76-1.448l-0.364-0.609l0.437-0.707 l-0.475-1.096l-0.355-0.115l0.125-0.461l0.458-0.342l0.006-0.601l-0.616-0.316c0.241-1.072,0.311-2.033,0.298-3.13 c0.396-0.705,0.815-1.254,0.71-2.105l-0.308-0.564l-0.377-0.108c-0.348-0.659-0.983-1.067-1.678-1.289l-0.274-0.962l0.238-0.394 c0.008-1.162,0.132-2.242,0.214-3.379c0.067-0.934-0.303-2.035-0.073-2.937c0.565-2.21,1.122-4.349,1.417-6.607 c-0.752,0.231-1.602,0.188-2.125-0.448l1.463,0.188c0.389-0.395,0.601-0.904,0.714-1.451l-0.108,1.244 c0.71-3.214,1.018-6.357,1.592-9.573c0.535-2.987,0.505-5.679,1.651-8.582l-0.23-0.393l0.518,0.174l0.41-0.288l-0.245-1.354 l0.304-0.723c-0.274-0.69-0.001-1.326,0.144-2.033c0.45-0.406,1.046-0.637,1.651-0.651l-0.25-0.516l0.478-1.005l-0.165-0.503 l-1.021,0.413l0.322-0.561l-0.082-0.252l-0.366,0.645l-0.341,0.014l0.249-0.528l-0.247-0.572c0.103-0.474,0.257-0.94,0.458-1.39 l0.27,0.276l0.589-0.097l-0.094,0.296l0.473,0.23l0.566-0.069l1.336-1.71l-0.656-0.44l-0.347-0.897l-1.08,0.602l-0.357-0.142 l0.222-0.336c-0.667-1.706-0.093-2.509,0.586-4.188l-0.057-0.23l-0.714,0.771l-0.699-0.36l0.863-0.42l-0.526-1.085l0.486-0.534 l0.806,1.447l0.392,0.214l1.096-0.236l0.054-0.427l0.698-0.713l-0.251-0.13l0.288-0.215l0.086-1.008l0.271-0.346l-0.38-0.555 l0.083-0.378l-0.23-0.392l0.352-0.094l0.063-0.561l0.426-0.363l0.145,0.53l0.303,0.12l-0.085-0.694l1.269-1.414 c-0.021-0.185,0.035-0.367,0.048-0.549l0.904,0.639l0.808-0.464l-0.622-0.999l0.249-0.528l0.533,0.067l-0.376-0.507l0.212-0.123 l-0.315-0.196L244.993,1062.923z M244.139,1064.8c0.019-0.087,0.039-0.169,0.062-0.26 C244.177,1064.629,244.159,1064.711,244.139,1064.8z"/>
  <text style="fill: rgb(255, 255, 255); font-family: sans-sarif; font-weight: bold; font-size: 16.8px; white-space: pre;" x="217.466" y="1087.797" dx="0 -20.509 -21.326" dy="0 18.007 17.777">宮崎県</text>
</svg>