<?xml version="1.0" encoding="utf-8"?>
<svg viewBox="633.393 621.645 64.453 79.191" width="64.453" height="79.191" xmlns="http://www.w3.org/2000/svg">
  <path fill="#FFE65E" d="M695.314,629.814l0.47,0.622l0.035,0.939l-0.453,0.137l-0.709-0.857l-0.043-0.783L695.314,629.814z M696.123,662.874c-0.238,0.278-0.43,0.594-0.566,0.934l0.244,0.705c0.506,0.294,0.98,0.645,1.41,1.033l0.359-0.699l-0.045-0.36 l-0.187-0.894L696.123,662.874z M691.573,665.479l-0.346,0.383l0.069,0.571c0.339,0.328,0.7,0.632,1.08,0.913l0.938-0.062 c-0.353-0.638-0.682-1.276-1.123-1.854L691.573,665.479z M688.561,664.406c-0.084,0.421-0.021,0.828,0.198,1.181 c0.368-0.07,0.705-0.246,0.958-0.512l-0.474-0.883L688.561,664.406z M696.901,627.601l0.287-0.221 c-0.21-0.308-0.525-0.564-0.875-0.729l-0.324-1.35l-0.662-0.284l0.437-0.683l-0.038-0.308l-0.288,0.219l-0.386-0.607l0.004-0.184 l0.369,0.007l-0.352-0.535c-0.123-0.135-0.199-0.282-0.277-0.427l-2.785-0.729l-0.562-0.018l-0.596,0.017l-0.502,0.107 l-0.484,0.231l-0.532-0.229l-0.493-0.233l-0.591,0.276l-0.413,0.712l-0.049,0.632l0.426,0.867l0.126,0.68v0.648l-0.046,0.679 l0.298,0.637l-0.009,0.749l-0.418,0.415l-0.42,0.419l-0.172,0.645l-0.521,0.434l-0.062,0.605l0.46,0.576l-0.062,0.621 l-0.256,0.693l0.23,0.789l0.26,0.58l-0.489,0.399l-0.6,0.011l0.197,1.752l-0.951,0.205l-0.461-0.314l-0.568-0.126l-0.37-0.452 l-0.556,0.213l-0.46-0.594l-0.561-0.076l-0.543-0.143l-0.463,0.291l-0.551-0.191l-0.563-0.299l-0.559-0.165l-0.064,0.646 l-0.12,0.627l-0.246,0.566l-0.555-0.15l-0.555,0.238l-0.514,0.455l-0.299,1.113l0.055,0.627l-0.743,0.391l-0.546,0.226 l-0.875,0.106l-0.322-0.561l-0.387-0.496l-0.502-0.303l-0.613-0.342l-0.418,0.372l-0.766-0.137l-0.541-0.081l-0.436-0.445 l-0.014-0.71l-0.529-0.448l-0.606-0.728l-0.383-0.604l0.712-0.487l0.398-0.507l0.248-0.52l-0.047-0.65l-0.742-0.484l-0.592-0.062 l-0.883,0.136l-0.451-0.338l-0.479,0.231l-0.506,0.271l-0.543-0.096l-0.517,0.1l-0.484,0.279l-0.494,0.113l-0.506-0.258 l-0.536,0.03l-0.44,0.311l-0.511-0.025l-0.592,0.357l-0.408-0.488l-0.377-0.429l-0.366-0.509l-0.507-0.363l-0.522-0.085 l-0.526-0.18l-0.68-0.211l-0.574-0.129l-0.464-0.32l-0.516,0.14l-0.563,0.069l-0.66-0.434l-0.539-0.273l-0.693-0.26l-0.494-0.211 l-0.456-0.443l-0.559-0.201l-0.542,0.018l-0.534,0.227l-0.542,0.117l-0.791,0.291l-0.883,0.109l-0.894,0.537l-0.466,0.475 l-0.135,0.629l-0.361,0.494l-0.959,0.476l-0.501,0.341l-0.225,0.565l-0.289,0.626l-0.431,0.316l-0.402,0.383l-0.586,0.203 l-0.519,0.025l-0.933-0.287l-0.338,0.495l-0.615,0.102l-0.436,0.42l-0.549,0.156l-0.459,0.323l-0.746-0.361l-0.473,0.927 l0.484,0.366l0.478,0.295l0.504,0.378l0.581,0.345l0.552,0.224l0.446,0.511l0.355,0.49l-0.042,0.671l0.161,0.655l0.309,0.694 l0.508,0.148l0.516,0.328l0.873-0.179l0.381,0.525l-0.415,0.38l-0.159,0.587l-0.416,0.844l-0.428,1.065l-0.078,0.683l0.262,0.64 l0.541,0.032l0.115,0.939l-0.141,0.877l-0.295,0.781l-0.096,0.66l-0.233,0.592l-0.427,0.375l-0.554-0.021l-0.546-0.092 l-0.395-0.539l-0.856-0.02l-0.206,0.576l0.146,0.677l0.383,0.53l0.35,0.455l0.451,0.387l0.279,0.602l0.36,0.472l0.18,0.614 l0.061,0.674l-0.124,0.643l-0.213,0.616l-0.438,0.432l0.314,0.571l0.533,0.327l-0.085,0.62l0.184,0.6l0.481,0.491l0.566,0.139 l0.611,0.147l0.311,0.535l0.34,0.496l0.076,0.613l0.601,0.162l-0.634,0.762l-0.389,0.502l-0.551-0.191l-0.195,0.564l-0.086,0.633 l-0.135,1.07l0.273,0.58l-0.252,0.533l-0.379,0.656l-0.5,0.145l-0.172,0.574l-0.471,0.34l-0.453,0.275l-0.234,0.59l0.176,0.605 l0.413,0.816l-0.239,0.594l-0.536,0.394l-0.451,0.39l-0.433,0.794l0.314,0.597l-0.35,0.52l-0.618,0.259l-0.138,0.632l-0.013,1.246 l0.03,0.658l0.364,0.48l-0.086,0.635l0.288,0.6l0.252,0.544l0.156,0.653l-0.254,0.522l-0.181,0.562l-0.126,0.627l-0.498,0.318 l-0.392,0.574l0.044,0.764l-0.608,0.308l-0.373,0.521l-0.074,0.68l-0.019,0.627l0.186,0.604l-0.268,0.654l-0.481,0.39 l-0.499,0.258l-0.575-0.007l-0.088,0.602l-0.734,0.41l-0.558-0.006l-0.551,0.252l-0.562-0.018l-0.646,0.117l-0.541-0.068 l-0.5,0.156l-0.537-0.127l-0.537,0.275l0.336,0.534l-0.252,0.709l0.295,0.558l0.238,0.584l0.344,0.482l-0.341,0.65l-0.157,0.696 l0.162,0.358l0.111,0.243l0.508,0.195l0.588,0.114l0.479,0.309l0.519,0.266l0.54-0.041l0.639,0.213l0.514,0.124l0.259-0.521 l0.611-0.002l0.888-0.023l-0.043-0.656l0.479-0.521l0.548-0.018l0.266,0.566l0.608,0.231l0.566,0.197l0.542-0.258l0.505,0.329 l0.66,0.26l0.289,0.994l0.103,0.623l0.351,0.496l0.521,0.426l0.645,0.004l0.469-0.34l0.52-0.23l0.565-0.036l0.507,0.047 l0.525-0.342l0.565-0.13l0.409-0.649l0.981,0.564l0.563,0.032l0.99-0.405l0.496,0.744l1.058-0.113l0.651-0.192l0.674,0.41 l0.519,0.08l0.382,0.469l-0.233,0.541l0.312,0.512l0.258,0.678l-0.16,0.645l-0.307,0.478l0.362,0.638l0.159,0.64l0.426,0.452 l0.885,0.21l0.452,0.359l0.444,0.459l0.555-0.045l0.499-0.172l0.711,0.062l0.831,0.117l0.59,0.318l0.342-0.449l-0.434-0.41 l-0.898-0.4l0.725-0.43l0.561,0.152l0.606,0.059l0.515-0.113l0.518,0.084l0.557-0.02l0.617-0.076l0.287-0.576l-0.068-0.64 l-0.253-0.603l-0.142-1.049l-0.011-0.74l0.2-0.6l-0.321-0.533l0.142-0.596l-0.281-0.539l0.716-0.418l0.504-0.15l0.558-0.334 l0.513,0.242l0.524-0.016l0.51-0.004c-0.042-0.113-0.109-0.207-0.147-0.326c-0.667-1.799-0.999-3.549-1.352-5.437l-0.61,0.36 l-0.017-0.364l0.478-0.347l0.135-2.768l-0.363,0.229l-1.168-0.119l-0.083-0.249l1.702-0.21c-0.273-2.709-0.121-5.221,0.798-7.801 l-0.067-0.334l-0.6,1.098l-0.135-0.455l0.457-0.553l-0.313-0.406l0.362-0.045l0.261-0.845l0.214,0.026l-0.014,0.525 c0.713-1.878,1.256-3.51,2.467-5.096l-0.176-0.138l-0.607,0.388l0.17-0.543l-0.9-0.072l1.398-0.355l0.199-0.315l0.144,0.532 l0.226-0.078l0.569-0.698l0.799-0.126l0.29-0.82l0.676-0.057l0.339-0.646l-0.812-0.632l0.04-0.32l-0.395,0.18l-0.369-0.215 l-0.19,0.389l-0.47,0.213l0.094,0.33l-0.407-0.133l-0.198,0.312l-0.19-0.055l0.476-0.607l-0.102-0.198l-0.936,0.06l0.791-0.381 l0.262-0.402l-0.506,0.115l0.507-0.561l-0.587,0.125l0.109-0.616l0.686,0.255l0.201-0.519l0.254-0.06l-0.268-0.859 c0.228-0.598,0.731-0.986,1.36-1.108l-0.54-0.562l0.599,0.186l0.213,0.684l0.618,0.316l-0.008-0.287l0.504-0.141l-0.527-0.25 l-0.061-0.281l1.219,0.349c0.12,0.872,0.693,1.232,1.222,1.842l-0.688,0.347l0.029,0.467c0.535,0.133,1.032,0.424,1.411,0.823 l0.104-0.614l0.658,0.23l-0.118-1.816l-0.573,0.226l-0.514-0.328c0.317-1.975,2.771-2.862,4.275-3.827 c1.007,0.1,1.845-0.295,2.769-0.632c0.864-0.315,1.879-0.169,2.789-0.182l0.334-0.276l0.161,1.107l-0.249,0.528l0.789,0.244 c0.711-0.298,0.953-0.926,1.329-1.554l0.415,0.605l0.889-0.266l-0.536,1.189l0.948-0.375l-0.241,0.579l0.459-0.294l0.853,0.105 l-1.359,0.662l-0.145,0.543l-0.455,0.135l-0.006,0.396l0.448,0.232l0.528-0.17l-0.096,0.273l0.678-0.66l0.432,0.523l0.234-0.629 l0.268,0.906l0.533,0.067c-0.465,0.38-0.938,0.884-1.104,1.472l0.514-0.088l0.42,0.418l0.158-0.413l0.373,0.244l0.645-0.079 l0.371,0.243l-0.18,0.702l0.41-0.076l0.367-0.414l0.412,1.418l0.592,0.138c-0.074-1.077,0.183-1.91,0.477-2.942l-0.729-0.379 l0.238-1.05l-0.34-0.197l-0.7-1.461l-1.169,0.066l-0.133,0.226l-0.394-0.238l0.046-0.27l0.787-0.383l0.26-0.686l0.583,0.268 l0.318-0.197l0.405,0.526l0.483-0.741l-0.231-0.598l-0.195-0.111l-0.574,0.439l-0.9-0.074l-0.34-1.057l-1.42,1.665l-0.213-0.263 c0.348-1.125-0.02-2.321-1.312-2.562l0.665-0.16l0.241,0.284l1.066,0.158l1.254-0.913l-0.082-0.201l-0.181,0.234l-0.474-0.232 l0.172-0.307l-0.193-0.293l-0.943-0.199l0.613-0.334c0.16-0.561,0.068-1.139-0.127-1.688l-1.285-1.074l0.451,0.021l0.656,0.444 l0.918,0.019l0.301,0.961l1.193-0.096l-0.141-0.296l0.107-0.616l-0.217-0.076l0.125-1.089l-0.271-0.519l-0.428-0.079l0.197-0.548 l-0.252-0.544l-0.348,0.8l-0.41-0.156l-0.606,0.834l-0.599-0.189l-0.121-0.77L690,648.558l-0.864-0.024l0.052-0.844l0.986-0.278 c0.833-0.982,1.504-1.805,2.076-2.955l-0.097-1.01l-0.419,0.208l-0.875-0.284l-0.338,0.225c-0.941-0.098-1.667-0.191-2.584,0.08 l-0.199-0.107c0.162-0.455,0.143-0.908-0.06-1.353l0.108-0.223l0.666,0.102l0.615-0.546l0.287,0.227l0.725-0.09l-0.305-0.775 l0.253-0.291l0.59,0.32l0.288-0.218l0.434-2.021l0.521,0.619l0.344-0.172l0.541,0.143l0.163,0.66l0.313,0.25l0.23-1.131 l-0.539-0.771l0.319-0.38c0.046-0.301-0.004-0.596-0.155-0.846l-0.74,0.406l-0.566-0.379l-0.16-0.451l-0.32-0.041l-0.816-0.864 c-0.084-0.372-0.105-0.75-0.058-1.122c0.896-0.574,1.343-0.982,1.974-1.837l0.775-0.096l0.196-0.762l0.36,0.165l0.209-0.441 l0.435-0.107l-0.482-0.283l-0.324,0.145l-0.489-1.195l0.273-1.842l-0.739-0.904l0.157-0.859l0.406,0.975l0.2-0.08l0.718,0.727 l1.062-0.708l-0.301-0.33l0.732-0.429l-0.09,0.533c0.297,0.791,0.921,1.346,1.472,1.966l0.298-0.138l0.483,0.307l0.105-0.406 L696.901,627.601z"/>
</svg>
