<?xml version="1.0" encoding="utf-8"?>
<svg viewBox="81.048 958.114 89.347 133.942" width="89.347" height="133.942" xmlns="http://www.w3.org/2000/svg">
  <path fill="#009900" d="M159.718,1059.989l-0.53,0.015l-0.598-0.052l-0.516,0.128l-0.537-0.048l-0.384-0.466l-0.572,0.241 l-0.537-0.081l-0.538-0.024l-0.53-0.081l-1.17-0.132l-0.526-0.451l-0.851,0.119l-0.454-0.383l-0.533-0.526l-0.495-0.297 l-0.294-0.539l-0.622,0.156l-0.587-0.378l-0.492-0.509l-0.146-0.603l-0.463-0.381l-0.443-0.356l-0.618-0.203l-0.574-0.109 l-0.586-0.193l-0.443-0.32l-0.404-0.622l-0.574-0.173l0.026-0.946l0.475-0.377l0.838-0.055l0.109-1.123l-0.431-0.427l-0.266-0.63 l-0.5-1.101l-0.53,0.165l-0.498,0.281l-0.514,0.146l-0.548,0.017l-0.525-0.03l-0.716-0.173l-0.562-0.277l-0.864-0.241 l-0.598,0.208l-0.5-0.258l-0.5-0.322l-0.126-0.617l-0.394-0.44l-0.079-0.64l-0.021-0.746l0.147-0.804l-0.466-0.32l-0.699-0.536 l-0.546-0.367l-0.684-0.839l-0.437-0.495l-0.308-0.698l0.17-0.665l0.038-0.681l0.234-0.581l0.774-0.822l-0.012-0.011l0.05-0.029 c-0.105-0.616-0.215-1.232-0.337-1.847l-0.485-0.335l-0.439,0.473l-0.11,0.801l-0.602-0.634l-0.622-0.133 c-0.573,0.661-1.058,1.3-1.859,1.699l-0.922-0.463l-0.498,0.188l-0.527-0.664l0.17-1.148l0.207-0.027l-0.431-0.943l-0.578,0.623 l0.215,0.47l-0.456,0.762l-0.396-0.002l-0.093,0.299l-0.307,0.065l-0.358-0.142l-0.028,0.423l-0.754-0.59l-0.509,0.323 l-0.685-0.021l0.022-0.471l-0.861,0.026l-0.312,0.456c0.385,0.882,0.426,1.634,0.477,2.589l-0.531-0.067l-0.025,0.447l0.947,1.088 l0.21-0.207l0.396,0.238l0.807-0.676l0.472,0.207l-0.543,0.065c-0.286,0.407-0.579,0.808-0.871,1.207l0.336,1.032l-0.532,0.354 l-0.016-0.549l-0.268,0.166l0.131,0.427l-0.425,1.024l0.139,0.271l-0.43,0.546l0.464,0.154l0.147,0.347l-0.048,0.246l-0.509-0.068 l0.2,0.339l-0.024,0.659l1.178-0.223l0.354,0.319l0.493-0.028l0.193-0.578l0.275-0.086l0.029,1.096l0.462-0.317l0.25,0.125 l0.12,0.539l0.572-0.018l0.259-0.449l-0.346-1.32l0.225-0.737l0.628,2.149l0.442,0.182l-0.565,1.591l0.332-0.279l0.313,0.2 l0.341-0.203l0.255,0.364l0.885,0.176l-0.002,0.604l0.894,0.677l-0.451,0.16l-0.369,0.62l-1.149,0.034l0.783,1.687l0.338-0.458 l-0.092-0.748l0.533,0.278l1.369-0.356l-0.218-0.288l-0.051-1.066l-0.201-0.13l0.139-0.385l-0.549-0.616l-0.021-0.388l1.172-0.275 l0.216,0.68l-0.122,0.306l0.215,0.235l-0.294,0.585l0.709,0.672c0.371-0.353,0.599-0.79,0.656-1.285l0.555,0.247l0.279-0.27 l1.157,0.037l-0.768,0.15l-0.432,0.551l0.564,0.319l-0.712,0.191l0.234,0.393l-0.21,0.211l-0.314-0.411l-0.342-0.01l-0.071,0.271 l0.469,1.04l-0.99,0.047c0.413,0.727,0.96,1.396,0.934,2.27l0.154-0.017l-0.003-0.027l0.689-0.14l0.159,0.636l0.342,0.22 l0.087-0.352l0.488-0.297l-0.094-0.329l-1.014-0.793l0.031-0.818l0.278-0.296l0.168,1.158l1.243-0.546l0.552,0.427l-0.104,0.669 l0.426-0.155l0.408,0.318l0.244-0.346l0.654,0.414l-0.504,1.006l0.239,0.445l0.559-1.198l0.304,0.328l0.713-1.003 c1.284-0.326,1.547,0.803,2.453,1.251c1.645,0.81,2.044,1.069,2.482,2.863c-0.471,1.396-0.514,2.457-0.486,3.933 c0.576,0.396,1.166,0.689,1.521,1.306l-0.292,0.405l0.122,0.142l1.125,0.2l-0.357,0.488l0.162,0.481 c0.618,0.191,1.153,0.606,1.504,1.15l0.896,0.047l-0.422,0.813l-0.85-0.314l-0.291-0.438l-0.868,0.186l-0.078-0.409l-0.556-0.479 l-0.93,0.324l-0.17-0.323l-1.013-0.137l-0.492-0.595l-0.233,0.028l-0.095,0.51l-0.787-0.425l0.092,0.746 c-0.332,0.469-0.417,1.038-0.377,1.619l-0.181,0.022l-0.688-1.121c-0.111,0.476-0.062,0.943,0.145,1.397l-0.226,0.496 c-1.084-0.856-1.884-1.705-3.272-1.903l-0.008-0.915l0.24-0.163l0.089,0.276l0.307-0.036l0.296-0.797l-0.249-0.102l-0.141-0.716 l-0.545,0.04l-0.029,0.395l-0.373-0.03l0.227-0.71l-0.547-1.693l0.312-0.663l0.311-0.011l-0.149,1.117l0.213-0.186 c0.132,0.326,0.193,0.678,0.177,1.026l0.329,0.118l0.397-0.388l-0.111-0.907l0.203-0.285l-0.284-0.805l-0.424-0.237l0.704-0.896 l-0.398-0.687l-0.23,0.053c-0.12-0.708-0.555-1.336-1.303-1.432l-0.275,0.297l-1.232-0.849l-0.395,1.049l0.703,0.175l-0.35,0.357 l-0.342-0.224l-0.664,0.581l-0.306-0.382l0.171-0.311l-0.232-0.627c0.288-0.762,0.464-1.551,1.131-2.076l-0.881-0.782 l-0.351,0.356l0.108,0.226l-0.484,0.322l-0.284-0.384l0.366-0.646l-0.232-0.626l-0.626,0.446l-0.142-0.298l0.16-0.41 c-0.816,0.017-1.365-0.448-2.044-0.854l-0.413,0.263l0.161,0.452l-0.536,0.747l0.432-0.109l-0.021,0.241l-0.45,0.396l0.462-0.06 l0.191,0.268l-0.512,0.092l-0.005,1.255l-0.356,0.069l-0.214,0.393l0.041,0.968l0.751,1.007l-0.366,0.889l-0.403-0.081 l-0.458,0.526c-0.108,0.683,0.008,1.354,0.065,2.037l0.427,0.259l0.079,0.646l0.401,0.057l0.947,0.902l-0.028,0.397 c0.325,0.667,0.561,1.356,1.165,1.822c-0.035,0.942,0.647,1.962,1.473,2.383l0.122,0.354l0.834-0.026 c0.236,0.632,0.715,0.9,1.236,1.32l0.196-0.97l0.529,0.04l0.354-0.304l0.36,0.138l0.212-0.395l0.389-0.049l-0.571,1.777 c0.64,0.447,1.425,0.833,1.858,1.469l-0.156,0.649l0.875,0.076l-0.156,0.883l0.324,0.274l0.416-0.444l0.333,0.143l0.323,0.923 l-0.156,0.441l0.477-0.371l0.39,0.19c0.397-0.476,0.636-1.103,0.788-1.697l-0.177-0.815l0.636,0.946 c-0.6,1.279-0.849,2.305-1.173,3.653l-0.552,0.201c-0.35-0.061-0.642-0.227-0.872-0.496l-0.639,0.134l-0.15,0.279l0.079,0.437 c0.506-0.08,0.98,0.001,1.421,0.243l-0.111,1.221c-0.783,0.587-1.171,1.755-1.187,2.712c-0.537,0.559-1.242,1.069-1.507,1.808 l-0.214-0.238c-0.314,0.249-0.585,0.565-0.778,0.912l0.305,0.563l1.318-1.001l0.844,0.447l-0.095-0.538 c1.062-0.602,1.614-1.177,2.415-2.104l0.29-1.688l0.375,0.062c1.514-0.771,3.42-2.444,2.575-4.405l0.124-0.276l0.412,0.156 l0.297-0.797l0.265,0.046l0.312-0.457l-0.051-0.41l0.588-0.546l-0.493-1.011l0.291-0.853l2.049,0.694l0.608-0.391l0.591,0.14 c1.846-1.56,2.856-3.033,5.333-2.647l0.795-0.572l1.766-0.11l0.807,0.581l-0.334,1.116l1.363,0.646 c0.378,1.273-0.4,2.63-1.638,3.083l-1.112,1.606l-0.941-0.199c0.641,0.735,0.509,1.846,1.013,2.704l1.979,1.172l0.144,0.323 l-0.31,0.692l0.276,0.542c0.479-0.322,0.981-0.602,1.338-1.025l-0.416-0.422l0.905,0.334l1.028-0.597 c0.225-0.585,0.672-1.06,1.223-1.354l0.283-1.318l1.78-0.219c0.95-0.72,2.211-1.316,2.515-2.562l-0.2-1.418 c0.818-1.797,0.846-2.659,0.736-4.673c-1.463-2.021-2.412-3.769-4.458-5.162c-1.177-0.212-1.961,0.759-3.198,0.628 c-1.037,1.192-2.113,2.46-3.761,2.635l-0.362,1.33l-0.144-1.398l-0.707-0.202l-0.61,0.572l-1.223-1.214l-0.776,0.096l-0.146,0.49 l-0.567,0.307l2.251-2.998l1.12-0.273l0.933-1.136l0.779-0.07l0.113-0.56l0.628-0.656l0.324-1.348l0.038-0.062l-0.447-0.202 L159.718,1059.989z M124.074,1038.58l0.132-0.407l-0.547-1.69l-1.495,0.421l-0.198,0.308l0.23,0.393l-0.387,0.047 l-0.027,0.213l1.536-0.106l0.32,0.273l-0.505,0.557l-0.704-0.175l0.365,0.846l-0.485,0.741l-0.272-0.31l0.098-1.114l-0.304-0.118 l-0.377,0.122c0.107,0.47,0.053,0.927-0.179,1.331l-2.776,0.656l-0.337,0.437l0.273,0.959l-0.218,0.342 c-0.112,0.724,0.309,1.23,0.645,1.833l-1.005,0.359l-0.019,0.712l-0.789,0.41l0.434,0.968l-0.197,0.313l0.28,0.354l0.671-0.082 l0.523,0.646l-0.5-0.043l-0.016,0.525l-0.543-0.588l-0.657-0.024l-0.853,1.36l0.352,0.949l1.025,0.455l-0.096,0.717l-1.312-0.021 l-0.071-0.359l-0.916-0.828l-0.289,0.427l0.355,0.53l-0.237,0.424l-0.439,0.053l0.003,0.236c0.683-0.023,1.125,0.292,1.724,0.604 c1.637-0.495,2.887-1.784,3.748-3.184l0.482-0.113c0.37-0.916,0.596-2.257,1.434-2.85l0.139-0.775l-0.563-0.536l-0.313,0.013 l-0.146-0.346l1.057-0.131l0.135-0.202l-0.384-0.556l0.108-0.195l0.911-0.272l0.281-0.478l-1.02-1.054l1.363-0.191l0.318-1.271 l0.976-0.569L124.074,1038.58z M95.932,1086.727l-0.053-0.206l-0.73-0.195l0.089-0.354c-0.534-0.622-1.317-0.934-2.022-1.321 c-0.06-0.447-0.271-0.809-0.631-1.076l-0.113-1.769l0.481-0.345l-0.047-0.181l-0.265-0.228l-0.573,0.253l-0.376-0.295l0.342-0.199 l-0.155-0.192c-0.583-0.03-1.084-0.33-1.529-0.727l-0.059-1.124l-0.692,0.142l-0.049,0.871l-0.515,0.063l-0.488,0.715l0.038,0.517 l1.272-0.525l0.088,0.306l-0.906,0.504l-0.16,1.04c-0.202-0.702-0.525-1.348-1.068-1.858l-0.543,0.692l-0.019,0.263l0.306,0.15 l-0.688,0.815l0.077-0.456l-0.282-0.174l0.315-0.197l-0.157-0.215l-1.158,0.586l-0.166,0.57l-0.52,0.038l-0.188-0.24l0.221-0.346 l-0.185-0.211l0.157-0.23l-0.131-0.638l-0.554-0.033l-0.391-0.636l-1.092,0.083l-0.866,1.254l0.113,0.275l0.277-0.086l0.054,0.438 l0.408,0.527c-0.221,0.431-0.277,0.936-0.143,1.406l0.371,0.241l0.344,0.877l-0.429-0.079l-0.097,0.273l0.261,1.067l1.116,0.545 l-0.229,0.269l0.083,0.458l-0.316-0.225l-0.279,0.296l0.527,0.459l-0.959-0.145l0.399,0.475l-0.491,0.27l-0.241,0.605l0.57,0.375 l0.569-0.697l0.438-0.054c-0.325,0.209-0.549,0.501-0.653,0.868l0.202,0.343l-0.376,0.359c-1.006-0.601-1.405-1.062-2.082-2.022 l-0.336,1.95l0.135,0.252l0.938-0.041l1.071,0.836c0.324,0.032,0.65,0.038,0.972,0.013l0.324-0.979l1.125,0.202l0.332-0.303 l1.793-0.299l0.986,0.769l0.286,0.831l0.98,0.089l1.059-1.39l-0.344-0.688l-1.254-0.605l0.217-1.442l1.511-0.707l1.316,0.911 l2.007-0.744l0.111,0.275c0.382-0.08,0.763-0.223,1.102-0.423L95.932,1086.727z M108.037,1065.197l-0.576-1.055l0.207-0.445l-0.225-0.313l-2.332,0.418l0.043,0.567l-0.465,0.478 l-0.299-0.094l-0.23,0.474l-0.454,0.135l-0.471-0.206c0.072-0.536,0-1.096-0.271-1.562l0.374-1.016l-0.304-0.541l0.403-0.779 l-0.129-0.404l0.596-0.467l-0.235-0.443c0.257-1.053,0.288-1.585,0.089-2.655l-0.816-0.687l0.426-2.283l-0.254-0.357 c-0.533,0.715-0.794,1.953-0.623,2.826l0.492,0.595l-0.212,0.391l0.483,0.308c0.077,0.339,0.039,0.659-0.118,0.96l-0.682,0.425 l-0.464,1.341l0.42,0.651c-0.092,0.471-0.003,0.935,0.247,1.362l-0.632,0.18l-0.487-1.195c-0.262-0.057-0.528-0.013-0.772,0.123 c-0.312,0.875-0.531,2.134,0.146,2.888l-0.227,0.291l0.895,0.677l-0.321,1.008l-0.135-0.663l-0.39,0.021l-0.586,0.778 l-0.596-1.026l-0.131,0.646l-0.198-0.138l-0.754,0.487l0.352,0.297l0.029,0.652l-0.338,0.461l0.558,0.062l0.465-0.477l0.567,0.794 l0.679-0.45l0.253,0.568l-0.361,0.046l-0.136,0.598l0.128,0.188l0.375-0.358l0.535,0.093l0.27,0.49l0.808,0.396l-0.268,0.375 l-0.145-0.325l-0.529,0.173l-0.395-0.447l0.102,0.821l0.862,0.419l0.05,0.412l-0.424-0.263l-0.146,0.098l0.16,0.453l-0.312,0.012 c0.198,0.75,0.426,1.429,0.326,2.213l0.263,0.439l-0.124,0.276l0.188,0.239l-0.184,0.204l1.09,0.157l0.136-0.83l-0.628-0.843 l0.416-0.887l1.137,0.097l0.266-0.608c0.007-0.376-0.113-0.704-0.356-0.979l-0.283,0.059l0.116-0.561l-0.411-0.369l0.391-0.651 c0.055-0.426-0.052-0.807-0.325-1.135l0.993-0.254l-0.042-0.756l-0.525-0.646l0.324-0.144l0.691,0.518l0.047,0.386l0.667-0.317 l0.355,0.114C106.647,1066.506,107.051,1066.062,108.037,1065.197z M126.023,1015.836l0.666-0.973l0.26-0.031l0.865,0.654l-0.47,0.872l1.008,0.32l-0.376,0.332l1.68,0.475 l0.564-1.824l1.001-0.569l0.415,0.161l1.098-0.45l0.14-0.568l0.44-0.238l-0.085-0.483l-0.312,0.014l-0.199-0.322l-0.52-0.196 l-0.543,0.276l-0.478-0.493l0.905-0.503l0.887,0.178l0.19-0.387l-2.996-0.916l0.775-0.515l0.259-1.942 c-1.38,0.019-2.013-0.023-3.248-0.626l-0.449,0.16l0.054,0.442l-0.668,0.109l-0.596,1.541l0.985,1.424l-0.516,0.483l-0.48-0.701 l-0.47-0.206l-0.278,0.299l0.555,0.456l-0.433,0.104l0.409,0.55l-0.002,0.628l0.727,0.15l0.491,0.804l-1.771-0.571l0.176,0.814 l-0.191,0.364L126.023,1015.836z M100.438,996.268l0.535-0.33l0.243,0.469l-0.235,0.237l0.256,1.017l0.744-0.985l-0.038-0.962l0.145-0.095 l0.354,0.53l0.172-0.1l0.065-0.321l0.654-0.421l-0.12-0.77l1.055-0.369l-0.393-0.633l0.4-0.364l-0.167-0.947l0.628,0.003 l0.103-0.249l-0.383-0.77l0.269-0.164l-0.523-0.64l0.212-0.398l0.316,0.019c0.062-0.442-0.041-0.838-0.305-1.197l0.247-0.343 l0.461,0.334l0.613-0.755l-0.512-0.963c0.062-0.771,0.012-1.423,0.592-2.008l0.332,0.139l0.374-0.357l-0.094-0.985l-0.348-0.297 c-0.416-0.007-0.807,0.081-1.172,0.274l-0.058,0.822l-0.242-0.26l-0.43,0.318l-0.185-0.213c-0.028-0.503,0.142-1.003,0.456-1.397 l-0.531-0.065l-0.118,0.304l-0.353-0.744l-0.306,0.301l-0.104-0.431l-0.185,0.203l-0.246-0.493l-0.632,0.392l0.458,0.312 l0.098,0.382l0.814,0.212l0.225,1.417l-0.373-0.062l-0.274-1.171l-0.301-0.095l-0.444,0.211l-0.331,0.513l-0.353-0.509 l0.239-0.419l-0.246-0.073l-0.928,0.77l-0.031,0.601l-0.444-1.934l-0.445-0.417l-0.58-0.036c-0.556,1.761-0.074,3.4-0.489,5.196 l0.394,1.078l-0.41,0.495c0.207,2.543-0.173,4.917,0.283,7.43l0.534-0.771L100.438,996.268z M101.97,980.598l0.667,0.521l0.194-0.127l0.144,0.53l0.302-0.535l-0.339-0.405l0.084-0.165l0.367,0.218 l-0.821-0.712l0.419-0.236l-0.377-0.713l0.111-0.589l0.262,0.65l0.243,0.05l-0.086-0.488l0.926-0.14l-0.731,1.086l0.665,0.727 l-0.271,0.561l0.37,0.663c0.657-0.84,0.256-1.748,0.836-2.565l0.333-0.066l-0.148,0.722l0.514-0.533l0.482-0.108l-0.449,1.677 l0.654,0.206l0.091,0.328l-0.382,0.52l0.371,0.452l-0.593-0.138l-0.378,0.546l-0.386-0.793l-0.557,0.358l-0.788-0.427 l-0.274,0.323c0.743,0.069,1.354,0.508,1.833,1.053l-0.218,0.372l0.132,0.218l0.593-0.729l0.519,0.385l0.416-0.444l-0.161,0.621 l0.257-0.03l0.504-0.612l0.062-0.768l0.397,0.473l-0.083-0.671l-0.671-0.784l1.254,0.19l-0.15-0.559l-0.875-0.312l0.545-0.04 l0.431-0.758l-0.876-0.708l0.295-0.169l-0.403-0.707l0.321-0.174l0.279,0.335l0.355-2.008l-0.855,0.704l0.271,0.281l-0.163,0.181 l-0.376-0.089l-0.841,0.838l-0.124-0.146l1.194-1.585l-0.476-0.671l-0.29-0.021l0.02,0.391l-0.166-0.084l-0.129-0.404l0.23-0.683 l0.888,0.626l-0.903-1.384l0.604-0.416l1.023-2.328l0.395,0.029l0.84-0.859l0.12-0.725l0.297-0.14l0.296-1.006l0.275-0.088 l0.162-0.834l-0.223-0.522l0.491,0.149l0.21-0.418l-0.287-1.901l0.244-0.367l-0.565-0.979l-0.68,0.449l-0.705-0.411l-0.37,0.178 l-0.226-0.548l0.26-0.241l0.775,0.324l-0.536-0.512l0.132-0.226l1.043,0.838l0.764-0.404l-0.356-0.348l0.359-0.282l0.251-0.923 l-0.764-0.04l-0.133-0.43l0.138-0.171l0.489,0.147l0.467-0.873l-0.047-0.175l-0.401,0.153l-0.123-0.586l-0.56,0.149l-0.217-0.708 l0.263-0.424l-0.863-0.183l-0.337,0.221l-0.056-0.463l-0.229,0.264l-0.31-0.38l-0.153,0.883l-1.022-0.215l-0.224,0.316 l0.107,0.642l0.545-0.038l0.126,0.404l-0.856-0.158c-0.611,0.584-0.506,1.435-1.09,2.018l0.246,0.493l-0.662-0.26l-0.507,0.348 l-0.363-0.399l-0.365-0.007l-0.853,0.761l-0.249-0.551l-0.22-0.08l-0.276,0.301c0.135,1.125-0.403,4.239-1.359,4.932l0.235,0.656 l0.701-0.717l0.248,0.104l0.162,0.454l0.273-0.113l0.358,0.556l0.266-0.188l0.421,0.886l0.25-0.106l0.214,0.237l-0.651,0.263 l-0.381-0.323l-0.298,0.981l-0.27-0.283c-0.343,1.421-0.592,2.54-1.342,3.781l0.547,1.062l0.244,0.045l1.088-0.944 c-0.424,0.459-0.6,1.072-0.658,1.681l-0.335-0.38l-0.592,0.311l0.089,0.932l0.369,0.449l-0.431,0.111 c0.187,0.525,0.178,1.104,0.042,1.642l0.393,0.215l-0.018,0.504l-0.635,0.568l-0.292-0.018l-0.007,0.603l-0.437-0.154 l-0.134-0.457l-0.582,0.177l0.019,0.574l0.473,0.441L101.97,980.598z"/>
</svg>
