<?xml version="1.0" encoding="utf-8"?>
<svg viewBox="500.281 760.265 70.885 117.443" width="70.885" height="117.443" xmlns="http://www.w3.org/2000/svg" xmlns:bx="https://boxy-svg.com">
  <polygon fill="#8BFFE8" points="546.092,845.442 545.61,845.122 545.307,844.622 545.293,843.999 545.156,843.393 &#10;&#9;&#9;&#9;544.682,842.936 544.465,842.313 544.848,841.891 545.267,841.437 545.653,841.02 546.012,840.488 546.641,839.847 &#10;&#9;&#9;&#9;546.695,839.203 546.176,838.984 545.663,838.624 544.819,838.323 544.308,837.979 544.166,837.314 544.526,836.84 &#10;&#9;&#9;&#9;544.858,836.312 544.792,835.621 545.129,834.884 545.338,834.284 545.563,833.692 545.767,832.933 546.063,832.067 &#10;&#9;&#9;&#9;546.528,831.7 547.109,831.974 547.623,832.315 548.004,832.769 548.588,833.042 548.93,832.582 549.237,832.079 549.498,831.536 &#10;&#9;&#9;&#9;549.758,831.013 550.09,830.572 550.439,830.013 550.742,829.047 551.082,828.573 551.152,827.93 551.338,827.331 &#10;&#9;&#9;&#9;551.778,827.011 551.769,826.362 552.291,825.662 552.862,825.742 553.449,825.898 554.031,825.985 554.531,826.141 &#10;&#9;&#9;&#9;555.117,826.159 555.623,826.343 556.16,826.666 556.619,827.084 556.42,827.698 556.338,828.36 556.721,829.048 557.211,829.254 &#10;&#9;&#9;&#9;557.739,829.54 558.264,829.47 558.959,829.171 559.06,828.553 559.406,828.067 559.958,827.913 560.871,828.093 561.463,828.047 &#10;&#9;&#9;&#9;562.005,827.885 562.543,827.817 563.073,828.043 563.422,827.604 563.94,827.584 564.369,827.973 564.781,828.362 &#10;&#9;&#9;&#9;564.65,828.965 564.807,829.579 565.1,830.146 565.678,830.267 566.247,830.197 566.791,829.89 567.346,829.734 568.177,829.938 &#10;&#9;&#9;&#9;568.576,829.498 568.679,828.797 569.055,828.276 569.416,827.792 569.77,827.334 570.293,827.345 570.805,827.243 &#10;&#9;&#9;&#9;570.928,826.569 571.166,825.862 570.958,825.245 570.606,824.772 570.223,824.297 569.749,823.957 569.496,823.414 &#10;&#9;&#9;&#9;569.602,822.203 568.707,822.545 568.071,822.342 567.622,821.355 567.073,821.34 566.572,821.13 566,821.068 565.211,819.963 &#10;&#9;&#9;&#9;565.361,818.785 565.283,818.15 564.92,817.59 564.456,816.757 564.941,816.343 565.213,815.782 564.567,814.712 564.281,814.184 &#10;&#9;&#9;&#9;563.723,814.339 563.164,814.271 562.594,814.209 562.275,813.638 561.953,813.11 561.232,812.431 561.581,811.959 &#10;&#9;&#9;&#9;562.336,812.443 562.869,812.632 563.43,811.951 563.866,811.287 563.407,810.195 563.708,809.255 563.102,809.29 &#10;&#9;&#9;&#9;562.475,808.281 562.338,807.644 561.909,807.091 561.845,806.39 561.533,805.568 562.063,805.247 562.565,804.914 &#10;&#9;&#9;&#9;563.091,804.645 563.612,804.37 564.01,803.553 563.679,803.008 563.804,802.29 563.563,801.126 563.668,800.449 563.707,799.837 &#10;&#9;&#9;&#9;563.393,799.324 563.362,798.691 563.225,798.044 562.629,797.056 562.129,796.874 561.598,797.035 560.971,796.708 &#10;&#9;&#9;&#9;560.408,796.702 559.662,796.896 559.166,797.136 558.619,797.165 557.92,797.758 557.615,798.307 557.063,798.436 556.288,798.2 &#10;&#9;&#9;&#9;555.271,797.948 554.83,798.786 554.22,798.716 553.688,798.754 553.292,798.336 552.744,797.913 551.891,797.691 &#10;&#9;&#9;&#9;551.348,797.562 550.809,797.379 550.25,797.291 550.158,796.681 550.055,796.031 550.119,795.348 549.918,794.715 &#10;&#9;&#9;&#9;549.69,794.082 549.834,793.123 549.804,792.431 549.908,791.782 550.031,790.724 550.471,790.268 550.744,789.76 &#10;&#9;&#9;&#9;550.668,789.068 550.223,788.723 550.403,787.902 550.401,787.294 550.91,787.021 550.999,786.34 551.512,786.19 551.719,785.583 &#10;&#9;&#9;&#9;551.67,784.948 552.109,784.521 552.496,784.035 553.063,784.139 553.559,784.006 554.064,783.651 554.93,783.352 &#10;&#9;&#9;&#9;555.179,782.782 554.809,782.227 554.367,781.825 554.384,781.186 554.623,780.636 555.178,780.481 555.524,780.022 &#10;&#9;&#9;&#9;556.076,779.845 556.661,779.746 557.219,779.754 557.748,779.563 558.12,779.029 558.568,779.364 559.107,779.167 &#10;&#9;&#9;&#9;559.33,778.564 560.323,778.195 560.833,777.937 561.306,777.733 561.823,777.581 562.288,777.257 562.854,776.63 &#10;&#9;&#9;&#9;562.589,776.071 562.406,775.472 561.906,775.336 561.347,774.976 561.462,774.353 562.016,773.968 562.209,773.29 &#10;&#9;&#9;&#9;562.434,772.692 561.949,772.274 561.692,771.636 561.86,770.446 561.831,769.79 561.338,769.45 560.821,769.353 560.276,769.335 &#10;&#9;&#9;&#9;559.746,769.19 559.166,768.986 558.767,768.579 558.073,768.32 557.795,767.735 557.506,767.166 556.94,767.274 556.182,766.601 &#10;&#9;&#9;&#9;555.793,766.085 555.829,765.431 555.791,764.736 555.752,764.071 555.644,763.422 555.627,762.78 555.258,762.222 &#10;&#9;&#9;&#9;554.766,761.622 554.24,760.571 553.707,760.544 553.11,760.688 552.548,760.706 552.084,760.265 551.534,760.392 &#10;&#9;&#9;&#9;551.016,760.714 550.269,761.136 549.691,761.194 549.092,761.362 548.502,761.595 548.035,761.853 547.605,762.265 &#10;&#9;&#9;&#9;547.115,762.426 546.258,762.958 545.719,763.085 545.49,763.823 545.049,764.22 544.792,765.149 544.475,765.979 544.5,766.638 &#10;&#9;&#9;&#9;544.321,767.198 543.897,767.567 543.453,767.978 542.901,767.802 542.378,767.962 541.921,768.352 541.416,768.888 &#10;&#9;&#9;&#9;541.281,769.575 541.599,770.688 541.476,771.298 541.539,771.964 541.557,772.587 541.246,773.067 540.627,773.253 &#10;&#9;&#9;&#9;540.543,772.577 540.144,772.149 539.688,771.787 539.205,772.069 538.598,772.181 537.977,772.212 537.483,771.914 &#10;&#9;&#9;&#9;537.073,772.747 536.573,773.09 536.051,773.276 535.608,773.625 535.078,773.862 534.562,773.812 534.031,773.78 &#10;&#9;&#9;&#9;533.485,773.701 532.906,773.856 532.387,774.056 531.889,774.313 531.565,774.781 531.088,775.272 530.844,775.91 &#10;&#9;&#9;&#9;530.783,776.628 530.33,776.968 529.819,777.233 529.399,776.675 528.693,776.617 528.178,776.309 527.657,776.164 &#10;&#9;&#9;&#9;527.162,775.825 527.489,775.27 527.864,774.797 527.563,774.207 527.752,773.563 527.942,772.988 528.194,772.44 528.08,771.837 &#10;&#9;&#9;&#9;527.524,771.89 527.079,771.171 526.188,771.038 525.615,770.958 525.058,771.103 524.569,771.419 524.041,771.462 &#10;&#9;&#9;&#9;523.667,771.005 523.102,771.05 522.164,770.776 521.676,771.003 520.864,771.529 520.309,771.453 519.575,771.324 &#10;&#9;&#9;&#9;519.483,771.951 519.566,772.562 519.731,773.177 520.09,773.747 520.183,774.494 519.646,775.131 519.527,775.805 &#10;&#9;&#9;&#9;519.163,776.29 518.621,777.238 518.571,777.992 518.125,778.374 517.876,778.906 517.401,779.274 516.948,779.587 &#10;&#9;&#9;&#9;516.721,780.151 516.326,780.53 515.787,780.708 515.355,781.042 515,781.868 515.157,782.56 515.18,783.202 515.12,783.858 &#10;&#9;&#9;&#9;515.215,784.467 515.335,785.19 515.501,785.817 515.865,786.332 515.994,786.979 515.808,787.935 515.91,788.566 515.84,789.263 &#10;&#9;&#9;&#9;515.614,789.827 515.756,790.985 516.102,791.505 515.891,792.092 515.178,792.107 514.699,792.321 514.25,792.879 &#10;&#9;&#9;&#9;513.823,793.266 513.293,793.625 513.188,794.329 513.131,794.976 513.243,795.585 513.764,795.424 514.217,796.59 &#10;&#9;&#9;&#9;513.795,797.061 513.231,797.02 512.731,797.2 512.448,797.714 511.86,798.639 511.879,799.276 512.158,799.876 512.16,800.511 &#10;&#9;&#9;&#9;511.721,800.833 511.521,801.396 511.468,802.065 511.315,802.683 510.776,802.871 509.998,803.643 510.073,804.252 &#10;&#9;&#9;&#9;509.686,804.782 509.26,805.112 509.311,805.981 509.744,806.352 510.263,806.3 510.782,806.345 511.272,806.724 511.658,807.29 &#10;&#9;&#9;&#9;512.073,807.692 512.611,807.65 512.747,808.38 513.008,808.947 513.012,809.608 513.033,810.299 513.024,810.927 &#10;&#9;&#9;&#9;512.592,811.259 512.194,811.712 511.932,812.298 511.294,813.314 510.801,814.035 510.615,814.671 510.364,815.302 &#10;&#9;&#9;&#9;509.983,815.913 510.121,816.559 510.578,817.047 511.135,817.148 511.062,817.761 511.181,818.466 510.713,819.136 &#10;&#9;&#9;&#9;510.168,819.48 509.97,820.08 509.458,820.498 509.824,821.177 509.755,821.847 509.69,822.525 510.585,823.273 511.012,823.64 &#10;&#9;&#9;&#9;511.873,823.873 512.357,824.085 512.953,824.021 513.11,824.883 512.79,825.387 512.526,825.921 512.453,826.543 &#10;&#9;&#9;&#9;512.588,827.162 512.412,828.082 511.992,828.662 511.498,829.179 511.035,829.516 510.55,829.805 510.096,830.317 &#10;&#9;&#9;&#9;510.08,830.942 509.743,831.449 509.559,832.032 509.414,832.74 508.811,832.895 508.318,833.127 508.121,833.777 &#10;&#9;&#9;&#9;507.782,834.332 507.603,834.983 507.285,835.955 506.761,836.19 506.232,836.27 505.748,836.036 505.278,835.548 &#10;&#9;&#9;&#9;504.688,835.702 504.117,835.905 503.541,836.248 502.977,836.497 502.428,836.774 502.063,837.272 502.008,838.157 &#10;&#9;&#9;&#9;502.015,838.88 501.856,839.562 501.368,839.866 500.801,839.876 500.403,840.387 500.281,841.064 500.315,841.783 &#10;&#9;&#9;&#9;500.694,842.223 501.154,842.656 501.668,842.392 502.172,842.665 502.739,842.36 503.299,842.257 503.85,842.349 &#10;&#9;&#9;&#9;504.066,842.959 504.128,843.62 504.717,843.539 505.447,843.632 506.031,843.732 506.354,844.218 506.877,844.4 507.419,844.173 &#10;&#9;&#9;&#9;507.796,844.625 508.33,845.675 508.785,846.147 509.217,846.689 509.342,847.42 509.868,847.762 510.031,848.414 &#10;&#9;&#9;&#9;510.621,848.659 511.199,848.933 511.68,849.301 512.258,849.929 512.504,850.532 512.316,851.181 511.849,851.421 &#10;&#9;&#9;&#9;511.727,852.059 511.44,852.575 511.562,853.293 512.276,853.912 512.684,854.312 512.854,854.966 512.615,855.57 &#10;&#9;&#9;&#9;513.178,856.165 512.865,857.096 513.776,857.766 513.83,858.396 514.352,858.43 514.809,858.151 515.285,857.729 &#10;&#9;&#9;&#9;515.815,857.492 516.479,857.26 517.016,857.345 517.519,857.795 518.108,858.441 517.908,859.456 518.205,860.069 &#10;&#9;&#9;&#9;518.391,860.746 517.915,861.021 517.369,861.652 516.949,862.107 516.943,862.721 517.449,862.926 517.884,863.327 &#10;&#9;&#9;&#9;518.094,863.988 518.617,864.464 519.074,864.954 518.427,865.522 517.739,865.619 516.922,865.964 517.361,866.545 &#10;&#9;&#9;&#9;517.473,867.186 517.701,867.91 517.77,868.526 517.983,869.112 517.442,869.622 516.693,870.493 516.031,871.016 &#10;&#9;&#9;&#9;515.942,871.619 516.213,872.363 516.108,873.403 515.968,874.021 515.66,874.548 516.047,875.225 516.592,875.51 &#10;&#9;&#9;&#9;516.989,875.937 517.559,876.394 517.608,877.034 517.696,877.708 518.307,877.562 518.758,877.26 519.602,876.764 &#10;&#9;&#9;&#9;520.186,876.571 520.853,876.648 521.366,876.059 521.821,875.37 522.369,875.118 522.879,874.971 523.514,874.88 &#10;&#9;&#9;&#9;524.025,874.817 524.752,874.827 525.084,875.36 525.653,875.256 526.264,875.315 526.987,875.226 527.189,875.848 527.66,876.15 &#10;&#9;&#9;&#9;528.198,875.955 528.826,875.898 529.254,875.557 529.75,875.215 530.727,875.005 531.235,874.606 531.84,874.446 &#10;&#9;&#9;&#9;532.475,874.614 532.838,874.112 532.994,873.47 532.813,872.848 533.367,872.095 534.192,872.238 534.686,871.916 &#10;&#9;&#9;&#9;534.862,871.32 535.072,870.765 535.61,870.701 535.99,870.289 536.576,870.083 536.992,869.701 537.487,869.447 538.184,868.735 &#10;&#9;&#9;&#9;538.785,868.589 539.306,868.683 539.631,868.117 539.526,867.492 540.012,867.105 540.24,866.489 540.742,866.316 &#10;&#9;&#9;&#9;540.993,865.782 541.481,865.591 542.03,865.719 542.52,866.014 542.92,865.646 542.872,864.979 543.316,864.669 544.059,864.018 &#10;&#9;&#9;&#9;544.596,864.022 545.045,863.676 545.127,863.008 545.352,862.462 545.168,861.8 544.602,861.541 544.51,860.707 543.6,860.279 &#10;&#9;&#9;&#9;543.496,859.435 543.393,858.59 543.919,858.688 544.373,858.289 544.94,858.231 545.233,857.695 544.985,857.123 &#10;&#9;&#9;&#9;545.094,856.403 544.705,855.973 543.948,855.649 544.196,854.984 543.727,854.525 544.028,854.05 544.317,853.486 &#10;&#9;&#9;&#9;544.617,852.978 544.262,852.481 543.682,852.432 544.045,851.442 544.448,850.971 544.93,850.613 545.348,851.014 &#10;&#9;&#9;&#9;545.889,850.852 546.018,850.233 546.157,849.582 546.42,848.998 546.373,848.383 546.223,847.764 546.52,847.226 &#10;&#9;&#9;&#9;546.889,846.547 546.407,846.091 &#9;&#9;"/>
  <text style="fill: rgb(51, 51, 51); font-family: sans-sarif; font-weight: bold; font-size: 20.2px; white-space: pre;" x="524.404" y="803.707" dx="-1.421 -19.858 -21.394" dy="0 21.707 20.622">長野県</text>
</svg>