<?xml version="1.0" encoding="utf-8"?>
<svg viewBox="422.603 914.711 31.749 55.691" width="31.749" height="55.691" xmlns="http://www.w3.org/2000/svg">
  <polygon fill="#7272FF" points="442.905,916.528 442.641,917.101 441.615,916.797 441.132,917.067 440.513,917.022 &#10;&#9;&#9;&#9;440.369,916.427 440.137,915.865 439.656,915.521 438.926,915.673 438.451,915.359 438.12,915.883 437.608,915.981 &#10;&#9;&#9;&#9;437.105,915.807 437.186,914.858 436.655,915.107 436.475,915.714 436.192,916.211 435.842,916.699 435.642,917.975 &#10;&#9;&#9;&#9;434.709,917.965 433.778,918.421 433.26,918.289 432.705,918.116 431.627,918.098 431.176,917.785 430.625,917.694 &#10;&#9;&#9;&#9;429.84,917.802 429.282,917.761 428.679,917.704 428.483,917.067 428.047,916.593 427.514,916.266 427.202,915.705 &#10;&#9;&#9;&#9;426.957,914.757 426.027,914.711 426.039,915.785 426.162,916.432 425.661,916.691 425.797,917.627 426.059,918.218 &#10;&#9;&#9;&#9;425.678,918.676 425.297,919.121 424.881,919.514 424.755,920.461 425.082,921.052 424.953,921.655 424.696,922.801 &#10;&#9;&#9;&#9;424.659,923.404 424.615,924.572 424.596,925.188 424.3,925.713 424.802,925.947 425.296,925.776 425.686,926.267 &#10;&#9;&#9;&#9;425.987,926.846 425.654,927.774 425.147,928.127 424.959,928.734 424.815,929.314 425.4,930.262 426.182,930.496 &#10;&#9;&#9;&#9;426.269,931.201 426.177,931.882 426.561,932.371 426.74,933.228 426.928,933.817 426.993,934.7 427.138,935.317 427.021,935.936 &#10;&#9;&#9;&#9;426.749,936.464 426.456,936.994 426.905,937.353 426.987,938.211 426.464,938.435 425.521,939.346 426.161,939.881 &#10;&#9;&#9;&#9;426.427,940.471 426.785,940.964 426.741,941.634 426.849,942.671 427.32,943.257 427.432,944.174 427.769,944.676 &#10;&#9;&#9;&#9;427.824,945.304 428.179,945.781 428.758,945.58 429.29,945.573 429.787,945.953 430.289,946.304 430.664,947.373 &#10;&#9;&#9;&#9;431.036,947.917 431.016,948.687 430.6,949.079 430.22,949.567 429.577,949.441 429.082,949.184 428.556,948.917 428.02,948.875 &#10;&#9;&#9;&#9;427.602,949.315 427.073,949.34 426.69,949.75 426.437,950.316 426.737,950.911 426.942,951.578 426.531,951.956 426.129,952.483 &#10;&#9;&#9;&#9;426.153,953.171 425.295,953.58 424.508,954.332 424.459,955.003 424.307,955.623 423.954,956.185 423.502,956.498 &#10;&#9;&#9;&#9;423.192,956.998 422.756,957.358 423.01,957.988 422.603,958.787 423.209,959.113 423.736,959.347 424.219,959.629 &#10;&#9;&#9;&#9;424.741,959.551 425.082,960.035 425.59,960.288 425.852,960.894 425.782,961.574 425.853,962.265 426.392,962.172 &#10;&#9;&#9;&#9;426.916,962.304 427.424,962.623 428.056,963.277 428.307,963.839 428.436,964.515 428.373,965.171 428.197,965.84 &#10;&#9;&#9;&#9;427.635,965.691 427.519,966.565 427.399,967.147 427.399,967.76 427.047,968.759 428.052,968.989 428.356,969.63 &#10;&#9;&#9;&#9;428.249,970.249 428.787,970.402 429.359,970.177 429.95,969.664 430.195,969.106 430.557,968.583 431.094,968.588 &#10;&#9;&#9;&#9;431.536,968.291 432.146,968.191 432.705,968.18 433.258,968.092 433.739,968.448 434.242,968.746 435.074,968.938 &#10;&#9;&#9;&#9;435.512,968.578 436.085,968.664 436.623,968.316 437.26,968.077 437.397,967.489 437.905,967.381 438.4,967.622 438.977,967.857 &#10;&#9;&#9;&#9;439.494,967.723 440.131,967.423 440.328,966.837 440.483,966.143 441.239,965.857 441.977,965.643 441.758,965.06 &#10;&#9;&#9;&#9;441.494,964.447 441.781,963.915 442.102,963.419 442.451,962.651 442.854,962.207 443.37,962.097 443.912,962.047 444.466,961.9 &#10;&#9;&#9;&#9;444.957,961.557 445.43,961.282 446.02,960.34 446.612,959.848 446.761,959.259 447.11,958.748 447.208,958.142 447.752,958.305 &#10;&#9;&#9;&#9;448.115,957.732 448.647,958.074 449.629,958.015 450.215,958.131 450.748,958.257 451.455,958.275 451.371,957.591 &#10;&#9;&#9;&#9;451.01,957.032 450.864,956.414 450.823,955.601 450.677,954.896 451.215,954.131 451.213,953.516 450.976,952.869 &#10;&#9;&#9;&#9;451.03,952.163 450.814,951.551 450.85,950.901 451.004,950.282 450.971,949.605 450.569,949.154 450.645,948.526 &#10;&#9;&#9;&#9;450.121,948.497 449.807,947.972 450.114,947.466 450.428,946.987 450.916,946.688 450.594,946.114 450.942,945.18 &#10;&#9;&#9;&#9;451.247,944.249 450.787,943.923 450.639,943.312 450.227,942.886 449.735,942.551 449.29,942.101 449.092,941.504 &#10;&#9;&#9;&#9;449.61,941.244 450.363,940.822 450.696,940.373 450.124,939.879 449.581,939.723 449.118,938.993 448.828,938.33 &#10;&#9;&#9;&#9;448.422,937.452 448.056,936.835 447.544,936.469 447.141,935.998 447.375,935.34 447.783,934.94 447.957,934.354 &#10;&#9;&#9;&#9;448.134,933.388 448.658,933.306 449.413,932.731 449.938,932.605 450.444,932.686 450.971,932.44 451.462,932.165 &#10;&#9;&#9;&#9;452.116,932.25 452.676,931.952 453.651,931.885 453.63,931.173 453.756,930.533 453.895,929.829 454.352,929.346 &#10;&#9;&#9;&#9;453.951,928.867 453.803,928.104 453.739,927.466 453.309,926.993 452.664,927.28 452.15,927.469 451.704,927.865 &#10;&#9;&#9;&#9;451.219,927.209 451.057,926.585 450.569,926.036 450.204,925.438 449.739,925.693 449.159,925.847 448.174,926.399 &#10;&#9;&#9;&#9;447.42,925.992 446.908,925.893 446.418,925.688 445.895,925.47 445.334,925.431 444.948,924.945 444.539,924.475 &#10;&#9;&#9;&#9;444.479,923.807 444.633,923.152 445.065,922.33 445.348,921.774 445.356,921.145 445.035,920.252 445.475,919.867 &#10;&#9;&#9;&#9;445.836,918.82 445.449,918.322 445.156,917.65 444.489,916.96 444.657,916.373 444.313,915.853 443.281,915.075 443.178,916.031 &#10;&#9;&#9;&#9;&#9;&#9;"/>
</svg>