<?xml version="1.0" encoding="utf-8"?>
<svg viewBox="506.941 661.442 105.569 119.599" width="105.569" height="119.599" xmlns="http://www.w3.org/2000/svg" xmlns:bx="https://boxy-svg.com">
  <path fill="#8BFFE8" d="M576.13,672.505l-0.604-1.291l1.216-2.268l1.22,0.557C577.479,670.508,577.121,671.872,576.13,672.505z M533.067,713.94l0.426,0.053l0.338-0.436l0.566-0.099l0.324-0.325l2.137-0.316c1.363-1.127,2.405-2.312,3.543-3.672 c0.414-0.495,1.237-0.829,1.777-1.174c0.468-0.301,0.777-1.172,1.059-1.646l0.547-0.222c0.328-0.795,0.041-1.741,0.36-2.494 c0.421-0.989,0.841-1.981,1.261-2.97c0.709-1.668,1-3.186,0.688-4.961l-0.689-0.281l-0.669,0.503l-0.505-0.254l0.112,0.483 l-0.24,0.371l-1.822,0.302l-0.518,0.509c-0.854,0.141-1.611-0.266-2.399-0.544c0.069,0.492,0.294,0.901,0.673,1.202l-0.359,0.699 l-0.189-0.447l-0.352,0.096l-0.239-0.234l0.271-0.346l-0.127-0.195l-0.295,0.17l0.047-1.105l0.576-0.203 c-0.305-2.262-0.078-3.346,1.157-5.277c-0.091-0.877,0.38-1.643,0.71-2.425c0.34-0.812,0.293-1.94,0.409-2.807 c0.191-1.435-0.63-3.169,0.128-4.481l-0.621-0.578c-0.814-0.053-1.443,0.555-2.109,0.965l-0.455-0.076l-0.053,0.217l0.362,0.399 c-1.072,0.612-1.056,1.909-1.072,2.988c-0.233,0.546-0.745,0.892-1.315,1.053l-0.367-0.216l-0.11,0.799 c-0.524,0.609-1.083,1.117-1.254,1.934c-1.052,0.744-2.841,1.831-2.927,3.315c-0.09,1.586-1.291,3.065-1.836,4.605l-0.346-0.036 l-0.391,0.887l0.178,0.344l-0.349,0.804l0.267,2.168l-0.535,0.535l0.92,1.537l-0.291,0.823l0.548,0.825l0.955,0.116l0.952-2.288 l1.225-0.466c0.897,0.46,1.948,0.803,2.173,1.908c-0.158,1.288-1.746,2.336-2.491,3.371l-0.066,0.977l0.465,0.781 c-0.112,1.009-0.297,1.732-0.666,2.674l-1.124,0.664l-0.643-0.104l-0.447,0.395l-0.316-0.014c-0.29,0.413-0.4,0.928-0.321,1.428 c0.639,0.562,1.711,0.75,2.529,0.554L533.067,713.94z M507.242,768.679l-0.301-0.322c4.032-1.395,7.666-3.836,11.484-5.624 c2.311-1.088,3.885-2.61,5.803-4.319c0.717-0.64,1.783-0.716,2.52-1.486c0.807-0.839,1.436-2.119,2.085-3.084 c2.266,0.351,3.138,0.326,5.286-0.465l0.541,0.169c4.354-2.64,7.464-6.831,10.426-10.894l0.363-0.019 c0.934-0.841,1.787-1.771,2.891-2.37c1.643-0.894,2.082-1.297,3.051-2.892c0.707-1.157,0.938-2.72,1.332-4.011 c0.369-1.21,1.033-1.863,1.607-2.955c0.723-1.366,1.424-2.2,2.548-3.271c0.868-0.826,1.229-1.987,1.741-3.062 c0.922-1.92,1.865-5.443,1.155-7.534c0.922-1.554,0.563-3.515,1.351-5.131c0.589-1.222,1.913-2.7,2.98-3.558 c1.385-1.113,2.941-2.15,4.193-3.418c1.228-1.244,2.5-2.958,4.26-3.455l0.2-0.52c2.264-0.913,4.153-1.85,6.216-3.148l1.365,0.463 l-0.711-0.674c1.496-1.77,3.518-2.95,4.957-4.889c1.333-1.793,2.036-3.986,3.35-5.77l0.562-0.122l-0.354-0.323l0.884-1.998 l-0.34-0.61l0.908-2.837l-0.44-0.182l-0.241-0.885l0.31-0.484c-0.387-1.731,0.245-4.276-0.662-5.812l0.441-1.312l-0.309-0.59 c0.229-0.814,0.337-1.705,0.887-2.361l-0.08-0.646l0.867-1.285l-0.07-0.777l0.5-1.057l-0.164-0.245l0.24-0.185l-0.008-0.704 l0.447-0.188l0.31-0.483l0.667-1.812l-0.044-0.084l0.377-0.016l0.87,0.282l0.502,0.2l0.529,0.251l0.512,0.23l0.596,0.311 l0.486-0.159l0.506-0.128l0.578,0.273l0.37,0.481l0.612,0.119l0.627-0.102l0.576,0.041l0.548-0.01l0.864,0.065l0.68,0.199 l0.707,0.634l-0.354,0.448l-0.16,0.606l0.18,0.602l0.309,0.537l-0.017,0.613l0.101,0.695l-0.088,0.611l-0.396,0.855l0.035,0.643 l0.348,0.585l0.42-0.405l0.482,0.352l0.207,0.625l0.426,0.377l0.498,0.32l0.712-0.033l0.501,0.334l0.542,0.02l0.507,0.135 l0.506-0.199l0.5-0.257l0.568,0.163l0.504,0.393l0.541,0.031l0.965,0.543l0.447,0.346l0.572,0.47l0.285,0.581l0.519,0.301 l0.546,0.383l0.118,0.65l-0.317,0.844l-0.434,0.408l-0.212,0.566l-0.467,0.998l-0.23,0.662l-0.512,0.355l-0.511,0.263 l-0.504,0.331l-0.408,0.365l-0.486,0.345l-0.442,0.444l-0.418,0.416l-0.647-0.065l-0.625,0.028l-0.502,0.379l-0.67-0.322 l-0.542,0.02l-0.543-0.151l-0.609,0.085l-0.322,0.504l-0.184,0.562l-0.37,0.414l-0.194,0.683l0.218,0.718l0.354,0.472l0.067,0.629 l0.019,0.705l0.145,0.618l-0.178,0.573l-0.329,0.641l-0.129,0.895l0.936,0.838l0.199,0.896l-0.392,0.438l-0.276,0.559 l-0.497,0.145l-0.463,0.329l-0.04,0.613l0.104,0.685l0.011,0.697l-0.349,0.502l-0.195,0.643l0.143,0.666l0.27,0.557l-0.108,0.686 l0.075,0.616l-0.084,0.652l-0.312,0.494l-0.067,1.114l0.364,0.525l0.275,0.795l0.518,0.391l0.577,0.284l0.305,0.622l0.517,0.256 l0.539,0.241l0.729,0.08l0.487-0.34l0.616-0.125l0.284,0.675l0.459,0.407l0.637,0.67l-0.111-0.117l0.111,0.117l-0.418,0.723 l-0.47,0.561l-0.361,0.458l-0.354,0.438l-0.491,0.634l-0.397,0.388l-0.363,0.561l-0.23,0.627l-0.465,0.301l0.084,0.688 l-0.282,0.598l-0.376,0.547l-0.395,0.444l-0.305,0.55l-0.173,0.609l0.405,0.55l-0.85,0.555l-0.189,0.575l-1.175,1.059 l-0.417,0.359l-0.465,0.231l-0.512,0.253l0.227,0.602l-0.297,0.621l0.2,0.588l0.405,1.064l0.508,0.232l0.129,0.607l0.344,0.498 l0.098,0.722l-0.021,0.64l-0.062,0.664l0.387,0.48l0.416,0.426l0.492,0.354l-0.082,0.632l-0.428,0.406l-0.74,0.301l-0.553-0.189 l-0.531-0.145l-0.562,0.01l-0.538,0.002l-0.534,0.237l-0.592-0.047l-0.537,0.21l-0.353,0.483l-0.626-0.252l-0.459-0.409 l-0.55,0.043l-0.652,0.201l-0.53,0.249l-0.461,0.276l0.009,0.73l-0.204,0.609l-0.004,0.625l0.109,0.65l-0.381,0.412l-0.562-0.127 l-0.589,0.031l-0.668-0.295l-0.484,0.195l-0.321,0.469l-0.524,0.225l-0.694-0.102l-0.456,0.329l-0.518-0.007l-0.455,0.283 l-0.458,0.3l-0.599,0.05l-0.535,0.225l-0.52-0.229l-0.689,0.559l-0.565-0.127l-0.435,0.348l-0.197,0.627l-0.156,0.643l-0.388,0.82 l0.447,0.37l0.421,0.657l0.515-0.112l0.527,0.263l0.248,0.559l0.147,0.718l-0.068,0.618l0.082,0.675l-0.414,0.419l-0.074,0.889 l0.123,0.67l-0.143,0.666l-0.068,0.68l-0.23,0.556l-0.34,0.446l-0.379,0.434l-0.351,0.496l-0.31,0.518l-0.312,0.648l-0.158,0.669 l0.385,0.464l0.507,0.466l0.425,0.521l0.446,0.337l1.202,0.083l0.597,0.103l0.454,0.491l0.424,0.486l0.225,0.718l0.389,0.452 l-0.238,0.764l-0.045,0.629l0.029,0.634l-0.265,0.558l-0.001,0.699l0.273,0.662l0.496,0.809l0.553,1.189l0.17,0.639v0.659 l-0.219,0.7l-0.1,0.624l0.141,0.632l0.428,0.74l0.102,0.662l-0.004,0.613l0.039,0.652l-0.187,0.577l-0.312,0.526l-0.703-0.769 l-0.535,0.224l-0.459,0.266l-0.565-0.123l-0.846-0.24l-0.314-0.586l0.008-0.609l-0.201-0.65l-0.541-0.413l-0.612-0.22 l-0.425-0.422l-0.451-0.422l-0.456-0.326l-0.298-0.543l-0.656-0.479l-0.449-0.437l-0.541-0.103l-0.192,1.051l0.018,0.693 l0.136,0.658l-0.359,0.506l-0.439,0.326l-0.418,0.344l-0.431,0.333l-0.251,0.55l-0.443,0.309l-0.542,0.178l-0.53-0.107 l-0.51,0.272l-0.504,0.331l-0.521,0.002l-0.523,0.065l-0.547,0.177l0.072,0.666l0.091,0.66l0.034,0.629l0.164,0.651l0.321,0.562 l0.396,0.938l0.199,0.592l-0.167,0.656l-0.544-0.056l-0.513-0.174l-0.566,0.12l-0.576,0.107l-0.282,0.585l-0.231,0.595 l0.156,0.602l-0.113,0.661l0.426,0.464l0.352,0.557l-0.827,0.629l-0.982,0.251l-0.544,0.129l-0.447,0.519l-0.836,0.495 l-0.529-0.146l-0.615,0.018l-0.537,0.261l0.342,0.597l0.25,0.58l0.02,0.668l-0.029,0.604l-0.241,0.553h-0.586l-0.454,0.35 l-0.305,0.482l-0.26,0.518l-0.578-0.061l-0.561-0.046l-0.532-0.205l-0.946-0.407h-0.605l-0.092,0.661l-0.303,0.552l-0.35,0.469 l-0.684-0.328l-0.263-0.557l-0.184-0.603l-0.503-0.133l-0.558-0.36l0.114-0.623l0.555-0.385l0.189-0.676l0.227-0.604l-0.483-0.414 l-0.258-0.641l0.167-1.184l-0.027-0.658l-0.492-0.34l-0.52-0.098l-0.543-0.018l-0.53-0.146l-0.581-0.204l-0.398-0.407 l-0.697-0.257l-0.275-0.588l-0.287-0.568l-0.568,0.107l-0.757-0.675l-0.39-0.516l0.033-0.654l-0.034-0.69l-0.039-0.669 l-0.108-0.648l-0.02-0.643l-0.367-0.555l-0.492-0.598l-0.52-1.052l-0.537-0.028l-0.596,0.146l-0.563,0.02l-0.464-0.447 l-0.551,0.129l-0.518,0.318l-0.747,0.424l-0.579,0.059l-0.598,0.17l-0.59,0.234l-0.467,0.254l-0.432,0.414l-0.488,0.161 l-0.858,0.532l-0.54,0.129l-0.229,0.736l-0.443,0.398l-0.257,0.928l-0.313,0.83l0.023,0.658l-0.184,0.561l-0.422,0.367 l-0.443,0.412l-0.551-0.178l-0.523,0.166l-0.458,0.386l-0.508,0.535l-0.135,0.69l0.317,1.109l-0.119,0.613l0.062,0.666 l0.018,0.621l-0.31,0.48l-0.619,0.186l-0.082-0.672l-0.401-0.432l-0.455-0.356l-0.483,0.28l-0.608,0.109l-0.618,0.029 l-0.498-0.296l-0.407,0.831l-0.499,0.345l-0.522,0.188l-0.445,0.349l-0.529,0.237l-0.518-0.051l-0.527-0.031l-0.548-0.079 l-0.578,0.157l-0.521,0.197l-0.499,0.261l-0.322,0.465l-0.478,0.491l-0.245,0.638l-0.058,0.718l-0.453,0.34l-0.513,0.266 l-0.422-0.555l-0.706-0.062l-0.514-0.307l-0.521-0.143l-0.498-0.343l0.326-0.554l0.375-0.472l-0.301-0.592l0.189-0.646 l0.189-0.575l0.256-0.542l-0.117-0.607l-0.557,0.055l-0.444-0.716l-0.892-0.136l-0.571-0.08l-0.56,0.146l-0.486,0.317 l-0.527,0.037l-0.375-0.455l-0.565,0.045l-0.94-0.272l-0.485,0.226l-0.813,0.526l-0.554-0.074l-0.733-0.131l-0.094,0.627 l0.083,0.612l0.165,0.615l0.359,0.564l0.092,0.747l-0.536,0.639l-0.116,0.674l-0.362,0.487l-0.544,0.951l-0.053,0.747 l-0.446,0.388l-0.247,0.53l-0.474,0.368l-0.454,0.309l-0.227,0.565l-0.396,0.382l-0.538,0.172l-0.436,0.338l-0.473-0.479 l-0.301-0.574l0.128-0.616l-0.495-0.918l-0.467-0.424l-0.427-0.984l-0.05-0.643l-0.023-0.646l-0.152-0.618l-0.333-0.542 l-0.44-0.35l-0.418-0.476l0.107-0.98l-0.088-0.719l-0.104-0.675l-0.348-0.58l-0.605-0.062l-0.549,0.033l-0.52-0.242l-0.51-0.096 l-0.504-0.344l-0.439-0.424l-0.51-0.436l-0.591-0.578l0.591,0.578L507.242,768.679z"/>
  <text x="511.414" y="729.797" style="white-space: pre; fill: rgb(51, 51, 51); font-family: sans-sarif; font-weight: bold; font-size: 15.3px;">新潟県</text>
</svg>