<?xml version="1.0" encoding="utf-8"?>
<svg viewBox="189.224 1006.59 66.475 57.357" width="66.475" height="57.357" xmlns="http://www.w3.org/2000/svg" xmlns:bx="https://boxy-svg.com">
  <path fill="#009900" d="M254.248,1049.13l-0.689-0.281l-0.012,0.317l-0.737-0.225l0.043,0.755l-1.482,0.521l-0.17-0.738 l0.188-0.386l-0.176-0.376c-0.365,0.273-0.573,0.627-0.628,1.074l-0.397,0.182l-0.38-1.185l-0.233,0.474l-0.329-0.351l0.085,0.697 l-0.193,0.128l-0.762-0.666l-0.118,0.329l-0.542-0.144l0.113-0.17l-0.307-0.146l-0.046,0.477l-0.638,0.788l0.313,0.407 l-1.149,0.036l1.282-1.493l-0.05-0.624l-0.4-0.265l-0.144,0.308c-0.495-0.258-0.885-0.658-1.211-1.11l0.328-0.746l0.067,0.542 l0.192,0.082l0.18-0.677l-0.183-0.633l0.633-0.838l-0.021-1.229l0.831-0.492l2.276-0.02l0.206-0.442l1.053-0.184l0.344-0.406 l-0.47,0.027c-0.221-0.402-0.453-0.804-0.696-1.196l0.021-0.898l-0.61,0.365l0.062,1.356l-0.754,0.46l-0.173-0.555l-0.37-0.032 l-0.631,0.417c-0.401-0.526-0.694-1.156-0.67-1.83l-0.45,0.579l0.214,0.263l-0.04,0.531l-0.307,0.27l0.13,0.404l-0.345-0.248 l-0.275,0.324l-0.296-0.907l-0.66,0.37l-0.612-0.293l-0.071,0.271l0.272,0.28l-1.419-0.034l0.236-0.424l-0.394-0.002l-0.202-0.371 l0.724-0.061l0.462-0.714l-0.116-0.322l0.86-0.238l0.149-0.49l0.682-0.427l-0.072-0.361l-0.479,0.14l-0.229-0.573l-0.407,0.732 l-0.675,0.055l-0.49-0.36l-1.183,1.043l-0.35-0.301c-0.658,0.109-1.282,0.334-1.907,0.027l1.185-1.663l-0.023-0.604l-0.174,0.29 l-0.08-0.234c0.375-1.109,0.751-1.523,1.573-2.337l0.586,0.089l0.156-0.65l-0.566-0.346l0.52-0.88 c-0.222-0.411-0.281-0.853-0.158-1.29l0.762-0.195l0.364-1.302c-0.559-0.092-1.136,0.038-1.607,0.353l0.089,0.726l-0.869-0.235 c-1.469,1.004-3.293,0.589-4.635,1.511c-1.257-0.247-1.979-0.499-3.077-1.169l-0.124,0.253l0.448,0.885l-0.217,0.162l-0.521-1.039 l-0.846-0.494l-0.168,0.751l-0.264-0.44l-1.51,0.291l-0.187,0.415l-0.949,0.17l-0.404-0.523l-0.174,0.07l-0.379,0.758l0.33,0.324 l-0.576,0.226c-1.613-0.405-2.986-0.467-4.559-1.085c-0.224-1.601-1.464-3.591-0.791-5.145l1.695-0.703l0.353,0.089l-0.235,0.213 l0.752,0.797l0.235-0.002l0.045-0.266l1.202,0.192l0.142-0.358l0.25,0.335l0.467-0.243l0.124-1.351l1.944-0.578l0.324-0.564 l-0.944-1.296l-0.385-0.134l0.252-0.295l-0.154-0.61l1.688-0.13l0.218,0.497l-0.494,0.452l0.246,0.072 c0.645-0.339,1.294-0.277,2.005-0.296c0.11-1.011,0.022-2.042,0.812-2.799c-0.056-0.474,0.072-0.912,0.363-1.3 c-0.361-1.714-0.335-2.605,0.019-4.321l-0.241-0.258l-0.095-0.777c-0.455-0.429-0.749-1.013-0.805-1.631l-0.475-0.252 l-0.375-0.715l-0.64-0.292l-0.733-1.712l-0.982-0.325l-0.84-1.288l-0.562,0.54l-0.24-0.254l0.034-0.352l-0.256,0.032l-0.321-0.479 l-0.41-0.134l-0.075,0.662l-0.451-0.468l-0.435,0.081l-0.207-0.39c-0.532-0.14-1.083-0.206-1.603-0.044l-0.184,0.417l0.181,0.84 l-0.93-0.958l-0.637,0.575l-1.232-0.008l0.339,0.402l-0.478,0.376l-0.606-0.242l-0.238,0.19l-0.137,0.593l0.216,0.265 l-0.178,0.255l0.248,0.311l-0.157,0.229l-0.482-0.099l-0.293,0.378l0.316,0.224c-0.439,0.359-0.649,0.882-0.715,1.447h-0.602 c-0.507,0.5-0.574,1.157-0.745,1.82l-0.636-0.268l-0.172,0.288l0.577,1.079l-0.747,0.954l-0.047-0.383l0.365-0.229l0.014-0.317 c-0.79,0.231-1.508,0.029-2.292-0.107l-0.513,0.509l-0.298-0.279l-1.053,0.393c-0.683-0.894-1.778-0.298-2.652-0.063l-1.877-0.561 l0.099-0.275c-0.258-0.266-0.579-0.454-0.931-0.539l-0.073,0.271c-0.728,0.111-1.455-0.187-1.925-0.758l-0.814,0.787l0.093,0.4 l-0.491,1.151l0.363,0.851l0.481,0.353l0.177,0.777l-0.077,0.608l-0.356,0.436l-0.406,0.427l0.09,0.646l0.391,0.522l-0.815,0.267 l-0.511,0.249l-0.859,0.079l-0.991,0.062l-0.542,0.138l-0.553-0.03l-0.622,0.112l-0.838-0.115l-0.535,0.042l-0.558-0.229 l-0.656-0.086l-0.435,0.353l-0.47,0.231l-0.598,0.034l-0.813,0.269l-0.49,0.334l-0.381,0.4l-0.405,0.505l-0.586,0.497 l-0.462,0.304l-0.054,0.789l-0.42,0.742l-0.379,0.4l-0.527,0.116l-0.054,0.715l-0.24,0.632l0.109,1.106l-0.093,0.664l-0.046,0.616 l0.069,0.65l-0.591,0.172l-0.631,0.323l-0.031,0.911l-0.598,0.525l-0.357,0.507l0.814,0.327l0.361,0.544l0.127,0.696l0.325,0.559 l0.232,0.561l-0.189,0.62l-0.328,0.506l0.345,0.579l-0.726,0.824l-0.519,0.025l-0.178,1.037l0.452,0.425l0.535-0.05l-0.083,0.982 l0.211,0.621l0.605,0.368l0.503,0.28l0.519,0.146l0.535,0.194l0.23,0.641l-0.476,0.439l0.172,0.625l-0.03,0.681l-0.207,0.697 l-0.071,0.681l-0.188,0.622l-0.336,0.521l-0.481,0.245l0.071,0.748l0.969-0.194l0.556,0.129l0.772,0.245l0.427,0.716l0.417,0.575 l0.573,0.064l0.396,0.49l0.56-0.011l0.544-0.066l0.535,0.019l0.525,0.474l0.263,0.556l0.447,0.501l0.987-0.111l0.564-0.571 l0.233-0.616l0.257-0.608l0.008-0.62l-0.312-0.553l0.096-0.607l0.401-0.479l-0.62-0.732l-0.388-0.489l-0.525-0.455l-0.25-0.622 l-0.757-0.581l0.171-0.881l-0.072-1.093l0.431-0.714l1.155-0.141l0.571-0.437l0.293-0.499l0.543-0.067l0.507-0.126l0.615,0.212 l0.57,0.063l0.961-0.068l0.52,0.215l0.492,0.745l0.713,0.194l0.43,0.385l0.533,0.315l0.394,0.479l0.456,0.389l0.248,1.005 l0.475,0.89l0.152,1.072l0.547,0.534l0.559-0.095l0.615,0.767l0.732,0.562l0.15,0.664l0.238,0.671l0.302,0.563l0.212,0.642 l0.563,0.363l0.46,0.351l0.103,0.758l0.93,0.431l-0.253,0.603l-0.472,0.216l0.112,0.915l0.114,0.928l0.335,0.483l0.182,0.993 l0.076,0.617l0.245,0.663l0.839,0.253l0.132,0.637l0.576,0.215l0.477,0.396l0.562,0.189l0.536,0.142l0.499,0.407l0.406,0.632 l0.532-0.124l0.658,0.857l0.236,0.615l1-0.098l0.523-0.159l0.524-0.188l0.502-0.154l0.612-0.104l0.708-0.4l0.208-0.601l0.478-0.19 l0.642-0.093l0.791-0.563l0.37,0.528l0.463,0.464l1.013,0.696l0.565,0.273l-0.18,0.622l-0.131,0.675l0.576,0.716l0.657,0.183 l0.496,0.235l0.536,0.036l0.73,0.029l0.538-0.26l0.351-0.484l0.308-0.559l0.518-0.025l0.566-0.108l0.57-0.105l0.582,0.087 l0.606-0.051l0.714,0.05l0.51,0.105l0.464-0.235l0.644-0.239l0.597-0.137l0.555-0.532l0.077-0.633l0.441-0.482l0.021-0.726 l0.166-0.644l-0.046-0.626l0.589-0.295l0.586-0.276l0.848-0.056l0.569,0.066l0.579,0.548l0.533,0.005l0.415-0.361l0.589,0.073 l0.533,0.236l0.558,0.082l0.505-0.301l0.142,0.754l-0.203,0.668l-0.131,0.6l-0.195,0.836l0.266,0.632l0.136,0.648l-0.047,0.763 l0.495,0.286l0.315,0.196l0.79-0.468l0.317-0.827l-0.624-0.158l0.24-0.605l-0.135-0.246l1.096-0.034 c-0.417-0.805-0.949-1.498-0.721-2.45l0.599,0.609l-0.062,0.345l0.536-0.117l0.504,0.278l0.006-0.392l0.928,0.305l0.478-0.792 l-0.037-0.517l0.794,0.058l-0.162,0.599l0.585,0.085l0.159-0.203l-0.264-0.438l0.113-0.354l1.255-0.89l0.293-1.004l-1.263-0.472 l-0.397,0.181l0.479,0.7l-0.072,0.273l-0.74-0.28l-0.25-0.336l0.063,1.171l-0.312-0.826l-0.802,0.069l0.51-0.531l-0.219-0.706 l0.601,0.399l0.6-0.863l-0.066-0.539l0.496,0.197c0.317-0.718,0.506-1.415,1.155-1.895l-0.516,0.063l-0.353-0.326l-0.087,0.381 l-0.447,0.187c0.04-0.657-0.073-1.33-0.538-1.819l0.635-0.157l0.336,0.584l0.692,0.308l-0.073-1.221l0.311,0.169l0.068-0.503 l0.455-0.367l0.439-0.055l0.166,0.501l0.231-0.03l0.504-0.792l0.83,0.343l0.74-0.171l-0.813-0.843L254.248,1049.13z"/>
  <text style="fill: rgb(255, 255, 255); font-family: sans-sarif; font-weight: bold; font-size: 14.8px; white-space: pre;" x="200.588" y="1034.73" dx="0 -2.477 -2.733" dy="0 11.256 8.874">大分県</text>
</svg>