<?xml version="1.0" encoding="utf-8"?>
<svg viewBox="299.97 890.592 57.307 57.408" width="57.307" height="57.408" xmlns="http://www.w3.org/2000/svg" xmlns:bx="https://boxy-svg.com">
  <path fill="#FF9141" d="M356.114,924.236l-0.358-0.505l-0.477-0.639l-0.144-0.593l-0.43-0.44l-0.367-0.501l-0.771-0.347 l-0.3-0.524l-0.549,0.162l-0.661-0.468l-0.189-0.627l-0.419-0.526l0.209-0.545l0.258-0.531l-0.232-0.562l0.34-0.495l0.436-0.412 l0.461-0.261l-0.07-0.738l-0.407-0.588l-0.407-0.386l-0.502-0.367l-0.542,0.005l-0.145-0.616l0.407-0.429l0.398-0.49l0.01-0.662 l-0.308-0.575l0.352-0.467l0.044-0.665l-0.496-0.258l-0.355-0.595l0.162-0.583l0.369-0.496l0.386-0.456l0.415-0.353l0.54-0.064 l0.486-0.29l-0.182-0.591l0.168-1.17l-0.118-0.623l0.979-0.423l0.454-0.39l0.113-0.587l-0.089-0.637l0.252-0.605l0.007-1.032 l0.543-0.723l0.542-0.153l0.616-0.077l0.606,0.198l0.128-0.701l-0.324-0.729l0.152-0.588l-0.453-0.372l-0.566-0.199l-0.609-0.29 l-0.196-0.605l-0.049-0.662l0.388-0.404l0.383-0.469l0.159-0.623l-0.342-0.537l-0.516,0.051l-0.714,0.443l-0.399,0.989 l-0.454,0.363l-0.501,0.308l-0.321,0.494l-0.363,0.441l-0.488,0.332l-0.537,0.115l-0.523,0.125l-0.679,0.304l-0.542-0.165 l-0.389-0.435l-0.543,0.082l-0.283,0.55l-0.582,0.12l-0.457,0.277l-0.659,0.372l-0.495,0.184l-0.421,0.336l-0.206,0.611 l-0.43,0.358l-0.598-0.575l-0.408-0.537l-0.511-0.307l0.005-0.674l0.263-0.531l-0.007-0.646l-0.318-0.526l-0.592,0.258 l-0.455-0.37l0.246-0.952l-0.115-0.633l-0.365-0.471l-0.344-0.507l-0.741-0.041l-0.405-0.404l-0.468-0.31l-0.339-0.532 l-0.554-0.018l-0.48,0.329l-0.85,0.138l-0.474,0.276l-0.493-0.269l-0.575-0.015l-0.517,0.025l-0.521-0.032l-0.538-0.364 l0.149-0.616l0.2-1.04l-0.233-0.646l-0.553-0.03l-0.473,0.393l-0.443,0.275l-0.604-0.074l-0.479,0.312l-0.674,0.618l-0.508,0.072 l-0.134,0.605l0.21,0.623l-0.906,0.513l-0.457,0.254l-0.453,0.304l-0.434,0.38l-0.582,0.157l-0.209,0.551l-0.136,0.894 l-0.436,0.605l-0.338,0.567l-0.769,0.301l-0.568-0.479l-0.409-0.488l-0.255-0.651l-0.383-0.517l-0.546-0.276l-0.614-0.268 l-0.501-0.257l-0.895-0.294l-0.439-0.437l-0.573,0.044l-0.549,0.032l-0.545-0.119l-0.62-0.064l-0.587,0.095l-0.409,0.376 l-0.539-0.228l-0.541-0.103l-0.595-0.452l-0.73-0.178l-1.078,0.096l-0.548-0.043l-0.547-0.142l-0.328,0.554l0.047,0.72 l-0.312,0.548l-0.161,0.666l0.105,0.624l-0.202,0.659l0.087,0.65l-0.146,0.626l-0.146,0.74l-0.205,0.604l-0.565,0.104l-0.41,0.405 l-0.516,0.015l-0.518-0.072l-0.37,0.484l0.26,0.729l0.433,0.41l0.183,0.598l0.167,1.111l-0.747-0.354l-0.444,0.273l-0.608,0.225 l-0.496,0.352l-0.375,0.443l-0.534,0.159l-0.497,0.175l-0.518-0.049l-0.515-0.141l-0.496-0.239l-0.564-0.172l-0.414,0.378 l-0.172,0.684l0.352,0.53l0.24,0.562l0.341,0.546l0.261,0.619l0.03,0.654l-0.764,0.508l-0.592,0.009l-0.534,0.203l-0.688,0.729 l-0.517-0.128l-0.543,0.065l-0.35,0.541l-0.47,0.241l-0.563-0.178l-0.502-0.266l-0.416,0.421l0.053,0.661l0.025,1.127 l-0.533,0.228l-0.314,0.527l0.254,0.58l0.502,0.341l0.53,0.333l0.356,0.482l0.369,0.446l0.473,0.274l0.488,0.329l0.109,0.969 l-0.234,0.587l-0.332,0.536l-0.078,0.604l-0.272,0.518l0.363,0.537l0.395,0.563l-0.317,0.482l0.204,0.595l-0.219,0.613l-0.02,0.65 l0.076,0.614l0.432,0.376l0.327,0.515l0.458,0.397l0.541,0.517l0.535,0.705l0.628,0.852l0.965,0.471l0.513,0.266l0.341,0.487 l-0.029,0.758l-0.084,0.629l-0.202,0.96l-0.09,0.602l0.438,0.896l-0.327,0.984l0.482,0.345l0.13,0.643l0.293,0.793l0.439,0.389 l0.194,0.66l0.496,0.207l0.532,0.276l-0.101,0.677l-0.178,0.609l-0.261,0.537l0.289,0.549l-0.36,0.688l0.656,0.806l0.267,0.587 l0.427,0.39l0.87,0.118l0.5,1.074l0.513,0.35l0.409,0.513l0.293,0.555l0.142,0.999L313.092,945l-0.062,0.614l0.544,0.095 l-0.146,0.826l0.082,0.577l0.13,0.271l0.777,0.142l0.188,0.475l0.291-0.196l-0.528-1.742l0.291-0.194l0.344-0.827 c-0.157-0.688-0.313-1.408-0.541-2.089c0.178,0.468,0.325,0.963,0.422,1.556l0.489,0.567l0.456-0.136l0.351,0.299l0.599-0.019 l-0.083,1.239l0.583,0.087l0.579,0.851l0.67-0.084l0.402-0.362l0.836-0.025c0.287-0.575,0.589-1.136,0.89-1.708l0.463-0.267 l0.59,0.112l0.542-0.694l0.695-0.11c0.335-0.496,0.615-1.073,1.111-1.395l0.479,0.907l0.604-0.414l-0.542-0.353l0.054-0.217 l0.359-0.044l0.105-1.504l0.416-0.022l0.242,0.698l0.659,0.237l0.412-0.707l0.076,0.201l-0.344,0.825l-0.585,0.361l0.232,2.747 l1.141-0.11l0.087,0.485l0.416-0.233l-0.086-1.143l-0.646-0.338l0.457-0.973l0.507-0.353c0.215,0.575,0.332,1.109,0.765,1.529 l-0.072-1.221l0.205-0.266l0.029,2.173l0.522,0.199l0.386,0.789l-0.046,0.479l0.913,0.833l0.817-0.18l0.957,0.327 c-0.651-0.506-0.708-1.179-0.893-1.932l1.203-0.883l0.132,0.222c1.08,0.094,1.703,0.225,2.678,0.693l0.686-0.163l0.335,0.376 l0.865-0.211l0.106-0.643l0.332,0.591l0.429-0.367l-0.229-0.152l0.215-0.373l-0.352-0.295l0.121-0.723l0.282-0.062l0.321-0.799 l0.205,0.185l0.288-0.222l-0.554-1.082c0.059-0.56,0.39-1.052,0.856-1.361l0.638,0.078l0.314,0.615l0.664,0.29l0.018-0.294 l-0.593-0.342l0.216-0.369l-0.251-0.334c0.051-0.352,0.2-0.67,0.434-0.945l0.819,0.266l0.118-0.538l0.32,0.041l-0.132-0.22 l0.188-0.185l-0.248-0.311l0.215-0.601l0.617-0.312c-0.254-0.417-0.527-0.816-0.804-1.211l-0.829-0.139l-0.828,0.519 c-0.613-0.104-1.259,0.022-1.79,0.354l-0.893,1.258l-0.001,1.075l-0.197,0.078c-0.44-0.517-0.935-0.967-1.142-1.616l0.131-0.437 c0.456-0.066,0.893-0.225,1.278-0.469l-0.214-0.233l0.318-0.196l0.37,0.241c0.644-0.714,1.628-0.896,2.499-1.201 c0.513,0.219,1.105,0.196,1.622-0.014l0.249,0.545l0.516-0.719l0.313-0.013c-0.31,0.395-0.451,0.892-0.38,1.39l0.626,0.207 l0.525-0.406l0.615,0.528l0.889-0.661l0.729-0.039l0.294-0.586l0.523-0.218l-0.046-0.601l0.432-0.104l0.15-0.7l0.463,0.362 l0.683-0.4c0.041-0.527,0.298-1.014,0.669-1.391l-0.569,0.041l-0.494-0.802l0.134-0.196l0.799,0.313l0.331-0.693l-0.153-0.192 l0.745-0.326l-0.213-0.051l-0.016-0.342l0.399,0.058l0.565-0.516l-0.684-0.232l0.614-0.125l0.09-0.325l0.336-0.041l0.24-0.396 l0.207,0.183l0.18-0.466c-0.331-0.239-0.663-0.472-1.003-0.694l-0.723,0.299l-0.379-0.108l-0.032-0.264l-0.439,0.055l-0.229-0.152 l0.282-0.483l-1.053-0.472l0.206-0.233l2.561,0.577l-0.389,0.256l0.028,0.233l1.799-0.086l0.532-0.775l-0.186-0.24l0.617,0.105 l0.329-0.72l1.558,0.934l0.841-1.018l0.217,0.263l0.121-0.097l-0.922-1.343L356.114,924.236z"/>
  <text x="307.063" y="923.65" style="white-space: pre; fill: rgb(51, 51, 51); font-family: sans-sarif; font-weight: bold; font-size: 14.4px;">岡山県</text>
</svg>