<?xml version="1.0" encoding="utf-8"?>
<svg viewBox="629.935 761.362 415.048 458.272" width="415.048" height="458.272" xmlns="http://www.w3.org/2000/svg" xmlns:bx="https://boxy-svg.com">
  <g>
    <g>
      <g>
        <g>
          <path fill="#009900" d="M990.683,790.376l-2.08,1.825l-0.571-0.166c-0.697-1.265-0.626-2.155-0.641-3.616 c-0.012-1.037-0.881-2.057-1.054-3.144l0.771-0.122c0.979-2.015,2.281-3.639,2.816-5.883c0.306-1.281,0.627-2.152,0.331-3.412 c-0.298-1.309-0.595-2.611-0.892-3.924l1.262-3.162l0.618-0.107c-0.155-1.215,0.572-2.07,0.532-3.303 c-0.039-1.167,0.555-2.125,1.026-3.17l0.38,0.111l1.016-0.938l0.855,2.097l0.574,0.397c-0.422,1.695-0.186,2.694,0.166,4.41 c0.279,1.363-0.353,2.521-0.813,3.766c0.516,1.408,0.431,2.248,0.277,3.761l-0.63,0.813c-0.057,0.686-0.027,1.329-0.393,1.933 l-1.11,0.765c-0.18,0.646-0.259,1.28-0.75,1.771c0.04,0.834,0.19,1.561-0.376,2.271l0.33,1.189l-0.33-0.116l-0.033,0.579 l0.757,0.615c0.229,0.556,0.218,1.189,0.006,1.754l0.63,0.865l-0.752,0.904l0.02,1.023L990.683,790.376"/>
          <path fill="#009900" d="M983.898,768.255l-0.349-0.896l0.697-0.979l0.807,0.609c-0.323,0.512-0.385,1.145-0.232,1.729 l-0.621,0.051L983.898,768.255"/>
          <path fill="#009900" d="M966.158,789.694l0.664-0.581c-0.012-0.527,0.094-1.036,0.422-1.439l0.791,0.246l0.287-0.64 l0.578,0.641l0.674-0.057c0.592,0.479,1.191,0.322,1.877,0.556c0.794,0.273,1.578,0.884,2.311,1.294 c1.047,0.584,2.768,0.847,3.93,1.322l0.182,0.396l-0.178,1.357l0.273,0.516c-0.246,2.399-1.892,6.132-4.258,7.134 c-2.698,1.14-6.535,2.073-7.684-1.34l-0.352,0.302l-0.806-2.312c-1.543-1.021-1.744-2.918-1.853-4.618l1.181-0.644 l0.813,0.032L966.158,789.694"/>
          <polyline fill="#009900" points="962.766,766.819 961.948,767.649 960.961,766.409 961.645,765.567 962.27,765.516 &#10;&#9;&#9;&#9;&#9;&#9;&#9;&#9;962.858,766.278 962.766,766.819 &#9;&#9;&#9;&#9;&#9;&#9;"/>
          <path fill="#009900" d="M954.348,767.823c0.634-0.435,1.141-0.869,1.933-0.918l0.479,1.146 c-0.458,0.589-1.099,1.011-1.775,1.319l-1.309-0.445L954.348,767.823"/>
          <path fill="#009900" d="M1044.983,1056.687l-1.598,1.629l-1.719-0.957C1042.555,1056.588,1043.89,1056.762,1044.983,1056.687"/>
          <polyline fill="#009900" points="1039.391,1063.702 1040.162,1060.924 1042.5,1060.969 1043.213,1062.171 1042.727,1065.143 &#10;&#9;&#9;&#9;&#9;&#9;&#9;&#9;1041.273,1066.13 1039.797,1065.122 1039.391,1063.702 &#9;&#9;&#9;&#9;&#9;&#9;"/>
          <path fill="#009900" d="M952.84,789.463l-1.158-0.063c-0.547-0.621-0.658-1.504-0.699-2.299 c1.884,0.609,3.305,1.565,5.335,1.439l0.483,1.148c-1.37,0.844-2.236,0.947-3.826,1.068L952.84,789.463"/>
          <path fill="#009900" d="M956.214,923.332l-0.696-0.124c-0.4-0.529-0.52-1.176-0.297-1.8c1.738-1.303,2.9-2.583,4.396-4.051 l0.435-0.104l0.502,0.227l0.246,0.523l-0.104,0.848c-0.247,0.411-0.604,0.701-1.051,0.838c-0.116,1.721-1.3,3.353-2.547,4.424 l-0.593-0.108L956.214,923.332"/>
          <path fill="#009900" d="M937.891,769.06l-1.105,0.344c-0.633-0.477-0.779-1.305-1.064-2.018 c0.566-0.317,1.212-0.459,1.85-0.538l0.585,0.741L937.891,769.06"/>
          <path fill="#009900" d="M921.799,943.429l-0.043-0.989l1.098,0.414l0.936-0.479c0.484,0.447,0.604,1.073,0.444,1.701 l-0.798,0.097l-0.449-0.235l-0.701,0.27L921.799,943.429"/>
          <path fill="#009900" d="M921.803,940.679l-0.416-0.604c0.207-2.579-0.119-3.643-2.431-4.863l0.37-1.694 c0.875-0.265,1.73-0.369,2.638-0.48l0.102,0.823l-0.804,0.099l-0.225,0.293l0.68,0.83l1.611-0.064l-0.678,1.075l0.198,0.977 l0.8-0.728l0.604,1.054c1.083-0.053,2.164-0.202,3.252-0.189l0.398,1.334l-0.771,1.825l-0.78-0.375l-1.433,0.257l-0.059,0.814 l-0.892-0.623c-0.028-0.618-0.202-1.213-0.599-1.681l-0.824,0.101C922.493,939.53,922.219,940.155,921.803,940.679"/>
          <path fill="#009900" d="M917.778,930.931l-0.922-0.021c-0.33-0.219-0.664-0.438-0.999-0.659l0.257-0.269l1.03,0.085 l0.897-0.797l1.402,0.537l0.445-1.101l0.734,0.043l0.223,0.31l0.157-0.229l0.573,0.845l0.219-0.153l-0.094-0.54l0.331,0.141 l0.175-0.281l0.582,0.058l0.318-0.824l0.951,0.092l-0.018-0.388l-0.404-0.295l-0.781,0.256l-0.668-0.314l-0.256,0.896 l-0.34,0.016l-0.482-0.303l-0.125-0.379l-0.658-0.026l-0.195-0.524l-0.242,0.185l-0.301-0.539 c1.025-0.303,1.77-1.143,2.551-1.831l1.742-0.321l0.131-1.09l0.43-0.129l0.946-1.242l1.472,0.475l0.436-0.735l0.589-0.308 l0.321,0.665l0.315,0.04l0.19-0.572l-0.49-1.039c0.861-0.239,1.51-0.456,2.411-0.194c0.084-0.696,0.04-1.365,0.496-1.917 l0.296,0.041l0.152,0.794l0.949-0.772l0.19,0.08l0.182,1.234l0.474,0.228l0.227-0.918l0.555-0.381l-0.559-0.509 c0.178-0.543,0.24-1.108,0.083-1.658l1.378-1.586l0.742,0.486l0.051-0.452c0.758-0.648,1.709-0.972,2.609-1.364l0.165,0.264 l-0.54,1.166l0.119,0.746l-0.353,0.33l-0.235,1.262l0.416,0.027c0.031-0.59,0.293-1.154,0.764-1.507l0.15-0.701l0.356,0.768 l-0.084,0.825l0.512,0.331l0.575-0.861l0.404,0.086l0.145-0.336c-0.494-0.609-0.438-1.319-0.52-2.082l0.163,0.033l0.562,1.425 l0.351-0.179l-0.199-0.528l0.174-0.729l-1.326-1.642L940,912.008c0.747-0.308,1.125-1.092,1.596-1.717l0.24,0.049 c0.303,1.594,0.528,2.094,1.819,3.076c0.388,0.885-0.112,2.199-0.245,3.12l-2.305,1.699l-1.075-0.211l-0.837,0.445 c-0.832,1.44-1.629,2.902-2.424,4.362l-1.08,0.37l-0.274,0.316l0.368,0.689l-0.078,0.191 c-0.992,0.568-2.165,1.608-3.382,1.468l-0.477-0.258l0.157,1.74c-0.422,0.396-0.701,0.944-0.703,1.523l-1.687-0.289 l0.058,0.465c0.91,0.643,2.229,0.784,3.302,1.087l0.333,0.589l-0.771,0.331l-0.232,0.657 c-0.335,0.041-0.671,0.082-1.007,0.123l-0.541,0.693l-0.938-0.124l-0.104,0.192l0.408,0.79l-0.073,1.11l-1.338-0.438 l-0.577,0.179l-0.74-0.488l-0.461,0.318l0.07,0.358l0.546,0.144l0.379,0.554l0.31-0.038c0.348,0.692,0.795,1.367,0.917,2.14 l-0.592,0.071l-0.489-0.595l0.111-0.378c-0.334-0.232-0.729-0.367-1.149-0.382l-0.104,0.428l-0.887,0.033l-0.602-0.849 l-1.042-0.154l0.038-0.316l-0.55-0.46l0.383-0.074l0.098-0.247l-0.117-0.531l-0.484-0.126l0.216-0.162l-0.174-0.578 l-0.451,0.815l-0.491-0.147c0.187-1.06,0.344-1.46,1.001-2.299l-0.223-0.106l-0.838,0.656l-0.294-0.227l0.572-0.672 l-1.112-0.098l-0.079,1.058l0.202,0.337l-0.263,0.194c-0.399-0.629-1.026-0.734-1.692-0.971l-0.196,0.312l-1.579-0.016 L917.778,930.931"/>
          <path fill="#009900" d="M918.526,944.072l-0.254-1.442c0.457-0.656,1.076-1.133,1.682-1.649c0.206,1.68-0.197,2.6-0.904,4.123 L918.526,944.072"/>
          <path fill="#009900" d="M907.494,962.814c0.045-0.442,0.086-0.879,0.121-1.325l-1.086-1.806l0.15-1.141 c-0.807-1.57-0.545-2.891-0.469-4.656l0.447-0.424c0.973,0.396,2.202-0.056,3.191-0.21l0.452,0.885l-0.498,0.64l0.554,0.897 c-0.1,0.394-0.046,0.764,0.164,1.106l-0.279,0.273c0.851,1.191,2.492,2.205,3.782,2.837l0.288,0.859 c-0.378,1.008-0.535,1.662-0.557,2.738c-0.906,0.879-0.578,2.185-1.375,3.103c-0.849,0.082-1.475,0.521-2.188,0.947 c-0.423-0.001-0.787-0.162-1.079-0.467c-0.313-1.692-0.807-1.885-2.278-2.758 C906.849,963.746,907.117,963.248,907.494,962.814"/>
          <path fill="#009900" d="M894.714,985.471l0.495-0.429l0.941-0.037l3.086-2.371l0.998,0.013l0.088,0.511l-0.599,0.229 l-0.222,0.523l-0.906,0.528c-1.043,2.161-2.332,3.549-3.754,5.467c-2.85,0.525-4.045-1.447-3.459-4.052 C892.683,985.962,893.485,985.87,894.714,985.471"/>
          <polyline fill="#009900" points="871.731,1031.913 870.893,1032.355 870.579,1031.895 871.171,1031.191 871.731,1031.913 &#10;&#9;&#9;&#9;&#9;&#9;&#9;&#9;&#9;&#9;&#9;&#9;&#9;&#9;"/>
          <polyline fill="#009900" points="871.538,1033.976 871.662,1034.751 870.762,1034.909 870.321,1034.052 870.882,1033.504 &#10;&#9;&#9;&#9;&#9;&#9;&#9;&#9;871.538,1033.976 &#9;&#9;&#9;&#9;&#9;&#9;"/>
          <polyline fill="#009900" points="872.495,1050.907 871.814,1051.544 871.377,1050.759 872.049,1050.044 872.495,1050.907 &#10;&#9;&#9;&#9;&#9;&#9;&#9;&#9;&#9;&#9;&#9;&#9;&#9;&#9;"/>
          <polyline fill="#009900" points="871.928,1052.679 871.134,1053.483 870.629,1052.136 871.24,1052.001 871.928,1052.679 &#10;&#9;&#9;&#9;&#9;&#9;&#9;&#9;&#9;&#9;&#9;&#9;&#9;&#9;"/>
          <path fill="#009900" d="M866.679,1014.616l-0.581,0.825l-0.799-0.293C865.678,1014.815,866.167,1014.671,866.679,1014.616"/>
          <path fill="#009900" d="M864.73,1013.066l-0.378-1.156c1.044-1.738,2.232-3.172,3.077-5.013l1.382-0.249 c-0.453,1.206-0.803,2.374-1.126,3.621c-0.765,0.063-1.14,0.487-1.419,1.146 C865.951,1012.171,865.336,1012.522,864.73,1013.066"/>
          <path fill="#009900" d="M870.262,1056.185l-0.377-0.507c0.186-0.261,0.403-0.501,0.646-0.703l0.396,0.894L870.262,1056.185"/>
          <polyline fill="#009900" points="869.737,1054.258 869.221,1053.902 869.4,1053.435 870.342,1054.074 869.737,1054.258 &#9;&#9;&#9;&#9;&#9;&#9;&#10;&#9;&#9;&#9;&#9;&#9;&#9;&#9;"/>
          <polyline fill="#009900" points="865.588,1020.063 865.649,1020.556 864.951,1020.615 864.606,1019.947 865.169,1019.83 &#10;&#9;&#9;&#9;&#9;&#9;&#9;&#9;865.588,1020.063 &#9;&#9;&#9;&#9;&#9;&#9;"/>
          <polyline fill="#009900" points="870.504,1060.32 870.563,1060.571 870.141,1061.176 869.479,1060.702 869.385,1060.146 &#10;&#9;&#9;&#9;&#9;&#9;&#9;&#9;869.6,1059.749 870.16,1059.63 870.504,1060.32 &#9;&#9;&#9;&#9;&#9;&#9;"/>
          <path fill="#009900" d="M864.818,1016.775l1.048-0.413c0.159,0.85,0.37,1.682,0.574,2.524l-0.52,0.456 C864.76,1018.732,864.776,1017.958,864.818,1016.775"/>
          <polyline fill="#009900" points="863.975,1013.345 864.449,1013.782 864.035,1014.437 863.68,1014.357 863.533,1013.374 &#10;&#9;&#9;&#9;&#9;&#9;&#9;&#9;863.975,1013.345 &#9;&#9;&#9;&#9;&#9;&#9;"/>
          <path fill="#009900" d="M867.938,1065.427l0.565-0.096l0.562,0.324l-0.007,0.366c-0.396,0.166-0.773,0.36-1.138,0.582 C867.804,1066.21,867.803,1065.808,867.938,1065.427"/>
          <polyline fill="#009900" points="863.303,1035.567 863.379,1035.976 863.028,1036.751 862.588,1035.52 863.303,1035.567 &#10;&#9;&#9;&#9;&#9;&#9;&#9;&#9;&#9;&#9;&#9;&#9;&#9;&#9;"/>
          <polyline fill="#009900" points="859.273,1030.926 859.885,1030.56 860.918,1031.722 860.412,1032.512 857.5,1032.477 &#10;&#9;&#9;&#9;&#9;&#9;&#9;&#9;857.213,1032.279 856.997,1031.569 857.36,1030.898 859.273,1030.926 &#9;&#9;&#9;&#9;&#9;&#9;"/>
          <path fill="#009900" d="M862.09,1047.234l1.353-1.343l-0.172-0.943l0.354-0.333l0.34,0.222l0.157-0.199l-0.224-0.341 l0.135-0.179l0.232,0.182l0.367-0.204l0.432,0.315l0.503-0.162l0.688-0.794l0.684-0.214l0.567-1.327l0.837-0.025l0.706-0.45 l0.673-2.393l-0.137-0.267l-0.869-0.054l-0.22-0.285l-1.722-0.551l-0.868,0.369c-1.311-0.289-1.548-1.496-1.893-2.596 l0.46-0.948l-1.062-1.628l0.299-0.974c1.145,0.356,2.371,0.007,3.387-0.551l0.884,0.157l0.22,0.706l0.235-0.003l-0.077-0.411 l0.67,0.338l0.773-0.096l0.072,0.595c-0.531,0.551-0.549,1.217-0.677,1.941c0.604,0.161,1.193,0.438,1.56,0.964l0.738,0.036 c0.543-0.56,1.549-0.646,2.238-1.084c0.672-0.429,1.006-1.186,1.743-1.472l0.598,0.19l0.062-0.38l-0.905-0.332l-0.151-0.607 l0.635-1.416c0.82-0.562,1.371-0.932,1.795-1.841l-0.355-0.746l0.137-0.383l0.638,0.076c1.931-1.244,2.747-4.071,3.438-6.132 l-0.312-1.479c0.07-0.321,0.236-0.573,0.506-0.747l1.939,1.727l0.199-0.308l0.365-0.044l0.143,0.949l0.927,1.116l0.009,1.363 c1.73,1.906-0.699,3.42-0.632,5.317l-0.569,0.7c-0.264,2.289-2.252,5.969-5.2,4.774l-0.932,0.323l0.304,0.778l-0.121,0.723 l-1.032,0.099l-0.038,0.314l1.347,1.407c-0.511,0.858-1.943,2.104-2.901,2.377l-0.742-0.487l-1.815-0.063l-0.041,0.293 l0.813,1.283l-0.082,0.194l-0.553,0.201l-0.225,0.523l-0.652,0.004l-0.498,0.424l-0.492,0.035l-0.092,0.354l0.431,0.705 l-0.109,0.614l-0.661-0.054l0.082,0.438l-0.645,0.522l-1.053-0.047c0.047,0.47-0.064,0.903-0.342,1.271l0.41,0.578 l-0.205,0.259c-0.5,0.035-1.013-0.089-1.387-0.429l-0.963,0.038l-0.595-0.343c-1.298-0.078-1.865,0.724-2.573,1.651 l-0.092,0.748c0.408,0.992,1.654,1.224,2.365,2.007l0.284,1.642c0.907,0.812,3.188,2.025,2.679,3.493 c-1.303-0.479-2.189-1.379-3.237-2.274l-1.306,0.688l-0.068,0.296l0.755,0.587l-1.426,0.99 c-0.077,0.407,0.009,0.789,0.245,1.146c-0.62,0.895-0.992,1.628-1.352,2.656l0.23,0.598c-0.416,0.624-0.84,1.241-1.267,1.854 l0.111,0.25l0.481,0.075c0.157,0.503,0.332,0.993,0.519,1.48l0.589-0.122c0.182-0.559,0.68-1.012,1.207-1.252l0.396,0.006 l0.197,0.318l-0.062,0.348l0.489,0.593c-0.298,0.991-1.447,1.398-1.743,2.416l-1.041,0.075 c-0.746,1.046-1.487,2.089-2.234,3.129l-0.596,0.022l-1.305,0.892l-1.113-0.309l-0.315-0.435 c0.329-1.391,0.278-2.463,0.177-3.897l-0.678-0.409c-0.367-0.732-0.59-1.592-1.305-2.069l0.273-0.351l-0.006-0.494 c0.343-0.183,0.701-0.226,1.082-0.132l1.01,1.186l0.424-0.395l-1.156-1.06l0.098-0.299l0.711-0.381l-0.437-0.603 c0.077-0.878,0.715-1.733,1.103-2.516c0.369,0.045,0.74,0.071,1.109,0.072c0.695-1.083,1.624-2.135,0.91-3.466l-0.556-0.299 c-0.106-0.646-0.213-1.298-0.318-1.951l-0.565-0.324c-0.799-1.428-1.217-2.422-1.541-4.021l0.268-0.192l0.895,0.652 l0.333-0.041l1.41-1.113l0.715,0.277l0.633-0.181L862.09,1047.234"/>
          <polyline fill="#009900" points="845.607,1066.062 845.105,1066.467 844.709,1066.021 844.795,1065.222 845.459,1065.087 &#10;&#9;&#9;&#9;&#9;&#9;&#9;&#9;845.607,1066.062 &#9;&#9;&#9;&#9;&#9;&#9;"/>
          <path fill="#009900" d="M841.685,1065.914c-0.284,0.853,0.009,1.752,0.135,2.603c-0.191,0.355-0.442,0.668-0.75,0.933 c-0.451-0.744-0.585-1.434-0.49-2.292l-0.579-0.484c0.264-0.728-0.075-1.4,0.316-2.103 C840.923,1064.848,841.258,1065.409,841.685,1065.914"/>
          <polyline fill="#009900" points="838.906,1066.128 838.928,1066.731 838.444,1067.024 838.295,1066.048 838.906,1066.128 &#10;&#9;&#9;&#9;&#9;&#9;&#9;&#9;&#9;&#9;&#9;&#9;&#9;&#9;"/>
          <path fill="#009900" d="M838.553,1064.753c-0.226,0.314-0.512,0.56-0.849,0.733l-0.687-0.254 c0.074-0.835,0.59-1.233,1.14-1.793l0.799,0.951L838.553,1064.753"/>
          <polyline fill="#009900" points="838.378,1068.21 838.383,1068.705 838.063,1069.06 837.717,1068.607 837.682,1067.875 &#10;&#9;&#9;&#9;&#9;&#9;&#9;&#9;838.378,1068.21 &#9;&#9;&#9;&#9;&#9;&#9;"/>
          <polyline fill="#009900" points="837.373,1066.207 837.416,1066.989 836.725,1067.549 836.424,1066.385 837.373,1066.207 &#10;&#9;&#9;&#9;&#9;&#9;&#9;&#9;&#9;&#9;&#9;&#9;&#9;&#9;"/>
          <polyline fill="#009900" points="832.311,1042.5 832.854,1043.509 832.297,1044.1 831.602,1044.161 831.283,1043.283 &#10;&#9;&#9;&#9;&#9;&#9;&#9;&#9;831.562,1042.567 832.311,1042.5 &#9;&#9;&#9;&#9;&#9;&#9;"/>
          <path fill="#009900" d="M835.539,1069.004l-0.193,0.34l-0.503,0.164c-0.062-0.309-0.019-0.616,0.124-0.908L835.539,1069.004"/>
          <path fill="#009900" d="M835.116,1065.755l-0.188,0.391l-0.291,0.192c-0.076-0.35-0.109-0.703-0.104-1.056L835.116,1065.755"/>
          <polyline fill="#009900" points="830.024,1057.134 830.356,1057.934 829.779,1058.344 829.424,1058.251 829.287,1057.328 &#10;&#9;&#9;&#9;&#9;&#9;&#9;&#9;830.024,1057.134 &#9;&#9;&#9;&#9;&#9;&#9;"/>
          <polyline fill="#009900" points="816.758,1059.28 816.894,1060.203 816.098,1060.326 816.031,1059.554 816.758,1059.28 &#9;&#9;&#9;&#9;&#9;&#9;&#10;&#9;&#9;&#9;&#9;&#9;&#9;&#9;"/>
          <polyline fill="#009900" points="815.04,1060.667 815.317,1061.212 814.656,1061.396 814.539,1061.046 815.04,1060.667 &#9;&#9;&#9;&#9;&#9;&#9;&#10;&#9;&#9;&#9;&#9;&#9;&#9;&#9;"/>
          <path fill="#009900" d="M812.102,1063.166l0.287,0.435l-0.223,0.295c-1.31-0.22-2.482-1.912-3.41-2.78l-1.479-0.102 l-0.521-0.592l0.254-0.714l0.859-0.265c0.403-0.694,1.123-0.953,1.799-1.345l0.381,0.081l0.959,1.006l0.596,0.14l0.201,0.577 l0.71,0.439l-0.604,1.487L812.102,1063.166"/>
          <polyline fill="#009900" points="747.02,1153.52 746.651,1154.583 746.198,1154.091 746.376,1153.628 747.02,1153.52 &#9;&#9;&#9;&#9;&#9;&#9;&#10;&#9;&#9;&#9;&#9;&#9;&#9;&#9;"/>
          <path fill="#009900" d="M752.453,1165.344l1.676,0.45l0.998,1.709c-2.221,0.194-3.7,0.291-5.657,1.32l-0.55-0.033 l-0.988,0.486l-0.764-0.9l-0.938,0.27c-0.684-0.392-0.819-1.112-1.084-1.8l0.146-0.519l0.472,0.859l0.297,0.071l0.262-0.428 l-1.223-1.838c0.458-1.225,0.647-1.944,0.623-3.247l0.299,0.094l0.178-0.491c-0.627-1.008-2.194-2.556-2.391-3.688 l0.419,0.231l0.56-0.145c0.562,0.886,1.095,1.559,1.83,2.314c0.09,0.915,0.711,2.001,1.6,2.348l0.305,0.984l1.43,0.767 l1.221-0.097L752.453,1165.344"/>
          <polyline fill="#009900" points="743.977,1153.053 744.311,1154.3 743.797,1154.384 743.004,1154.089 742.871,1153.24 &#10;&#9;&#9;&#9;&#9;&#9;&#9;&#9;743.469,1152.984 743.977,1153.053 &#9;&#9;&#9;&#9;&#9;&#9;"/>
          <path fill="#009900" d="M742.405,1159.455l1.146,0.799l0.072,1.436l-1.376,0.117c-0.51-0.679-0.994-1.375-1.483-2.069 l-0.131-1.711C741.364,1158.364,741.906,1158.812,742.405,1159.455"/>
          <path fill="#009900" d="M740.185,1161.008l0.164,1.133l-0.774-0.142c-0.524-0.506-0.895-1.149-1.168-1.819l0.729-0.276 C739.531,1160.227,739.869,1160.604,740.185,1161.008"/>
          <polyline fill="#009900" points="717.564,1169.68 717.295,1170.472 716.289,1169.785 716.438,1169.029 717.564,1169.68 &#9;&#9;&#9;&#9;&#9;&#9;&#10;&#9;&#9;&#9;&#9;&#9;&#9;&#9;"/>
          <path fill="#009900" d="M719.068,1174.822l-0.528,0.822l-0.014,0.738l-0.614,0.102l-1.019-0.816l-0.13-0.848l0.288-0.635 c0.666-0.133,1.33-0.256,1.998-0.381L719.068,1174.822"/>
          <path fill="#009900" d="M692.717,1199.61c-0.871-0.63-2.264-0.9-2.931-1.685l0.357-0.723l0.777-0.487l-0.019-1.443 l-0.433-0.101c-0.163-0.728-0.727-1.162-1.458-1.211l-1.145,1.136l-0.619-0.576l0.234-1.502l0.998-0.193l0.615,0.497 l0.422-0.183c-0.082-0.532-0.031-1.085,0.198-1.57l-0.599-0.371l0.109-0.221l0.764,0.08l0.697,0.542l-0.225,1.16l0.199,0.154 l0.75-0.538l0.803,0.137c0.87-0.582,1.78-0.289,2.603-0.789c-0.714-1.504,0.495-2.839,1.288-4.006l0.924,0.694l0.137-0.171 c-0.131-0.791,0.322-1.472,0.624-2.173l-0.747-0.985c0.786-0.807,1.463-2.02,1.258-3.192l1.324,0.126 c0.171,0.771,0.169,1.476,0.012,2.251c-0.458,0.595-1.035,1.164-1.316,1.865l0.273,0.515l-1.041,1.752l-0.005,1.021 l-1.103,1.473c-0.096,0.536-0.062,1.07,0.189,1.553l-0.151,0.673c0.891,1.37,0.501,3.603,0.258,5.127l-0.505,0.378 l-0.365-0.011l-0.861-0.6l-0.254,0.081c-0.163,0.687-0.639,1.226-1.186,1.64L692.717,1199.61"/>
          <path fill="#009900" d="M689.733,1199.661l-0.864,1.048c-0.331-0.532-0.517-1.163-0.538-1.789l0.875-0.166L689.733,1199.661"/>
          <path fill="#009900" d="M686.41,1204.78l0.567,1.216l-0.526,0.827c-0.453,0.089-0.91,0.126-1.371,0.111l-0.698-1.191 l0.376-0.783C685.307,1205.019,685.876,1204.938,686.41,1204.78"/>
          <path fill="#009900" d="M684.739,1199.723l0.365,0.637l-0.672,0.708l-0.728-0.589l-1.239,0.361l-0.484-0.78l0.999-0.174 l-0.13-0.848c0.476-0.063,0.966-0.098,1.418,0.035L684.739,1199.723"/>
          <path fill="#009900" d="M677.938,1204.066l0.607,0.897c-0.289-0.417-0.744-0.682-1.242-0.738L677.938,1204.066"/>
          <polyline fill="#009900" points="674.268,1219.395 674.312,1218.082 675.239,1217.473 676.475,1217.976 676.864,1218.766 &#10;&#9;&#9;&#9;&#9;&#9;&#9;&#9;676.21,1219.634 675.498,1219.168 674.268,1219.395 &#9;&#9;&#9;&#9;&#9;&#9;"/>
          <path fill="#009900" d="M670.696,1202.678l0.311-0.036l0.309,0.825l0.171-0.102l0.378,1.162 c0.132-1.018-0.154-1.721-0.483-2.669l0.258-0.442l0.568,0.583l0.008-0.578l-1.051-1.08l0.254-0.714l-0.439-0.599l0.017-0.315 l0.312,0.015l0.127-0.906l0.608-0.595l0.194,0.316l-0.182,0.203l0.081,0.229l0.425,0.056l0.129,0.604l-0.138,0.362 l0.147,0.142l0.314-0.43l0.045-0.48c-0.481-0.449-0.522-1.072-0.826-1.623l-0.59-0.112l0.561-0.538l0.386-0.049l1.465,1.258 c0.002,0.501,0.161,0.947,0.475,1.334l0.278-0.09l0.459-0.952c0.566-0.061,1.124,0.012,1.586,0.332l0.535-0.562 c0.393,0.263,0.639,0.637,0.737,1.111l1.034-0.101l0.953,0.933l0.883,0.153c0.029,0.562-0.12,1.138-0.434,1.601l0.209,1.257 l-0.729-0.38l-0.439,1.285c0.133,0.655,0.39,1.27,0.178,1.918l-1.234-0.033l-0.607-0.897l-0.634,0.161 c0.501,0.055,0.955,0.321,1.241,0.736l0.158,0.874l-0.215,0.362c-0.856,0.106-1.553-0.422-2.299-0.789l-1.36,0.433 l-0.759-0.384l-1.211,0.149l-2.143-0.991l-0.25,1.13l-1.739,0.135l-1.327-1.411l0.333-0.515l0.681,0.229l0.007-0.577 l-0.327-0.324l0.203-0.472l1.037,0.317l0.139,0.69l0.197-0.103c-0.283-0.674-0.699-1.307-0.623-2.048l0.684,1.044l0.729-0.663 L670.696,1202.678"/>
          <polyline fill="#009900" points="663.719,1210.689 663.846,1211.539 663.078,1211.683 662.864,1211.005 663.719,1210.689 &#10;&#9;&#9;&#9;&#9;&#9;&#9;&#9;&#9;&#9;&#9;&#9;&#9;&#9;"/>
          <path fill="#009900" d="M629.935,1199.247l0.935-1.342c0.914,0.162,1.535-0.028,2.402-0.296l1.357,0.615l-0.9,1.63 c-0.901-0.516-1.971-0.092-2.921,0.1L629.935,1199.247"/>
        </g>
      </g>
    </g>
    <g>
      <path fill="#009900" d="M942.268,818.814c-0.753,0.255-0.892,1.196-1.238,1.839c0.809,0.076,0.529,0.658,1.01,0.889 c0.373,0.182,1.133,0.033,1.61,0.256C944.033,820.823,942.735,819.694,942.268,818.814"/>
    </g>
    <g>
      <path fill="#009900" d="M939.299,826.72c-0.989,1.002,0.219,2.191,0.852,3.017c0.186,0.244,0.711,0.701,0.959,0.499 c0.766-0.617,0.75-0.537,1.688-0.169c1.766,0.686-0.439-1.296-0.572-1.728C941.69,826.595,941.061,826.795,939.299,826.72"/>
    </g>
    <g>
      <path fill="#009900" d="M933.127,841.544c-0.316,0.373-0.812,1.674-0.154,1.906c0.934,0.332,0.383,0.996,1.523,1.345 c0.676,0.207,0.855-3.552,0.893-4.094C934.547,840.697,933.856,841.177,933.127,841.544"/>
    </g>
    <g>
      <path fill="#009900" d="M922.34,827.001c0.426,0.787,1.354,2.562,1.758,0.572C923.498,827.305,922.998,827.028,922.34,827.001"/>
    </g>
    <g>
      <path fill="#009900" d="M925.122,840.499c-0.657-0.104-0.993,0.239-0.903,0.898C924.782,841.517,925.008,841.06,925.122,840.499 "/>
    </g>
    <g>
      <path fill="#009900" d="M930.206,853.495c-1.064-0.529-1.041,0.624-0.528,1.189 C930.672,855.771,931.108,854.216,930.206,853.495"/>
    </g>
    <g>
      <path fill="#009900" d="M917.6,870.914c0.016-0.187,0.029-0.378,0.044-0.569c-0.227-0.002-0.567,0.016-0.778,0.096 C917.106,870.595,917.341,870.796,917.6,870.914"/>
    </g>
    <g>
      <path fill="#009900" d="M912.35,875.835c0.045-0.271-0.073-0.606-0.108-0.888c-0.565,0.112-1.121,0.337-1.608,0.648 c0.565,0.393,1.133,0.779,1.717,1.143C912.35,876.448,912.409,876.112,912.35,875.835"/>
    </g>
    <g>
      <path fill="#009900" d="M903.082,895.659c-0.064,0.239-0.011,0.538-0.014,0.791c0.222-0.027,0.441-0.055,0.665-0.082 C903.52,896.135,903.331,895.839,903.082,895.659"/>
    </g>
    <g>
      <path fill="#009900" d="M903.701,897.946c-0.773-0.358-1.332,0.211-1.457,0.965c0.609-0.223,1.263-0.282,1.896-0.119 C903.997,898.518,903.891,898.185,903.701,897.946"/>
    </g>
    <g>
      <path fill="#009900" d="M871.972,958.513c-0.774,0.115-0.35,0.937,0.055,1.36c0.156-0.096,0.321-0.188,0.479-0.283 C872.107,959.238,872.182,958.94,871.972,958.513"/>
    </g>
  </g>
  <text x="877.158" y="808.011" style="white-space: pre; fill: rgb(51, 51, 51); font-family: sans-sarif; font-weight: bold; font-size: 14.8px;">鹿児島県</text>
  <text x="815.156" y="1120.051" style="white-space: pre; fill: rgb(51, 51, 51); font-family: sans-sarif; font-weight: bold; font-size: 15.7px;">沖縄県</text>
</svg>