<?xml version="1.0" encoding="utf-8"?>
<svg viewBox="397.767 900.544 29.793 48.809" width="29.793" height="48.809" xmlns="http://www.w3.org/2000/svg" xmlns:bx="https://boxy-svg.com">
  <path fill="#7272FF" d="M398.681,947.124l-0.02,0.618l-0.062,0.68l0.499,0.312l0.202,0.619l0.605-0.131l0.521,0.089l0.291-0.542 l0.472-0.224l0.786,0.178l0.525-0.144l0.539-0.065l0.342-0.453l0.566-0.152l-0.04-0.656l0.097-0.604l0.559,0.129l0.568,0.121 l0.443-0.376l0.38-0.426l0.483-0.213l0.689,0.125l0.584-0.406l0.288,0.599l0.357,0.487l0.41-0.367l0.188-0.66l0.531-0.126 l0.632-0.188l0.316-1.162l0.545,0.194l0.501-0.15l0.558,0.072l0.709-0.019l0.487-0.207l0.715-0.736l0.91-0.024l0.335-0.505 l0.948-0.24l0.518,0.06l0.455-0.362l0.561-0.658l0.423,0.44l0.63,0.629l0.678-0.01l0.575-0.644l0.418-0.359l0.628-0.199 l0.396-0.438l0.394-0.479l0.438-0.326l0.576-0.043l0.458-0.335l0.532,0.095l0.63-0.49l0.543,0.022l0.524-0.12l0.943-0.909 l0.522-0.228l-0.081-0.858l-0.449-0.358l0.298-0.528l0.269-0.528l0.12-0.616l-0.149-0.619l-0.064-0.877l-0.189-0.598l-0.176-0.853 l-0.384-0.489l0.089-0.687l-0.086-0.701l-0.783-0.236l-0.585-0.941l0.144-0.582l0.188-0.609l0.507-0.351l0.337-0.927l-0.305-0.583 l-0.39-0.49l-0.489,0.169l-0.508-0.234l0.299-0.528l0.02-0.612l0.041-1.164l0.036-0.604l0.259-1.144l0.128-0.604l-0.329-0.595 l0.127-0.945l0.416-0.393l0.381-0.441l0.381-0.462l-0.262-0.587l-0.137-0.938l0.501-0.258l-0.123-0.646l-0.011-1.072l0.928,0.048 l0.327-0.481l0.282-0.549l-0.062-0.641l-0.427-0.499l-0.785-0.686l-0.456-0.585l-0.354-0.498l-0.476-0.293l-0.52-0.07 l-0.093-0.612l-0.395-0.428l-0.303-1.053l-0.33-0.513l-0.645-0.298l-0.563-0.271l-0.227-0.608l-0.482-0.579l-0.544-0.223 l-0.507,0.099l-0.59-0.647l0.124-0.628l-0.305-0.931l-0.502,0.062l-0.47,0.218l-0.483-0.306l-0.479,0.204l-0.062,0.631 l-0.23,0.591l-0.157,0.609l0.93,0.264l0.171,0.665l-0.348,0.624h-0.562l-0.518,0.122l-0.527,0.169l-0.362-0.617l-0.746-0.278 l-0.43-0.463l-0.468-0.266l-0.612,0.343l-0.5-0.859l-0.049-0.972l-0.265-0.569l0.285-0.524l-0.495-0.266l-0.573,0.043 l-0.472-0.258l-0.586-0.1l-0.538-0.204l-0.529,0.166l-0.569,0.24l-0.474-0.444l-0.479,0.267l-0.523-0.099l-0.519-0.209 l-0.053-0.995l-0.665-0.815l-0.633-0.212l-0.49,0.231l-0.484,0.275l-0.183,0.615l0.355,0.463l0.744,0.006l0.057,0.652l0.011,0.654 l0.106,0.622l0.343,0.506l-0.419,0.384l-0.08,0.618l0.45,0.335l0.391,0.443l0.56-0.029l0.524-0.187l0.293,0.536l0.535,0.104 l0.645-0.126l0.474,0.539l0.544-0.162l0.512-0.113l0.54,0.126l0.928,0.194l-0.211,0.694l-0.543-0.029l-0.622,0.076l-0.444,0.326 l-0.366,0.516l0.54,0.438l0.637,0.046l-0.038,0.695l-0.202,1.237l-0.024,0.637l-0.409,0.341l0.086,0.612l0.021,1.183l-0.011,0.65 l0.852,0.766l0.53,0.435l0.218,0.585l0.049,0.606l0.638,0.522l0.419,1.598l0.41,2.007l-0.034,0.574 c0.661-0.413,1.334-0.763,1.755-0.791c-0.619,0.474-1.238,0.872-1.86,1.249l-0.168,0.266l0.044,0.282l0.007,0.057l0.018-0.001 l-0.468,0.984c0.024-0.022,0.043-0.045,0.068-0.061l-0.018,0.287c-0.1,0.122-0.22,0.236-0.333,0.355l-0.03,0.063l-0.077,0.052 c-0.26,0.265-0.538,0.512-0.859,0.685l1.039,0.343c0.396-0.16,0.705-0.427,0.926-0.792l0.138,0.06 c-0.163,0.316-0.415,0.573-0.722,0.742l0.121,0.771l-0.281,0.035l0.072,0.176c0.405,0.052,0.825,0.01,1.218-0.125 c-0.383,0.234-0.799,0.343-1.244,0.315l-0.015,0.523l-0.249-0.104l-0.084-0.46l-0.304,0.063l0.31-0.245l-0.095-0.775l-0.408-0.132 l-0.506,0.139l-0.382-0.111l-0.913,0.456l0.01,0.494l0.307-0.036l0.399-0.392l0.113,0.064l-0.373,0.387l0.165,0.269l0.544-0.041 l0.02,0.154l0.526-0.196l-0.013,0.525l0.145,0.112l-0.282,0.035l-0.059-0.255l-0.216-0.053l-0.011,0.343l-0.238,0.003l-0.091-0.33 l-0.893,0.006l0.227,0.548c1.156-0.045,2.742-0.54,3.508,0.618l-0.208,0.648l-0.21,0.001l-0.413-0.813l-0.809-0.395l0.293,0.88 l-0.14,0.178l-0.493-0.393l-0.682,0.402l0.096,0.565c0.688,0.285,1.484,0.289,2.22,0.384c-0.35,0.724-0.698,1.445-1.044,2.168 l-0.796,0.335l0.207,0.394l-0.912,0.058l-0.153,1.094l-0.3,0.11L411,933.705l-0.231,0.446l0.361,0.167l0.176,0.583l-0.573,0.012 l-0.246,0.346l0.428,0.077l-0.596,0.469l-0.075,0.689l-0.151-0.14l-0.312,0.431l0.163,0.27l-0.608,0.15l-0.176,0.521l-0.454,0.135 l0.174,0.552l-0.327,0.122l-0.021,0.472l-0.566,0.28c-1.305,2.08-3.502,4.235-5.56,5.502l-0.717-0.067 c-0.653,0.27-1.235,0.713-1.536,1.365l-0.68-0.205l-1.092,0.267l-0.569,0.696l-0.045,0.05l0.182,0.07L398.681,947.124z"/>
  <text style="fill: rgb(255, 255, 255); font-family: sans-sarif; font-weight: bold; font-size: 10.7px; white-space: pre;" x="413.935" y="918.51" dx="0.045 -10.36 -12.132" dy="-1.283 10.602 10.978">大阪府</text>
</svg>