<?xml version="1.0" encoding="utf-8"?>
<svg viewBox="134.972 1025.426 39.063 34.783" width="39.063" height="34.783" xmlns="http://www.w3.org/2000/svg">
  <path fill="#009900" d="M164.866,1047.939l-0.077-0.902l-0.406-0.646l0.87,0.426l0.329,0.963l0.407-0.11l0.106-1.526l0.035-1.347 l-0.014-0.622l0.486-1.127l0.215-0.744l0.487-1.016l0.495-0.449l0.735-0.807l0.885-0.556l0.615-0.601l0.613-0.837l0.318-0.829 l0.637-0.187l0.164-0.676l0.391-0.543l0.497-1.186l1.322-0.068l-0.01-0.656l0.069-0.747l-0.202-2.146l-0.157-1.183l-0.359-1.113 l-0.508-0.231l-0.616-0.185l-0.524,0.151l-0.816,0.478l-0.491,0.244l-0.457,0.338l-0.439,0.816l-0.558,0.209l-0.295,0.497 l-0.509,0.911l-0.871-0.528l-0.379-0.521l-0.585-0.597l-0.611,0.034l-0.881-0.35l-0.526,0.116l-0.481-0.329l-0.51-0.186 l-0.542-0.419l-0.571-0.314l-0.527-0.151l-0.613,0.047l-0.413-0.388l-0.544-0.261l-0.529-0.232l-0.666,0.29l-0.468,0.388 l-0.53-0.154l-0.568-0.052l-0.563-0.111l-0.63-0.023l-0.438,0.346l-0.364,0.535l-0.886,0.159l-0.466-0.386l-0.517-0.119 l-0.435,0.359l-1.035-0.034l-0.841,0.066l-0.376,0.427l-0.562,0.08l-0.607,0.117l-0.691-0.114l-0.491,0.248l-0.675-0.014 c0.001,0.158-0.001,0.311,0.031,0.47l-0.7,0.716l-1.972,0.161l0.496,0.624l0.041,0.542l-0.856-0.993l-0.042-0.34 c-0.315-0.053-0.631-0.046-0.94,0.043l-0.473-0.467l-0.584-0.06c-0.163-0.603-0.095-1.224,0.09-1.818l0.732-0.433l-0.641-0.548 l-0.206-0.814l-0.872-0.495l-0.179-1.023l-0.667,0.554l-0.583-0.27l-0.146,0.307l-0.384-0.136l-0.48,0.577l0.264,0.442 l-0.475-0.046l-0.083,1.031l-0.091-0.745c-0.569-0.281-0.894-0.775-1.184-1.325l-0.407-0.106l-0.059,0.791 c0.385,0.324,0.611,0.745,0.675,1.255l-0.831-0.162l0.431,0.29l-0.103,0.251l0.669,0.334l0.097,0.354l-0.122,0.304l-0.588-0.529 l-0.477-0.048l0.104,1.272l0.39,0.397l-0.351,0.356l0.32,0.246l0.409-0.288c0.275,0.216,0.454,0.493,0.521,0.828l-0.343,0.622 l0.083,0.249l-0.604,0.18l-0.184-1.052l-0.67-0.335l-0.244-0.727l-0.662-0.054l-0.554,1.038l0.627,0.631l-0.291,0.193l-0.357-0.14 l-0.315,0.434l0.267,0.464l1.169,0.564l0.29,0.436l0.508,0.066l0.12,0.566l1.354,0.353l0.391-0.462l0.37,0.242 c-0.04,0.635,0.072,1.31,0.337,1.896l-0.681,0.869l-0.026,0.005l0.026-1.079l-0.83-0.341l-0.112,0.354l-0.202-0.134l-0.367-1.29 l-1.717-0.104l0.681,0.41c-0.163,0.729,0.153,1.374,0.361,2.083l-0.313,0.455l0.43,0.734l0.516-0.507l-0.07-0.571l0.47,0.206 l0.275-0.324l0.402,0.084l0.145,0.326l0.122,0.561l-0.266,0.189l0.318,0.671l-0.413,0.26l0.391,0.212l-0.324,0.985l-0.36,0.255 c0.989,0.318,1.452,0.83,2.156,1.562l-0.58-0.031l-0.312-0.407l-0.622,0.051c-0.752-0.313-1.456-1.046-1.563-1.854l-1.052-0.864 l0.126,0.799c-0.035-0.267-0.101-0.53-0.146-0.794l-0.051,0.029l0.012,0.011l-0.775,0.807l-0.229,0.585l-0.037,0.683l-0.17,0.669 l0.307,0.694l0.438,0.499l0.683,0.839l0.547,0.365l0.699,0.538l0.466,0.32l-0.146,0.802l0.021,0.744l0.078,0.64l0.394,0.44 l0.126,0.623l0.5,0.318l0.499,0.26l0.599-0.212l0.864,0.247l0.562,0.277l0.716,0.169l0.523,0.032l0.548-0.021l0.515-0.142 l0.497-0.283l0.531-0.163l0.5,1.101l0.265,0.632l0.431,0.425l-0.109,1.121l-0.838,0.055l-0.475,0.379l-0.023,0.946l0.57,0.169 l0.404,0.622l0.443,0.322l0.587,0.195l0.576,0.107l0.615,0.203l0.443,0.354l0.464,0.383l0.146,0.604l0.492,0.505l0.587,0.386 l0.622-0.162l0.294,0.541l0.496,0.301l0.532,0.521l0.455,0.387l0.853-0.121l0.527,0.453l1.169,0.134l0.531,0.081l0.537,0.024 l0.54,0.079l0.569-0.239l0.384,0.464l0.538,0.046l0.515-0.128l0.596,0.054l0.531-0.017l0.418,0.022l0.446,0.195l0.929-0.656 c-0.604-0.479-1.236-0.953-1.978-1.173c-0.226-1.112-1.123-2.39-1.725-3.374c-0.719-1.183-1.617-2.354-2.9-2.943l-0.076-0.408 l0.366-0.205l0.002-0.421l-0.399-0.473l0.456-0.132l-0.127-0.612l0.748,1.191l0.573,0.189c0.286-0.394,0.418-0.891,0.354-1.379 l0.981-0.329c0.208-0.841,0.416-0.807,0.751-1.564l-0.252-0.358l0.738-0.978l-0.24-0.447l-1.024-0.236l0.755-0.462 c0.445,0.119,0.896,0.234,1.35,0.332l-0.04-0.548l0.485,0.126l-0.054,0.635c0.366,0.172,1.053,0.181,1.189,0.559 c0.375,0.17,1.01,0.328,1.36,0.541l0.352,0.744c0.478-0.05,0.507,0.28,0.956,0.458l0.22-0.162L164.866,1047.939z"/>
</svg>
