<?xml version="1.0" encoding="utf-8"?>
<svg viewBox="569.496 802.149 61.167 29.637" width="61.167" height="29.637" xmlns="http://www.w3.org/2000/svg">
  <polygon fill="#79FF76" points="615.738,802.472 615.352,803.437 615.123,804.041 614.551,804.175 613.91,804.628 &#10;&#9;&#9;&#9;613.405,804.252 612.972,803.841 612.432,803.59 611.921,803.652 611.473,804.047 610.676,804.317 610.147,804.628 &#10;&#9;&#9;&#9;609.592,804.939 609.01,805.085 608.389,805.11 607.409,805.293 606.721,805.501 606.042,805.606 605.526,805.525 &#10;&#9;&#9;&#9;604.991,805.284 604.453,804.897 603.448,804.153 602.446,803.725 601.897,803.426 600.965,802.817 600.381,802.768 &#10;&#9;&#9;&#9;599.818,802.959 599.239,803.226 598.808,803.609 597.687,803.648 596.844,803.339 596.221,803.218 594.729,803.768 &#10;&#9;&#9;&#9;592.731,802.923 591.761,802.734 591.242,802.594 590.09,802.159 589.375,802.149 588.281,802.246 587.896,802.92 587.42,803.459 &#10;&#9;&#9;&#9;587.108,804.705 586.728,805.544 586.518,806.146 586.092,807.094 585.724,807.564 585.678,808.37 585.504,808.962 &#10;&#9;&#9;&#9;585.946,809.898 585.256,810.423 585.104,811.922 584.567,812.061 584.1,811.742 583.465,811.915 582.817,812.397 &#10;&#9;&#9;&#9;581.186,812.586 580.953,813.679 580.641,814.215 580.24,814.681 579.752,815.099 578.721,815.043 578.222,815.117 &#10;&#9;&#9;&#9;577.682,815.454 577.067,815.771 576.434,816.191 576.135,816.704 575.655,816.886 575.522,817.562 575.135,818.004 &#10;&#9;&#9;&#9;574.926,818.541 574.389,818.999 573.801,819.17 573.303,819.416 572.778,819.347 572.271,819.158 571.728,819.201 &#10;&#9;&#9;&#9;571.219,819.451 571.055,820.081 570.948,820.718 570.607,821.196 570.115,821.98 569.602,822.203 569.496,823.414 &#10;&#9;&#9;&#9;569.749,823.957 570.223,824.297 570.606,824.772 570.958,825.245 571.166,825.862 570.928,826.569 570.805,827.243 &#10;&#9;&#9;&#9;571.373,827.384 572.342,827.469 572.847,827.602 573.485,827.512 573.941,827.809 574.214,828.449 574.448,829.008 &#10;&#9;&#9;&#9;575.061,829.164 575.804,829.342 576.388,829.415 576.874,829.225 577.483,829.135 577.992,829.479 578.908,830.077 &#10;&#9;&#9;&#9;579.437,830.268 579.932,829.986 580.426,829.644 580.957,829.578 581.503,829.606 582.141,829.202 582.174,828.558 &#10;&#9;&#9;&#9;582.487,828.022 583.031,827.696 583.477,827.324 583.996,827.32 584.62,827.085 585.202,826.232 585.865,826.124 &#10;&#9;&#9;&#9;586.414,826.438 586.901,826.704 587.358,827.095 587.852,827.266 588.381,827.396 588.866,827.115 589.425,827.328 &#10;&#9;&#9;&#9;589.948,827.448 590.584,827.563 591.108,827.488 591.673,827.443 592.212,827.45 592.727,827.633 593.199,827.94 &#10;&#9;&#9;&#9;593.891,828.175 594.401,828.405 595.032,828.537 595.469,828.211 596.012,828.11 596.598,828.379 597.117,828.325 &#10;&#9;&#9;&#9;597.657,828.422 598.387,828.355 598.895,828.098 599.43,828.041 599.955,828.125 600.496,828.241 600.668,828.849 &#10;&#9;&#9;&#9;601.231,828.722 601.518,829.673 601.813,830.298 602.74,830.412 603.36,830.396 603.873,830.436 604.276,830.911 604.97,831.388 &#10;&#9;&#9;&#9;605.418,831.786 606.012,831.617 606.551,831.573 607.922,831.319 608.645,831.292 609.08,830.935 609.653,830.774 &#10;&#9;&#9;&#9;610.048,830.348 610.767,830.344 611.25,830.08 611.684,829.674 612.182,829.416 612.514,828.909 613.152,829.906 &#10;&#9;&#9;&#9;612.816,830.362 613.49,831.014 614.271,831.025 614.872,830.551 615.239,830.089 615.74,829.8 616.689,830.192 617.231,830.348 &#10;&#9;&#9;&#9;617.315,829.63 617.596,829.055 617.953,828.519 618.727,828.116 619.251,828.021 619.783,828.031 620.319,827.824 &#10;&#9;&#9;&#9;620.85,827.911 621.881,828.149 622.772,828.235 623.408,828.356 623.912,828.014 623.774,827.379 623.676,826.743 &#10;&#9;&#9;&#9;624.231,826.348 624.805,826.716 625.457,826.916 625.993,826.773 626.766,826.405 627.324,827.394 627.805,827.145 &#10;&#9;&#9;&#9;628.311,827.033 629.089,827.127 629.688,826.924 630.5,826.149 630.576,825.482 630.259,824.19 630.466,823.523 630.663,822.729 &#10;&#9;&#9;&#9;630.389,822.09 630.145,821.45 629.813,820.877 629.361,820.384 628.994,819.863 627.821,818.651 627.316,818.335 &#10;&#9;&#9;&#9;626.957,817.842 626.622,817.099 625.749,815.649 625.34,815.18 625.285,814.425 625.164,813.179 624.894,812.578 &#10;&#9;&#9;&#9;624.171,812.006 623.609,811.487 623.264,811.017 622.881,810.243 622.637,809.285 621.736,810.287 620.699,810.173 &#10;&#9;&#9;&#9;620.071,809.154 619.715,808.344 619.253,807.949 618.932,807.293 618.526,806.814 618.149,806.249 617.871,805.528 &#10;&#9;&#9;&#9;617.668,804.741 617.732,804.005 618.035,803.241 616.287,802.748 &#9;&#9;"/>
</svg>