<?xml version="1.0" encoding="utf-8"?>
<svg viewBox="424.624 855.648 36.38 56.495" width="36.38" height="56.495" xmlns="http://www.w3.org/2000/svg">
  <polygon fill="#7272FF" points="457.289,883.132 456.811,882.728 456.444,882.21 457.202,881.577 457.076,880.974 &#10;&#9;&#9;&#9;457.078,880.312 456.965,879.208 457.425,878.472 457.642,877.806 457.563,877.156 457.633,876.521 457.785,875.44 &#10;&#9;&#9;&#9;457.346,875.066 457.307,874.389 457.828,874.212 458.381,873.801 458.598,873.09 458.172,872.689 457.664,872.437 &#10;&#9;&#9;&#9;457.291,871.832 456.965,871.139 457.033,870.529 457.217,869.882 457.047,869.249 456.889,868.566 456.309,868.528 &#10;&#9;&#9;&#9;455.796,868.158 455.395,867.636 455.066,867.141 455.425,866.227 455.586,865.499 455.408,864.818 454.884,864.788 &#10;&#9;&#9;&#9;454.385,864.444 454.113,863.793 453.76,863.225 453.188,863.946 453.125,864.561 452.403,864.759 452.207,864.151 &#10;&#9;&#9;&#9;451.698,864.017 451.016,864.089 451,863.456 451.126,862.486 451.02,861.79 450.901,861.182 450.63,860.638 450.831,860.003 &#10;&#9;&#9;&#9;450.283,859.724 449.832,860.012 449.117,860.037 448.842,859.479 448.451,859.009 448.392,858.344 448.095,857.437 &#10;&#9;&#9;&#9;447.112,857.145 446.399,857.022 445.912,856.653 445.324,856.727 444.537,856.484 444.014,856.362 443.716,855.851 &#10;&#9;&#9;&#9;443.153,855.648 442.548,855.785 442.037,856.167 441.477,856.2 441.413,856.857 441.098,857.442 440.882,857.993 &#10;&#9;&#9;&#9;441.356,858.304 441.789,858.662 441.983,859.304 442.326,859.851 442.5,860.509 442.936,860.996 443.235,861.586 &#10;&#9;&#9;&#9;443.569,862.168 443.327,862.827 443.382,863.456 443.44,864.09 442.371,863.893 441.826,863.724 441.288,863.764 &#10;&#9;&#9;&#9;440.496,863.631 440.465,864.698 440.387,865.345 439.938,866.442 439.432,866.231 438.958,866.547 438.719,867.092 &#10;&#9;&#9;&#9;438.185,866.886 437.672,866.779 437.176,866.974 436.639,867.174 436.346,867.871 436.039,868.423 435.743,869.523 &#10;&#9;&#9;&#9;435.218,869.659 434.598,869.922 434.131,869.623 433.19,869.151 432.764,868.738 432.362,868.212 432.069,868.763 &#10;&#9;&#9;&#9;431.945,869.377 431.801,870.08 431.474,870.534 431.401,871.196 431.34,871.995 431.324,872.684 431.311,873.343 431.32,873.968 &#10;&#9;&#9;&#9;430.837,874.261 430.481,874.709 430.533,875.529 430.129,875.886 429.681,876.216 429.164,876.424 428.671,876.142 &#10;&#9;&#9;&#9;428.143,875.524 427.624,875.561 427.034,875.458 426.452,875.715 426.395,876.335 426.462,876.996 426.073,877.399 &#10;&#9;&#9;&#9;425.541,877.377 425.11,878.193 424.872,878.775 424.624,879.389 425.022,880.146 425.466,880.471 425.907,880.921 &#10;&#9;&#9;&#9;426.782,881.52 427.168,882.023 427.603,882.481 427.846,883.14 428.228,883.683 428.756,883.884 429.287,883.515 429.28,884.388 &#10;&#9;&#9;&#9;429.187,885.029 429.026,886.185 429.114,886.803 428.752,887.288 428.966,887.871 429.277,888.466 429.596,889 429.601,889.623 &#10;&#9;&#9;&#9;429.857,890.231 430.209,890.764 430.476,891.297 430.314,891.926 430.548,892.507 430.502,893.15 430.333,893.749 &#10;&#9;&#9;&#9;430.288,894.385 430.051,894.978 430.219,895.801 430.083,896.427 430.282,897.009 429.894,897.411 429.469,897.756 &#10;&#9;&#9;&#9;429.585,898.375 430.068,898.828 430.471,899.278 430.389,899.937 430.6,900.635 431.492,901.381 431.904,901.801 &#10;&#9;&#9;&#9;431.993,902.443 432.4,902.861 432.887,903.116 433.336,904.189 433.135,904.786 433.093,905.548 432.949,906.167 &#10;&#9;&#9;&#9;433.081,906.997 433.573,907.284 434.12,907.393 434.508,907.908 435.041,907.95 435.373,907.503 435.813,907.126 &#10;&#9;&#9;&#9;436.267,906.851 436.817,906.767 437.075,907.375 437.172,908.408 437.425,908.955 438.191,908.728 438.689,909.096 &#10;&#9;&#9;&#9;439.083,909.592 439.561,909.353 440.059,909.085 440.431,909.715 440.854,910.142 441.378,910.076 441.836,910.408 &#10;&#9;&#9;&#9;441.246,911.172 441.283,911.846 441.744,912.143 442.254,911.961 442.692,911.574 443.239,911.444 443.744,911.333 &#10;&#9;&#9;&#9;444.181,911.001 444.653,910.768 445.033,910.321 444.978,909.67 444.703,909.03 445.262,908.752 445.63,908.351 445.746,907.702 &#10;&#9;&#9;&#9;446.488,907.191 446.202,906.582 445.703,906.829 445.126,906.854 444.599,906.646 444.334,906.031 444.84,905.734 &#10;&#9;&#9;&#9;445.422,904.886 445.731,905.442 446.377,905.759 446.881,905.545 447.386,905.817 447.903,905.631 448.477,905.409 &#10;&#9;&#9;&#9;449.004,905.389 449.409,905.86 449.961,906.161 450.524,906.312 451.155,906.421 452.137,906.624 452.65,906.646 &#10;&#9;&#9;&#9;453.214,906.443 453.701,906.131 454.014,905.648 454.938,905.585 455.444,905.314 455.852,904.888 456.162,904.31 &#10;&#9;&#9;&#9;456.645,904.103 457.131,903.821 457.915,903.421 458.319,903.043 458.479,901.924 458.423,901.271 458.565,900.631 &#10;&#9;&#9;&#9;458.94,900.188 459.512,899.703 459.78,899.084 460.058,898.521 460.24,897.586 460.355,896.786 460.147,895.892 460.293,895.274 &#10;&#9;&#9;&#9;459.924,894.768 459.913,894.078 460.186,893.491 460.637,893.115 460.911,892.595 460.613,892.067 460.649,891.086 &#10;&#9;&#9;&#9;460.697,890.431 460.523,889.744 460.709,889.15 460.2,888.889 460.504,888.377 460.517,887.715 461.004,887.483 460.904,886.846 &#10;&#9;&#9;&#9;459.95,886.326 459.518,885.894 458.965,885.865 458.551,885.118 458.637,884.433 458.499,883.744 457.922,883.44 &#9;&#9;"/>
</svg>