<?xml version="1.0" encoding="utf-8"?>
<svg viewBox="221.37 834.26 78.992 133.795" width="78.992" height="133.795" xmlns="http://www.w3.org/2000/svg">
  <path fill="#FF9141" d="M222.197,946.074l0.513,1.242l0.377,0.505l0.184,0.579l-0.049,0.776l0.327,0.562l0.566,0.059l0.396,0.453 l0.183,0.592l0.116,0.605l0.326,0.852l-0.444,0.416l-0.597,0.132l0.016,0.861l0.253,0.574l-0.068,0.68l-0.367,0.521l-0.534,0.325 l-0.361,0.435l-0.231,0.539l0.566,0.44l0.196,0.616l0.502,0.281l0.552,0.243l-0.236,0.577l0.188,0.702l-0.015,0.632l0.322,0.532 l0.523,0.118l0.651,0.114l0.512-0.223l0.518,0.071l0.348-0.494l0.511,0.1l0.486-0.182l0.559-0.057l0.696-0.138l0.097,0.6 l-0.253,1.048l-0.055,0.64l-0.462,0.39l-0.325,0.628l0.077,0.806l0.24,0.658l0.542,0.619l-0.098,0.626l0.544,0.431l0.569,0.203 l0.271,0.572l0.687,0.207l0.429,0.513l0.695-0.576l0.578-0.039l0.536,0.218l0.875-0.191l0.607-0.531l0.202-0.583l0.508,0.238 l0.479-0.537l0.397-0.667l0.553,0.179l0.489,0.315l0.439,0.364l0.503,0.537l0.283-0.536l0.432-0.545l0.086-0.627l0.262-0.538 l0.369-0.552l0.438-0.85l0.56-0.121l-0.043-0.649l-0.314-0.507l-0.353-0.543l-0.283-0.675l-0.442-0.421l0.286-0.857l0.481-0.29 l0.376-0.415l-0.073-0.674l0.235-0.605l0.436-0.347l0.444-0.387l0.725-0.072l0.333-0.585l-0.358-0.513l-0.237-0.598l-0.858-0.344 l0.323-0.529l0.02-0.635l0.229-0.575l0.476-0.276l0.532-0.146l0.47-0.207l0.284-0.534l0.366-0.501l0.396-0.44l0.353-0.447 l0.057-0.704l0.25-0.614l-0.19-0.822l-0.364-0.479l0.177-0.87l0.346-0.501l-0.276-0.615l0.605-0.97l0.301-0.528l0.257-0.817 l0.301-0.521l-0.432-0.547l-0.617,0.16l-0.476-0.31l0.259-0.789l0.349-0.547l0.414-0.385l0.497-0.426l0.389-0.416l0.518-0.003 l0.446-0.37l0.231-0.606l0.563,0.15l0.417-0.59l0.096-0.632l0.28-0.608l0.333-0.455l0.028-0.694l-0.29-0.609l0.619-0.413 l0.915,0.27l0.529,0.181l0.146,0.707l0.517,0.278l0.524,0.099l0.174-0.646l0.239-0.558l0.498-0.17l0.496,0.293l0.646-0.079 l0.411-0.366l0.565-0.292l0.537-0.116l0.581,0.32l0.323,0.708l0.576-0.118l0.34-0.537l0.368-0.428l0.473-0.293l-0.265-0.613 l0.494-0.285l0.518-0.199l0.45,0.354l0.307,0.602l0.509-0.169l0.559,0.136l0.594,0.006l0.544-0.157l0.508,0.137l0.413-0.44 l0.569,0.13l0.555,0.183l0.437-0.52l0.413-0.369l0.558,0.041l0.308-0.476l0.426-0.36l0.444-0.383l0.282-0.524l0.602-0.573 l0.491-0.234l0.57,0.08l0.796-0.099l0.626,0.401l0.549-0.856l0.409-0.403l0.529,0.146l0.517,0.045l0.286-0.907l-0.282-0.539 l-0.308-0.766l-0.551-0.085l-0.82-0.543l-0.454,0.311l-0.983-0.468l-0.15-0.606l0.394-0.854l0.442-0.324l0.465-0.362l0.164-0.583 l0.401-0.697l0.57-0.121l0.502-0.131l0.528,0.304l0.311-0.554l0.485-0.297l0.614-0.229l-0.076-0.948l0.599-0.256l0.31-1.042 l0.441-0.408l0.215-0.652l0.427-0.52l0.417-0.407l0.267-0.581l0.291-0.526l0.482-0.291l-0.183-0.831l0.322-0.554l0.411-0.53 l0.295-0.512l0.365-0.535l0.554-0.633l1.004-0.308l0.475,0.299l0.366,0.478l0.75,0.312l0.522,0.019l0.551,0.097l0.506,0.218 l0.558-0.29l0.756-0.559l0.521-0.966l0.856,0.548l0.533,0.183l0.874,0.715l0.5,0.256l0.618-0.225l0.275-0.568l0.518-0.194 l0.546-0.041l0.513-0.135l0.538-0.091l0.532-0.271l0.54,0.077l1.005,0.308l-0.31-0.792l0.065-0.616l0.148-0.63l-0.166-0.653 l0.058-0.63l0.153-0.647l0.393-0.548l0.476-0.279l0.57-0.273l0.381-0.396l0.26-0.55l-0.292-0.603l-0.509-0.428l-0.002-0.648 l-0.51-0.352l-0.6-0.001l-0.481,0.221l-0.154-0.727l0.443-0.478l0.458-0.315l0.427-0.457l0.5-0.246l0.741-0.434l0.515-0.221 l0.453-0.313l0.548-0.082l0.638-0.558l0.419-0.321l0.532,0.071l0.536-0.211l0.542-0.058l0.526-0.199l0.298-0.648l-0.289-0.639 l-0.294-0.612l0.092-0.646l-0.361-0.468l-0.131-0.803l-0.24-0.862l0.081-0.682l0.274-0.607l0.535-0.421l0.045-0.927l-0.29-0.599 l0.234-0.667l-0.184-0.602l-0.042-0.28c-0.772,0.19-1.546,0.3-2.285,0.068c-0.304,0.37-0.667,0.701-1.088,0.94 c-0.402-0.165-0.688-0.439-0.862-0.836c-0.952,0.023-2.068,0.225-2.789-0.547l-0.66,0.184l-0.43-0.313 c-1.084,0.237-1.505,0.986-2.393,1.32c-0.82,0.305-1.663,0.521-2.508,0.748c-1.887,0.504-3.624,1.275-5.55,1.781 c-0.704-0.756-1.344-1.468-2.19-2.058l0.024-0.868l1.399,0.064c1.762-1.333,3.762-2.236,5.94-1.604 c2.288,0.663,3.95-0.027,6.208,0.059l0.922,0.699l1.625,0.008l-0.206-0.604l0.665-0.577l-1.473-2.598 c0.801-0.362,1.375-0.578,1.853-1.353l-1.095-1.435l0.016-0.944c1.031-0.801,2.414-1.005,3.63-1.364l0.203-0.289l-0.793-0.478 l-2.167,0.06l-0.672,0.498l-0.408-0.13l-0.234,0.236c-0.298,0.067-0.591,0.036-0.853-0.103l0.269-0.379l-0.711-0.043l-0.284,0.9 l-0.335-0.168l-0.388,0.23l0.04-0.528l-0.414-0.158l-0.193,0.128l0.446,0.866l-0.606-0.271l-0.693,0.347l-0.434-0.341 l-0.206,0.682l-0.577,0.071l-0.745-0.956l0.493-0.244l-0.629-0.002l-0.207,0.233l-0.716-0.907l-0.952-0.303l-0.653,0.239 c0.349,0.111,0.637,0.311,0.86,0.6l-0.211,0.211l0.343,0.243l-1.573-0.018l0.022,0.395l-0.195-0.081l-0.683,0.425l0.549,0.403 l-0.35,0.357l0.043,0.569l-0.339,0.014l-0.367-0.426l-0.479,0.584l0.242,0.681l-0.165,0.148l-0.401-0.262l-0.864,0.416 l-0.466-0.386l-1.056,0.363l0.016,0.787l0.494,0.384l-0.451,0.579c-0.766,0.047-1.726-0.02-2.468,0.192 c-0.842,0.24-1.944,0.836-2.812,0.536l-1.066,0.706l-0.433-0.103c-1.677,1.587-2.854,2.144-5.03,2.973l1.634,0.508l0.035,0.283 l-2.488,0.855l-0.245-0.285l-1.031-0.083l0.109,0.458l-0.54-0.144c-0.397,0.447-0.94,0.684-1.53,0.767l-0.113,0.379l-0.674,0.057 l-0.101,0.878c0.932-0.084,1.737,0.428,2.56,0.785c0.711,1.555,0.379,3.583-0.23,5.15c-0.793,2.041-1.613,2.488-3.646,3.186 c-0.648,0.961-1.797,1.09-2.437,2.132l0.103,0.405l-0.645,0.081l-0.592,0.726l-0.571-0.164l-0.054,0.424 c-1.231,0.507-1.482,1.966-2.646,2.551l-0.577-0.009l0.074,0.382l-0.77,1.198l0.031,0.466l-0.34,0.646l-0.448,0.213l0.475,0.437 l-0.316,0.617l-0.547,0.252c-0.433,0.761-0.742,1.306-1.508,1.778l0.039,0.312l-0.292-0.018l-0.404,0.545l0.212,0.655 c-0.455,0.306-0.743,0.792-0.806,1.332l-1.832,1.299l-0.864-0.001c-1.373,0.758-2.018,2.5-3.128,3.557 c-0.993,0.942-1.936,1.893-3.046,2.704l-0.312-0.196l-0.258,0.446l0.108,0.88l-1.119,0.293l-0.454,1.421l-0.652,0.447l0.62,0.369 l-0.618,1.358l-0.542,0.065l-0.373-0.478c-0.418,0.575-1.034,0.778-1.558,1.188l0.492,0.387l-0.393,0.839l-0.373,0.175 l-0.396,1.02l-1.545,1.079l-0.229,1.337l-0.608,0.152l-0.166,0.572l-0.82,0.595l-0.884,0.055l-0.217,1.208l-0.884,0.053 l-0.2,0.291l0.394,0.657l-0.2,0.312l0.131,0.218l-0.646,0.708l-0.103,0.669c-0.643,0.527-1.295,1.257-2.02,1.665 c-0.685,0.378-1.517,0.298-2.063,0.906l-3.192,0.677l-0.663-0.284l-1.024,0.411c0.005,0.021,0.011,0.041,0.015,0.059l0.304,0.136 L222.197,946.074z M286.863,841.326l-0.169,2.037l0.532-0.144l0.573,0.191l0.511,0.748l0.744,0.303l0.924-0.165l0.05,0.413 l-0.317-0.013l-0.046,0.687l0.248,0.309l0.29-0.192l-0.144-0.323l0.441,0.181l0.077,0.411l1.164-0.537l-0.001-0.863l0.708,0.647 l0.444-0.213l1.698,0.396l0.528-0.409l-0.509-1.378l-0.652-0.184l-0.861,0.241l0.219-0.341l1.221-0.306l0.22-1.181l0.528,0.668 l-0.388,0.914l0.326,0.088l1.021-0.648c0.281-0.552,0.401-1.186,0.357-1.797l-0.335-0.589l0.022-0.891l0.513-0.746l-1.511-0.783 l-0.019-0.362l-0.286-0.202l0.332-0.279l-0.912,0.032l-0.367-0.216l0.033-0.368l-0.359-0.142l-0.463,0.266l-0.021-0.388 l-0.292-0.256l0.041-0.525l-0.604,0.414l-0.05-0.415l-0.309,0.279c-0.571-0.346-1.093-0.81-1.353-1.435l-0.209,0.234l0.184,0.424 c-0.181,0.398-0.478,0.69-0.887,0.867l-0.787-0.217l-1.164,0.562l0.367,0.425l-0.87,0.579c-0.064,0.47,0.012,0.927,0.219,1.36 l-0.525,0.642l-0.858-0.578c0.22,0.801,0.188,1.485-0.086,2.267L286.863,841.326z M282.111,850.45l-0.776,0.283l0.196,0.524c0.403,1.104,0.551,1.711,0.38,2.887l0.784,0.194l0.237-0.635 c0.38,0.128,0.771,0.165,1.166,0.122c-0.076-0.178-0.115-0.367-0.12-0.565l0.262-0.422c0.337-0.177,0.708-0.26,1.095-0.24 l-0.6-0.632c0.201-0.234,0.406-0.464,0.625-0.68l-0.283-0.595c-0.625-0.234-1.162-0.63-1.805-0.827 c-0.091,0.293-0.083,0.615,0.007,0.917l-0.304,0.301C282.653,850.943,282.352,850.719,282.111,850.45z M276.901,852.191l0.282,0.595l1.021,0.608l0.616-0.311c-0.505-0.654-0.94-1.291-1.655-1.736l0.348-0.593 l0.472,0.232l0.151-0.49l0.267,0.047c0.137,0.637,0.436,1.222,0.91,1.671c0.473,0.11,0.938,0.228,1.407,0.348 c0.136-0.286,0.301-0.554,0.503-0.794c-0.248-0.663-0.816-1.091-1.031-1.787c0.648-0.057,1.279-0.19,1.911-0.024 c0.345-0.308,0.655-0.651,0.92-1.028c-0.233-0.25-0.494-0.466-0.785-0.64c-0.614-0.064-1.141,0.233-1.396,0.798l-0.75-0.562 l-0.119-0.321l-1.168,0.09c-0.244,0.369-0.318,0.772-0.217,1.205l-1.055,0.156l-0.587-0.298c-0.371,0.6-0.676,1.258-1.389,1.48 c0.052,0.386,0.175,0.747,0.369,1.083L276.901,852.191z"/>
</svg>