<?xml version="1.0" encoding="utf-8"?>
<svg viewBox="515.737 846.542 133.969 184.073" width="133.969" height="184.073" xmlns="http://www.w3.org/2000/svg" xmlns:bx="https://boxy-svg.com">
  <path fill="#8BFFE8" d="M640.114,989.993c0.329,0.456,0.591,0.877,0.537,1.365C639.827,991.149,638.606,989.602,640.114,989.993z M648.457,990.475c-0.641-0.034-1.561-0.546-2.168-0.873c-0.795-0.427-1.326-1.134-2.178-1.736 c-1.178-0.1-1.452,0.654-1.736,1.597c-0.26,0.874,1.119,1.548,1.686,1.967c0.859,0.643,0.889,1.615,1.665,2.255 c0.546,0.442,1.745,0.164,2.333,0.979c0.109-0.245,0.008-0.696,0.033-0.74c0.022-0.222,0.046-0.451,0.068-0.673 c0.045-0.441,0.366-0.3,0.549-0.631c0.394-0.725,0.568-0.316,0.482-1.354C649.135,990.66,649.035,990.507,648.457,990.475z M649.055,1030.6c1.166,0.182,0.521-1.306-0.057-1.794C648.094,1029.161,648.041,1030.436,649.055,1030.6z M615.851,893.336 c-0.283-0.644-0.749-2.183-1.471-2.328c-0.604-0.121-0.353-0.428-1.192-0.355c-0.567,0.046-1.193-0.283-1.719-0.497 c-1.68,0.454-0.514,2.973-0.299,4.051c0.129,0.667-0.064,1.737,0.584,2.299c0.456,0.391,2.415,1.088,2.931,0.871 c1.112-0.475,1.727,0.058,1.333-1.625C615.862,895.046,616.106,893.924,615.851,893.336z M610.533,913.845 c0.202,0.206,0.047,1.763-0.085,1.975c-0.454,0.738-0.186,0.969-0.151,1.78c0.026,0.592,0.313,3.736-1.02,2.008 c-1.647-1.365-0.004-2.295-0.428-3.726c-0.27-0.921,1.038-0.694,0.861-1.566C609.567,913.623,609.997,913.314,610.533,913.845z M607.418,919.997c0.014,0.476,0.874,1.658-0.621,1.102C606.194,920.14,607.41,919.472,607.418,919.997z M605.678,926.663 c0.554,0.89,0.422,1.055,0.049,1.731c-0.342,0.63-1.045,1.725-1.914,1.424C602.672,928.675,604.326,924.525,605.678,926.663z M626.666,931.625c0.855,0.825,0.497,1.13,0.083,1.99c-0.13,0.272-0.271,0.482-0.465,0.714c-0.198,0.048-0.396,0.1-0.597,0.153 c-0.025,0.207-0.057,0.415-0.084,0.625c-0.348,0.183-1.412,0.108-1.838,0.021c-1.174-0.237-1.069-0.352-1.307-1.477 c-0.194-0.921,0.559-1.261,0.387-2.014c-0.871-0.993,1.945-1.559,2.685-1.145C626.295,930.926,626.123,931.104,626.666,931.625z M630.391,943.325c0.436,0.684,1.539,1.19,1.158,2.108c-0.6,1.432-0.342,0.462-1.699,0.679c-0.395,0.062-0.941,0.098-0.835-0.488 c0.069-0.366-0.372-1.125-0.336-1.229C628.947,943.571,629.737,943.494,630.391,943.325z M609.849,910.725 c-0.241-0.247-0.562-0.494-0.751-0.777c0.293-0.082,0.674-0.01,0.981-0.013C610.065,910.166,609.959,910.525,609.849,910.725z M608.783,906.491c0.688,0.936-0.246,1.732-1.199,1.785c-0.218-0.522-0.137-1.013,0.393-1.246 C608.176,906.806,608.533,906.658,608.783,906.491z M595.063,871.762l0.615-0.098l-1.241,2.652l0.274,0.518l-0.229,0.503 l0.295,0.456l-0.351,0.569l0.282,0.593l0.786-0.227l0.468,0.389c0.098,0.746,0.168,1.496,0.248,2.247l-0.684,0.214l-0.049,0.215 l0.862,1.492c0.649,0.056,1.217,0.028,1.773,0.36l0.368,0.845l0.354-0.31c0.418,1.488,0.357,2.132,0.027,3.643l0.154,0.399 l-0.615,1.176l-0.777,0.305l-0.346,0.803l-0.576,0.201c-0.384,0.723,0.03,1.581-0.221,2.329c-0.369,1.104-0.738,2.207-1.104,3.311 l-0.836,0.232c-0.222,0.506-0.614,0.932-1.113,1.158c-0.033,1.209-0.789,2.408-1.104,3.596l0.217,0.705l-0.235,0.419l0.583,0.273 l0.035,0.704l-0.299,0.348l-1.091,0.082l0.067-1.138l-0.456-0.098l-0.292,0.61l-0.996,0.435c-0.217,0.681-0.305,1.403-0.839,1.886 l-0.735-0.017l0.087,0.278l-1.208,0.832l-0.311,0.665l-0.438-0.183l-0.399,0.602c-0.803-0.094-1.243-0.63-1.818-1.145 l-0.764,0.176l-0.101-0.592c-0.451-0.133-0.809-0.396-1.039-0.789l0.011-0.553l0.531-0.562l-0.08-0.227l-0.503,0.164 c-0.274-0.612-0.733-0.929-1.242-1.365l-0.731,0.228l-0.312-1.066c0.172-0.389,0.182-0.8,0.033-1.211l0.297-0.585l0.303-0.091 l-0.031-0.887l0.283-0.061l0.555-1.012l-0.596-0.163c0.062-0.793-0.438-1.378-0.824-2.021l0.47-0.426l-0.419-0.21l-0.088-0.279 c0.278-0.521,0.357-1.138,0.16-1.693l0.58-0.387c-0.329-0.26-0.647-0.525-0.959-0.8l-0.277-0.965 c0.211-0.554,0.525-1.05,1.041-1.332l0.365-0.856c-0.824-0.743-1.185-1.933-1.641-2.917l0.145-0.752l0.564,0.115l-0.409-0.549 c0.126-0.974,0.072-2.116,0.686-2.943l0.11,0.25l0.647,0.157l0.621-0.285l1.659,0.296l1.338-0.614l0.943,0.198l0.22-0.34 l-0.306-0.354l0.285-0.872l0.318-0.172l-0.57-0.166l-0.413,0.26l-0.989-1.242l-0.561-0.09l-0.191-0.265l0.223-0.312l-0.111-0.276 l-0.298,0.35c-1.083-1.837-3.512-1.929-5.362-2.206c-2.085-0.318-3.285-0.177-4.905,1.165l-0.411-0.161l-0.35,0.331 c-1.656,0.267-2.611,0.777-4.048,1.597l-0.658,2.543l-1.591,1.11l-0.503,1.243c0.226,0.52,0.279,1.119,0.18,1.681l0.235,0.416 l0.52,0.198l0.086-0.378c-0.285-0.407-0.387-0.927-0.355-1.424l0.623,0.209l-0.119-0.56l0.25-0.294l0.365,0.192 c0.282,0.452,0.386,1.001,0.346,1.53c-0.818,0.859-1.631,1.716-2.449,2.577c-0.65,0.686-2.014,0.717-2.793,1.261 c-0.443,0.309-0.826,0.81-1.211,1.19c-0.332,0.329-0.926,0.283-1.269,0.581c-0.715,0.62-1.096,2.137-1.651,2.98l-0.043,1.367 c0.429,0.326,0.692,0.819,0.744,1.353c-0.621,1.365-1.213,2.743-1.801,4.122l0.269,0.255c-2.42,0.199-3.503,2.834-3.815,4.821 c-0.383,2.448-0.797,4.087,1.916,5.125l-0.318,0.594c-3.332-0.257-6.425-1.656-9.713-2.289c-1.507-0.295-3.02-0.478-4.539-0.318 c-1.789,0.182-3.262-0.02-5,0.071l-0.182,0.232l1.865,0.037c-1.371,0.501-2.596,0.97-3.852,1.701l-0.712-0.252l0.167,0.293 l-0.766,0.173l0.012-1.392l-0.393-0.006l0.114,0.484l-0.407,0.965l-1.203-0.426l-0.057-0.464l-0.35-0.297l0.209,0.418 l-0.233,0.238c-2.392-0.347-5.144,0.176-7.413-0.43l0.203-0.262l-1.14-0.33l-0.085,0.17l0.59,0.555 c-1.729,0.338-3.457,0.67-5.196,0.979c-0.017,0.009-0.04,0.011-0.06,0.018l-0.017-0.316l0.168-0.606l-0.104-0.625l-0.174-0.602 l-0.373-0.504l-0.24-0.608l-0.33-1.119l0.014-0.719l-0.076-0.628l0.741-0.79l-0.106-0.61l-0.234-0.604l0.139-0.645l0.18-0.627 l0.344-0.521l0.609-0.201l0.434-0.377l0.607-0.098l0.398-0.434l0.799-0.321l1.102,0.001l0.296-0.499l0.059-0.708l0.431-0.403 l0.745-0.427l0.434-0.344l0.366-0.439l0.003-0.648l0.302-1.185l0.109-0.649l0.127-0.628l0.35-0.469l0.567,0.029l0.273-0.522 l0.374-0.455l0.585-0.782l-0.056-1.222l-0.311-0.698l0.107-0.786l0.279-0.536l0.461-0.971l0.395-0.463l0.271-0.57l0.394-0.44 l0.443-0.359l0.395-0.502l0.336-0.897l0.177-0.793l0.767-0.328l0.367-0.426l-0.359-1.173l0.787-0.737l-0.168-0.627l0.692-0.267 l-0.245-0.584l-0.563-0.1l-0.679-0.427l-0.042-0.666l0.769-0.851l-0.231-1.079l0.979-0.202l0.508-0.402l0.604-0.16l0.635,0.17 l0.363-0.502l0.156-0.645l-0.182-0.621l0.556-0.754l0.823,0.145l0.496-0.322l0.176-0.594l0.208-0.553l0.537-0.065l0.382-0.414 l0.586-0.204l0.417-0.384l0.495-0.254l0.697-0.709l0.601-0.147l0.52,0.097l0.323-0.566l-0.104-0.623l0.484-0.389l0.229-0.612 l0.499-0.175l0.251-0.534l0.487-0.193l0.549,0.128l0.491,0.295l0.398-0.369l-0.048-0.667l0.443-0.312l0.744-0.651l0.537,0.007 l0.449-0.349l0.081-0.668l0.228-0.544l-0.182-0.661l-0.57-0.262l-0.092-0.834l-0.908-0.424l-0.104-0.845l-0.103-0.845l0.525,0.093 l0.453-0.393l0.568-0.057l0.291-0.54l-0.246-0.568l0.106-0.723l-0.388-0.43l-0.758-0.324l0.247-0.664l-0.466-0.459l0.3-0.478 l0.29-0.56l0.302-0.509l-0.354-0.498l-0.58-0.05l0.361-0.987l0.402-0.478l0.482-0.357l0.419,0.404l0.542-0.162l0.127-0.616 l0.142-0.655l0.265-0.58l-0.049-0.617l-0.148-0.619l0.295-0.536l0.372-0.685l0.669,0.482l0.006,0.623l0.371,0.501l0.156,0.62 l0.368,0.554l-0.085,0.619l0.402,0.936l0.199,0.604l0.563,0.324l0.195,0.577l-0.031,0.637l0.345,0.58l0.256,0.669l-0.255,0.605 l0.014,0.609l0.054,0.767l-0.073,0.656l-0.37,0.461l0.131,0.864l0.453,0.466l0.283,0.592l0.041,0.692l-0.06,0.866l-0.391,0.402 l-0.087,0.669l-0.319,0.566l0.103,0.649l0.571,0.11l0.294,0.537l0.251,0.584l0.097,0.683l-0.078,0.608l0.3,0.501l0.571,0.166 l0.51,0.352l0.516,0.07l0.361-0.475l0.492-0.378l0.479-0.399l0.476-0.316l0.542-0.005l0.445,0.446l0.58,0.036l0.506,0.213 l0.412,0.474l-0.017,1.082l0.116,0.682l0.264,0.577l0.509,0.658l0.557,0.913l0.222,1.012l0.244,0.631l0.303,0.56l0.582-0.196 l0.561,0.322l0.363,0.52l0.43,0.388l0.595-0.036l0.562-0.02l0.603-0.02l0.551,0.042l0.909-0.04l0.324-0.506l0.342-0.446 l0.484-0.706l0.515-0.161l-0.151-0.589l-0.055-0.812l-0.371-0.589l-0.403-1.139l-0.378-0.469l0.178-0.585l-0.049-0.654 l-0.205-0.571l-0.262-0.592l-0.174-0.608l0.351-0.517l0.296-0.512l0.297-0.65l-0.303-0.613l-0.088-0.627l-0.06-0.651l-0.202-0.659 l0.293-0.526l-0.212-0.622l-0.101-0.635l0.72-0.821l0.364-0.5l0.297-0.488l0.39-0.369l0.482-0.422l0.378,0.493l0.521,0.266 l0.257,0.69l0.314,0.806l0.406,0.742l0.52-0.181l0.859-0.289l0.631-0.079l0.604-0.073l0.49,0.441l0.511,1.436l0.448,0.437 l0.534-0.161l0.464-0.288l0.511-0.149l0.674-0.071l1.308-0.567l0.617-0.22l0.521-0.074l0.668-0.205l0.492-0.113l0.606-0.074 l0.663-0.156l0.422-0.501l0.47-0.304l0.762-0.167l0.464,0.322l0.607-0.186l0.467-0.345l0.457-0.413l0.654-0.436l0.59,0.001 l0.544,0.036l0.55-0.206l0.521-0.112l0.584-0.255l0.527,0.007l0.59-0.046l0.457,0.577l-0.01,0.628l0.387,0.429l0.167,0.664 l0.202,0.632l0.104,0.685l0.508,0.707l-0.163,0.62l-0.094,0.614l-0.096,0.619l-0.046,0.666l-0.552,0.387l-0.476,0.795L588.162,865 l0.036,0.643l0.187,1.079l0.49,0.822l0.313,0.545l0.071,0.667l0.511,0.344l0.722,0.605l0.735,0.215l0.325,1.087l0.217,0.598 l0.549-0.118l0.545,0.115l0.564,0.055l0.545-0.03l0.545,0.15L595.063,871.762z"/>
  <text x="534.303" y="901.788" style="white-space: pre; fill: rgb(51, 51, 51); font-family: sans-sarif; font-weight: bold; font-size: 13.6px;">静岡県</text>
</svg>