<?xml version="1.0" encoding="utf-8"?>
<svg viewBox="595.483 743.827 48.395 59.414" width="48.395" height="59.414" xmlns="http://www.w3.org/2000/svg">
  <polygon fill="#79FF76" points="596.143,763.53 595.711,764.522 595.552,765.53 595.483,766.14 596.041,766.179 596.515,766.564 &#10;&#9;&#9;&#9;597.112,766.721 597.68,766.796 598.249,766.899 598.124,767.524 597.705,767.982 597.551,768.601 597.082,768.868 &#10;&#9;&#9;&#9;597.135,769.507 596.473,770.396 596.056,770.726 596.08,771.423 596.313,771.98 596.813,772.241 597.051,772.903 &#10;&#9;&#9;&#9;597.141,773.552 596.84,774.362 596.571,774.921 596.181,775.409 595.883,775.936 596.035,776.544 595.936,777.161 &#10;&#9;&#9;&#9;595.663,778.151 595.858,778.776 595.835,779.402 596.8,779.784 597.125,780.306 597.66,780.399 598.221,780.456 598.783,780.388 &#10;&#9;&#9;&#9;599.321,780.698 599.854,780.776 600.283,780.456 600.818,780.659 601.435,780.694 601.882,780.384 602.484,780.421 &#10;&#9;&#9;&#9;602.987,780.224 603.417,780.576 603.628,781.184 604.087,781.802 603.707,782.263 603.326,782.996 603,783.499 602.177,783.676 &#10;&#9;&#9;&#9;602.048,784.325 602.274,784.911 602.11,785.491 601.924,786.104 601.495,786.806 601.928,787.878 602.593,788.6 602.375,789.152 &#10;&#9;&#9;&#9;601.922,789.579 601.442,789.797 601.225,790.361 600.938,791.008 600.621,791.559 600.339,792.081 599.985,792.85 &#10;&#9;&#9;&#9;599.815,793.444 599.561,794.001 599.68,794.658 599.818,795.291 600.639,795.838 601.344,796.436 602.115,796.749 &#10;&#9;&#9;&#9;602.775,796.918 602.999,797.628 602.845,798.369 603.418,798.923 603.891,799.219 604.601,799.669 605.145,799.66 &#10;&#9;&#9;&#9;605.526,800.139 606.014,800.45 606.51,800.241 607.439,799.787 608.011,799.691 608.51,799.422 609.049,799.514 609.988,799.851 &#10;&#9;&#9;&#9;610.46,800.258 611.897,799.996 612.606,799.925 613.283,799.446 613.865,799.572 614.33,799.929 614.198,800.671 &#10;&#9;&#9;&#9;614.634,801.236 615.136,801.456 615.586,801.846 615.738,802.472 616.287,802.748 618.035,803.241 618.596,802.808 &#10;&#9;&#9;&#9;619.248,802.948 619.879,802.843 620.383,802.466 620.873,801.94 621.612,801.541 622.225,801.197 623.865,800.165 &#10;&#9;&#9;&#9;624.115,799.452 624.156,798.748 624.422,798.178 624.311,797.445 624.178,796.814 624.442,796.283 624.769,795.748 &#10;&#9;&#9;&#9;626.084,795.452 626.75,795.563 627.776,796.088 627.822,793.857 628.276,793.474 628.828,793.296 629.299,792.971 &#10;&#9;&#9;&#9;629.855,792.754 630.236,792.364 630.205,791.743 630.451,791.197 631.895,791.352 632.713,790.772 633.434,790.601 &#10;&#9;&#9;&#9;634.448,790.526 635.076,790.115 635.172,789.457 635.039,788.8 635.861,788.749 636.411,788.801 636.87,789.178 637.362,788.859 &#10;&#9;&#9;&#9;637.324,788.227 637.784,787.893 638.329,787.727 638.921,787.69 639.311,788.202 639.764,788.578 640.298,788.446 &#10;&#9;&#9;&#9;641.121,788.397 641.428,787.845 641.82,786.978 641.718,786.193 641.766,785.53 641.628,784.862 641.786,784.278 &#10;&#9;&#9;&#9;641.972,783.705 642.233,783.184 642.604,782.736 642.691,782.124 643.192,781.661 643.393,780.927 643.416,779.948 &#10;&#9;&#9;&#9;643.24,779.342 643.233,778.729 642.981,777.726 642.804,777.107 642.773,776.058 642.813,775.446 642.465,774.606 &#10;&#9;&#9;&#9;641.942,773.704 642.094,773.072 641.593,772.219 641.442,771.573 640.901,771.362 640.751,770.771 641.033,770.245 &#10;&#9;&#9;&#9;641.356,769.728 641.97,769.519 642.713,769.462 643.173,769.075 643.728,768.899 643.878,768.084 643.694,767.494 &#10;&#9;&#9;&#9;643.215,767.083 642.698,766.767 642.223,766.336 641.965,765.788 641.852,765.141 641.958,764.355 642.205,763.751 &#10;&#9;&#9;&#9;642.129,763.128 642.152,762.486 642.004,761.843 641.727,761.181 641.389,760.682 641.132,760.118 641.135,759.458 &#10;&#9;&#9;&#9;641.033,758.81 640.934,758.196 640.77,757.557 640.542,756.958 640.411,756.156 640.765,755.161 640.24,754.916 639.817,754.448 &#10;&#9;&#9;&#9;640.056,753.909 639.968,753.192 639.823,752.011 639.457,751.526 639.629,750.812 639.662,749.79 639.039,750.001 &#10;&#9;&#9;&#9;638.521,750.064 638.055,750.331 637.495,750.179 637.084,749.79 637.02,749.187 636.777,748.556 636.619,747.937 &#10;&#9;&#9;&#9;636.075,747.556 635.512,747.515 634.997,747.09 634.451,746.812 634.166,746.235 633.69,745.843 633.143,745.807 632.598,745.56 &#10;&#9;&#9;&#9;632.02,745.214 631.524,744.907 630.981,744.859 630.428,744.868 629.833,744.782 629.309,744.909 628.797,744.653 &#10;&#9;&#9;&#9;628.312,744.298 627.731,744.262 627.218,744.132 625.979,744.206 625.432,744.247 624.931,744.127 624.103,743.827 &#10;&#9;&#9;&#9;623.547,743.831 623.018,743.971 622.533,744.144 621.994,744.331 621.471,744.455 620.918,744.2 620.432,744.47 619.957,744.728 &#10;&#9;&#9;&#9;619.323,744.794 619,745.308 618.487,745.423 618.053,745.804 617.592,746.091 617.205,746.553 617.042,747.124 617.309,747.741 &#10;&#9;&#9;&#9;617.379,748.393 616.587,748.88 616.008,748.755 615.483,748.806 615.02,749.073 614.649,749.597 614.161,749.976 613.408,750.14 &#10;&#9;&#9;&#9;612.92,750.356 612.405,750.448 611.935,750.774 611.537,751.167 610.989,751.132 610.448,751.423 610.148,751.983 &#10;&#9;&#9;&#9;609.897,752.538 609.38,752.628 608.891,752.935 607.932,753.271 607.852,753.954 607.47,754.429 606.906,754.472 606.35,754.644 &#10;&#9;&#9;&#9;605.867,754.849 605.449,755.511 605.007,755.843 604.51,756.173 604.1,756.519 603.733,756.979 603.184,757.013 602.748,757.308 &#10;&#9;&#9;&#9;602.368,757.735 601.903,757.988 601.385,757.77 600.828,757.863 600.305,758.011 600.059,758.786 599.782,759.346 &#10;&#9;&#9;&#9;599.272,759.597 598.971,760.171 598.813,760.763 598.346,761.151 597.793,761.036 597.393,761.417 596.51,762.134 &#10;&#9;&#9;&#9;596.487,762.995 &#9;&#9;"/>
</svg>