<?xml version="1.0" encoding="utf-8"?>
<svg viewBox="328.6 953.621 55.181 44.839" width="55.181" height="44.839" xmlns="http://www.w3.org/2000/svg" xmlns:bx="https://boxy-svg.com">
  <path fill="#D16EFF" d="M375.032,956.08v-0.419l-0.191-0.078c-0.071-0.236-0.092-0.483-0.062-0.729l0.334-0.041 c0.284-0.189,0.536-0.413,0.756-0.668c-0.091,0.629-0.269,1.265-0.562,1.824c0.03,0.39,0.12,0.727,0.29,1.065l-0.109,0.198 l-0.22,0.131c-0.218-0.164-0.469-0.231-0.733-0.198c-0.037-0.179-0.022-0.355,0.04-0.529 C374.757,956.475,374.91,956.291,375.032,956.08z M374.365,953.621c-0.252,0.117-0.485,0.264-0.71,0.43l0.047,0.387 c-0.085,0.179-0.185,0.347-0.301,0.509l0.037,0.518c0.02,0.157,0.038,0.309,0.057,0.468c0.128-0.074,0.258-0.144,0.393-0.209 c0.138-0.457,0.416-0.851,0.801-1.144c0.002-0.279-0.04-0.553-0.127-0.819L374.365,953.621z M373.567,956.312 c0.068,0.311,0.292,0.494,0.616,0.528l0.075-0.038c0.11-0.287,0.139-0.577,0.075-0.871c-0.108,0.146-0.232,0.276-0.372,0.387 C373.829,956.341,373.698,956.336,373.567,956.312z M382.597,978.228l-0.975-0.062l-1.011,0.517l-0.128-0.193 c0.625-0.444,1.1-0.902,1.909-0.889l-0.411-0.365c-0.753,0.063-1.527-0.018-2.105,0.543l-0.536-0.091l-0.792,0.382l-0.217-0.078 l0.41-0.494l-0.211-0.865l-0.597,0.911l-0.279,0.062c0.145-0.803,0.703-1.309,1.208-1.907l1.2-0.042l-0.044-0.359 c0.595-0.863,1.041-1.381,1.034-2.461l-1.77-0.334l1.047-1.071c-1.624-0.44-2.195-1.786-2.953-3.147l-0.396-0.238l-0.308,0.483 l0.365,0.427l-0.098,0.277l-1.059,0.338l-0.129-0.404l-0.373-0.062l-0.267-0.462l-0.235,0.003l-0.077-0.407l0.436-0.502 l-0.639-0.523l0.2-0.286c-0.574-0.093-1.14-0.104-1.688,0.104c-0.087-0.287-0.06-0.562,0.08-0.825l-0.324-0.302l0.702-0.476 l0.89,0.203l0.102-1.084c-0.766-0.229-1.576-0.377-2.251-0.826l-0.009-0.285c0.794-0.018,1.46,0.322,2.197,0.594l0.557-0.148 l-0.021-0.809l-0.72-0.54l0.055-0.402l-0.264-0.436l0.772,0.533c0.2-0.622,0.064-1.218,0.22-1.832l-0.897-0.493l1.069-0.025 l0.776-2.193c-1.081,0.171-2.064-0.588-2.98-1.046l0.047-0.87l0.192-0.156c-0.127-0.24-0.195-0.498-0.2-0.766l0.147-0.095 l-0.191-0.264l-0.522,0.009l-0.631,0.421l-0.099,0.25l0.577,0.214l0.06,0.282c-1.3-0.152-2.255-0.158-3.548,0.039 c-0.704,0.105-1.838,1.172-2.576,1.495l-0.426-0.077c-0.01-0.001-0.021-0.009-0.033-0.008l-0.041,0.259l-0.026,0.142l0.018,1.043 l-0.355,0.747l0.255,0.591l-0.512,0.554l-0.501,0.146l-0.483-0.353l-0.467,0.288l-0.977-0.419l-0.432-0.351l-0.631-0.318 l-0.457,0.271l-0.174,0.583l-0.528-0.067l-0.606,0.047l-0.532,0.147l-0.618,0.32l-0.357-0.529l-0.512,0.173l-0.579-0.186 l-0.546-0.045l-0.792,0.298l-0.758,0.063l-0.493,0.199l-0.488,0.255l-0.919,0.242l-0.884-0.056l-0.458,0.422l-0.647,0.31 l-0.283,0.524l-0.342,0.478l0.287,1.068l-0.33,0.539l-0.394,0.439l-0.801,0.206l-0.524,0.226l-0.506-0.205l-0.558,0.139 l-0.78,0.373l-0.502-0.191l-0.367,1.024l-0.447,0.345l-0.114,0.655l-0.52,0.102l-0.55,0.154l-0.232,0.607l-0.681,0.014 l-0.544,0.15l-0.454-0.373l-0.887-0.402l-0.451-0.459l-0.372-0.508l-0.354-0.479l-0.502,0.158l-0.395,0.564l-0.609,0.365 l-0.429-0.36l-0.518,0.3l-0.469,0.261l-0.555-0.211l-0.476,0.267l-0.407,0.429l-0.549,0.006l-0.444,0.3l-0.087,1.045l-0.479,0.314 l-0.506,0.208l-0.482-0.344l-0.568-0.166l-0.374,0.473l-0.539,0.778l-0.387,0.411l-0.45,0.398l-0.561,0.438l-0.25,0.632 l0.041,0.724l-0.403,0.368l-0.636,0.05l-0.479,0.341l-0.504,1.216l-0.036,0.613l0.376,0.725l0.492,0.452l0.016,0.633l0.278,0.529 l-0.31,0.639l0.332,0.871l-0.548,1.024l0.18,0.626l-0.401,0.407l-0.4,0.46l0.185,0.598l0.47,0.333l0.48,0.323l0.519,0.059 l0.492,0.275l0.516-0.041l0.549,0.068l0.596-0.181l0.544,0.257l0.406,0.491l1.003-0.308l0.571-0.204l0.496,0.267l0.857-0.104 l0.646-0.114l0.477-0.537l0.559-0.02l0.805,0.576l0.429,0.484l0.431,0.513l0.289,0.54l0.667,0.1l0.536-0.054l0.37,0.52 l0.564,0.031l0.409-0.409l0.548-0.175l0.555-0.141l0.294-0.528l0.005-0.71l0.078-0.66l0.443-0.308l0.51-0.162l0.463-0.312 l0.358,0.654l0.44,0.456l0.777-0.143l0.526-0.231l0.455-0.294l0.261,0.557l-0.098,0.616l0.48,0.409l0.305,0.588l0.494,0.354 l0.263,0.565l0.079,0.719l-0.016,0.622l0.35,0.877l0.386,0.479l-0.061,0.642l0.138,0.628l0.005,1.151l0.77-0.058l0.543-0.242 l0.562-0.148l0.514-0.136l0.619-0.113l0.518,0.091l0.5,0.298l0.552,0.031l0.525-0.202l0.655,0.535l-0.215,0.562l0.395,0.903 l-0.165,0.795l-0.355,0.444l-0.529,0.296l0.219,0.574l0.181,0.612l0.783,0.506l0.431,0.424l0.447,0.421l0.547,0.887l0.179,0.603 l0.725-0.407l0.568-0.029l0.471,0.116l-0.213-0.096c1.486,0.081,2.934,0.57,4.441,0.236l0.076-0.455l-0.57-0.585l0.086-0.586 l0.468-0.45c0.701,0.235,1.303-0.052,1.986-0.244l-1.482,0.103l1.44-0.647c0.1-0.842,0.374-1.459,1.009-2.032l-1.17-0.123 c0.464-0.575,0.917-1.166,1.413-1.719l0.032-0.397l0.963-0.039l0.279-0.505c1.84-0.246,4.642-2.858,5.734-4.268l-0.213-0.678 l0.3-0.537l0.473-0.216l0.208,0.421l0.361-0.046l0.235-1.286l-0.197-0.522l0.51-0.116l0.034-0.376l0.949,0.068l0.362-0.909 c0.306-0.302,0.679-0.466,1.093-0.475l0.352,0.324l0.155-0.676l0.39-0.018c0.853-1.261,3.104-2.303,4.318-3.23l-0.005-0.496 l-0.563-0.088L382.597,978.228z"/>
  <text x="335.66" y="980.629" style="white-space: pre; fill: rgb(255, 255, 255); font-family: sans-sarif; font-weight: bold; font-size: 13.3px;">徳島県</text>
</svg>