<?xml version="1.0" encoding="utf-8"?>
<svg viewBox="582.147 826.131 52.286 21.177" width="52.286" height="21.177" xmlns="http://www.w3.org/2000/svg">
  <path fill="#79FF76" d="M633.285,832.305l-0.125-0.035l-0.303-0.609l-0.519-0.767l-0.757-0.744l-0.521-0.445l-0.521-1.391 l0.136-0.716l-0.991-0.669l-0.595,0.206l-0.778-0.096l-0.506,0.111l-0.481,0.249l-0.56-0.99l-0.77,0.37l-0.537,0.143l-0.654-0.2 l-0.572-0.37l-0.555,0.399l0.102,0.634l0.137,0.633l-0.503,0.343l-0.64-0.117l-0.89-0.086l-1.03-0.24l-0.531-0.083l-0.535,0.203 l-0.533-0.007l-0.525,0.096l-0.77,0.399l-0.355,0.537l-0.283,0.575l-0.084,0.715l-0.539-0.146l-0.951-0.402l-0.501,0.295 l-0.366,0.46l-0.602,0.48l-0.781-0.018l-0.673-0.649l0.332-0.454l-0.635-1.001l-0.334,0.503l-0.495,0.26l-0.434,0.406 l-0.486,0.266l-0.717,0.002l-0.396,0.431l-0.577,0.15l-0.436,0.359l-0.723,0.027l-1.37,0.256l-0.538,0.04l-0.596,0.171l-0.445-0.4 l-0.696-0.475l-0.401-0.476l-0.51-0.037l-0.624,0.016l-0.925-0.116l-0.297-0.623l-0.285-0.953l-0.563,0.129l-0.172-0.607 l-0.538-0.118l-0.525-0.082l-0.535,0.054l-0.508,0.259l-0.729,0.066l-0.541-0.095l-0.516,0.05l-0.59-0.268l-0.543,0.104 l-0.436,0.322l-0.633-0.133l-0.51-0.232l-0.691-0.229l-0.473-0.308l-0.517-0.186l-0.539-0.004l-0.566,0.045l-0.522,0.075 l-0.634-0.115l-0.523-0.118l-0.56-0.216l-0.482,0.279l-0.529-0.13l-0.496-0.171l-0.455-0.387l-0.488-0.269l-0.545-0.309 l-0.665,0.107l-0.583,0.853l-0.623,0.233l-0.521,0.006l-0.445,0.372l-0.543,0.323l-0.315,0.538l-0.034,0.639l0.275,0.555 l0.336,0.511l0.459,0.32l0.474,0.302l0.167,0.602l0.043,0.642l0.295,0.553l0.436,0.447l0.58,1.485l0.403,0.523l0.562,0.299 l0.688,0.906l0.348,0.518l0.488,0.247l0.504,0.293l0.541,0.203l0.52,0.234l0.553,0.221l0.584,0.029l0.517,0.167l0.521-0.086 l0.5,0.291l0.559,0.351l0.477,0.293l0.584,0.112l1.014,0.037l0.362,0.469l0.323,0.522l0.658,0.252l0.453-0.475l0.572-0.054 l0.557,0.261l0.121,0.606l0.366,0.627l0.44,0.341l0.381,0.477l0.513,0.26l0.603-0.004l0.568-0.411l0.501-0.172l0.505-0.099 l0.502,0.204l0.514,0.113l0.783-0.086l0.574-0.02l0.554,0.039l0.593,0.138l0.551,0.043l0.815,0.328l0.944,0.348l0.521,0.362 l0.268,0.542l0.472,0.322l0.403,0.465l0.565,0.321l0.449,0.313l0.453,0.436l0.111,0.646l0.537,0.358l0.277,0.579l0.781-0.16 l-0.196-0.658l0.188-0.673l-0.179-0.576l-0.241-0.569l0.26-1.022l-0.23-0.877l0.25-0.786l-0.754-0.348l-0.547-0.414l-0.936-0.554 l0.502-0.663l0.549,0.228l0.396,0.479l0.47,0.322l0.296-0.848l0.434-0.333l0.516-0.325l0.425-1.029l0.591,0.224l0.708-0.001 l0.554,0.053l0.664,0.64l0.6,0.06l0.816,0.089l1.033,0.186l0.713,0.403l0.883,0.552l0.736,0.156l0.4,0.425l0.254,0.654 l0.385,0.491l0.529,0.218l0.779,0.207l0.129,0.973l0.595-0.28l0.464-0.272l0.123-0.029l0.154-0.02l0.018-0.015l0.015,0.012 l0.166-0.021l0.011-0.015l0.02-0.002l0.025-0.036h0.008l0.022-0.003l0.021-0.005l0.021,0.011l0.029-0.003l0.01-0.014l-0.003-0.025 l0.05,0.004l0.96-0.189c-0.066-0.051-0.144-0.087-0.201-0.146c0.017-0.221,0.006-0.436-0.027-0.651 c0.455-0.634,0.556-1.583,0.55-2.348l-0.336-0.168l0.3-0.116l-0.001-0.235l-0.13-0.219l0.024-0.216 c0.148-0.093,0.306-0.165,0.473-0.216c-0.016-0.367,0.026-0.732,0.127-1.087c0.334-0.283,0.667-0.57,0.994-0.855l0.4,0.056 c0.208,0.157,0.364,0.357,0.465,0.598c0.561-0.256,0.956-0.659,1.516-0.896l0.482,0.101c0.035-0.359,0.104-0.708,0.215-1.049 l0.271,0.101l-0.025,0.656c0.156,0.214,0.305,0.432,0.451,0.651l0.24,0.021l0.02,0.391l0.312,0.198 c0.514-0.649,0.405-1.492,0.428-2.276c0.236-0.222,0.508-0.395,0.799-0.519c0.363-0.198,0.709-0.407,1.053-0.624l0.182-0.44 c-0.209-0.282-0.469-0.518-0.766-0.697l0.216-0.403l-0.553-0.231l-0.038,0.006l-0.002-0.008H633.285z"/>
</svg>