<?xml version="1.0" encoding="utf-8"?>
<svg viewBox="292.801 872.337 68.81 41.095" width="68.81" height="41.095" xmlns="http://www.w3.org/2000/svg">
  <path fill="#FF9141" d="M300.029,891.812l-0.235,0.663l0.291,0.6L300.039,894l-0.534,0.422l-0.276,0.608l-0.08,0.68l0.243,0.866 l0.128,0.8l0.365,0.471l-0.095,0.645l0.293,0.614l0.29,0.636l-0.299,0.647l-0.525,0.201l-0.543,0.057l-0.536,0.208l-0.531-0.067 l-0.42,0.321l-0.637,0.555l-0.547,0.084l-0.454,0.312l-0.514,0.225l-0.741,0.435l-0.5,0.242l-0.424,0.461l-0.461,0.312 l-0.44,0.478l0.15,0.726l0.482-0.22l0.599,0.001l0.514,0.354l0,0.646l0.508,0.427l0.292,0.604l-0.26,0.554l-0.381,0.393 l-0.567,0.276l-0.478,0.278l-0.391,0.549l-0.154,0.645l-0.06,0.63l0.164,0.652l-0.147,0.631l-0.064,0.62l0.312,0.79l0.101,0.663 l0.906-0.624l0.467,0.322l0.548-0.107l0.522-0.159l0.532-0.216l0.587-0.153l0.837,0.25l0.119-0.589l0.804-0.183l0.755,0.82 l0.479,0.316l0.313-0.529l0.533-0.231l-0.025-1.121l-0.054-0.663l0.417-0.421l0.502,0.266l0.563,0.178l0.47-0.237l0.351-0.545 l0.542-0.065l0.517,0.13l0.688-0.733l0.535-0.199l0.592-0.013l0.764-0.508l-0.03-0.654l-0.262-0.619l-0.341-0.546l-0.239-0.56 l-0.352-0.531l0.172-0.684l0.414-0.378l0.563,0.172l0.496,0.239l0.515,0.143l0.518,0.047l0.497-0.173l0.534-0.161l0.375-0.438 l0.496-0.355l0.608-0.225l0.444-0.271l0.749,0.347l-0.17-1.107l-0.183-0.598l-0.432-0.41l-0.26-0.729l0.369-0.484l0.519,0.074 l0.516-0.019l0.41-0.403l0.564-0.106l0.208-0.604l0.143-0.738l0.145-0.63l-0.088-0.65l0.203-0.659l-0.105-0.622l0.161-0.669 l0.312-0.547l-0.047-0.719l0.328-0.555l0.55,0.142l0.548,0.043l1.078-0.097l0.729,0.183l0.594,0.446l0.541,0.104l0.539,0.231 l0.409-0.378l0.587-0.099l0.619,0.068l0.548,0.115l0.546-0.028l0.573-0.046l0.439,0.438l0.895,0.292l0.501,0.255l0.614,0.27 l0.545,0.274l0.384,0.521l0.256,0.651l0.409,0.486l0.568,0.48l0.769-0.303l0.338-0.563l0.436-0.609l0.136-0.894l0.208-0.551 l0.582-0.159l0.437-0.38l0.449-0.304l0.461-0.248l0.903-0.517l-0.21-0.619l0.134-0.605l0.508-0.076l0.672-0.61l0.479-0.311 l0.602,0.072l0.445-0.275l0.474-0.393l0.554,0.032l0.233,0.646l-0.2,1.042l-0.148,0.616l0.538,0.364l0.521,0.03l0.516-0.025 l0.575,0.017l0.495,0.267l0.475-0.272l0.848-0.144l0.48-0.327l0.555,0.02l0.339,0.53l0.467,0.312l0.405,0.402l0.741,0.041 l0.345,0.511l0.363,0.467l0.118,0.633l-0.249,0.954l0.455,0.37l0.593-0.258l0.317,0.524l0.007,0.646l-0.262,0.535l-0.003,0.67 l0.509,0.309l0.407,0.535l0.6,0.575l0.429-0.356l0.206-0.611l0.42-0.336l0.496-0.186l0.658-0.37l0.458-0.275l0.581-0.122 l0.283-0.55l0.544-0.083l0.389,0.436l0.541,0.163l0.679-0.302l0.524-0.123l0.536-0.119l0.489-0.33l0.362-0.443l0.32-0.494 l0.502-0.305l0.455-0.366l0.398-0.989l0.714-0.441l0.515-0.049l0.343,0.533l1.084,0.207l0.498,0.269l0.469-0.299l0.462-0.28 l0.488-0.463l0.416-0.374l0.461-0.31l0.233-0.594l0.476-0.349l0.458-0.378l0.4-0.388l-0.267-0.594l-0.128-0.633l0.031-0.663 l-0.456-0.385l-0.226-0.579l0.257-1.133l-0.174-0.748l-0.643-0.581l-0.579-0.064l-0.512-0.268l-0.268-0.53l0.103-0.646 l0.128-0.619l-0.266-0.602l-0.069-0.896l-0.514-0.195l-0.579-0.148l-0.903-0.28l-0.174-0.677l-0.326-0.998l-0.083-0.676 l-0.286-0.575l-0.186-0.808l-0.454-0.348l-0.346-0.494l0.191-0.614l0.173-0.729l-0.096-0.621l-0.273-0.654l-0.701-0.05 l-0.109-0.683l-0.411-1.073l-0.493-0.356l-1.369-0.69l-0.192,0.482l-0.847,0.129l-0.558-0.268l-0.074,0.898 c-0.727,0.186-1.455,0.368-2.184,0.556l-0.087,0.8l-0.638,0.337l-0.147,0.725c-1.82,1.049-3.67,1.864-5.715,2.406 c-1.907,0.506-4.979,2.11-6.906,1.268l-0.685-0.886l-0.188,0.834c-0.602,0.383-1.345,0.322-2.048,0.385l-0.267,0.372l-0.649,0.054 c-1.106,1.3-3.391,1.279-4.935,1.608c-1.462,0.315-2.915,0.513-4.395,0.715c-3.074,0.428-5.911-0.136-8.918-0.764 c-1.073,0.358-2.742,0.557-3.632,1.251c-1.043,0.809-1.865,1.415-3.078,1.907l-0.139,0.592l-0.299,0.116 c-0.212,0.405-0.317,0.835-0.312,1.296l-0.882,0.709c-2.104-0.95-4.359-2.434-4.896-4.901l-1.481,0.316l0.71,1.511 c1.594,2.491,2.818,4.161,5.586,5.391l-0.048,1.317l-1.862-1.082c-0.651,0.138-1.333,0.375-2.016,0.539l0.039,0.284 L300.029,891.812z"/>
</svg>