<?xml version="1.0" encoding="utf-8"?>
<svg viewBox="466.452 768.349 49.662 47.601" width="49.662" height="47.601" xmlns="http://www.w3.org/2000/svg">
  <path fill="#8BFFE8" d="M476.749,773.572l-0.538,0.142l-0.529,0.166l-0.697-0.223l-0.568,0.107l-0.109,0.902l-0.531,0.328 l-0.533-0.181l-0.617-0.172l-0.588,0.366l-0.449,0.289l-0.189,0.612l-0.334,0.47l-0.492,0.307l-0.443,0.311l-0.426,0.601 l-0.27,0.892l0.341,0.74l0.027,0.758l-0.362,0.495l-0.432,0.663l0.002,0.757l-0.186,0.573l0.113,0.607l-0.24,0.672l0.057,0.675 l0.129,1.109l0.021,0.829l0.053,0.975l-0.498,0.87l-0.635,0.288l-0.085,0.627l-0.561,0.122l-0.728,0.455l0.13,0.619l0.488,0.27 l0.547,0.278l0.015,0.742l0.464,0.362l0.26,0.701l-0.563,1.061l-0.189,0.582l-0.146,0.65l-0.438,0.437l-0.258,0.572l0.133,0.668 l0.277,0.996l0.383,0.44l0.037,0.646l0.483,0.38l0.513,0.43l0.346,0.493l-0.125,0.676l-0.169,0.619l-0.198,0.671l-0.25,0.617 l0.184,1.166l0.189,0.711l-0.055,0.666l-0.247,0.988l0.374,0.525l-0.371,0.414l-0.346,0.546l0.206,1.122l0.46,0.348l0.402,0.428 l0.174,0.59l0.267,1.067l0.228,1.011l-0.484,0.439l-0.201,0.72l0.23,0.67l0.153,0.642l0.262,0.86l0.946-0.283l0.535-0.104 l0.347-0.472l0.194-0.673l0.131-0.984l-0.256-0.615l0.438-0.295l0.549-0.01l0.383-0.523l0.434-0.814l0.355,1.168l0.473,0.231 l0.341-0.48l0.464-0.547l0.588,0.223l0.515,0.183l0.534,0.119l0.885,0.491l0.481,0.652l0.397,0.575l0.232,0.584l-0.098,0.597 l-0.273,0.685l-0.067,0.631l0.911,0.084l0.339-0.447l0.671-0.509l0.517-0.223l0.241-0.666l0.301-0.576l0.266-0.508l0.518-0.077 l0.33-0.48l0.257-0.767l-0.227-0.558l0.297-0.588l-0.028-1.038l0.453-0.383l0.368-0.421l0.945-0.166l-0.188-0.627l0.424-0.371 l0.243-0.654l0.7-0.711l0.27-0.554l0.275-0.612l0.326-0.527l0.516-0.321l0.418-0.344l0.531,0.093l0.873-0.312l0.312,0.522 l0.445,0.469l0.871-0.433l0.809-0.616l0.368-0.693l0.431,0.401l0.539-0.398l0.561-0.439l0.486,0.216l0.563,0.113l0.485-0.375 l0.459,0.381l-0.082,0.646l-0.271,0.571l0.246,0.568l0.57,0.041l0.426-0.318l0.555-0.242l0.57-0.18l0.183-0.573l0.358-0.479 l0.666-0.33l0.477-0.305l0.378,0.836l0.187,0.586l0.395,0.425l0.554,0.03l0.567,0.104l0.591,0.095l0.688,0.115l0.609,0.167 l0.604-0.856l0.632,0.007l0.485-0.203l0.838,0.339l0.518,0.757l0.602,0.203l0.477,0.481l0.707,0.157l0.6-0.061l0.49-0.331 l0.627,0.116l0.43-0.33l0.386-0.532l-0.075-0.609l0.777-0.773l0.539-0.185l0.154-0.621l0.053-0.666l0.202-0.562l0.441-0.322 l-0.003-0.635l-0.279-0.601l-0.02-0.633l0.588-0.925l0.287-0.517l0.498-0.182l0.562,0.041l0.423-0.468l-0.446-1.167l-0.52,0.161 l-0.119-0.609l0.059-0.647l0.103-0.705l0.536-0.36l0.423-0.385l0.454-0.557l0.473-0.217l0.712-0.011l0.208-0.589l-0.345-0.521 l-0.142-1.157l0.23-0.567l0.068-0.691l-0.104-0.634l0.186-0.956l-0.131-0.645l-0.364-0.518l-0.164-0.629l-0.12-0.722l-0.098-0.611 l0.06-0.656l-0.022-0.645l-0.154-0.69l0.352-0.825l-0.473-0.483l-0.302-0.574l0.13-0.614l-0.494-0.919l-0.469-0.42l-0.427-0.987 l-0.05-0.644l-0.023-0.647l-0.152-0.614l-0.332-0.546l-0.441-0.352l-0.417-0.471l0.108-0.979l-0.089-0.722l-0.104-0.673 l-0.348-0.582l-0.606-0.064l-0.546,0.033l-0.522-0.236l-0.506-0.1l-0.507-0.342l-0.438-0.426l-0.51-0.44l-0.602-0.569 l-0.301-0.324c-0.287,0.102-0.564,0.239-0.857,0.326c-1.754,0.529-2.927,1.414-4.772,1.708c-1.521,0.241-3.302,1.919-4.491,2.86 c1.15,0.598,3.046,0.839,3.955,1.663c-1.502-0.184-2.731-0.642-4.152-1.165l-0.625,1.098l0.697,1.408 c-0.378,1.314-1.072,3.045-1.006,4.422c-1.097,0.967-2.01,1.729-2.694,3.025c-1.679,0.557-3.209,0.592-4.975,0.663l-0.329,1.56 c-0.229-0.484-0.283-1.043-0.115-1.556l-1.705,0.603c-1.023-0.271-2.055-0.52-3.082-0.775l-0.274,0.113l-0.218-0.263 c-0.691-0.218-1.389-0.411-2.092-0.604l-0.304,0.297l-0.441-0.206l-0.378,0.333l0.089-0.979c-1.792-1.164-3.028-2.206-4.472-3.773 l2.1-3.166l-0.327-0.955l0.976-1.391l-0.185-0.118L476.749,773.572z"/>
</svg>