<?xml version="1.0" encoding="utf-8"?>
<svg viewBox="396.81 939.367 52.015 56.867" width="52.015" height="56.867" xmlns="http://www.w3.org/2000/svg">
  <path fill="#7272FF" d="M447.834,976.649l-0.568-0.037l-0.955,0.668l-0.757-0.424l-0.664-1.004l-0.772-0.582l-0.58-0.042 l-0.697-1.256l-0.695-0.695l-1.169-0.46l-0.409-0.438l0.029-0.74l-0.029-0.899l-0.441-1.005l-0.148-0.88l0.15-1.438l-0.639,0.302 l-0.518,0.131l-0.576-0.229l-0.494-0.239l-0.508,0.108l-0.137,0.59l-0.637,0.239l-0.539,0.346l-0.572-0.09l-0.439,0.361 l-0.834-0.195l-0.504-0.291l-0.48-0.355l-0.551,0.09l-0.559,0.01l-0.613,0.102l-0.444,0.297l-0.531-0.005l-0.361,0.523 l-0.244,0.558l-0.592,0.513l-0.571,0.224l-0.539-0.153l0.108-0.617l-0.306-0.639l-1.006-0.23l0.354-0.999l0-0.612l0.118-0.586 l0.118-0.87l0.561,0.148l0.177-0.671l0.065-0.654l-0.131-0.678l-0.25-0.563l-0.632-0.654l-0.509-0.316l-0.523-0.135l-0.542,0.094 l-0.064-0.688l0.067-0.683l-0.263-0.604l-0.508-0.255l-0.339-0.479l-0.521,0.078l-0.485-0.288l-0.524-0.231l-0.606-0.327 l0.404-0.791l-0.252-0.635l0.436-0.358l0.31-0.502l0.454-0.315l0.353-0.56l0.152-0.622l0.049-0.673l0.788-0.75l0.857-0.407 l-0.023-0.688l0.401-0.531l0.415-0.376l-0.208-0.667l-0.301-0.596l0.253-0.563l0.384-0.408l0.53-0.028l0.416-0.437l0.537,0.04 l0.526,0.271l0.497,0.256l0.643,0.124l0.379-0.488l0.416-0.393l0.021-0.771l-0.37-0.542l-0.375-1.069l-0.504-0.354l-0.497-0.376 l-0.532,0.007l-0.579,0.201l-0.354-0.476l-0.054-0.63l-0.338-0.501l-0.112-0.916l-0.468-0.584l-0.106-1.041l0.044-0.664 l-0.359-0.498l-0.262-0.587l-0.641-0.53l-0.525,0.117l-0.543-0.025l-0.628,0.491l-0.534-0.096l-0.456,0.339l-0.578,0.042 l-0.438,0.324l-0.396,0.479l-0.393,0.438l-0.629,0.194l-0.418,0.364l-0.576,0.645l-0.68,0.01l-0.631-0.635l-0.422-0.436 l-0.56,0.653l-0.456,0.366l-0.517-0.061l-0.948,0.238l-0.338,0.506l-0.907,0.025l-0.717,0.741l-0.487,0.205l-0.709,0.013 l-0.559-0.068l-0.5,0.152l-0.544-0.192l-0.317,1.158l-0.631,0.188l-0.532,0.124l-0.188,0.661l-0.408,0.367l-0.359-0.48 l-0.288-0.599l-0.585,0.403l-0.688-0.13l-0.484,0.216l-0.381,0.423l-0.444,0.376l-0.568-0.119l-0.558-0.127l-0.097,0.607 l0.04,0.653l-0.566,0.149l-0.343,0.451l-0.539,0.067l-0.524,0.146l-0.787-0.18l-0.473,0.22l-0.29,0.544l-0.521-0.088l-0.602,0.135 l-0.204-0.624l-0.5-0.308l0.064-0.682l0.019-0.615l-0.726-0.143l-0.182-0.065l-0.827,0.971l0.09,0.722l0.274,0.308l-0.512,0.954 l0.223,0.736c1.055-0.285,2.804-0.008,3.514,0.879l-0.43,0.127l0.861-0.026l0.51,1.823l-0.285,0.245l0.121,0.326l0.407,0.135 l1.171-0.28l0.4-0.387l0.014,1.201l0.557,0.694l-0.097,0.506c0.231,0.127,0.462,0.248,0.7,0.359 c-1.223,0.618-2.249,0.7-3.527,1.141l0.003,0.475l0.351,0.507l-0.097,0.275l-0.569-0.139l-0.075,1.317l-0.554,0.382l0.014,0.756 l-0.46,0.506l-0.408-0.134l0.393,0.422l0.835-0.232l1.564,0.148l0.727,0.591l0.129,0.404l0.508-0.117l0.19,0.264l-0.1,0.248 l0.768,0.069l-0.15,0.486l-0.858,0.263l-0.04,0.321l-0.567,0.277l0.586,0.297l-0.451,0.576c-0.385,0.146-0.771,0.289-1.152,0.432 l-0.384,0.513l-0.334-0.166l-0.359,0.075l-0.05,0.242l-0.195-0.106l-0.233,0.233l0.34,0.221l-0.128,0.253l-0.673,0.057 l-0.074,0.245l0.698,0.357l-0.033,0.58l-0.302,0.116l0.153,0.167l1.474-0.572l0.105,0.194c-0.497,0.312-0.943,0.723-1.24,1.226 l0.234,0.205l-0.966,0.646l-0.079,0.192l0.244,0.073l0.397-0.184l0.002,0.477l0.281,0.354l-0.187,0.419l-0.802,0.069l-0.074,0.247 l0.263,0.437l-0.202,0.524l0.174,0.318c0.292-0.204,0.592-0.408,0.893-0.604c0.707,0.122,1.3-0.217,1.963-0.45 c1.618,0.183,2.047,1.015,2.631,2.409c0.453,1.086,1.511,1.626,2.502,2.066l0.352-0.122l0.998,0.635l0.337,1.06l1.839-0.169 l1.318,0.701l1.108-0.136l0.531,1.32c0.371-0.063,0.733-0.143,1.098-0.237l0.412,0.155l0.077,0.854l0.642-0.338l1.392,0.904 l0.169,0.528l-0.371,0.806l-0.366-0.426l-0.03,0.418l0.242,0.259l-0.816,0.39l-0.035,0.346l-0.5-0.884l-0.47,0.007l-0.454,0.368 l0.408,0.55l-0.763,0.83c0.925,0.493,1.463,0.682,2.51,0.792l0.956,0.771l-0.023,1.076l0.191,0.292l-0.199,0.915l0.56,0.928 l0.347,0.036l0.331,0.375l0.447-0.213l0.249,0.546l0.997,0.224l0.564,0.973c0.668-0.098,1.342-0.193,2.008-0.298l0.289,0.435 l0.931,0.331l0.161,0.452c1.193,0.248,2.075,0.404,3.283,0.279c0.469,0.199,0.825,0.526,1.036,0.976l0.229-0.06l-0.098-0.353 l0.894-0.188l0.741,0.25l0.175-0.493l2.848,1.223l1.021-0.437l0.337,0.427l0.117-0.146l0.553,0.273l1.823-0.538l0.551,0.223 l0.456,0.729c-0.22,0.497-0.634,0.842-1.125,1.083l0.406,0.947l0.691-0.769l0.806,0.163l0.501-0.4l-0.801-1.186 c0.412-1.402,0.596-2.11,1.608-3.133l0.858-0.051l0.135-0.385l0.385-0.073l0.845-0.993l0.429,0.077 c0.71-0.699,1.366-1.402,2.012-2.158l-0.222-0.105l-1.118,0.452l1.207-0.829l-0.172-0.739l0.705,0.409l1.2-0.458l0.003-1.075 l-0.432,0.158c-0.149-0.206-0.316-0.396-0.512-0.567L446,985.225c-0.067-0.432-0.049-0.866,0.052-1.288l0.72-0.327l-0.102-0.824 l-0.854-0.342c0.569-0.474,1.058-1.008,1.822-1.142l0.189,0.451c0.218-0.291,0.298-0.619,0.248-0.975l-0.443,0.238 c-0.123-0.381-0.194-0.815-0.208-1.233l0.589-0.543c0.182-0.862,0.436-1.469,0.812-2.145l-0.902-0.428L447.834,976.649z"/>
</svg>