<?xml version="1.0" encoding="utf-8"?>
<svg viewBox="544.166 825.662 49.551 47.832" width="49.551" height="47.832" xmlns="http://www.w3.org/2000/svg" xmlns:bx="https://boxy-svg.com">
  <polygon fill="#8BFFE8" points="580.957,829.578 580.426,829.644 579.932,829.986 579.437,830.268 578.908,830.077 &#10;&#9;&#9;&#9;577.992,829.479 577.483,829.135 576.874,829.225 576.388,829.415 575.804,829.342 575.061,829.164 574.448,829.008 &#10;&#9;&#9;&#9;574.214,828.449 573.941,827.809 573.485,827.512 572.847,827.602 572.342,827.469 571.373,827.384 570.805,827.243 &#10;&#9;&#9;&#9;570.293,827.345 569.77,827.334 569.416,827.792 569.055,828.276 568.679,828.797 568.576,829.498 568.177,829.938 &#10;&#9;&#9;&#9;567.346,829.734 566.791,829.89 566.247,830.197 565.678,830.267 565.1,830.146 564.807,829.579 564.65,828.965 564.781,828.362 &#10;&#9;&#9;&#9;564.369,827.973 563.94,827.584 563.422,827.604 563.073,828.043 562.543,827.817 562.005,827.885 561.463,828.047 &#10;&#9;&#9;&#9;560.871,828.093 559.958,827.913 559.406,828.067 559.06,828.553 558.959,829.171 558.264,829.47 557.739,829.54 557.211,829.254 &#10;&#9;&#9;&#9;556.721,829.048 556.338,828.36 556.42,827.698 556.619,827.084 556.16,826.666 555.623,826.343 555.117,826.159 554.531,826.141 &#10;&#9;&#9;&#9;554.031,825.985 553.449,825.898 552.862,825.742 552.291,825.662 551.769,826.362 551.778,827.011 551.338,827.331 &#10;&#9;&#9;&#9;551.152,827.93 551.082,828.573 550.742,829.047 550.439,830.013 550.09,830.572 549.758,831.013 549.498,831.536 &#10;&#9;&#9;&#9;549.237,832.079 548.93,832.582 548.588,833.042 548.004,832.769 547.623,832.315 547.109,831.974 546.528,831.7 546.063,832.067 &#10;&#9;&#9;&#9;545.767,832.933 545.563,833.692 545.338,834.284 545.129,834.884 544.792,835.621 544.858,836.312 544.526,836.84 &#10;&#9;&#9;&#9;544.166,837.314 544.308,837.979 544.819,838.323 545.663,838.624 546.176,838.984 546.695,839.203 546.641,839.847 &#10;&#9;&#9;&#9;546.012,840.488 545.653,841.02 545.267,841.437 544.848,841.891 544.465,842.313 544.682,842.936 545.156,843.393 &#10;&#9;&#9;&#9;545.293,843.999 545.307,844.622 545.61,845.122 546.092,845.442 546.407,846.091 546.889,846.547 547.559,847.023 &#10;&#9;&#9;&#9;547.566,847.65 547.938,848.152 548.092,848.771 548.461,849.325 548.379,849.946 548.781,850.878 548.979,851.485 &#10;&#9;&#9;&#9;549.544,851.809 549.739,852.387 549.706,853.023 550.051,853.603 550.31,854.272 550.057,854.875 550.066,855.486 &#10;&#9;&#9;&#9;550.122,856.251 550.049,856.907 549.68,857.368 549.807,858.234 550.262,858.702 550.548,859.292 550.589,859.982 &#10;&#9;&#9;&#9;550.526,860.845 550.136,861.251 550.048,861.922 549.726,862.487 549.829,863.134 550.401,863.251 550.695,863.786 &#10;&#9;&#9;&#9;550.944,864.369 551.041,865.054 550.967,865.664 551.261,866.161 551.831,866.325 552.345,866.679 552.86,866.755 &#10;&#9;&#9;&#9;553.223,866.278 553.717,865.896 554.194,865.501 554.67,865.183 555.211,865.176 555.656,865.622 556.237,865.66 556.74,865.871 &#10;&#9;&#9;&#9;557.156,866.345 557.137,867.427 557.254,868.106 557.518,868.682 558.029,869.346 558.585,870.259 558.807,871.267 &#10;&#9;&#9;&#9;559.05,871.897 559.35,872.459 559.936,872.265 560.499,872.589 560.864,873.104 561.291,873.494 561.881,873.456 &#10;&#9;&#9;&#9;562.445,873.437 563.049,873.415 563.602,873.459 564.506,873.417 564.832,872.911 565.174,872.467 565.656,871.757 &#10;&#9;&#9;&#9;566.172,871.599 566.022,871.005 565.965,870.192 565.597,869.607 565.19,868.467 564.813,867.997 564.992,867.414 &#10;&#9;&#9;&#9;564.942,866.76 564.739,866.186 564.477,865.592 564.303,864.987 564.653,864.471 564.949,863.961 565.246,863.309 &#10;&#9;&#9;&#9;564.943,862.699 564.853,862.07 564.797,861.419 564.592,860.759 564.887,860.233 564.678,859.613 564.574,858.977 &#10;&#9;&#9;&#9;565.297,858.155 565.66,857.656 565.959,857.169 566.35,856.8 566.832,856.374 567.207,856.869 567.727,857.135 567.987,857.825 &#10;&#9;&#9;&#9;568.3,858.631 568.709,859.375 569.229,859.188 570.086,858.901 570.717,858.822 571.322,858.749 571.809,859.188 &#10;&#9;&#9;&#9;572.323,860.624 572.772,861.061 573.304,860.903 573.771,860.613 574.281,860.464 574.955,860.391 576.264,859.829 &#10;&#9;&#9;&#9;576.88,859.605 577.404,859.53 578.073,859.325 578.565,859.219 579.171,859.145 579.836,858.984 580.256,858.483 580.725,858.18 &#10;&#9;&#9;&#9;581.485,858.011 581.95,858.335 582.56,858.151 583.026,857.8 583.484,857.39 584.136,856.952 584.207,856.32 584.694,855.723 &#10;&#9;&#9;&#9;584.438,855.131 584.594,854.522 584.84,853.965 585.297,853.578 585.674,853.16 586.194,852.872 586.703,852.663 &#10;&#9;&#9;&#9;587.162,852.299 587.665,852.059 588.252,851.952 588.742,851.633 589.169,851.295 589.518,850.788 589.874,850.01 &#10;&#9;&#9;&#9;590.156,849.511 590.96,849.476 591.516,849.308 591.981,849.043 592.364,848.484 592.779,848.075 593.071,847.576 &#10;&#9;&#9;&#9;592.955,846.734 593.412,846.261 593.717,845.697 593.586,845.043 593.174,844.32 593.533,843.79 593.596,842.508 &#10;&#9;&#9;&#9;593.133,842.184 592.922,841.604 592.744,840.741 592.627,839.876 592.973,839.098 592.496,838.807 591.94,838.456 &#10;&#9;&#9;&#9;591.438,838.165 590.916,838.251 590.401,838.084 589.817,838.055 589.26,837.834 588.74,837.6 588.2,837.396 587.696,837.105 &#10;&#9;&#9;&#9;587.207,836.856 586.86,836.341 586.174,835.435 585.61,835.136 585.207,834.61 584.629,833.127 584.194,832.68 583.897,832.127 &#10;&#9;&#9;&#9;583.856,831.485 583.688,830.886 583.215,830.584 582.753,830.264 582.416,829.755 582.141,829.202 581.503,829.606 &#9;&#9;"/>
  <text x="549.231" y="849.98" style="white-space: pre; fill: rgb(51, 51, 51); font-family: sans-sarif; font-weight: bold; font-size: 13.2px;">山梨県</text>
</svg>