<?xml version="1.0" encoding="utf-8"?>
<svg viewBox="591.491 622.646 56.322 84.834" width="56.322" height="84.834" xmlns="http://www.w3.org/2000/svg">
  <path fill="#FFE65E" d="M633.858,691.121l0.156-0.696l0.342-0.652l-0.348-0.479l-0.235-0.586l-0.296-0.56l0.254-0.707l-0.34-0.534 l0.54-0.273l0.534,0.127l0.502-0.157l0.541,0.069l0.645-0.119l0.562,0.02l0.551-0.252l0.559,0.004l0.734-0.408l0.086-0.602 l0.576,0.006l0.501-0.257l0.48-0.39l0.269-0.656l-0.188-0.604l0.018-0.625l0.074-0.682l0.374-0.521l0.61-0.307l-0.046-0.767 l0.39-0.57l0.501-0.32l0.126-0.625l0.182-0.563l0.25-0.521l-0.153-0.652l-0.251-0.545l-0.288-0.602l0.087-0.633l-0.367-0.482 l-0.029-0.656l0.014-1.247l0.137-0.63l0.618-0.259l0.351-0.522l-0.315-0.597l0.431-0.794l0.453-0.39l0.537-0.394l0.236-0.594 l-0.41-0.815l-0.177-0.604l0.233-0.592l0.452-0.275l0.474-0.34l0.17-0.574l0.502-0.145l0.377-0.656l0.253-0.53l-0.274-0.582 l0.135-1.069l0.086-0.635l0.194-0.564l0.552,0.193l0.391-0.504l0.632-0.762l-0.599-0.161l-0.075-0.614l-0.344-0.496l-0.31-0.535 l-0.61-0.145l-0.567-0.141l-0.48-0.492l-0.183-0.599l0.084-0.621l-0.533-0.327l-0.313-0.571l0.438-0.43l0.212-0.616l0.124-0.643 l-0.062-0.674l-0.182-0.615l-0.357-0.473l-0.278-0.6l-0.456-0.387l-0.354-0.451l-0.381-0.529l-0.147-0.678l0.205-0.573 l0.858,0.017l0.395,0.539l0.544,0.094l0.553,0.021l0.428-0.374l0.233-0.593l0.097-0.66l0.295-0.782l0.141-0.877l-0.115-0.939 l-0.541-0.031l-0.262-0.641l0.078-0.682l0.428-1.065l0.414-0.845l0.161-0.584l0.415-0.382l-0.381-0.526l-0.875,0.18l-0.514-0.328 l-0.508-0.146l-0.31-0.695l-0.161-0.656l0.043-0.669l-0.356-0.493l-0.448-0.508l-0.549-0.226l-0.582-0.347l-0.503-0.377 l-0.482-0.295l-0.481-0.365l0.475-0.93l-0.761-0.992l-0.574,0.183l-0.534-0.083l-0.545,0.383l-0.831-0.679l-0.47-0.456 l-0.545,0.143l-0.568-0.299l-0.234-0.573l-0.556-0.889l0.087-0.668l-0.205-0.597l-0.293-0.555l-0.487-0.328l-0.354-0.547 l-0.568,0.045l-0.572-0.004l-0.558,0.188l-0.528-0.03l-0.527-0.06l-0.544-0.553l-0.387-0.53l-0.19-0.657l-0.613,0.111l-0.54-0.19 l-0.514-0.293l-0.501,0.318l-0.117,0.725l-0.426,0.32l-0.573-0.137l-0.421-0.511l-0.52-0.118l-0.539,0.007l-0.596,0.01 l-0.52,0.147l-0.556,0.276l-0.608-0.058l-0.517-0.12l-0.619-0.145l-0.041-0.677l-0.084-0.686l-0.521-0.085l-0.487,0.229 l-0.468,0.411l-0.552,0.006l-0.596,0.15l-0.354-0.531l-0.594-0.052l-0.851-0.421l-0.462-0.43l-0.566-0.166l-0.541-0.005 l-0.777-0.05l-0.428-0.789l-0.332-0.759l-0.11-1.21l-2.45,0.902l-0.719,0.59l-0.103,0.637l-0.562-0.102l-1.95-0.029l-1.128-0.055 l-1.069-0.039l-1.606,0.037l-0.266-0.004l-0.007,0.012l0.007-0.012l-0.188,0.021c-0.05,0.049-0.075,0.106-0.132,0.151l0.621,1.233 l-0.498,1.268l0.441,0.182c-0.431,1.385-0.235,2.775-0.639,4.188c-0.469,1.613-0.934,3.227-1.398,4.84l1.082,0.913l-0.529,0.171 l-0.695-0.545c-0.193,2.503-0.742,4.771-1.332,7.217c-0.522,2.143-2.235,3.297-2.944,5.303l-0.672,0.294l-0.104,0.457 l-0.369-0.007c-0.725,1.084-1.558,1.708-2.345,2.674c-0.832,1.012-0.615,2.418-1.363,3.387l0.068,0.355 c-0.844,0.744-1.094,2.231-1.486,3.252l-0.23,0.055l-0.391,0.858l0.078,0.199l0.479,0.046l0.193,0.361l0.375-0.018l0.873,0.281 l0.5,0.201l0.529,0.252l0.513,0.23l0.595,0.309l0.486-0.158l0.508-0.127l0.578,0.275l0.367,0.479l0.613,0.12l0.627-0.103 l0.574,0.039l0.549-0.01l0.865,0.066l0.681,0.201l0.706,0.631l-0.354,0.448l-0.16,0.606l0.179,0.603l0.31,0.536l-0.016,0.615 l0.101,0.693l-0.089,0.611l-0.396,0.855l0.035,0.645l0.348,0.584l0.422-0.403l0.48,0.352l0.207,0.622l0.425,0.379l0.498,0.32 l0.712-0.032l0.503,0.333l0.541,0.021l0.506,0.133l0.507-0.199l0.499-0.255l0.568,0.162l0.505,0.392l0.541,0.032l0.964,0.541 l0.447,0.35l0.573,0.467l0.286,0.58l0.518,0.301l0.546,0.387l0.117,0.648l-0.317,0.844l-0.433,0.406l-0.212,0.566l-0.467,0.999 l-0.229,0.663l-0.512,0.354l-0.511,0.263l-0.503,0.333l-0.409,0.364l-0.487,0.344l-0.441,0.443l-0.42,0.418l-0.645-0.064 l-0.627,0.027l-0.5,0.379l-0.671-0.324l-0.543,0.022l-0.543-0.151l-0.608,0.082l-0.322,0.504l-0.185,0.562l-0.371,0.416 l-0.192,0.682l0.217,0.721l0.355,0.467l0.066,0.629l0.018,0.71l0.146,0.616l-0.177,0.57l-0.33,0.643l-0.129,0.895l0.937,0.838 l0.196,0.895l-0.39,0.439l-0.276,0.561l-0.498,0.143l-0.463,0.328l-0.039,0.615l0.104,0.684l0.01,0.695l-0.349,0.504l-0.196,0.643 l0.145,0.664l0.27,0.557l-0.108,0.688l0.075,0.617l-0.082,0.65l-0.313,0.495l-0.069,1.114l0.365,0.525l0.275,0.795l0.518,0.391 l0.576,0.283l0.306,0.621l0.517,0.256l0.539,0.242l0.729,0.08l0.485-0.338l0.617-0.125l0.284,0.672l0.458,0.408l0.64,0.672 l0.938-0.115l0.529-0.387l0.521-0.197l0.521,0.157l0.405,0.504l0.493,0.327l0.407,0.476l0.384-0.446l0.473-0.307l0.498-0.146 l0.396-0.377l0.485-0.439l0.521,0.217l0.535,0.472l0.629,0.072l0.549-0.092l0.502-0.25l0.543-0.038l0.324-0.517l0.421-0.456 l0.466,0.484l0.506,0.158l0.446,0.555l-0.026,0.613l0.496,0.402l0.238,0.621l0.404,0.514l0.467,0.455l0.665-0.082l0.545-0.246 l0.497-0.06l0.506-0.325l0.473-0.206l0.355-0.583l0.373,0.458l0.532,0.128l0.329,0.572l0.549,0.018l0.525,0.145l0.674,0.8 l0.512,0.074l0.619,0.081l0.521-0.357l0.403-0.443l0.318-0.541l0.512-0.267l0.548-0.034l0.611-0.041l0.665,0.055l1.073,0.249 l0.516-0.013l0.659-0.556l0.604-0.725l0.316-0.526l0.262-0.537l0.441-0.361l0.148-0.604l0.388-0.447l0.141-0.607l-0.53-0.231 l-0.487-0.243l-0.511-0.341l-0.164-1.071l-0.107-0.619l0.125-0.641l-0.141-0.641l-0.135-0.646l-0.081-0.662l-0.22-0.617 l0.371-1.042l0.148-0.667l-0.123-0.629l-0.303-0.699l-0.168-0.654l0.336-0.589l-0.109-0.243L633.858,691.121z"/>
</svg>
