<?xml version="1.0" encoding="utf-8"?>
<svg viewBox="183.986 946.075 83.485 51.323" width="83.485" height="51.323" xmlns="http://www.w3.org/2000/svg" xmlns:bx="https://boxy-svg.com">
  <path fill="#FF9141" d="M253.219,970.18l-0.563,0.324l-0.43-0.36l-0.651,0.01l-0.492,0.228l-0.907-0.243l-0.426,0.349l-0.488-0.37 l-0.287-1.029l-0.405-0.408l-0.322-0.53l0.096-0.72l-0.367-0.58l-0.469-0.336l-0.143-0.909l0.158-0.728l-0.336-0.55l-0.457,0.265 l-0.712-0.294l-0.164-0.591l-0.486-0.218l-0.468-0.325l-0.615,0.127l-0.005-0.676l0.008-0.618l0.16-0.611l-0.386-0.476l0.09-0.604 l-0.301-0.546l0.303-0.763l-0.108-0.717l-0.018-0.63l-0.618-1.113l-0.362-0.533l-0.333,0.583l-0.725,0.074l-0.444,0.387 l-0.436,0.345L240.873,958l0.073,0.674l-0.377,0.413l-0.481,0.288l-0.287,0.857l0.444,0.423l0.281,0.675l0.354,0.543l0.313,0.503 l0.043,0.651l-0.56,0.121L240.24,964l-0.37,0.553l-0.262,0.537l-0.086,0.625l-0.432,0.546l-0.282,0.537l-0.504-0.539l-0.439-0.364 l-0.489-0.313l-0.555-0.181l-0.395,0.671l-0.479,0.537l-0.508-0.24l-0.202,0.583l-0.607,0.533l-0.876,0.189l-0.536-0.216 l-0.578,0.037l-0.694,0.578l-0.43-0.515l-0.687-0.207l-0.272-0.57l-0.57-0.205l-0.544-0.433l0.099-0.622L229,964.9l-0.24-0.658 l-0.078-0.806l0.326-0.628l0.46-0.392l0.056-0.638l0.253-1.048l-0.098-0.6l-0.695,0.138l-0.559,0.057l-0.486,0.182l-0.512-0.098 l-0.348,0.492l-0.517-0.072l-0.512,0.224l-0.651-0.114l-0.523-0.114l-0.322-0.536l0.015-0.63l-0.189-0.704l0.235-0.575 l-0.55-0.243l-0.503-0.283l-0.195-0.612l-0.566-0.443l0.23-0.536l0.362-0.437l0.534-0.325l0.366-0.521l0.069-0.68l-0.254-0.574 l-0.015-0.863l0.596-0.13l0.446-0.416l-0.327-0.854l-0.116-0.603l-0.183-0.593l-0.396-0.455l-0.566-0.059l-0.326-0.561 l0.049-0.776l-0.183-0.579l-0.38-0.501l-0.512-1.248l-0.514,0.127l-0.304-0.14c0.057,0.242,0.12,0.486,0.187,0.729l-0.386,0.493 l-0.304-0.119c-0.201,0.127-0.387,0.281-0.543,0.459l0.104,0.431l-0.282-0.174l0.071-0.688c-0.425-0.357-0.992-0.492-1.542-0.412 L218,947.426l-0.084,0.611l-0.35,0.332l0.253,0.149l-0.158,0.622l0.798,0.11l-0.2,0.518l-1.08-0.07l-0.071,0.268l-0.304-0.119 l-0.618,0.523l0.024,1.033l-0.227,0.293l0.242,0.463c0.008,1.371-1.91,2.523-2.619,3.627l-1.079,0.186l-0.323-0.275l-0.737,1.452 l0.281,0.176l-0.119,0.301l0.339-0.012l0.492,0.593c-0.128,0.305-0.249,0.618-0.356,0.935l-0.805,0.044l0.243,0.287l-0.027,0.42 l-0.562,0.12l0.078,0.409l-0.71,0.823l-1.084-0.285l-0.087,0.796l0.929-0.138l0.612,0.311l-0.576,0.206l0.21,0.212l-0.206,0.262 l0.267,0.23l-0.697,0.085l-0.092,0.321l-1.088,0.296l0.151,0.165l-0.138,0.173l-0.988,0.254l-0.928-0.306l-0.483,0.771 l0.007,0.891c-0.904,0.573-1.318,0.697-2.37,0.759l0.046-0.266h-0.446l-0.524,0.434l-0.396-0.45l0.099,0.588l-0.306,0.038 l-0.587-0.504l-0.387,0.256l-0.12-0.324l-0.278,0.717l0.284,0.379l-0.401,0.364l-0.456-0.074l-0.465-1.438l0.692-0.348 l-0.399-0.473l0.129-0.434l0.621-0.499l0.032,0.265l1.13-0.407l0.273,0.312l0.417-0.024l-0.235-0.207l0.178-0.258l-0.411-0.135 l-0.123-0.562c-0.833-0.043-1.626,0.635-2.336,1.021l-0.52-0.172l-0.428,0.342l-0.743-0.303l-0.217,0.186l0.229,0.152l0.157,1.053 l1.219,0.771l-0.531,1.007l-1.116,0.505l-1.283-1.051l-0.479-1.562l-0.788,0.616c-0.769-0.378-1.325-0.668-2.202-0.642 c-1.078,0.772-2.078,1.378-3.456,0.869l0.082-0.615c-0.643-0.209-1.287-0.314-1.774-0.802l-0.017,0.711l-0.576,0.229l-0.119,1.165 l-0.879,0.528l-0.123,0.695l1.168,0.121l-0.163-1.108l0.861-0.027l0.646,0.363l0.729-0.057l0.745-0.537 c0.295,0.718,0.852,1.115,1.43,1.605l-0.382,0.308l-1.561,0.088c-0.875,0.596-1.956,1.672-3.037,1.708l-0.368,0.414l-0.316-0.433 l-0.274,0.111l-0.567-0.559l-0.313,0.013l-0.075,0.872l-0.291,0.405c0.163,0.716,0.411,1.457,0.398,2.177l-0.257-0.179 l-0.034,0.818l-0.494,0.219l-0.086,0.797c1.143,0.751,1.757,1.745,2.809,2.614l-0.042,1.159l0.626,0.417 c0.562,1.477,0.132,2.438-0.73,3.631l-0.316-0.018l-0.076,0.245l0.287,0.415l-0.191,0.362l-0.55,0.225l-0.149-0.37l-0.26,0.003 l-0.599,0.467l0.08,1.064l-0.23,0.473l0.125,0.373l0.45,0.262l0.102,0.614l0.567,0.141l-0.197,0.313 c0.31,0.48,0.708,0.897,1.213,1.163l-0.034-0.709l0.146-0.066c0.562,0.465,0.867,1.166,0.812,1.891l-0.539,0.535l0.652,0.394 l0.248,0.546l-0.203,0.891c0.47,1.236,0.498,1.774,0.329,3.102l-0.357,0.069l-0.184,0.442l-1.015-0.586l-0.284,0.242l0.48,0.493 l0.614,0.107c0.315,0.253,0.496,0.577,0.54,0.982l0.285-0.245l-0.078,0.637l0.902,0.1l0.25-0.74l-0.308-0.801l0.2-0.076 l-0.388-0.606l0.841-0.183l2.625-2.521l-0.107-0.432l0.296-0.59l-0.367-0.431l0.543-0.902l0.402,0.293l0.384-0.492l-0.195-0.529 l0.444-0.444l0.298-1.399l0.192,0.054l0.324,0.953c0.523,0.109,1.041,0.221,1.56,0.335l0.656-0.213 c0.892,0.549,1.521,1.448,2.209,2.217l0.525-0.198l0.312-1.11l0.293,1.326l0.518,0.174l0.482-0.346l0.16,0.243l-0.256,0.686 l0.335,0.379l0.017,0.571l-0.555,0.383l0.083,0.461l1.247,1.184l-0.045-0.569c0.258-0.207,0.565-0.335,0.9-0.375l0.315,0.456 l0.968-0.667l0.202,0.577l-0.565,0.515l0.644,0.55l1.137-0.769l1.062,0.104l0.178-0.675c1.149-0.099,2.787-1.62,3.637-2.384 l-0.35-0.722l0.682-0.838c0.051-0.642,0.089-1.285,0.129-1.928l0.654-0.654l-0.024-1.047l0.341-0.201l0.285-0.689l0.434,1.204 l-0.451,0.37l-0.031,0.605l1.088,0.127l-0.924,1.844l0.174,0.576c0.463-0.452,0.741-1.073,0.785-1.718l0.495-0.451l0.411,0.369 l-0.202,1.332l0.392-0.018l0.461,0.361l0.006-0.603l0.532-0.144l0.234,0.385l0.234,0.001l0.134-0.411 c-0.48-0.161-0.928-0.466-1.184-0.902l1.259,0.239l0.706-0.873l-0.626-0.395l-0.087-0.304l0.239-0.605l0.477,0.699l0.717-1.005 l0.297,0.069l-0.315,0.849l0.878,0.312l-0.276,0.747l0.641-0.11l1.035,0.526l0.338-0.219l-0.157-0.426l2.042-1.301l-0.014-1.386 l0.467,0.179l0.236,0.864l0.411,0.342l1.129-1.478l0.551-0.197l0.238,0.44c0.436-0.135,0.874-0.277,1.309-0.421l0.218-0.785 l0.634,0.052l-0.122,0.302l0.423,0.026l0.118-0.538l0.402-0.36l0.567,0.139l0.247-0.347l0.541-0.066l0.34-0.643l0.734,0.225 c-0.033,0.479,0.066,0.928,0.298,1.354l0.443-0.24l-0.187-0.422l1.096-0.265l0.728,0.825l1.183,0.223l0.141,0.294l-0.16,0.625 l-1.013,0.491l-0.719,1.189l0.204,0.601l-0.683,0.426l0.392,0.397l1.127-0.19l0.217,0.261l0.58,0.03l0.23-0.474l-0.373-0.264 l-0.626,0.022l-0.36-0.377l1.008-0.331l0.657-1.26c0.332-0.067,0.664-0.132,0.997-0.196l0.658,0.442l0.082,0.88l0.928-0.114 c0.338,0.324,0.675,0.65,1.01,0.977l0.667,0.098l1.198,1.007c0.842-0.21,1.515,0.148,1.965,0.858l-0.218,0.341l0.202,0.573 l0.329-0.09l-0.188-0.263l0.419-0.422l2.382,1.254c0.611-0.26,1.112-0.719,1.437-1.303l-0.164-0.265l0.572-0.256l-0.09,0.563 l-0.581,0.594l1.17,0.143c0.433,0.915,1.831,1.475,2.558,2.254c0.035,0.604,0.143,1.247,0.549,1.714l1.099-0.005 c0.26-0.312,0.518-0.62,0.776-0.932l0.067-0.53c-0.441-0.339-0.775-0.767-0.896-1.308l-0.877-0.548l0.243-0.372l-0.278-0.121 c-0.292-1.399-0.443-2.354-1.271-3.51l3.595-0.599c0.949-2.15,1.197-3.171,0.995-5.547l-0.636-0.681 c-0.011-1.426-0.411-2.308-0.966-3.629l1-0.593l-0.015-0.966l0.716,0.906l0.522-1.923l-0.692-0.308l0.67-0.294l-0.994-1.499 l0.324-0.326l0.004-0.632l-0.517-0.035c0.157-0.162,0.313-0.322,0.478-0.479l-0.488-0.699l-0.036,0.039L253.219,970.18z M252.891,990.284l0.526,0.217c0.123,0.186,0.198,0.386,0.23,0.603l0.407,0.106 c0.113,0.487,0.35,0.951,0.71,1.3l0.394-0.412l0.012-0.553c0.797-0.159,1.804-0.29,2.569,0.025l0.232-0.239l-0.205-0.394 c0.005-0.201,0.062-0.389,0.165-0.57l0.446,0.002l0.062,0.279l0.34-0.014l-0.026-0.414c0.369,0.038,0.742,0.066,1.11,0.069 l0.265-0.19l0.024,0.417l0.837-0.023l-0.537,0.748c0.055,0.246,0.173,0.451,0.366,0.607l0.512-0.09 c0.35-0.314,0.79-0.412,1.271-0.315c0.129-0.337,0.186-0.698,0.156-1.063l-0.572-0.427c0.447-0.451,0.659-1.069,0.708-1.686 c0.411-0.009,0.812-0.075,1.204-0.198l0.279,0.123c0.407-0.353,0.706-0.816,0.911-1.32l0.601-0.018l0.223-0.313 c0.568-0.087,1.048-0.418,1.355-0.904l0.005-0.18c-0.469,0.114-0.935,0.262-1.387,0.434c-0.548-0.241-1.162-0.257-1.75-0.176 c-0.301,0.392-0.476,0.855-0.57,1.349l-0.497,0.433c-0.314,0.065-0.634,0.105-0.954,0.119c-0.462,0.368-0.78,0.904-0.864,1.487 c-0.412,0.116-0.83,0.199-1.251,0.264l-0.118-0.957c-0.421,0.128-0.866,0.203-1.284,0.212c-0.035-0.396-0.059-0.795-0.068-1.197 c-0.433-0.542-0.964-0.979-1.345-1.562c-0.235,0.088-0.449,0.223-0.633,0.39l-0.347-0.27c-0.326,0.017-0.646-0.05-0.941-0.2 c-0.245,0.313-0.576,0.493-0.983,0.539c-0.21,0.225-0.409,0.458-0.596,0.703l-0.603-0.212l-0.46,0.29 c0.169,0.269,0.263,0.568,0.265,0.888l-0.579,0.411C252.721,988.999,252.842,989.633,252.891,990.284z"/>
  <text x="194.788" y="980.899" style="white-space: pre; fill: rgb(51, 51, 51); font-family: sans-sarif; font-weight: bold; font-size: 14px;">山口県</text>
</svg>